G75*
%MOIN*%
%OFA0B0*%
%FSLAX25Y25*%
%IPPOS*%
%LPD*%
%AMOC8*
5,1,8,0,0,1.08239X$1,22.5*
%
%ADD10C,0.00000*%
%ADD11C,0.00300*%
%ADD12C,0.00800*%
%ADD13C,0.00500*%
%ADD14C,0.00200*%
%ADD15C,0.00600*%
%ADD16C,0.02600*%
%ADD17R,0.02600X0.03000*%
%ADD18R,0.02600X0.02600*%
%ADD19R,0.02600X0.03200*%
%ADD20C,0.00400*%
%ADD21R,0.00787X0.00787*%
%ADD22R,0.00591X0.00984*%
D10*
X0016800Y0033989D02*
X0016800Y0163910D01*
X0134910Y0163910D01*
X0134910Y0033989D01*
X0016800Y0033989D01*
D11*
X0019231Y0037889D02*
X0021166Y0037889D01*
X0021650Y0038373D01*
X0021650Y0039340D01*
X0021166Y0039824D01*
X0021166Y0040835D02*
X0021650Y0041319D01*
X0021650Y0042287D01*
X0021166Y0042770D01*
X0019231Y0042770D01*
X0018748Y0042287D01*
X0018748Y0041319D01*
X0019231Y0040835D01*
X0021166Y0040835D01*
X0019231Y0039824D02*
X0018748Y0039340D01*
X0018748Y0038373D01*
X0019231Y0037889D01*
X0018748Y0043782D02*
X0019715Y0044749D01*
X0018748Y0045717D01*
X0021650Y0045717D01*
X0021650Y0046729D02*
X0018748Y0046729D01*
X0018748Y0048180D01*
X0019231Y0048664D01*
X0020199Y0048664D01*
X0020683Y0048180D01*
X0020683Y0046729D01*
X0021166Y0049675D02*
X0019231Y0049675D01*
X0018748Y0050159D01*
X0018748Y0051126D01*
X0019231Y0051610D01*
X0021166Y0051610D01*
X0021650Y0051126D01*
X0021650Y0050159D01*
X0021166Y0049675D01*
X0018748Y0052622D02*
X0018748Y0054557D01*
X0018748Y0053589D02*
X0021650Y0053589D01*
X0021650Y0055568D02*
X0021650Y0057503D01*
X0021166Y0058515D02*
X0021650Y0058998D01*
X0021650Y0059966D01*
X0021166Y0060450D01*
X0020683Y0060450D01*
X0020199Y0059966D01*
X0020199Y0058998D01*
X0019715Y0058515D01*
X0019231Y0058515D01*
X0018748Y0058998D01*
X0018748Y0059966D01*
X0019231Y0060450D01*
X0018748Y0057503D02*
X0018748Y0055568D01*
X0021650Y0055568D01*
X0020199Y0055568D02*
X0020199Y0056536D01*
X0020236Y0064670D02*
X0022171Y0064670D01*
X0022655Y0065153D01*
X0022655Y0066121D01*
X0022171Y0066604D01*
X0022655Y0067616D02*
X0022655Y0069551D01*
X0022655Y0068584D02*
X0019753Y0068584D01*
X0020720Y0067616D01*
X0020236Y0066604D02*
X0019753Y0066121D01*
X0019753Y0065153D01*
X0020236Y0064670D01*
X0020236Y0070563D02*
X0019753Y0071046D01*
X0019753Y0072014D01*
X0020236Y0072498D01*
X0022171Y0070563D01*
X0022655Y0071046D01*
X0022655Y0072014D01*
X0022171Y0072498D01*
X0020236Y0072498D01*
X0020236Y0070563D02*
X0022171Y0070563D01*
X0041057Y0092189D02*
X0041057Y0095091D01*
X0042508Y0095091D01*
X0042992Y0094608D01*
X0042992Y0093640D01*
X0042508Y0093156D01*
X0041057Y0093156D01*
X0042024Y0093156D02*
X0042992Y0092189D01*
X0044003Y0092189D02*
X0045938Y0092189D01*
X0044971Y0092189D02*
X0044971Y0095091D01*
X0044003Y0094124D01*
X0047307Y0093923D02*
X0047791Y0093439D01*
X0048758Y0093439D01*
X0049242Y0093923D01*
X0050253Y0093923D02*
X0050737Y0093439D01*
X0051705Y0093439D01*
X0052188Y0093923D01*
X0052188Y0095858D01*
X0051705Y0096341D01*
X0050737Y0096341D01*
X0050253Y0095858D01*
X0050253Y0095374D01*
X0050737Y0094890D01*
X0052188Y0094890D01*
X0049242Y0095858D02*
X0048758Y0096341D01*
X0047791Y0096341D01*
X0047307Y0095858D01*
X0047307Y0093923D01*
X0037725Y0102889D02*
X0035790Y0102889D01*
X0036757Y0102889D02*
X0036757Y0105791D01*
X0035790Y0104824D01*
X0034778Y0105308D02*
X0034778Y0103373D01*
X0034294Y0102889D01*
X0032843Y0102889D01*
X0032843Y0105791D01*
X0034294Y0105791D01*
X0034778Y0105308D01*
X0031831Y0105791D02*
X0029897Y0105791D01*
X0029897Y0102889D01*
X0031831Y0102889D01*
X0030864Y0104340D02*
X0029897Y0104340D01*
X0028885Y0102889D02*
X0026950Y0102889D01*
X0026950Y0105791D01*
X0025581Y0103090D02*
X0023647Y0103090D01*
X0025098Y0104541D01*
X0025098Y0101639D01*
X0022635Y0101639D02*
X0021667Y0102606D01*
X0022151Y0102606D02*
X0020700Y0102606D01*
X0020700Y0101639D02*
X0020700Y0104541D01*
X0022151Y0104541D01*
X0022635Y0104058D01*
X0022635Y0103090D01*
X0022151Y0102606D01*
X0056948Y0075627D02*
X0057431Y0074660D01*
X0058399Y0073692D01*
X0058399Y0075144D01*
X0058883Y0075627D01*
X0059366Y0075627D01*
X0059850Y0075144D01*
X0059850Y0074176D01*
X0059366Y0073692D01*
X0058399Y0073692D01*
X0059366Y0072681D02*
X0059850Y0072197D01*
X0059850Y0071230D01*
X0059366Y0070746D01*
X0057431Y0070746D01*
X0056948Y0071230D01*
X0056948Y0072197D01*
X0057431Y0072681D01*
X0021650Y0043782D02*
X0018748Y0043782D01*
X0075700Y0122889D02*
X0075700Y0125791D01*
X0077151Y0125791D01*
X0077635Y0125308D01*
X0077635Y0124340D01*
X0077151Y0123856D01*
X0075700Y0123856D01*
X0076667Y0123856D02*
X0077635Y0122889D01*
X0078647Y0123373D02*
X0079130Y0122889D01*
X0080098Y0122889D01*
X0080581Y0123373D01*
X0080581Y0124340D01*
X0080098Y0124824D01*
X0079614Y0124824D01*
X0078647Y0124340D01*
X0078647Y0125791D01*
X0080581Y0125791D01*
X0096248Y0135389D02*
X0096248Y0136840D01*
X0096731Y0137324D01*
X0097699Y0137324D01*
X0098183Y0136840D01*
X0098183Y0135389D01*
X0099150Y0135389D02*
X0096248Y0135389D01*
X0098183Y0136356D02*
X0099150Y0137324D01*
X0099150Y0138335D02*
X0097215Y0140270D01*
X0096731Y0140270D01*
X0096248Y0139787D01*
X0096248Y0138819D01*
X0096731Y0138335D01*
X0099150Y0138335D02*
X0099150Y0140270D01*
X0094850Y0144980D02*
X0094850Y0145947D01*
X0094366Y0146431D01*
X0094366Y0147442D02*
X0094850Y0147926D01*
X0094850Y0148894D01*
X0094366Y0149377D01*
X0093399Y0149377D01*
X0092915Y0148894D01*
X0092915Y0148410D01*
X0093399Y0147442D01*
X0091948Y0147442D01*
X0091948Y0149377D01*
X0092431Y0146431D02*
X0091948Y0145947D01*
X0091948Y0144980D01*
X0092431Y0144496D01*
X0094366Y0144496D01*
X0094850Y0144980D01*
X0096248Y0147889D02*
X0096248Y0149340D01*
X0096731Y0149824D01*
X0097699Y0149824D01*
X0098183Y0149340D01*
X0098183Y0147889D01*
X0099150Y0147889D02*
X0096248Y0147889D01*
X0098183Y0148856D02*
X0099150Y0149824D01*
X0098666Y0150835D02*
X0099150Y0151319D01*
X0099150Y0152287D01*
X0098666Y0152770D01*
X0098183Y0152770D01*
X0097699Y0152287D01*
X0097699Y0151803D01*
X0097699Y0152287D02*
X0097215Y0152770D01*
X0096731Y0152770D01*
X0096248Y0152287D01*
X0096248Y0151319D01*
X0096731Y0150835D01*
X0096181Y0153246D02*
X0098116Y0153246D01*
X0098600Y0153730D01*
X0098600Y0154697D01*
X0098116Y0155181D01*
X0098116Y0156192D02*
X0098600Y0156676D01*
X0098600Y0157644D01*
X0098116Y0158127D01*
X0097633Y0158127D01*
X0097149Y0157644D01*
X0097149Y0157160D01*
X0097149Y0157644D02*
X0096665Y0158127D01*
X0096181Y0158127D01*
X0095698Y0157644D01*
X0095698Y0156676D01*
X0096181Y0156192D01*
X0096181Y0155181D02*
X0095698Y0154697D01*
X0095698Y0153730D01*
X0096181Y0153246D01*
X0127791Y0093841D02*
X0127307Y0093358D01*
X0127307Y0091423D01*
X0127791Y0090939D01*
X0128758Y0090939D01*
X0129242Y0091423D01*
X0130253Y0091423D02*
X0130253Y0091906D01*
X0130737Y0092390D01*
X0131705Y0092390D01*
X0132188Y0091906D01*
X0132188Y0091423D01*
X0131705Y0090939D01*
X0130737Y0090939D01*
X0130253Y0091423D01*
X0130737Y0092390D02*
X0130253Y0092874D01*
X0130253Y0093358D01*
X0130737Y0093841D01*
X0131705Y0093841D01*
X0132188Y0093358D01*
X0132188Y0092874D01*
X0131705Y0092390D01*
X0129242Y0093358D02*
X0128758Y0093841D01*
X0127791Y0093841D01*
X0120328Y0067041D02*
X0120328Y0064139D01*
X0119361Y0064139D02*
X0121296Y0064139D01*
X0119361Y0066074D02*
X0120328Y0067041D01*
X0118349Y0066558D02*
X0117866Y0067041D01*
X0116898Y0067041D01*
X0116414Y0066558D01*
X0116414Y0064623D01*
X0116898Y0064139D01*
X0117866Y0064139D01*
X0118349Y0064623D01*
X0115417Y0064139D02*
X0114450Y0064139D01*
X0114934Y0064139D02*
X0114934Y0067041D01*
X0115417Y0067041D02*
X0114450Y0067041D01*
X0126541Y0053841D02*
X0126057Y0053358D01*
X0126057Y0051423D01*
X0126541Y0050939D01*
X0127508Y0050939D01*
X0127992Y0051423D01*
X0129003Y0051423D02*
X0129003Y0050939D01*
X0129003Y0051423D02*
X0130938Y0053358D01*
X0130938Y0053841D01*
X0129003Y0053841D01*
X0127992Y0053358D02*
X0127508Y0053841D01*
X0126541Y0053841D01*
X0129289Y0045933D02*
X0129289Y0043998D01*
X0129289Y0044965D02*
X0126387Y0044965D01*
X0127354Y0043998D01*
X0128321Y0042986D02*
X0126387Y0042986D01*
X0128321Y0042986D02*
X0129289Y0042019D01*
X0128321Y0041051D01*
X0126387Y0041051D01*
X0126870Y0040040D02*
X0126387Y0039556D01*
X0126387Y0038588D01*
X0126870Y0038105D01*
X0127354Y0038105D01*
X0127838Y0038588D01*
X0127838Y0039556D01*
X0128321Y0040040D01*
X0128805Y0040040D01*
X0129289Y0039556D01*
X0129289Y0038588D01*
X0128805Y0038105D01*
X0021866Y0146996D02*
X0022350Y0147480D01*
X0022350Y0148447D01*
X0021866Y0148931D01*
X0020899Y0149942D02*
X0020899Y0151877D01*
X0022350Y0151394D02*
X0019448Y0151394D01*
X0020899Y0149942D01*
X0019931Y0148931D02*
X0019448Y0148447D01*
X0019448Y0147480D01*
X0019931Y0146996D01*
X0021866Y0146996D01*
D12*
X0069753Y0118566D02*
X0074871Y0123684D01*
X0086682Y0123684D01*
X0086682Y0121085D01*
X0097312Y0121085D01*
X0097312Y0123684D01*
X0113847Y0123684D01*
X0113847Y0123448D02*
X0113847Y0117542D01*
X0113847Y0067936D02*
X0113847Y0062030D01*
X0113847Y0061794D02*
X0096918Y0061794D01*
X0096918Y0064393D01*
X0086288Y0064393D01*
X0086288Y0061794D01*
X0069753Y0061794D01*
X0069753Y0062030D02*
X0069753Y0067936D01*
D13*
X0070103Y0031949D02*
X0069352Y0031949D01*
X0068601Y0031198D01*
X0068601Y0029697D01*
X0069352Y0028946D01*
X0070103Y0031949D02*
X0073105Y0028946D01*
X0073105Y0031949D01*
X0073105Y0027345D02*
X0073105Y0024342D01*
X0073105Y0025843D02*
X0068601Y0025843D01*
X0070103Y0024342D01*
X0063105Y0024342D02*
X0063105Y0027345D01*
X0063105Y0025843D02*
X0058601Y0025843D01*
X0060103Y0024342D01*
X0060853Y0028946D02*
X0060853Y0031949D01*
X0058601Y0031198D02*
X0060853Y0028946D01*
X0063105Y0031198D02*
X0058601Y0031198D01*
X0053105Y0031198D02*
X0053105Y0029697D01*
X0052354Y0028946D01*
X0050853Y0028946D01*
X0050853Y0031198D01*
X0051604Y0031949D01*
X0052354Y0031949D01*
X0053105Y0031198D01*
X0050853Y0028946D02*
X0049352Y0030447D01*
X0048601Y0031949D01*
X0043105Y0031198D02*
X0043105Y0029697D01*
X0042354Y0028946D01*
X0041604Y0028946D01*
X0040853Y0029697D01*
X0040853Y0031198D01*
X0041604Y0031949D01*
X0042354Y0031949D01*
X0043105Y0031198D01*
X0040853Y0031198D02*
X0040103Y0031949D01*
X0039352Y0031949D01*
X0038601Y0031198D01*
X0038601Y0029697D01*
X0039352Y0028946D01*
X0040103Y0028946D01*
X0040853Y0029697D01*
X0043105Y0027345D02*
X0043105Y0024342D01*
X0043105Y0025843D02*
X0038601Y0025843D01*
X0040103Y0024342D01*
X0033105Y0024842D02*
X0030103Y0027845D01*
X0029352Y0027845D01*
X0028601Y0027094D01*
X0028601Y0025593D01*
X0029352Y0024842D01*
X0033105Y0024842D02*
X0033105Y0027845D01*
X0032354Y0029446D02*
X0029352Y0032449D01*
X0032354Y0032449D01*
X0033105Y0031698D01*
X0033105Y0030197D01*
X0032354Y0029446D01*
X0029352Y0029446D01*
X0028601Y0030197D01*
X0028601Y0031698D01*
X0029352Y0032449D01*
X0048601Y0025843D02*
X0053105Y0025843D01*
X0053105Y0024342D02*
X0053105Y0027345D01*
X0050103Y0024342D02*
X0048601Y0025843D01*
X0078601Y0025843D02*
X0083105Y0025843D01*
X0083105Y0024342D02*
X0083105Y0027345D01*
X0082354Y0028946D02*
X0079352Y0031949D01*
X0082354Y0031949D01*
X0083105Y0031198D01*
X0083105Y0029697D01*
X0082354Y0028946D01*
X0079352Y0028946D01*
X0078601Y0029697D01*
X0078601Y0031198D01*
X0079352Y0031949D01*
X0078601Y0025843D02*
X0080103Y0024342D01*
X0088601Y0028197D02*
X0088601Y0029698D01*
X0089352Y0030449D01*
X0090103Y0030449D01*
X0090853Y0029698D01*
X0090853Y0028197D01*
X0090103Y0027446D01*
X0089352Y0027446D01*
X0088601Y0028197D01*
X0090853Y0028197D02*
X0091604Y0027446D01*
X0092354Y0027446D01*
X0093105Y0028197D01*
X0093105Y0029698D01*
X0092354Y0030449D01*
X0091604Y0030449D01*
X0090853Y0029698D01*
X0098601Y0030449D02*
X0099352Y0028947D01*
X0100853Y0027446D01*
X0100853Y0029698D01*
X0101604Y0030449D01*
X0102354Y0030449D01*
X0103105Y0029698D01*
X0103105Y0028197D01*
X0102354Y0027446D01*
X0100853Y0027446D01*
X0108601Y0029698D02*
X0110853Y0027446D01*
X0110853Y0030449D01*
X0113105Y0029698D02*
X0108601Y0029698D01*
X0118601Y0029698D02*
X0118601Y0028197D01*
X0119352Y0027446D01*
X0118601Y0029698D02*
X0119352Y0030449D01*
X0120103Y0030449D01*
X0123105Y0027446D01*
X0123105Y0030449D01*
X0054674Y0118959D02*
X0054674Y0146519D01*
X0038926Y0146519D01*
X0038926Y0118959D01*
X0054674Y0118959D01*
X0040894Y0142581D02*
X0040896Y0142669D01*
X0040902Y0142757D01*
X0040912Y0142845D01*
X0040926Y0142933D01*
X0040943Y0143019D01*
X0040965Y0143105D01*
X0040990Y0143189D01*
X0041020Y0143273D01*
X0041052Y0143355D01*
X0041089Y0143435D01*
X0041129Y0143514D01*
X0041173Y0143591D01*
X0041220Y0143666D01*
X0041270Y0143738D01*
X0041324Y0143809D01*
X0041380Y0143876D01*
X0041440Y0143942D01*
X0041502Y0144004D01*
X0041568Y0144064D01*
X0041635Y0144120D01*
X0041706Y0144174D01*
X0041778Y0144224D01*
X0041853Y0144271D01*
X0041930Y0144315D01*
X0042009Y0144355D01*
X0042089Y0144392D01*
X0042171Y0144424D01*
X0042255Y0144454D01*
X0042339Y0144479D01*
X0042425Y0144501D01*
X0042511Y0144518D01*
X0042599Y0144532D01*
X0042687Y0144542D01*
X0042775Y0144548D01*
X0042863Y0144550D01*
X0042951Y0144548D01*
X0043039Y0144542D01*
X0043127Y0144532D01*
X0043215Y0144518D01*
X0043301Y0144501D01*
X0043387Y0144479D01*
X0043471Y0144454D01*
X0043555Y0144424D01*
X0043637Y0144392D01*
X0043717Y0144355D01*
X0043796Y0144315D01*
X0043873Y0144271D01*
X0043948Y0144224D01*
X0044020Y0144174D01*
X0044091Y0144120D01*
X0044158Y0144064D01*
X0044224Y0144004D01*
X0044286Y0143942D01*
X0044346Y0143876D01*
X0044402Y0143809D01*
X0044456Y0143738D01*
X0044506Y0143666D01*
X0044553Y0143591D01*
X0044597Y0143514D01*
X0044637Y0143435D01*
X0044674Y0143355D01*
X0044706Y0143273D01*
X0044736Y0143189D01*
X0044761Y0143105D01*
X0044783Y0143019D01*
X0044800Y0142933D01*
X0044814Y0142845D01*
X0044824Y0142757D01*
X0044830Y0142669D01*
X0044832Y0142581D01*
X0044830Y0142493D01*
X0044824Y0142405D01*
X0044814Y0142317D01*
X0044800Y0142229D01*
X0044783Y0142143D01*
X0044761Y0142057D01*
X0044736Y0141973D01*
X0044706Y0141889D01*
X0044674Y0141807D01*
X0044637Y0141727D01*
X0044597Y0141648D01*
X0044553Y0141571D01*
X0044506Y0141496D01*
X0044456Y0141424D01*
X0044402Y0141353D01*
X0044346Y0141286D01*
X0044286Y0141220D01*
X0044224Y0141158D01*
X0044158Y0141098D01*
X0044091Y0141042D01*
X0044020Y0140988D01*
X0043948Y0140938D01*
X0043873Y0140891D01*
X0043796Y0140847D01*
X0043717Y0140807D01*
X0043637Y0140770D01*
X0043555Y0140738D01*
X0043471Y0140708D01*
X0043387Y0140683D01*
X0043301Y0140661D01*
X0043215Y0140644D01*
X0043127Y0140630D01*
X0043039Y0140620D01*
X0042951Y0140614D01*
X0042863Y0140612D01*
X0042775Y0140614D01*
X0042687Y0140620D01*
X0042599Y0140630D01*
X0042511Y0140644D01*
X0042425Y0140661D01*
X0042339Y0140683D01*
X0042255Y0140708D01*
X0042171Y0140738D01*
X0042089Y0140770D01*
X0042009Y0140807D01*
X0041930Y0140847D01*
X0041853Y0140891D01*
X0041778Y0140938D01*
X0041706Y0140988D01*
X0041635Y0141042D01*
X0041568Y0141098D01*
X0041502Y0141158D01*
X0041440Y0141220D01*
X0041380Y0141286D01*
X0041324Y0141353D01*
X0041270Y0141424D01*
X0041220Y0141496D01*
X0041173Y0141571D01*
X0041129Y0141648D01*
X0041089Y0141727D01*
X0041052Y0141807D01*
X0041020Y0141889D01*
X0040990Y0141973D01*
X0040965Y0142057D01*
X0040943Y0142143D01*
X0040926Y0142229D01*
X0040912Y0142317D01*
X0040902Y0142405D01*
X0040896Y0142493D01*
X0040894Y0142581D01*
X0021803Y0151739D02*
X0018800Y0151739D01*
X0020301Y0151739D02*
X0020301Y0156243D01*
X0018800Y0154742D01*
X0064300Y0153991D02*
X0067303Y0153991D01*
X0066552Y0151739D02*
X0066552Y0156243D01*
X0064300Y0153991D01*
D14*
X0052408Y0160189D02*
X0051674Y0160923D01*
X0052041Y0160923D02*
X0050940Y0160923D01*
X0050940Y0160189D02*
X0050940Y0162391D01*
X0052041Y0162391D01*
X0052408Y0162024D01*
X0052408Y0161290D01*
X0052041Y0160923D01*
X0050198Y0160189D02*
X0048730Y0160189D01*
X0048730Y0162391D01*
X0050198Y0162391D01*
X0049464Y0161290D02*
X0048730Y0161290D01*
X0047988Y0162391D02*
X0047988Y0160189D01*
X0046520Y0160189D02*
X0046520Y0162391D01*
X0047254Y0161657D01*
X0047988Y0162391D01*
X0045778Y0162391D02*
X0045778Y0160189D01*
X0044310Y0160189D02*
X0044310Y0162391D01*
X0045044Y0161657D01*
X0045778Y0162391D01*
X0043568Y0161657D02*
X0043568Y0160189D01*
X0043568Y0161290D02*
X0042101Y0161290D01*
X0042101Y0161657D02*
X0042101Y0160189D01*
X0041359Y0160189D02*
X0040625Y0160923D01*
X0040992Y0160923D02*
X0039891Y0160923D01*
X0039891Y0160189D02*
X0039891Y0162391D01*
X0040992Y0162391D01*
X0041359Y0162024D01*
X0041359Y0161290D01*
X0040992Y0160923D01*
X0042101Y0161657D02*
X0042834Y0162391D01*
X0043568Y0161657D01*
X0039149Y0162024D02*
X0038782Y0162391D01*
X0038048Y0162391D01*
X0037681Y0162024D01*
X0037681Y0160556D01*
X0038048Y0160189D01*
X0038782Y0160189D01*
X0039149Y0160556D01*
X0039149Y0161290D01*
X0038415Y0161290D01*
X0036939Y0162024D02*
X0036572Y0162391D01*
X0035838Y0162391D01*
X0035471Y0162024D01*
X0035471Y0160556D01*
X0035838Y0160189D01*
X0036572Y0160189D01*
X0036939Y0160556D01*
X0036939Y0162024D01*
X0034729Y0162024D02*
X0034729Y0161290D01*
X0034362Y0160923D01*
X0033261Y0160923D01*
X0033995Y0160923D02*
X0034729Y0160189D01*
X0033261Y0160189D02*
X0033261Y0162391D01*
X0034362Y0162391D01*
X0034729Y0162024D01*
X0032519Y0162024D02*
X0032519Y0161290D01*
X0032152Y0160923D01*
X0031051Y0160923D01*
X0031051Y0160189D02*
X0031051Y0162391D01*
X0032152Y0162391D01*
X0032519Y0162024D01*
X0062854Y0124393D02*
X0063955Y0124393D01*
X0064322Y0124026D01*
X0064322Y0123292D01*
X0063955Y0122925D01*
X0062854Y0122925D01*
X0062854Y0122191D02*
X0062854Y0124393D01*
X0065064Y0123659D02*
X0065798Y0124393D01*
X0065798Y0122191D01*
X0065064Y0122191D02*
X0066532Y0122191D01*
D15*
X0035855Y0023800D02*
X0025855Y0023800D01*
X0025855Y0034800D01*
X0035855Y0034800D01*
X0045855Y0034800D01*
X0055855Y0034800D01*
X0065855Y0034800D01*
X0075855Y0034800D01*
X0075855Y0023800D01*
X0085855Y0023800D01*
X0095855Y0023800D01*
X0105855Y0023800D01*
X0115855Y0023800D01*
X0125855Y0023800D01*
X0125855Y0034800D01*
X0115855Y0034800D01*
X0105855Y0034800D01*
X0105855Y0023800D01*
X0115855Y0023800D02*
X0115855Y0034800D01*
X0105855Y0034800D02*
X0095855Y0034800D01*
X0095855Y0023800D01*
X0095855Y0034800D02*
X0085855Y0034800D01*
X0085855Y0023800D01*
X0075855Y0023800D02*
X0065855Y0023800D01*
X0055855Y0023800D01*
X0055855Y0034800D01*
X0055855Y0023800D02*
X0045855Y0023800D01*
X0035855Y0023800D01*
X0035855Y0034800D01*
X0045855Y0034800D02*
X0045855Y0023800D01*
X0065855Y0023800D02*
X0065855Y0034800D01*
X0075855Y0034800D02*
X0085855Y0034800D01*
X0060550Y0148989D02*
X0055550Y0148989D01*
X0053050Y0151489D01*
X0050550Y0148989D01*
X0045550Y0148989D01*
X0043050Y0151489D01*
X0040550Y0148989D01*
X0035550Y0148989D01*
X0033050Y0151489D01*
X0030550Y0148989D01*
X0025550Y0148989D01*
X0023050Y0151489D01*
X0023050Y0156489D01*
X0025550Y0158989D01*
X0030550Y0158989D01*
X0033050Y0156489D01*
X0035550Y0158989D01*
X0040550Y0158989D01*
X0043050Y0156489D01*
X0045550Y0158989D01*
X0050550Y0158989D01*
X0053050Y0156489D01*
X0055550Y0158989D01*
X0060550Y0158989D01*
X0063050Y0156489D01*
X0063050Y0151489D01*
X0060550Y0148989D01*
D16*
X0060855Y0020800D02*
X0060855Y0002300D01*
X0050855Y0002300D02*
X0050855Y0020800D01*
X0040855Y0020800D02*
X0040855Y0002300D01*
X0030855Y0002300D02*
X0030855Y0020800D01*
X0070855Y0020800D02*
X0070855Y0002300D01*
X0080855Y0002300D02*
X0080855Y0020800D01*
X0090855Y0020800D02*
X0090855Y0002300D01*
X0100855Y0002300D02*
X0100855Y0020800D01*
X0110855Y0020800D02*
X0110855Y0002300D01*
X0120855Y0002300D02*
X0120855Y0020800D01*
D17*
X0120855Y0022300D03*
X0110855Y0022300D03*
X0100855Y0022300D03*
X0090855Y0022300D03*
X0080855Y0022300D03*
X0070855Y0022300D03*
X0060855Y0022300D03*
X0050855Y0022300D03*
X0040855Y0022300D03*
X0030855Y0022300D03*
D18*
X0030855Y0036100D03*
X0040855Y0036100D03*
X0050855Y0036100D03*
X0060855Y0036100D03*
X0070855Y0036100D03*
X0080855Y0036100D03*
X0090855Y0036100D03*
X0100855Y0036100D03*
X0110855Y0036100D03*
X0120855Y0036100D03*
D19*
X0120855Y0045800D03*
X0110855Y0045800D03*
X0100855Y0045800D03*
X0090855Y0045800D03*
X0080855Y0045800D03*
X0070855Y0045800D03*
X0060855Y0045800D03*
X0050855Y0045800D03*
X0040855Y0045800D03*
X0030855Y0045800D03*
D20*
X0031465Y0109521D02*
X0031392Y0109444D01*
X0031317Y0109369D01*
X0031239Y0109298D01*
X0031158Y0109229D01*
X0031075Y0109163D01*
X0030990Y0109100D01*
X0030902Y0109041D01*
X0030813Y0108984D01*
X0030721Y0108931D01*
X0030627Y0108881D01*
X0030532Y0108835D01*
X0030435Y0108792D01*
X0030337Y0108753D01*
X0030237Y0108717D01*
X0030136Y0108685D01*
X0030034Y0108657D01*
X0029931Y0108632D01*
X0029827Y0108611D01*
X0029722Y0108594D01*
X0029617Y0108580D01*
X0029512Y0108571D01*
X0029406Y0108565D01*
X0029300Y0108563D01*
X0029194Y0108565D01*
X0029088Y0108571D01*
X0028983Y0108580D01*
X0028878Y0108594D01*
X0028773Y0108611D01*
X0028669Y0108632D01*
X0028566Y0108657D01*
X0028464Y0108685D01*
X0028363Y0108717D01*
X0028263Y0108753D01*
X0028165Y0108792D01*
X0028068Y0108835D01*
X0027973Y0108881D01*
X0027879Y0108931D01*
X0027787Y0108984D01*
X0027698Y0109041D01*
X0027610Y0109100D01*
X0027525Y0109163D01*
X0027442Y0109229D01*
X0027361Y0109298D01*
X0027283Y0109369D01*
X0027208Y0109444D01*
X0027135Y0109521D01*
X0027135Y0113457D02*
X0027208Y0113534D01*
X0027283Y0113609D01*
X0027361Y0113680D01*
X0027442Y0113749D01*
X0027525Y0113815D01*
X0027610Y0113878D01*
X0027698Y0113937D01*
X0027787Y0113994D01*
X0027879Y0114047D01*
X0027973Y0114097D01*
X0028068Y0114143D01*
X0028165Y0114186D01*
X0028263Y0114225D01*
X0028363Y0114261D01*
X0028464Y0114293D01*
X0028566Y0114321D01*
X0028669Y0114346D01*
X0028773Y0114367D01*
X0028878Y0114384D01*
X0028983Y0114398D01*
X0029088Y0114407D01*
X0029194Y0114413D01*
X0029300Y0114415D01*
X0029406Y0114413D01*
X0029512Y0114407D01*
X0029617Y0114398D01*
X0029722Y0114384D01*
X0029827Y0114367D01*
X0029931Y0114346D01*
X0030034Y0114321D01*
X0030136Y0114293D01*
X0030237Y0114261D01*
X0030337Y0114225D01*
X0030435Y0114186D01*
X0030532Y0114143D01*
X0030627Y0114097D01*
X0030721Y0114047D01*
X0030813Y0113994D01*
X0030902Y0113937D01*
X0030990Y0113878D01*
X0031075Y0113815D01*
X0031158Y0113749D01*
X0031239Y0113680D01*
X0031317Y0113609D01*
X0031392Y0113534D01*
X0031465Y0113457D01*
D21*
X0029300Y0111489D03*
D22*
X0027233Y0113753D03*
M02*
