G75*
%MOIN*%
%OFA0B0*%
%FSLAX25Y25*%
%IPPOS*%
%LPD*%
%AMOC8*
5,1,8,0,0,1.08239X$1,22.5*
%
%ADD10C,0.00000*%
%ADD11R,0.22835X0.24409*%
%ADD12R,0.06299X0.11811*%
%ADD13R,0.05512X0.07087*%
%ADD14R,0.07087X0.05512*%
%ADD15OC8,0.06000*%
%ADD16C,0.06000*%
%ADD17R,0.06300X0.04600*%
%ADD18R,0.04600X0.06300*%
%ADD19R,0.03937X0.04331*%
%ADD20C,0.01600*%
%ADD21C,0.03562*%
%ADD22C,0.05000*%
%ADD23C,0.03200*%
D10*
X0016800Y0033989D02*
X0016800Y0163910D01*
X0134910Y0163910D01*
X0134910Y0033989D01*
X0016800Y0033989D01*
D11*
X0041800Y0102739D03*
D12*
X0032804Y0074471D03*
X0050796Y0074471D03*
D13*
X0049743Y0062739D03*
X0036357Y0062739D03*
D14*
X0068050Y0061046D03*
X0068050Y0074432D03*
D15*
X0070855Y0050800D03*
X0070855Y0040800D03*
X0060855Y0040800D03*
X0050855Y0040800D03*
X0050855Y0050800D03*
X0060855Y0050800D03*
X0040855Y0050800D03*
X0040855Y0040800D03*
X0030855Y0040800D03*
X0030855Y0050800D03*
X0080855Y0050800D03*
X0080855Y0040800D03*
X0090855Y0040800D03*
X0090855Y0050800D03*
X0100855Y0050800D03*
X0100855Y0040800D03*
X0110855Y0040800D03*
X0110855Y0050800D03*
X0120855Y0050800D03*
X0120855Y0040800D03*
D16*
X0058050Y0150989D02*
X0058050Y0156989D01*
X0048050Y0156989D02*
X0048050Y0150989D01*
X0038050Y0150989D02*
X0038050Y0156989D01*
X0028050Y0156989D02*
X0028050Y0150989D01*
D17*
X0023050Y0121989D03*
X0023050Y0115989D03*
D18*
X0031300Y0120239D03*
X0037300Y0120239D03*
D19*
X0024300Y0073585D03*
X0024300Y0066893D03*
X0059300Y0067335D03*
X0059300Y0060643D03*
D20*
X0055636Y0064543D02*
X0054696Y0064543D01*
X0054696Y0067336D01*
X0055346Y0067986D01*
X0055346Y0080957D01*
X0054526Y0081777D01*
X0047067Y0081777D01*
X0046246Y0080957D01*
X0046246Y0067986D01*
X0046550Y0067682D01*
X0046407Y0067682D01*
X0045587Y0066862D01*
X0045587Y0058616D01*
X0046407Y0057796D01*
X0047093Y0057796D01*
X0047093Y0053260D01*
X0046455Y0052623D01*
X0046455Y0048977D01*
X0046955Y0048477D01*
X0046955Y0044700D01*
X0043178Y0044700D01*
X0042678Y0045200D01*
X0039033Y0045200D01*
X0036455Y0042623D01*
X0036455Y0038977D01*
X0039033Y0036400D01*
X0042678Y0036400D01*
X0043178Y0036900D01*
X0048533Y0036900D01*
X0049033Y0036400D01*
X0052678Y0036400D01*
X0055255Y0038977D01*
X0055255Y0042623D01*
X0054755Y0043123D01*
X0054755Y0048477D01*
X0055255Y0048977D01*
X0055255Y0052623D01*
X0054893Y0052985D01*
X0054893Y0056743D01*
X0068795Y0056743D01*
X0069468Y0056707D01*
X0069567Y0056743D01*
X0069672Y0056743D01*
X0070029Y0056890D01*
X0072173Y0056890D01*
X0072993Y0057710D01*
X0072993Y0064382D01*
X0072173Y0065202D01*
X0063927Y0065202D01*
X0063267Y0064543D01*
X0062964Y0064543D01*
X0063068Y0064933D01*
X0063068Y0067151D01*
X0059484Y0067151D01*
X0059484Y0067520D01*
X0059116Y0067520D01*
X0059116Y0071301D01*
X0057095Y0071301D01*
X0056637Y0071178D01*
X0056226Y0070941D01*
X0055891Y0070606D01*
X0055654Y0070196D01*
X0055531Y0069738D01*
X0055531Y0067520D01*
X0059116Y0067520D01*
X0059116Y0067151D01*
X0055531Y0067151D01*
X0055531Y0064933D01*
X0055636Y0064543D01*
X0055531Y0065959D02*
X0054696Y0065959D01*
X0054918Y0067558D02*
X0055531Y0067558D01*
X0055531Y0069156D02*
X0055346Y0069156D01*
X0055346Y0070755D02*
X0056040Y0070755D01*
X0055346Y0072353D02*
X0062707Y0072353D01*
X0062707Y0071439D02*
X0062829Y0070981D01*
X0063066Y0070571D01*
X0063401Y0070236D01*
X0063812Y0069999D01*
X0064270Y0069876D01*
X0067472Y0069876D01*
X0067472Y0073854D01*
X0062707Y0073854D01*
X0062707Y0071439D01*
X0062374Y0070941D02*
X0062709Y0070606D01*
X0062946Y0070196D01*
X0063068Y0069738D01*
X0063068Y0067520D01*
X0059484Y0067520D01*
X0059484Y0071301D01*
X0061505Y0071301D01*
X0061963Y0071178D01*
X0062374Y0070941D01*
X0062560Y0070755D02*
X0062960Y0070755D01*
X0063068Y0069156D02*
X0120850Y0069156D01*
X0120850Y0067558D02*
X0063068Y0067558D01*
X0063068Y0065959D02*
X0120850Y0065959D01*
X0120850Y0064361D02*
X0072993Y0064361D01*
X0072993Y0062762D02*
X0119962Y0062762D01*
X0120850Y0063650D02*
X0112400Y0055200D01*
X0109033Y0055200D01*
X0106455Y0052623D01*
X0106455Y0048977D01*
X0109033Y0046400D01*
X0111100Y0046400D01*
X0110850Y0046150D01*
X0109900Y0045200D01*
X0109033Y0045200D01*
X0106455Y0042623D01*
X0106455Y0038977D01*
X0109033Y0036400D01*
X0112678Y0036400D01*
X0115255Y0038977D01*
X0115255Y0042623D01*
X0114839Y0043039D01*
X0116872Y0043039D01*
X0116455Y0042623D01*
X0116455Y0038977D01*
X0119033Y0036400D01*
X0122678Y0036400D01*
X0124878Y0038600D01*
X0125772Y0038600D01*
X0131461Y0044289D01*
X0132750Y0045578D01*
X0132750Y0138650D01*
X0119000Y0152400D01*
X0117711Y0153689D01*
X0071599Y0153689D01*
X0071102Y0154186D01*
X0069933Y0154670D01*
X0068667Y0154670D01*
X0067498Y0154186D01*
X0066603Y0153291D01*
X0066119Y0152122D01*
X0066119Y0150856D01*
X0066603Y0149687D01*
X0067301Y0148989D01*
X0066603Y0148291D01*
X0066119Y0147122D01*
X0066119Y0145856D01*
X0066603Y0144687D01*
X0067498Y0143792D01*
X0067747Y0143689D01*
X0053389Y0143689D01*
X0043120Y0133420D01*
X0042417Y0133420D01*
X0041248Y0132936D01*
X0040353Y0132041D01*
X0039869Y0130872D01*
X0039869Y0129606D01*
X0040353Y0128437D01*
X0041051Y0127739D01*
X0040353Y0127041D01*
X0039869Y0125872D01*
X0039869Y0125180D01*
X0039837Y0125189D01*
X0037650Y0125189D01*
X0037650Y0120589D01*
X0036950Y0120589D01*
X0036950Y0125189D01*
X0034763Y0125189D01*
X0034305Y0125066D01*
X0033895Y0124829D01*
X0033854Y0124789D01*
X0033500Y0124789D01*
X0033500Y0125400D01*
X0032481Y0126419D01*
X0032481Y0127122D01*
X0031997Y0128291D01*
X0031102Y0129186D01*
X0029933Y0129670D01*
X0028667Y0129670D01*
X0027498Y0129186D01*
X0026603Y0128291D01*
X0026119Y0127122D01*
X0026119Y0125856D01*
X0026188Y0125689D01*
X0024912Y0125689D01*
X0024981Y0125856D01*
X0024981Y0127122D01*
X0024497Y0128291D01*
X0023602Y0129186D01*
X0022433Y0129670D01*
X0021167Y0129670D01*
X0019998Y0129186D01*
X0019103Y0128291D01*
X0018619Y0127122D01*
X0018619Y0125856D01*
X0018873Y0125242D01*
X0018600Y0124969D01*
X0018600Y0162110D01*
X0133110Y0162110D01*
X0133110Y0035789D01*
X0018600Y0035789D01*
X0018600Y0112443D01*
X0018795Y0112249D01*
X0019205Y0112012D01*
X0019663Y0111889D01*
X0022700Y0111889D01*
X0022700Y0115639D01*
X0023400Y0115639D01*
X0023400Y0116339D01*
X0027770Y0116339D01*
X0028420Y0115689D01*
X0028735Y0115689D01*
X0028705Y0115638D01*
X0028583Y0115181D01*
X0028583Y0103539D01*
X0041000Y0103539D01*
X0041000Y0115943D01*
X0041040Y0115984D01*
X0041277Y0116394D01*
X0041400Y0116852D01*
X0041400Y0119889D01*
X0037650Y0119889D01*
X0037650Y0120589D01*
X0041400Y0120589D01*
X0041400Y0122479D01*
X0042417Y0122058D01*
X0043683Y0122058D01*
X0044852Y0122542D01*
X0045747Y0123437D01*
X0046231Y0124606D01*
X0046231Y0125309D01*
X0056461Y0135539D01*
X0113389Y0135539D01*
X0115508Y0133420D01*
X0114917Y0133420D01*
X0114480Y0133239D01*
X0090370Y0133239D01*
X0089933Y0133420D01*
X0088667Y0133420D01*
X0087498Y0132936D01*
X0086603Y0132041D01*
X0086119Y0130872D01*
X0086119Y0129606D01*
X0086603Y0128437D01*
X0087498Y0127542D01*
X0088667Y0127058D01*
X0089933Y0127058D01*
X0090370Y0127239D01*
X0114480Y0127239D01*
X0114917Y0127058D01*
X0116183Y0127058D01*
X0117352Y0127542D01*
X0118247Y0128437D01*
X0118731Y0129606D01*
X0118731Y0130197D01*
X0120850Y0128078D01*
X0120850Y0063650D01*
X0123050Y0062739D02*
X0111111Y0050800D01*
X0110855Y0050800D01*
X0107057Y0048376D02*
X0105219Y0048376D01*
X0105655Y0048812D02*
X0102843Y0046000D01*
X0101055Y0046000D01*
X0101055Y0050600D01*
X0100655Y0050600D01*
X0096055Y0050600D01*
X0096055Y0048812D01*
X0098867Y0046000D01*
X0100655Y0046000D01*
X0100655Y0050600D01*
X0100655Y0051000D01*
X0096055Y0051000D01*
X0096055Y0052788D01*
X0098867Y0055600D01*
X0100655Y0055600D01*
X0100655Y0051000D01*
X0101055Y0051000D01*
X0101055Y0055600D01*
X0102843Y0055600D01*
X0105655Y0052788D01*
X0105655Y0051000D01*
X0101055Y0051000D01*
X0101055Y0050600D01*
X0105655Y0050600D01*
X0105655Y0048812D01*
X0105655Y0049974D02*
X0106455Y0049974D01*
X0106455Y0051573D02*
X0105655Y0051573D01*
X0105272Y0053171D02*
X0107004Y0053171D01*
X0108602Y0054770D02*
X0103674Y0054770D01*
X0101055Y0054770D02*
X0100655Y0054770D01*
X0100655Y0053171D02*
X0101055Y0053171D01*
X0101055Y0051573D02*
X0100655Y0051573D01*
X0100655Y0049974D02*
X0101055Y0049974D01*
X0101055Y0048376D02*
X0100655Y0048376D01*
X0100655Y0046777D02*
X0101055Y0046777D01*
X0101055Y0045600D02*
X0102843Y0045600D01*
X0105655Y0042788D01*
X0105655Y0041000D01*
X0101055Y0041000D01*
X0100655Y0041000D01*
X0100655Y0040600D01*
X0096055Y0040600D01*
X0096055Y0038812D01*
X0098867Y0036000D01*
X0100655Y0036000D01*
X0100655Y0040600D01*
X0101055Y0040600D01*
X0101055Y0036000D01*
X0102843Y0036000D01*
X0105655Y0038812D01*
X0105655Y0040600D01*
X0101055Y0040600D01*
X0101055Y0041000D01*
X0101055Y0045600D01*
X0100655Y0045600D02*
X0098867Y0045600D01*
X0096055Y0042788D01*
X0096055Y0041000D01*
X0100655Y0041000D01*
X0100655Y0045600D01*
X0100655Y0045179D02*
X0101055Y0045179D01*
X0101055Y0043580D02*
X0100655Y0043580D01*
X0100655Y0041982D02*
X0101055Y0041982D01*
X0101055Y0040383D02*
X0100655Y0040383D01*
X0100655Y0038785D02*
X0101055Y0038785D01*
X0101055Y0037186D02*
X0100655Y0037186D01*
X0097681Y0037186D02*
X0093464Y0037186D01*
X0092678Y0036400D02*
X0095255Y0038977D01*
X0095255Y0042623D01*
X0092678Y0045200D01*
X0089033Y0045200D01*
X0086455Y0042623D01*
X0086455Y0038977D01*
X0089033Y0036400D01*
X0092678Y0036400D01*
X0095062Y0038785D02*
X0096082Y0038785D01*
X0096055Y0040383D02*
X0095255Y0040383D01*
X0095255Y0041982D02*
X0096055Y0041982D01*
X0096847Y0043580D02*
X0094298Y0043580D01*
X0092699Y0045179D02*
X0098445Y0045179D01*
X0098090Y0046777D02*
X0093055Y0046777D01*
X0092678Y0046400D02*
X0095255Y0048977D01*
X0095255Y0052623D01*
X0092678Y0055200D01*
X0089033Y0055200D01*
X0086455Y0052623D01*
X0086455Y0048977D01*
X0089033Y0046400D01*
X0092678Y0046400D01*
X0094653Y0048376D02*
X0096491Y0048376D01*
X0096055Y0049974D02*
X0095255Y0049974D01*
X0095255Y0051573D02*
X0096055Y0051573D01*
X0096438Y0053171D02*
X0094707Y0053171D01*
X0093108Y0054770D02*
X0098037Y0054770D01*
X0103620Y0046777D02*
X0108656Y0046777D01*
X0109011Y0045179D02*
X0103265Y0045179D01*
X0104863Y0043580D02*
X0107413Y0043580D01*
X0106455Y0041982D02*
X0105655Y0041982D01*
X0105655Y0040383D02*
X0106455Y0040383D01*
X0106648Y0038785D02*
X0105628Y0038785D01*
X0104029Y0037186D02*
X0108247Y0037186D01*
X0110855Y0040800D02*
X0110855Y0043044D01*
X0113050Y0045239D01*
X0123050Y0045239D01*
X0128050Y0050239D01*
X0128050Y0133989D01*
X0115550Y0146489D01*
X0069300Y0146489D01*
X0067004Y0144286D02*
X0018600Y0144286D01*
X0018600Y0142688D02*
X0052387Y0142688D01*
X0054300Y0141489D02*
X0043050Y0130239D01*
X0040128Y0131498D02*
X0018600Y0131498D01*
X0018600Y0129900D02*
X0039869Y0129900D01*
X0040489Y0128301D02*
X0031987Y0128301D01*
X0032481Y0126703D02*
X0040213Y0126703D01*
X0043050Y0125239D02*
X0055550Y0137739D01*
X0114300Y0137739D01*
X0123050Y0128989D01*
X0123050Y0062739D01*
X0118363Y0061164D02*
X0072993Y0061164D01*
X0072993Y0059565D02*
X0116765Y0059565D01*
X0115166Y0057967D02*
X0072993Y0057967D01*
X0072678Y0055200D02*
X0069033Y0055200D01*
X0066455Y0052623D01*
X0066455Y0048977D01*
X0069033Y0046400D01*
X0072678Y0046400D01*
X0075255Y0048977D01*
X0075255Y0052623D01*
X0072678Y0055200D01*
X0073108Y0054770D02*
X0078602Y0054770D01*
X0079033Y0055200D02*
X0076455Y0052623D01*
X0076455Y0048977D01*
X0079033Y0046400D01*
X0082678Y0046400D01*
X0085255Y0048977D01*
X0085255Y0052623D01*
X0082678Y0055200D01*
X0079033Y0055200D01*
X0077004Y0053171D02*
X0074707Y0053171D01*
X0075255Y0051573D02*
X0076455Y0051573D01*
X0076455Y0049974D02*
X0075255Y0049974D01*
X0074653Y0048376D02*
X0077057Y0048376D01*
X0078656Y0046777D02*
X0073055Y0046777D01*
X0072678Y0045200D02*
X0069033Y0045200D01*
X0066455Y0042623D01*
X0066455Y0038977D01*
X0069033Y0036400D01*
X0072678Y0036400D01*
X0075255Y0038977D01*
X0075255Y0042623D01*
X0072678Y0045200D01*
X0072699Y0045179D02*
X0079011Y0045179D01*
X0079033Y0045200D02*
X0076455Y0042623D01*
X0076455Y0038977D01*
X0079033Y0036400D01*
X0082678Y0036400D01*
X0085255Y0038977D01*
X0085255Y0042623D01*
X0082678Y0045200D01*
X0079033Y0045200D01*
X0077413Y0043580D02*
X0074298Y0043580D01*
X0075255Y0041982D02*
X0076455Y0041982D01*
X0076455Y0040383D02*
X0075255Y0040383D01*
X0075062Y0038785D02*
X0076648Y0038785D01*
X0078247Y0037186D02*
X0073464Y0037186D01*
X0068247Y0037186D02*
X0063464Y0037186D01*
X0062678Y0036400D02*
X0065255Y0038977D01*
X0065255Y0042623D01*
X0062678Y0045200D01*
X0059033Y0045200D01*
X0056455Y0042623D01*
X0056455Y0038977D01*
X0059033Y0036400D01*
X0062678Y0036400D01*
X0065062Y0038785D02*
X0066648Y0038785D01*
X0066455Y0040383D02*
X0065255Y0040383D01*
X0065255Y0041982D02*
X0066455Y0041982D01*
X0067413Y0043580D02*
X0064298Y0043580D01*
X0062699Y0045179D02*
X0069011Y0045179D01*
X0068656Y0046777D02*
X0063055Y0046777D01*
X0062678Y0046400D02*
X0065255Y0048977D01*
X0065255Y0052623D01*
X0062678Y0055200D01*
X0059033Y0055200D01*
X0056455Y0052623D01*
X0056455Y0048977D01*
X0059033Y0046400D01*
X0062678Y0046400D01*
X0064653Y0048376D02*
X0067057Y0048376D01*
X0066455Y0049974D02*
X0065255Y0049974D01*
X0065255Y0051573D02*
X0066455Y0051573D01*
X0067004Y0053171D02*
X0064707Y0053171D01*
X0063108Y0054770D02*
X0068602Y0054770D01*
X0058602Y0054770D02*
X0054893Y0054770D01*
X0054893Y0056368D02*
X0113568Y0056368D01*
X0120855Y0050800D02*
X0122361Y0050800D01*
X0125550Y0053989D01*
X0125550Y0131489D01*
X0115550Y0141489D01*
X0054300Y0141489D01*
X0050789Y0141089D02*
X0018600Y0141089D01*
X0018600Y0139491D02*
X0049190Y0139491D01*
X0047592Y0137892D02*
X0018600Y0137892D01*
X0018600Y0136294D02*
X0045993Y0136294D01*
X0044395Y0134695D02*
X0018600Y0134695D01*
X0018600Y0133097D02*
X0041637Y0133097D01*
X0047625Y0126703D02*
X0120850Y0126703D01*
X0120850Y0125104D02*
X0046231Y0125104D01*
X0045775Y0123506D02*
X0120850Y0123506D01*
X0120850Y0121907D02*
X0054318Y0121907D01*
X0054852Y0121686D02*
X0053683Y0122170D01*
X0052417Y0122170D01*
X0051248Y0121686D01*
X0050353Y0120791D01*
X0049869Y0119622D01*
X0049869Y0118356D01*
X0050353Y0117187D01*
X0050797Y0116744D01*
X0042600Y0116744D01*
X0042600Y0103539D01*
X0041000Y0103539D01*
X0041000Y0101939D01*
X0028583Y0101939D01*
X0028583Y0090297D01*
X0028705Y0089839D01*
X0028942Y0089429D01*
X0029277Y0089094D01*
X0029688Y0088857D01*
X0030146Y0088734D01*
X0041000Y0088734D01*
X0041000Y0101939D01*
X0042600Y0101939D01*
X0042600Y0103539D01*
X0055017Y0103539D01*
X0055017Y0113910D01*
X0058350Y0110578D01*
X0058350Y0082538D01*
X0057853Y0082041D01*
X0057369Y0080872D01*
X0057369Y0079606D01*
X0057853Y0078437D01*
X0058748Y0077542D01*
X0059917Y0077058D01*
X0061183Y0077058D01*
X0062352Y0077542D01*
X0063017Y0078207D01*
X0062829Y0077883D01*
X0062707Y0077425D01*
X0062707Y0075010D01*
X0067472Y0075010D01*
X0067472Y0078988D01*
X0064270Y0078988D01*
X0063812Y0078865D01*
X0063401Y0078628D01*
X0063273Y0078499D01*
X0063731Y0079606D01*
X0063731Y0080872D01*
X0063247Y0082041D01*
X0062750Y0082538D01*
X0062750Y0112400D01*
X0056231Y0118919D01*
X0056231Y0119622D01*
X0055747Y0120791D01*
X0054852Y0121686D01*
X0055947Y0120309D02*
X0120850Y0120309D01*
X0120850Y0118710D02*
X0056440Y0118710D01*
X0058039Y0117112D02*
X0120850Y0117112D01*
X0120850Y0115513D02*
X0059637Y0115513D01*
X0061236Y0113915D02*
X0120850Y0113915D01*
X0120850Y0112316D02*
X0062750Y0112316D01*
X0062750Y0110718D02*
X0120850Y0110718D01*
X0120850Y0109119D02*
X0062750Y0109119D01*
X0062750Y0107520D02*
X0120850Y0107520D01*
X0120850Y0105922D02*
X0062750Y0105922D01*
X0062750Y0104323D02*
X0120850Y0104323D01*
X0120850Y0102725D02*
X0062750Y0102725D01*
X0062750Y0101126D02*
X0120850Y0101126D01*
X0120850Y0099528D02*
X0062750Y0099528D01*
X0062750Y0097929D02*
X0120850Y0097929D01*
X0120850Y0096331D02*
X0062750Y0096331D01*
X0062750Y0094732D02*
X0120850Y0094732D01*
X0120850Y0093134D02*
X0062750Y0093134D01*
X0062750Y0091535D02*
X0120850Y0091535D01*
X0120850Y0089937D02*
X0062750Y0089937D01*
X0062750Y0088338D02*
X0120850Y0088338D01*
X0120850Y0086740D02*
X0062750Y0086740D01*
X0062750Y0085141D02*
X0120850Y0085141D01*
X0120850Y0083543D02*
X0062750Y0083543D01*
X0063287Y0081944D02*
X0120850Y0081944D01*
X0120850Y0080346D02*
X0063731Y0080346D01*
X0063608Y0078747D02*
X0063375Y0078747D01*
X0062707Y0077149D02*
X0061402Y0077149D01*
X0059698Y0077149D02*
X0055346Y0077149D01*
X0055346Y0078747D02*
X0057725Y0078747D01*
X0057369Y0080346D02*
X0055346Y0080346D01*
X0057813Y0081944D02*
X0024800Y0081944D01*
X0024800Y0082919D02*
X0024981Y0083356D01*
X0024981Y0084622D01*
X0024800Y0085059D01*
X0024800Y0089169D01*
X0024981Y0089606D01*
X0024981Y0090872D01*
X0024497Y0092041D01*
X0023602Y0092936D01*
X0022433Y0093420D01*
X0021167Y0093420D01*
X0019998Y0092936D01*
X0019103Y0092041D01*
X0018619Y0090872D01*
X0018619Y0089606D01*
X0018800Y0089169D01*
X0018800Y0085059D01*
X0018619Y0084622D01*
X0018619Y0083356D01*
X0018800Y0082919D01*
X0018800Y0078809D01*
X0018619Y0078372D01*
X0018619Y0077106D01*
X0019103Y0075937D01*
X0019998Y0075042D01*
X0020435Y0074861D01*
X0020479Y0074818D01*
X0020479Y0074644D01*
X0020347Y0073158D01*
X0020811Y0071678D01*
X0020931Y0071534D01*
X0020931Y0070840D01*
X0021256Y0070515D01*
X0021226Y0070498D01*
X0020891Y0070163D01*
X0020654Y0069753D01*
X0020531Y0069295D01*
X0020531Y0067077D01*
X0024116Y0067077D01*
X0024116Y0066708D01*
X0024484Y0066708D01*
X0024484Y0062927D01*
X0026505Y0062927D01*
X0026963Y0063050D01*
X0027374Y0063287D01*
X0027709Y0063622D01*
X0027946Y0064032D01*
X0028068Y0064490D01*
X0028068Y0066708D01*
X0024484Y0066708D01*
X0024484Y0067077D01*
X0028068Y0067077D01*
X0028068Y0069295D01*
X0027946Y0069753D01*
X0027709Y0070163D01*
X0027374Y0070498D01*
X0027344Y0070515D01*
X0027400Y0070571D01*
X0028254Y0070571D01*
X0028254Y0067986D01*
X0028904Y0067336D01*
X0028904Y0065516D01*
X0029498Y0064083D01*
X0032201Y0061379D01*
X0032201Y0058616D01*
X0033021Y0057796D01*
X0034535Y0057796D01*
X0034591Y0057740D01*
X0035061Y0057545D01*
X0035465Y0057309D01*
X0036955Y0055818D01*
X0036955Y0053123D01*
X0036455Y0052623D01*
X0036455Y0048977D01*
X0039033Y0046400D01*
X0042678Y0046400D01*
X0045255Y0048977D01*
X0045255Y0052623D01*
X0044755Y0053123D01*
X0044755Y0058210D01*
X0044161Y0059643D01*
X0040513Y0063291D01*
X0040513Y0066862D01*
X0039693Y0067682D01*
X0037050Y0067682D01*
X0037354Y0067986D01*
X0037354Y0080957D01*
X0036533Y0081777D01*
X0029074Y0081777D01*
X0028254Y0080957D01*
X0028254Y0078371D01*
X0025410Y0078371D01*
X0024800Y0078982D01*
X0024800Y0082919D01*
X0024981Y0083543D02*
X0058350Y0083543D01*
X0058350Y0085141D02*
X0024800Y0085141D01*
X0024800Y0086740D02*
X0058350Y0086740D01*
X0058350Y0088338D02*
X0024800Y0088338D01*
X0024981Y0089937D02*
X0028679Y0089937D01*
X0028583Y0091535D02*
X0024706Y0091535D01*
X0023124Y0093134D02*
X0028583Y0093134D01*
X0028583Y0094732D02*
X0018600Y0094732D01*
X0018600Y0093134D02*
X0020476Y0093134D01*
X0018894Y0091535D02*
X0018600Y0091535D01*
X0018600Y0089937D02*
X0018619Y0089937D01*
X0018600Y0088338D02*
X0018800Y0088338D01*
X0018800Y0086740D02*
X0018600Y0086740D01*
X0018600Y0085141D02*
X0018800Y0085141D01*
X0018619Y0083543D02*
X0018600Y0083543D01*
X0018600Y0081944D02*
X0018800Y0081944D01*
X0018800Y0080346D02*
X0018600Y0080346D01*
X0018600Y0078747D02*
X0018774Y0078747D01*
X0018619Y0077149D02*
X0018600Y0077149D01*
X0018600Y0075550D02*
X0019490Y0075550D01*
X0018600Y0073952D02*
X0020417Y0073952D01*
X0020599Y0072353D02*
X0018600Y0072353D01*
X0018600Y0070755D02*
X0021017Y0070755D01*
X0020531Y0069156D02*
X0018600Y0069156D01*
X0018600Y0067558D02*
X0020531Y0067558D01*
X0020531Y0066708D02*
X0020531Y0064490D01*
X0020654Y0064032D01*
X0020891Y0063622D01*
X0021226Y0063287D01*
X0021637Y0063050D01*
X0022095Y0062927D01*
X0024116Y0062927D01*
X0024116Y0066708D01*
X0020531Y0066708D01*
X0020531Y0065959D02*
X0018600Y0065959D01*
X0018600Y0064361D02*
X0020566Y0064361D01*
X0018600Y0062762D02*
X0030818Y0062762D01*
X0032201Y0061164D02*
X0018600Y0061164D01*
X0018600Y0059565D02*
X0032201Y0059565D01*
X0032850Y0057967D02*
X0018600Y0057967D01*
X0018600Y0056368D02*
X0036405Y0056368D01*
X0036955Y0054770D02*
X0033674Y0054770D01*
X0032843Y0055600D02*
X0031055Y0055600D01*
X0031055Y0051000D01*
X0030655Y0051000D01*
X0030655Y0050600D01*
X0026055Y0050600D01*
X0026055Y0048812D01*
X0028867Y0046000D01*
X0030655Y0046000D01*
X0030655Y0050600D01*
X0031055Y0050600D01*
X0031055Y0046000D01*
X0032843Y0046000D01*
X0035655Y0048812D01*
X0035655Y0050600D01*
X0031055Y0050600D01*
X0031055Y0051000D01*
X0035655Y0051000D01*
X0035655Y0052788D01*
X0032843Y0055600D01*
X0035272Y0053171D02*
X0036955Y0053171D01*
X0036455Y0051573D02*
X0035655Y0051573D01*
X0035655Y0049974D02*
X0036455Y0049974D01*
X0037057Y0048376D02*
X0035219Y0048376D01*
X0033620Y0046777D02*
X0038656Y0046777D01*
X0039011Y0045179D02*
X0033265Y0045179D01*
X0032843Y0045600D02*
X0031055Y0045600D01*
X0031055Y0041000D01*
X0030655Y0041000D01*
X0030655Y0040600D01*
X0026055Y0040600D01*
X0026055Y0038812D01*
X0028867Y0036000D01*
X0030655Y0036000D01*
X0030655Y0040600D01*
X0031055Y0040600D01*
X0031055Y0036000D01*
X0032843Y0036000D01*
X0035655Y0038812D01*
X0035655Y0040600D01*
X0031055Y0040600D01*
X0031055Y0041000D01*
X0035655Y0041000D01*
X0035655Y0042788D01*
X0032843Y0045600D01*
X0034863Y0043580D02*
X0037413Y0043580D01*
X0036455Y0041982D02*
X0035655Y0041982D01*
X0035655Y0040383D02*
X0036455Y0040383D01*
X0036648Y0038785D02*
X0035628Y0038785D01*
X0034029Y0037186D02*
X0038247Y0037186D01*
X0031055Y0037186D02*
X0030655Y0037186D01*
X0030655Y0038785D02*
X0031055Y0038785D01*
X0031055Y0040383D02*
X0030655Y0040383D01*
X0030655Y0041000D02*
X0026055Y0041000D01*
X0026055Y0042788D01*
X0028867Y0045600D01*
X0030655Y0045600D01*
X0030655Y0041000D01*
X0030655Y0041982D02*
X0031055Y0041982D01*
X0031055Y0043580D02*
X0030655Y0043580D01*
X0030655Y0045179D02*
X0031055Y0045179D01*
X0031055Y0046777D02*
X0030655Y0046777D01*
X0030655Y0048376D02*
X0031055Y0048376D01*
X0031055Y0049974D02*
X0030655Y0049974D01*
X0030655Y0051000D02*
X0026055Y0051000D01*
X0026055Y0052788D01*
X0028867Y0055600D01*
X0030655Y0055600D01*
X0030655Y0051000D01*
X0030655Y0051573D02*
X0031055Y0051573D01*
X0031055Y0053171D02*
X0030655Y0053171D01*
X0030655Y0054770D02*
X0031055Y0054770D01*
X0028037Y0054770D02*
X0018600Y0054770D01*
X0018600Y0053171D02*
X0026438Y0053171D01*
X0026055Y0051573D02*
X0018600Y0051573D01*
X0018600Y0049974D02*
X0026055Y0049974D01*
X0026491Y0048376D02*
X0018600Y0048376D01*
X0018600Y0046777D02*
X0028090Y0046777D01*
X0028445Y0045179D02*
X0018600Y0045179D01*
X0018600Y0043580D02*
X0026847Y0043580D01*
X0026055Y0041982D02*
X0018600Y0041982D01*
X0018600Y0040383D02*
X0026055Y0040383D01*
X0026082Y0038785D02*
X0018600Y0038785D01*
X0018600Y0037186D02*
X0027681Y0037186D01*
X0042699Y0045179D02*
X0046955Y0045179D01*
X0046955Y0046777D02*
X0043055Y0046777D01*
X0044653Y0048376D02*
X0046955Y0048376D01*
X0046455Y0049974D02*
X0045255Y0049974D01*
X0045255Y0051573D02*
X0046455Y0051573D01*
X0047004Y0053171D02*
X0044755Y0053171D01*
X0044755Y0054770D02*
X0047093Y0054770D01*
X0047093Y0056368D02*
X0044755Y0056368D01*
X0044755Y0057967D02*
X0046236Y0057967D01*
X0045587Y0059565D02*
X0044194Y0059565D01*
X0045587Y0061164D02*
X0042641Y0061164D01*
X0041042Y0062762D02*
X0045587Y0062762D01*
X0045587Y0064361D02*
X0040513Y0064361D01*
X0040513Y0065959D02*
X0045587Y0065959D01*
X0046283Y0067558D02*
X0039817Y0067558D01*
X0037354Y0069156D02*
X0046246Y0069156D01*
X0046246Y0070755D02*
X0037354Y0070755D01*
X0037354Y0072353D02*
X0046246Y0072353D01*
X0046246Y0073952D02*
X0037354Y0073952D01*
X0037354Y0075550D02*
X0046246Y0075550D01*
X0046246Y0077149D02*
X0037354Y0077149D01*
X0037354Y0078747D02*
X0046246Y0078747D01*
X0046246Y0080346D02*
X0037354Y0080346D01*
X0042600Y0088734D02*
X0053454Y0088734D01*
X0053912Y0088857D01*
X0054323Y0089094D01*
X0054658Y0089429D01*
X0054895Y0089839D01*
X0055017Y0090297D01*
X0055017Y0101939D01*
X0042600Y0101939D01*
X0042600Y0088734D01*
X0042600Y0089937D02*
X0041000Y0089937D01*
X0041000Y0091535D02*
X0042600Y0091535D01*
X0042600Y0093134D02*
X0041000Y0093134D01*
X0041000Y0094732D02*
X0042600Y0094732D01*
X0042600Y0096331D02*
X0041000Y0096331D01*
X0041000Y0097929D02*
X0042600Y0097929D01*
X0042600Y0099528D02*
X0041000Y0099528D01*
X0041000Y0101126D02*
X0042600Y0101126D01*
X0042600Y0102725D02*
X0058350Y0102725D01*
X0058350Y0104323D02*
X0055017Y0104323D01*
X0055017Y0105922D02*
X0058350Y0105922D01*
X0058350Y0107520D02*
X0055017Y0107520D01*
X0055017Y0109119D02*
X0058350Y0109119D01*
X0058210Y0110718D02*
X0055017Y0110718D01*
X0055017Y0112316D02*
X0056612Y0112316D01*
X0060550Y0111489D02*
X0053050Y0118989D01*
X0051782Y0121907D02*
X0041400Y0121907D01*
X0041400Y0118710D02*
X0049869Y0118710D01*
X0050153Y0120309D02*
X0037650Y0120309D01*
X0037650Y0121907D02*
X0036950Y0121907D01*
X0036950Y0123506D02*
X0037650Y0123506D01*
X0037650Y0125104D02*
X0036950Y0125104D01*
X0034446Y0125104D02*
X0033500Y0125104D01*
X0031300Y0124489D02*
X0029300Y0126489D01*
X0031300Y0124489D02*
X0031300Y0120239D01*
X0028672Y0115513D02*
X0028000Y0115513D01*
X0028000Y0115639D02*
X0023400Y0115639D01*
X0023400Y0111889D01*
X0026437Y0111889D01*
X0026895Y0112012D01*
X0027305Y0112249D01*
X0027640Y0112584D01*
X0027877Y0112994D01*
X0028000Y0113452D01*
X0028000Y0115639D01*
X0028000Y0113915D02*
X0028583Y0113915D01*
X0028583Y0112316D02*
X0027373Y0112316D01*
X0028583Y0110718D02*
X0018600Y0110718D01*
X0018600Y0112316D02*
X0018727Y0112316D01*
X0018600Y0109119D02*
X0028583Y0109119D01*
X0028583Y0107520D02*
X0018600Y0107520D01*
X0018600Y0105922D02*
X0028583Y0105922D01*
X0028583Y0104323D02*
X0018600Y0104323D01*
X0018600Y0102725D02*
X0041000Y0102725D01*
X0041000Y0104323D02*
X0042600Y0104323D01*
X0042600Y0105922D02*
X0041000Y0105922D01*
X0041000Y0107520D02*
X0042600Y0107520D01*
X0042600Y0109119D02*
X0041000Y0109119D01*
X0041000Y0110718D02*
X0042600Y0110718D01*
X0042600Y0112316D02*
X0041000Y0112316D01*
X0041000Y0113915D02*
X0042600Y0113915D01*
X0042600Y0115513D02*
X0041000Y0115513D01*
X0041400Y0117112D02*
X0050429Y0117112D01*
X0049223Y0128301D02*
X0086739Y0128301D01*
X0086119Y0129900D02*
X0050822Y0129900D01*
X0052420Y0131498D02*
X0086378Y0131498D01*
X0087887Y0133097D02*
X0054019Y0133097D01*
X0055617Y0134695D02*
X0114233Y0134695D01*
X0118731Y0129900D02*
X0119028Y0129900D01*
X0118111Y0128301D02*
X0120627Y0128301D01*
X0130550Y0137739D02*
X0116800Y0151489D01*
X0069300Y0151489D01*
X0067190Y0153877D02*
X0058250Y0153877D01*
X0058250Y0153789D02*
X0058250Y0154189D01*
X0057850Y0154189D01*
X0057850Y0161789D01*
X0057672Y0161789D01*
X0056926Y0161671D01*
X0056207Y0161437D01*
X0055534Y0161094D01*
X0054923Y0160650D01*
X0054389Y0160116D01*
X0053945Y0159505D01*
X0053602Y0158832D01*
X0053368Y0158113D01*
X0053250Y0157367D01*
X0053250Y0154189D01*
X0057850Y0154189D01*
X0057850Y0153789D01*
X0053250Y0153789D01*
X0053250Y0150611D01*
X0053368Y0149865D01*
X0053602Y0149146D01*
X0053945Y0148473D01*
X0054389Y0147862D01*
X0054923Y0147328D01*
X0055534Y0146884D01*
X0056207Y0146541D01*
X0056926Y0146307D01*
X0057672Y0146189D01*
X0057850Y0146189D01*
X0057850Y0153789D01*
X0058250Y0153789D01*
X0062850Y0153789D01*
X0062850Y0150611D01*
X0062732Y0149865D01*
X0062498Y0149146D01*
X0062155Y0148473D01*
X0061711Y0147862D01*
X0061177Y0147328D01*
X0060566Y0146884D01*
X0059893Y0146541D01*
X0059174Y0146307D01*
X0058428Y0146189D01*
X0058250Y0146189D01*
X0058250Y0153789D01*
X0058250Y0154189D02*
X0062850Y0154189D01*
X0062850Y0157367D01*
X0062732Y0158113D01*
X0062498Y0158832D01*
X0062155Y0159505D01*
X0061711Y0160116D01*
X0061177Y0160650D01*
X0060566Y0161094D01*
X0059893Y0161437D01*
X0059174Y0161671D01*
X0058428Y0161789D01*
X0058250Y0161789D01*
X0058250Y0154189D01*
X0057850Y0153877D02*
X0052450Y0153877D01*
X0052450Y0152279D02*
X0053250Y0152279D01*
X0053250Y0150680D02*
X0052450Y0150680D01*
X0052450Y0150114D02*
X0052450Y0157864D01*
X0051780Y0159481D01*
X0050542Y0160719D01*
X0048925Y0161389D01*
X0047175Y0161389D01*
X0045558Y0160719D01*
X0044320Y0159481D01*
X0043650Y0157864D01*
X0043650Y0150114D01*
X0044320Y0148497D01*
X0045558Y0147259D01*
X0047175Y0146589D01*
X0048925Y0146589D01*
X0050542Y0147259D01*
X0051780Y0148497D01*
X0052450Y0150114D01*
X0052023Y0149082D02*
X0053635Y0149082D01*
X0054767Y0147483D02*
X0050767Y0147483D01*
X0045333Y0147483D02*
X0040767Y0147483D01*
X0040542Y0147259D02*
X0041780Y0148497D01*
X0042450Y0150114D01*
X0042450Y0157864D01*
X0041780Y0159481D01*
X0040542Y0160719D01*
X0038925Y0161389D01*
X0037175Y0161389D01*
X0035558Y0160719D01*
X0034320Y0159481D01*
X0033650Y0157864D01*
X0033650Y0150114D01*
X0034320Y0148497D01*
X0035558Y0147259D01*
X0037175Y0146589D01*
X0038925Y0146589D01*
X0040542Y0147259D01*
X0042023Y0149082D02*
X0044077Y0149082D01*
X0043650Y0150680D02*
X0042450Y0150680D01*
X0042450Y0152279D02*
X0043650Y0152279D01*
X0043650Y0153877D02*
X0042450Y0153877D01*
X0042450Y0155476D02*
X0043650Y0155476D01*
X0043650Y0157074D02*
X0042450Y0157074D01*
X0042115Y0158673D02*
X0043985Y0158673D01*
X0045110Y0160271D02*
X0040990Y0160271D01*
X0035110Y0160271D02*
X0030990Y0160271D01*
X0030542Y0160719D02*
X0028925Y0161389D01*
X0027175Y0161389D01*
X0025558Y0160719D01*
X0024320Y0159481D01*
X0023650Y0157864D01*
X0023650Y0150114D01*
X0024320Y0148497D01*
X0025558Y0147259D01*
X0027175Y0146589D01*
X0028925Y0146589D01*
X0030542Y0147259D01*
X0031780Y0148497D01*
X0032450Y0150114D01*
X0032450Y0157864D01*
X0031780Y0159481D01*
X0030542Y0160719D01*
X0032115Y0158673D02*
X0033985Y0158673D01*
X0033650Y0157074D02*
X0032450Y0157074D01*
X0032450Y0155476D02*
X0033650Y0155476D01*
X0033650Y0153877D02*
X0032450Y0153877D01*
X0032450Y0152279D02*
X0033650Y0152279D01*
X0033650Y0150680D02*
X0032450Y0150680D01*
X0032023Y0149082D02*
X0034077Y0149082D01*
X0035333Y0147483D02*
X0030767Y0147483D01*
X0025333Y0147483D02*
X0018600Y0147483D01*
X0018600Y0145885D02*
X0066119Y0145885D01*
X0066269Y0147483D02*
X0061333Y0147483D01*
X0062465Y0149082D02*
X0067208Y0149082D01*
X0066192Y0150680D02*
X0062850Y0150680D01*
X0062850Y0152279D02*
X0066184Y0152279D01*
X0062850Y0155476D02*
X0133110Y0155476D01*
X0133110Y0157074D02*
X0062850Y0157074D01*
X0062550Y0158673D02*
X0133110Y0158673D01*
X0133110Y0160271D02*
X0061556Y0160271D01*
X0058250Y0160271D02*
X0057850Y0160271D01*
X0057850Y0158673D02*
X0058250Y0158673D01*
X0058250Y0157074D02*
X0057850Y0157074D01*
X0057850Y0155476D02*
X0058250Y0155476D01*
X0058250Y0152279D02*
X0057850Y0152279D01*
X0057850Y0150680D02*
X0058250Y0150680D01*
X0058250Y0149082D02*
X0057850Y0149082D01*
X0057850Y0147483D02*
X0058250Y0147483D01*
X0053250Y0155476D02*
X0052450Y0155476D01*
X0052450Y0157074D02*
X0053250Y0157074D01*
X0053550Y0158673D02*
X0052115Y0158673D01*
X0050990Y0160271D02*
X0054544Y0160271D01*
X0071410Y0153877D02*
X0133110Y0153877D01*
X0133110Y0152279D02*
X0119121Y0152279D01*
X0120720Y0150680D02*
X0133110Y0150680D01*
X0133110Y0149082D02*
X0122318Y0149082D01*
X0123917Y0147483D02*
X0133110Y0147483D01*
X0133110Y0145885D02*
X0125515Y0145885D01*
X0127114Y0144286D02*
X0133110Y0144286D01*
X0133110Y0142688D02*
X0128712Y0142688D01*
X0130311Y0141089D02*
X0133110Y0141089D01*
X0133110Y0139491D02*
X0131910Y0139491D01*
X0132750Y0137892D02*
X0133110Y0137892D01*
X0133110Y0136294D02*
X0132750Y0136294D01*
X0132750Y0134695D02*
X0133110Y0134695D01*
X0133110Y0133097D02*
X0132750Y0133097D01*
X0132750Y0131498D02*
X0133110Y0131498D01*
X0133110Y0129900D02*
X0132750Y0129900D01*
X0132750Y0128301D02*
X0133110Y0128301D01*
X0133110Y0126703D02*
X0132750Y0126703D01*
X0132750Y0125104D02*
X0133110Y0125104D01*
X0133110Y0123506D02*
X0132750Y0123506D01*
X0132750Y0121907D02*
X0133110Y0121907D01*
X0133110Y0120309D02*
X0132750Y0120309D01*
X0132750Y0118710D02*
X0133110Y0118710D01*
X0133110Y0117112D02*
X0132750Y0117112D01*
X0132750Y0115513D02*
X0133110Y0115513D01*
X0133110Y0113915D02*
X0132750Y0113915D01*
X0132750Y0112316D02*
X0133110Y0112316D01*
X0133110Y0110718D02*
X0132750Y0110718D01*
X0132750Y0109119D02*
X0133110Y0109119D01*
X0133110Y0107520D02*
X0132750Y0107520D01*
X0132750Y0105922D02*
X0133110Y0105922D01*
X0133110Y0104323D02*
X0132750Y0104323D01*
X0132750Y0102725D02*
X0133110Y0102725D01*
X0133110Y0101126D02*
X0132750Y0101126D01*
X0132750Y0099528D02*
X0133110Y0099528D01*
X0133110Y0097929D02*
X0132750Y0097929D01*
X0132750Y0096331D02*
X0133110Y0096331D01*
X0133110Y0094732D02*
X0132750Y0094732D01*
X0132750Y0093134D02*
X0133110Y0093134D01*
X0133110Y0091535D02*
X0132750Y0091535D01*
X0132750Y0089937D02*
X0133110Y0089937D01*
X0133110Y0088338D02*
X0132750Y0088338D01*
X0132750Y0086740D02*
X0133110Y0086740D01*
X0133110Y0085141D02*
X0132750Y0085141D01*
X0132750Y0083543D02*
X0133110Y0083543D01*
X0133110Y0081944D02*
X0132750Y0081944D01*
X0132750Y0080346D02*
X0133110Y0080346D01*
X0133110Y0078747D02*
X0132750Y0078747D01*
X0132750Y0077149D02*
X0133110Y0077149D01*
X0133110Y0075550D02*
X0132750Y0075550D01*
X0132750Y0073952D02*
X0133110Y0073952D01*
X0133110Y0072353D02*
X0132750Y0072353D01*
X0132750Y0070755D02*
X0133110Y0070755D01*
X0133110Y0069156D02*
X0132750Y0069156D01*
X0132750Y0067558D02*
X0133110Y0067558D01*
X0133110Y0065959D02*
X0132750Y0065959D01*
X0132750Y0064361D02*
X0133110Y0064361D01*
X0133110Y0062762D02*
X0132750Y0062762D01*
X0132750Y0061164D02*
X0133110Y0061164D01*
X0133110Y0059565D02*
X0132750Y0059565D01*
X0132750Y0057967D02*
X0133110Y0057967D01*
X0133110Y0056368D02*
X0132750Y0056368D01*
X0132750Y0054770D02*
X0133110Y0054770D01*
X0133110Y0053171D02*
X0132750Y0053171D01*
X0132750Y0051573D02*
X0133110Y0051573D01*
X0133110Y0049974D02*
X0132750Y0049974D01*
X0132750Y0048376D02*
X0133110Y0048376D01*
X0133110Y0046777D02*
X0132750Y0046777D01*
X0133110Y0045179D02*
X0132351Y0045179D01*
X0133110Y0043580D02*
X0130752Y0043580D01*
X0129154Y0041982D02*
X0133110Y0041982D01*
X0133110Y0040383D02*
X0127555Y0040383D01*
X0125957Y0038785D02*
X0133110Y0038785D01*
X0133110Y0037186D02*
X0123464Y0037186D01*
X0124861Y0040800D02*
X0120855Y0040800D01*
X0118247Y0037186D02*
X0113464Y0037186D01*
X0115062Y0038785D02*
X0116648Y0038785D01*
X0116455Y0040383D02*
X0115255Y0040383D01*
X0115255Y0041982D02*
X0116455Y0041982D01*
X0124861Y0040800D02*
X0130550Y0046489D01*
X0130550Y0137739D01*
X0133110Y0161870D02*
X0018600Y0161870D01*
X0018600Y0160271D02*
X0025110Y0160271D01*
X0023985Y0158673D02*
X0018600Y0158673D01*
X0018600Y0157074D02*
X0023650Y0157074D01*
X0023650Y0155476D02*
X0018600Y0155476D01*
X0018600Y0153877D02*
X0023650Y0153877D01*
X0023650Y0152279D02*
X0018600Y0152279D01*
X0018600Y0150680D02*
X0023650Y0150680D01*
X0024077Y0149082D02*
X0018600Y0149082D01*
X0018600Y0128301D02*
X0019113Y0128301D01*
X0018619Y0126703D02*
X0018600Y0126703D01*
X0018600Y0125104D02*
X0018735Y0125104D01*
X0021800Y0126489D02*
X0021800Y0123239D01*
X0023050Y0121989D01*
X0024981Y0126703D02*
X0026119Y0126703D01*
X0026613Y0128301D02*
X0024487Y0128301D01*
X0023400Y0115513D02*
X0022700Y0115513D01*
X0022700Y0113915D02*
X0023400Y0113915D01*
X0023400Y0112316D02*
X0022700Y0112316D01*
X0018600Y0101126D02*
X0028583Y0101126D01*
X0028583Y0099528D02*
X0018600Y0099528D01*
X0018600Y0097929D02*
X0028583Y0097929D01*
X0028583Y0096331D02*
X0018600Y0096331D01*
X0024800Y0080346D02*
X0028254Y0080346D01*
X0028254Y0078747D02*
X0025034Y0078747D01*
X0028068Y0069156D02*
X0028254Y0069156D01*
X0028068Y0067558D02*
X0028682Y0067558D01*
X0028904Y0065959D02*
X0028068Y0065959D01*
X0028034Y0064361D02*
X0029383Y0064361D01*
X0024484Y0064361D02*
X0024116Y0064361D01*
X0024116Y0065959D02*
X0024484Y0065959D01*
X0053464Y0037186D02*
X0058247Y0037186D01*
X0056648Y0038785D02*
X0055062Y0038785D01*
X0055255Y0040383D02*
X0056455Y0040383D01*
X0056455Y0041982D02*
X0055255Y0041982D01*
X0054755Y0043580D02*
X0057413Y0043580D01*
X0059011Y0045179D02*
X0054755Y0045179D01*
X0054755Y0046777D02*
X0058656Y0046777D01*
X0057057Y0048376D02*
X0054755Y0048376D01*
X0055255Y0049974D02*
X0056455Y0049974D01*
X0056455Y0051573D02*
X0055255Y0051573D01*
X0054893Y0053171D02*
X0057004Y0053171D01*
X0059116Y0067558D02*
X0059484Y0067558D01*
X0059484Y0069156D02*
X0059116Y0069156D01*
X0059116Y0070755D02*
X0059484Y0070755D01*
X0055346Y0073952D02*
X0067472Y0073952D01*
X0067472Y0073854D02*
X0067472Y0075010D01*
X0068628Y0075010D01*
X0068628Y0078988D01*
X0071830Y0078988D01*
X0072288Y0078865D01*
X0072699Y0078628D01*
X0073034Y0078293D01*
X0073271Y0077883D01*
X0073393Y0077425D01*
X0073393Y0075010D01*
X0068628Y0075010D01*
X0068628Y0073854D01*
X0073393Y0073854D01*
X0073393Y0071439D01*
X0073271Y0070981D01*
X0073034Y0070571D01*
X0072699Y0070236D01*
X0072288Y0069999D01*
X0071830Y0069876D01*
X0068628Y0069876D01*
X0068628Y0073854D01*
X0067472Y0073854D01*
X0068628Y0073952D02*
X0120850Y0073952D01*
X0120850Y0075550D02*
X0073393Y0075550D01*
X0073393Y0077149D02*
X0120850Y0077149D01*
X0120850Y0078747D02*
X0072492Y0078747D01*
X0068628Y0078747D02*
X0067472Y0078747D01*
X0067472Y0077149D02*
X0068628Y0077149D01*
X0068628Y0075550D02*
X0067472Y0075550D01*
X0067472Y0072353D02*
X0068628Y0072353D01*
X0068628Y0070755D02*
X0067472Y0070755D01*
X0062707Y0075550D02*
X0055346Y0075550D01*
X0060550Y0080239D02*
X0060550Y0111489D01*
X0058350Y0101126D02*
X0055017Y0101126D01*
X0055017Y0099528D02*
X0058350Y0099528D01*
X0058350Y0097929D02*
X0055017Y0097929D01*
X0055017Y0096331D02*
X0058350Y0096331D01*
X0058350Y0094732D02*
X0055017Y0094732D01*
X0055017Y0093134D02*
X0058350Y0093134D01*
X0058350Y0091535D02*
X0055017Y0091535D01*
X0054921Y0089937D02*
X0058350Y0089937D01*
X0073393Y0072353D02*
X0120850Y0072353D01*
X0120850Y0070755D02*
X0073140Y0070755D01*
X0083108Y0054770D02*
X0088602Y0054770D01*
X0087004Y0053171D02*
X0084707Y0053171D01*
X0085255Y0051573D02*
X0086455Y0051573D01*
X0086455Y0049974D02*
X0085255Y0049974D01*
X0084653Y0048376D02*
X0087057Y0048376D01*
X0088656Y0046777D02*
X0083055Y0046777D01*
X0082699Y0045179D02*
X0089011Y0045179D01*
X0087413Y0043580D02*
X0084298Y0043580D01*
X0085255Y0041982D02*
X0086455Y0041982D01*
X0086455Y0040383D02*
X0085255Y0040383D01*
X0085062Y0038785D02*
X0086648Y0038785D01*
X0088247Y0037186D02*
X0083464Y0037186D01*
D21*
X0089300Y0065239D03*
X0089300Y0070239D03*
X0089300Y0075239D03*
X0089300Y0080239D03*
X0089300Y0085239D03*
X0089300Y0090239D03*
X0089300Y0095239D03*
X0089300Y0100239D03*
X0089300Y0105239D03*
X0089300Y0110239D03*
X0089300Y0115239D03*
X0089300Y0120239D03*
X0094300Y0120239D03*
X0094300Y0115239D03*
X0094300Y0110239D03*
X0094300Y0105239D03*
X0099300Y0105239D03*
X0099300Y0100239D03*
X0099300Y0095239D03*
X0094300Y0095239D03*
X0094300Y0100239D03*
X0094300Y0090239D03*
X0099300Y0090239D03*
X0099300Y0085239D03*
X0094300Y0085239D03*
X0094300Y0080239D03*
X0099300Y0080239D03*
X0094300Y0075239D03*
X0094300Y0070239D03*
X0094300Y0065239D03*
X0084300Y0080239D03*
X0084300Y0085239D03*
X0084300Y0090239D03*
X0084300Y0095239D03*
X0084300Y0100239D03*
X0084300Y0105239D03*
X0089300Y0130239D03*
X0069300Y0146489D03*
X0069300Y0151489D03*
X0043050Y0130239D03*
X0043050Y0125239D03*
X0053050Y0118989D03*
X0029300Y0126489D03*
X0021800Y0126489D03*
X0021800Y0090239D03*
X0021800Y0083989D03*
X0021800Y0077739D03*
X0060550Y0080239D03*
X0115550Y0130239D03*
D22*
X0068896Y0060643D02*
X0068050Y0061046D01*
X0068896Y0060643D02*
X0059300Y0060643D01*
X0053089Y0060643D01*
X0051839Y0059393D01*
X0050993Y0058546D01*
X0050993Y0050938D01*
X0050855Y0050800D01*
X0050855Y0040800D01*
X0040855Y0040800D01*
X0040855Y0050800D02*
X0040855Y0057434D01*
X0036800Y0061489D01*
X0036800Y0061046D01*
X0036357Y0062739D01*
X0032804Y0066292D01*
X0032804Y0074471D01*
X0025068Y0074471D01*
X0024379Y0074471D01*
X0024300Y0073585D01*
X0049743Y0062739D02*
X0050796Y0060436D01*
X0050796Y0074471D01*
X0049743Y0062739D02*
X0051839Y0059393D01*
D23*
X0025068Y0074471D02*
X0021800Y0077739D01*
X0021800Y0083989D01*
X0021800Y0090239D01*
X0089300Y0130239D02*
X0115550Y0130239D01*
M02*
