%
M48
M72
T01C0.02362
T02C0.04000
%
T01
X89300Y120239
X94300Y120239
X89300Y115239
X94300Y115239
X94300Y110239
X89300Y110239
X89300Y105239
X94300Y105239
X99300Y105239
X84300Y105239
X84300Y100239
X89300Y100239
X94300Y100239
X99300Y100239
X99300Y95239
X94300Y95239
X89300Y95239
X84300Y95239
X84300Y90239
X89300Y90239
X94300Y90239
X99300Y90239
X99300Y85239
X94300Y85239
X89300Y85239
X84300Y85239
X84300Y80239
X89300Y80239
X94300Y80239
X99300Y80239
X94300Y75239
X89300Y75239
X94300Y70239
X89300Y70239
X94300Y65239
X89300Y65239
X21800Y77739
X21800Y83989
X21800Y90239
X43050Y125239
X43050Y130239
X53050Y118989
X60550Y80239
X69300Y151489
X69300Y146489
X21800Y126489
X29300Y126489
X115550Y130239
X89300Y130239
T02
X30855Y40800
X40855Y40800
X50855Y40800
X60855Y40800
X70855Y40800
X80855Y40800
X90855Y40800
X100855Y40800
X110855Y40800
X120855Y40800
X120855Y50800
X110855Y50800
X100855Y50800
X90855Y50800
X80855Y50800
X70855Y50800
X60855Y50800
X50855Y50800
X40855Y50800
X30855Y50800
X28050Y153989
X38050Y153989
X48050Y153989
X58050Y153989
M30
