G75*
%MOIN*%
%OFA0B0*%
%FSLAX25Y25*%
%IPPOS*%
%LPD*%
%AMOC8*
5,1,8,0,0,1.08239X$1,22.5*
%
%ADD10C,0.00000*%
%ADD11R,0.24370X0.65748*%
%ADD12R,0.23235X0.24809*%
%ADD13R,0.06699X0.12211*%
%ADD14R,0.05912X0.07487*%
%ADD15R,0.07487X0.05912*%
%ADD16OC8,0.06400*%
%ADD17C,0.06400*%
%ADD18R,0.06700X0.05000*%
%ADD19R,0.07200X0.00600*%
%ADD20R,0.05000X0.06700*%
%ADD21R,0.00600X0.07200*%
%ADD22R,0.04337X0.04731*%
D10*
X0016800Y0033989D02*
X0016800Y0163910D01*
X0134910Y0163910D01*
X0134910Y0033989D01*
X0016800Y0033989D01*
D11*
X0091820Y0093044D03*
D12*
X0041800Y0102739D03*
D13*
X0032804Y0074471D03*
X0050796Y0074471D03*
D14*
X0049743Y0062739D03*
X0036357Y0062739D03*
D15*
X0068050Y0061046D03*
X0068050Y0074432D03*
D16*
X0070855Y0050800D03*
X0070855Y0040800D03*
X0060855Y0040800D03*
X0050855Y0040800D03*
X0050855Y0050800D03*
X0060855Y0050800D03*
X0040855Y0050800D03*
X0040855Y0040800D03*
X0030855Y0040800D03*
X0030855Y0050800D03*
X0080855Y0050800D03*
X0080855Y0040800D03*
X0090855Y0040800D03*
X0090855Y0050800D03*
X0100855Y0050800D03*
X0100855Y0040800D03*
X0110855Y0040800D03*
X0110855Y0050800D03*
X0120855Y0050800D03*
X0120855Y0040800D03*
D17*
X0058050Y0150989D02*
X0058050Y0156989D01*
X0048050Y0156989D02*
X0048050Y0150989D01*
X0038050Y0150989D02*
X0038050Y0156989D01*
X0028050Y0156989D02*
X0028050Y0150989D01*
D18*
X0023050Y0121989D03*
X0023050Y0115989D03*
D19*
X0023050Y0118989D03*
D20*
X0031300Y0120239D03*
X0037300Y0120239D03*
D21*
X0034300Y0120239D03*
D22*
X0024300Y0073585D03*
X0024300Y0066893D03*
X0059300Y0067335D03*
X0059300Y0060643D03*
M02*
