G75*
%MOIN*%
%OFA0B0*%
%FSLAX25Y25*%
%IPPOS*%
%LPD*%
%AMOC8*
5,1,8,0,0,1.08239X$1,22.5*
%
%ADD10C,0.00000*%
%ADD11C,0.00500*%
%ADD12R,0.02500X0.02500*%
%ADD13C,0.01600*%
%ADD14C,0.00400*%
%ADD15C,0.00800*%
%ADD16R,0.02400X0.06200*%
%ADD17C,0.00300*%
%ADD18R,0.06200X0.02400*%
%ADD19C,0.00600*%
D10*
X0016800Y0033989D02*
X0016800Y0163910D01*
X0134910Y0163910D01*
X0134910Y0033989D01*
X0016800Y0033989D01*
D11*
X0029300Y0085239D02*
X0033050Y0085239D01*
X0050550Y0085239D01*
X0054300Y0085239D01*
X0054300Y0110239D01*
X0029300Y0110239D01*
X0029300Y0085239D01*
D12*
X0041800Y0083989D03*
D13*
X0033050Y0085239D02*
X0033050Y0073989D01*
X0050550Y0073989D02*
X0050550Y0085239D01*
D14*
X0051600Y0117939D02*
X0048531Y0117939D01*
X0046996Y0117939D02*
X0046996Y0122543D01*
X0043927Y0122543D01*
X0042392Y0121776D02*
X0041625Y0122543D01*
X0040090Y0122543D01*
X0039323Y0121776D01*
X0039323Y0121008D01*
X0040090Y0120241D01*
X0039323Y0119474D01*
X0039323Y0118706D01*
X0040090Y0117939D01*
X0041625Y0117939D01*
X0042392Y0118706D01*
X0040858Y0120241D02*
X0040090Y0120241D01*
X0037788Y0121776D02*
X0037021Y0122543D01*
X0035486Y0122543D01*
X0034719Y0121776D01*
X0034719Y0121008D01*
X0035486Y0120241D01*
X0034719Y0119474D01*
X0034719Y0118706D01*
X0035486Y0117939D01*
X0037021Y0117939D01*
X0037788Y0118706D01*
X0036254Y0120241D02*
X0035486Y0120241D01*
X0033184Y0121776D02*
X0033184Y0118706D01*
X0032417Y0117939D01*
X0030882Y0117939D01*
X0030115Y0118706D01*
X0030115Y0121776D02*
X0030882Y0122543D01*
X0032417Y0122543D01*
X0033184Y0121776D01*
X0045461Y0120241D02*
X0046996Y0120241D01*
X0051600Y0122543D02*
X0051600Y0117939D01*
D15*
X0066081Y0069707D02*
X0070019Y0069707D01*
X0068050Y0065770D01*
X0066081Y0069707D01*
X0045019Y0062739D02*
X0041081Y0060770D01*
X0041081Y0064707D01*
X0045019Y0062739D01*
D16*
X0045250Y0062739D03*
D17*
X0056250Y0071230D02*
X0056250Y0072197D01*
X0056734Y0072681D01*
X0056250Y0073692D02*
X0058185Y0075627D01*
X0058669Y0075627D01*
X0059152Y0075144D01*
X0059152Y0074176D01*
X0058669Y0073692D01*
X0058669Y0072681D02*
X0059152Y0072197D01*
X0059152Y0071230D01*
X0058669Y0070746D01*
X0056734Y0070746D01*
X0056250Y0071230D01*
X0056250Y0073692D02*
X0056250Y0075627D01*
X0043150Y0076139D02*
X0041699Y0076139D01*
X0041215Y0076623D01*
X0041215Y0078558D01*
X0041699Y0079041D01*
X0043150Y0079041D01*
X0043150Y0076139D01*
X0040203Y0076139D02*
X0038269Y0076139D01*
X0039236Y0076139D02*
X0039236Y0079041D01*
X0040203Y0078074D01*
X0027059Y0062591D02*
X0027543Y0062108D01*
X0027543Y0060173D01*
X0027059Y0059689D01*
X0026092Y0059689D01*
X0025608Y0060173D01*
X0024597Y0059689D02*
X0022662Y0059689D01*
X0023629Y0059689D02*
X0023629Y0062591D01*
X0024597Y0061624D01*
X0025608Y0062108D02*
X0026092Y0062591D01*
X0027059Y0062591D01*
X0026416Y0103639D02*
X0026900Y0104123D01*
X0026416Y0103639D02*
X0025449Y0103639D01*
X0024965Y0104123D01*
X0024965Y0104606D01*
X0025449Y0105090D01*
X0026416Y0105090D01*
X0026900Y0105574D01*
X0026900Y0106058D01*
X0026416Y0106541D01*
X0025449Y0106541D01*
X0024965Y0106058D01*
X0022986Y0106541D02*
X0022019Y0106541D01*
X0022502Y0106541D02*
X0022502Y0104123D01*
X0022986Y0103639D01*
X0023470Y0103639D01*
X0023953Y0104123D01*
X0021007Y0103639D02*
X0019072Y0103639D01*
X0020039Y0103639D02*
X0020039Y0106541D01*
X0021007Y0105574D01*
X0040322Y0117389D02*
X0042257Y0117389D01*
X0040322Y0119324D01*
X0040322Y0119808D01*
X0040806Y0120291D01*
X0041773Y0120291D01*
X0042257Y0119808D01*
X0043269Y0120291D02*
X0044236Y0120291D01*
X0043752Y0120291D02*
X0043752Y0117873D01*
X0044236Y0117389D01*
X0044720Y0117389D01*
X0045203Y0117873D01*
X0046215Y0117873D02*
X0046699Y0117389D01*
X0047666Y0117389D01*
X0048150Y0117873D01*
X0047666Y0118840D02*
X0046699Y0118840D01*
X0046215Y0118356D01*
X0046215Y0117873D01*
X0047666Y0118840D02*
X0048150Y0119324D01*
X0048150Y0119808D01*
X0047666Y0120291D01*
X0046699Y0120291D01*
X0046215Y0119808D01*
X0073950Y0063770D02*
X0073950Y0061835D01*
X0075885Y0063770D01*
X0076369Y0063770D01*
X0076852Y0063287D01*
X0076852Y0062319D01*
X0076369Y0061835D01*
X0076369Y0060824D02*
X0074434Y0060824D01*
X0073950Y0060340D01*
X0073950Y0058889D01*
X0076852Y0058889D01*
X0076852Y0060340D01*
X0076369Y0060824D01*
D18*
X0068050Y0065539D03*
D19*
X0027050Y0113489D02*
X0027050Y0124489D01*
X0027048Y0124549D01*
X0027043Y0124610D01*
X0027034Y0124669D01*
X0027021Y0124728D01*
X0027005Y0124787D01*
X0026985Y0124844D01*
X0026962Y0124899D01*
X0026935Y0124954D01*
X0026906Y0125006D01*
X0026873Y0125057D01*
X0026837Y0125106D01*
X0026799Y0125152D01*
X0026757Y0125196D01*
X0026713Y0125238D01*
X0026667Y0125276D01*
X0026618Y0125312D01*
X0026567Y0125345D01*
X0026515Y0125374D01*
X0026460Y0125401D01*
X0026405Y0125424D01*
X0026348Y0125444D01*
X0026289Y0125460D01*
X0026230Y0125473D01*
X0026171Y0125482D01*
X0026110Y0125487D01*
X0026050Y0125489D01*
X0020050Y0125489D01*
X0019990Y0125487D01*
X0019929Y0125482D01*
X0019870Y0125473D01*
X0019811Y0125460D01*
X0019752Y0125444D01*
X0019695Y0125424D01*
X0019640Y0125401D01*
X0019585Y0125374D01*
X0019533Y0125345D01*
X0019482Y0125312D01*
X0019433Y0125276D01*
X0019387Y0125238D01*
X0019343Y0125196D01*
X0019301Y0125152D01*
X0019263Y0125106D01*
X0019227Y0125057D01*
X0019194Y0125006D01*
X0019165Y0124954D01*
X0019138Y0124899D01*
X0019115Y0124844D01*
X0019095Y0124787D01*
X0019079Y0124728D01*
X0019066Y0124669D01*
X0019057Y0124610D01*
X0019052Y0124549D01*
X0019050Y0124489D01*
X0019050Y0113489D01*
X0019052Y0113429D01*
X0019057Y0113368D01*
X0019066Y0113309D01*
X0019079Y0113250D01*
X0019095Y0113191D01*
X0019115Y0113134D01*
X0019138Y0113079D01*
X0019165Y0113024D01*
X0019194Y0112972D01*
X0019227Y0112921D01*
X0019263Y0112872D01*
X0019301Y0112826D01*
X0019343Y0112782D01*
X0019387Y0112740D01*
X0019433Y0112702D01*
X0019482Y0112666D01*
X0019533Y0112633D01*
X0019585Y0112604D01*
X0019640Y0112577D01*
X0019695Y0112554D01*
X0019752Y0112534D01*
X0019811Y0112518D01*
X0019870Y0112505D01*
X0019929Y0112496D01*
X0019990Y0112491D01*
X0020050Y0112489D01*
X0026050Y0112489D01*
X0026110Y0112491D01*
X0026171Y0112496D01*
X0026230Y0112505D01*
X0026289Y0112518D01*
X0026348Y0112534D01*
X0026405Y0112554D01*
X0026460Y0112577D01*
X0026515Y0112604D01*
X0026567Y0112633D01*
X0026618Y0112666D01*
X0026667Y0112702D01*
X0026713Y0112740D01*
X0026757Y0112782D01*
X0026799Y0112826D01*
X0026837Y0112872D01*
X0026873Y0112921D01*
X0026906Y0112972D01*
X0026935Y0113024D01*
X0026962Y0113079D01*
X0026985Y0113134D01*
X0027005Y0113191D01*
X0027021Y0113250D01*
X0027034Y0113309D01*
X0027043Y0113368D01*
X0027048Y0113429D01*
X0027050Y0113489D01*
X0028800Y0116239D02*
X0039800Y0116239D01*
X0039860Y0116241D01*
X0039921Y0116246D01*
X0039980Y0116255D01*
X0040039Y0116268D01*
X0040098Y0116284D01*
X0040155Y0116304D01*
X0040210Y0116327D01*
X0040265Y0116354D01*
X0040317Y0116383D01*
X0040368Y0116416D01*
X0040417Y0116452D01*
X0040463Y0116490D01*
X0040507Y0116532D01*
X0040549Y0116576D01*
X0040587Y0116622D01*
X0040623Y0116671D01*
X0040656Y0116722D01*
X0040685Y0116774D01*
X0040712Y0116829D01*
X0040735Y0116884D01*
X0040755Y0116941D01*
X0040771Y0117000D01*
X0040784Y0117059D01*
X0040793Y0117118D01*
X0040798Y0117179D01*
X0040800Y0117239D01*
X0040800Y0123239D01*
X0040798Y0123299D01*
X0040793Y0123360D01*
X0040784Y0123419D01*
X0040771Y0123478D01*
X0040755Y0123537D01*
X0040735Y0123594D01*
X0040712Y0123649D01*
X0040685Y0123704D01*
X0040656Y0123756D01*
X0040623Y0123807D01*
X0040587Y0123856D01*
X0040549Y0123902D01*
X0040507Y0123946D01*
X0040463Y0123988D01*
X0040417Y0124026D01*
X0040368Y0124062D01*
X0040317Y0124095D01*
X0040265Y0124124D01*
X0040210Y0124151D01*
X0040155Y0124174D01*
X0040098Y0124194D01*
X0040039Y0124210D01*
X0039980Y0124223D01*
X0039921Y0124232D01*
X0039860Y0124237D01*
X0039800Y0124239D01*
X0028800Y0124239D01*
X0028740Y0124237D01*
X0028679Y0124232D01*
X0028620Y0124223D01*
X0028561Y0124210D01*
X0028502Y0124194D01*
X0028445Y0124174D01*
X0028390Y0124151D01*
X0028335Y0124124D01*
X0028283Y0124095D01*
X0028232Y0124062D01*
X0028183Y0124026D01*
X0028137Y0123988D01*
X0028093Y0123946D01*
X0028051Y0123902D01*
X0028013Y0123856D01*
X0027977Y0123807D01*
X0027944Y0123756D01*
X0027915Y0123704D01*
X0027888Y0123649D01*
X0027865Y0123594D01*
X0027845Y0123537D01*
X0027829Y0123478D01*
X0027816Y0123419D01*
X0027807Y0123360D01*
X0027802Y0123299D01*
X0027800Y0123239D01*
X0027800Y0117239D01*
X0027802Y0117179D01*
X0027807Y0117118D01*
X0027816Y0117059D01*
X0027829Y0117000D01*
X0027845Y0116941D01*
X0027865Y0116884D01*
X0027888Y0116829D01*
X0027915Y0116774D01*
X0027944Y0116722D01*
X0027977Y0116671D01*
X0028013Y0116622D01*
X0028051Y0116576D01*
X0028093Y0116532D01*
X0028137Y0116490D01*
X0028183Y0116452D01*
X0028232Y0116416D01*
X0028283Y0116383D01*
X0028335Y0116354D01*
X0028390Y0116327D01*
X0028445Y0116304D01*
X0028502Y0116284D01*
X0028561Y0116268D01*
X0028620Y0116255D01*
X0028679Y0116246D01*
X0028740Y0116241D01*
X0028800Y0116239D01*
M02*
