G75*
%MOIN*%
%OFA0B0*%
%FSLAX25Y25*%
%IPPOS*%
%LPD*%
%AMOC8*
5,1,8,0,0,1.08239X$1,22.5*
%
%ADD10C,0.00000*%
%ADD11R,0.24409X0.38583*%
%ADD12R,0.11417X0.65748*%
%ADD13R,0.06699X0.07487*%
%ADD14R,0.09061X0.02762*%
%ADD15R,0.05715X0.01975*%
%ADD16R,0.04337X0.04731*%
%ADD17R,0.04731X0.04337*%
%ADD18R,0.07498X0.06699*%
%ADD19R,0.07487X0.12998*%
%ADD20OC8,0.06400*%
%ADD21C,0.06400*%
%ADD22R,0.06699X0.07498*%
%ADD23R,0.11030X0.12014*%
D10*
X0016800Y0033989D02*
X0016800Y0163910D01*
X0134910Y0163910D01*
X0134910Y0033989D01*
X0016800Y0033989D01*
D11*
X0091800Y0092739D03*
D12*
X0091800Y0093044D03*
D13*
X0088562Y0156489D03*
X0077538Y0156489D03*
D14*
X0066209Y0115239D03*
X0066209Y0110239D03*
X0066209Y0105239D03*
X0066209Y0100239D03*
X0066209Y0095239D03*
X0066209Y0090239D03*
X0066209Y0085239D03*
X0066209Y0080239D03*
X0066209Y0075239D03*
X0066209Y0070239D03*
X0117391Y0070239D03*
X0117391Y0075239D03*
X0117391Y0080239D03*
X0117391Y0085239D03*
X0117391Y0090239D03*
X0117391Y0095239D03*
X0117391Y0100239D03*
X0117391Y0105239D03*
X0117391Y0110239D03*
X0117391Y0115239D03*
D15*
X0058119Y0121223D03*
X0058119Y0123782D03*
X0058119Y0126341D03*
X0058119Y0128900D03*
X0058119Y0131459D03*
X0058119Y0134019D03*
X0058119Y0136578D03*
X0058119Y0139137D03*
X0058119Y0141696D03*
X0058119Y0144255D03*
X0035481Y0144255D03*
X0035481Y0141696D03*
X0035481Y0139137D03*
X0035481Y0136578D03*
X0035481Y0134019D03*
X0035481Y0131459D03*
X0035481Y0128900D03*
X0035481Y0126341D03*
X0035481Y0123782D03*
X0035481Y0121223D03*
D16*
X0028896Y0120239D03*
X0022204Y0120239D03*
X0023050Y0135643D03*
X0023050Y0142335D03*
X0055550Y0109835D03*
X0055550Y0103143D03*
X0078454Y0130239D03*
X0085146Y0130239D03*
X0129300Y0086085D03*
X0129300Y0079393D03*
X0129300Y0066085D03*
X0129300Y0059393D03*
D17*
X0085146Y0147739D03*
X0078454Y0147739D03*
X0052646Y0070239D03*
X0045954Y0070239D03*
D18*
X0043050Y0102141D03*
X0043050Y0113337D03*
D19*
X0104526Y0137739D03*
X0104526Y0153989D03*
X0126574Y0153989D03*
X0126574Y0137739D03*
D20*
X0120855Y0050800D03*
X0120855Y0040800D03*
X0110855Y0040800D03*
X0110855Y0050800D03*
X0100855Y0050800D03*
X0090855Y0050800D03*
X0090855Y0040800D03*
X0100855Y0040800D03*
X0080855Y0040800D03*
X0080855Y0050800D03*
X0070855Y0050800D03*
X0070855Y0040800D03*
X0060855Y0040800D03*
X0050855Y0040800D03*
X0050855Y0050800D03*
X0060855Y0050800D03*
X0040855Y0050800D03*
X0040855Y0040800D03*
X0030855Y0040800D03*
X0030855Y0050800D03*
D21*
X0028050Y0150989D02*
X0028050Y0156989D01*
X0038050Y0156989D02*
X0038050Y0150989D01*
X0048050Y0150989D02*
X0048050Y0156989D01*
X0058050Y0156989D02*
X0058050Y0150989D01*
D22*
X0034898Y0111489D03*
X0023702Y0111489D03*
D23*
X0031800Y0089776D03*
X0031800Y0063202D03*
M02*
