G75*
%MOIN*%
%OFA0B0*%
%FSLAX25Y25*%
%IPPOS*%
%LPD*%
%AMOC8*
5,1,8,0,0,1.08239X$1,22.5*
%
%ADD10C,0.00000*%
%ADD11R,0.06299X0.07087*%
%ADD12R,0.08661X0.02362*%
%ADD13R,0.05315X0.01575*%
%ADD14R,0.03937X0.04331*%
%ADD15R,0.04331X0.03937*%
%ADD16R,0.07098X0.06299*%
%ADD17R,0.07087X0.12598*%
%ADD18OC8,0.06000*%
%ADD19C,0.06000*%
%ADD20R,0.06299X0.07098*%
%ADD21R,0.10630X0.11614*%
%ADD22C,0.01600*%
%ADD23C,0.03562*%
%ADD24C,0.03200*%
%ADD25C,0.05000*%
%ADD26C,0.02400*%
D10*
X0016800Y0033989D02*
X0016800Y0163910D01*
X0134910Y0163910D01*
X0134910Y0033989D01*
X0016800Y0033989D01*
D11*
X0077538Y0156489D03*
X0088562Y0156489D03*
D12*
X0066209Y0115239D03*
X0066209Y0110239D03*
X0066209Y0105239D03*
X0066209Y0100239D03*
X0066209Y0095239D03*
X0066209Y0090239D03*
X0066209Y0085239D03*
X0066209Y0080239D03*
X0066209Y0075239D03*
X0066209Y0070239D03*
X0117391Y0070239D03*
X0117391Y0075239D03*
X0117391Y0080239D03*
X0117391Y0085239D03*
X0117391Y0090239D03*
X0117391Y0095239D03*
X0117391Y0100239D03*
X0117391Y0105239D03*
X0117391Y0110239D03*
X0117391Y0115239D03*
D13*
X0058119Y0121223D03*
X0058119Y0123782D03*
X0058119Y0126341D03*
X0058119Y0128900D03*
X0058119Y0131459D03*
X0058119Y0134019D03*
X0058119Y0136578D03*
X0058119Y0139137D03*
X0058119Y0141696D03*
X0058119Y0144255D03*
X0035481Y0144255D03*
X0035481Y0141696D03*
X0035481Y0139137D03*
X0035481Y0136578D03*
X0035481Y0134019D03*
X0035481Y0131459D03*
X0035481Y0128900D03*
X0035481Y0126341D03*
X0035481Y0123782D03*
X0035481Y0121223D03*
D14*
X0028896Y0120239D03*
X0022204Y0120239D03*
X0023050Y0135643D03*
X0023050Y0142335D03*
X0055550Y0109835D03*
X0055550Y0103143D03*
X0078454Y0130239D03*
X0085146Y0130239D03*
X0129300Y0086085D03*
X0129300Y0079393D03*
X0129300Y0066085D03*
X0129300Y0059393D03*
D15*
X0085146Y0147739D03*
X0078454Y0147739D03*
X0052646Y0070239D03*
X0045954Y0070239D03*
D16*
X0043050Y0102141D03*
X0043050Y0113337D03*
D17*
X0104526Y0137739D03*
X0104526Y0153989D03*
X0126574Y0153989D03*
X0126574Y0137739D03*
D18*
X0120855Y0050800D03*
X0120855Y0040800D03*
X0110855Y0040800D03*
X0110855Y0050800D03*
X0100855Y0050800D03*
X0090855Y0050800D03*
X0090855Y0040800D03*
X0100855Y0040800D03*
X0080855Y0040800D03*
X0080855Y0050800D03*
X0070855Y0050800D03*
X0070855Y0040800D03*
X0060855Y0040800D03*
X0050855Y0040800D03*
X0050855Y0050800D03*
X0060855Y0050800D03*
X0040855Y0050800D03*
X0040855Y0040800D03*
X0030855Y0040800D03*
X0030855Y0050800D03*
D19*
X0028050Y0150989D02*
X0028050Y0156989D01*
X0038050Y0156989D02*
X0038050Y0150989D01*
X0048050Y0150989D02*
X0048050Y0156989D01*
X0058050Y0156989D02*
X0058050Y0150989D01*
D20*
X0034898Y0111489D03*
X0023702Y0111489D03*
D21*
X0031800Y0089776D03*
X0031800Y0063202D03*
D22*
X0038515Y0059302D02*
X0038515Y0056815D01*
X0037695Y0055994D01*
X0025905Y0055994D01*
X0025085Y0056815D01*
X0025085Y0069589D01*
X0025905Y0070409D01*
X0027900Y0070409D01*
X0027900Y0072265D01*
X0028494Y0073698D01*
X0029591Y0074795D01*
X0036965Y0082169D01*
X0032600Y0082169D01*
X0032600Y0088976D01*
X0031000Y0088976D01*
X0031000Y0082169D01*
X0026248Y0082169D01*
X0025790Y0082292D01*
X0025380Y0082529D01*
X0025045Y0082864D01*
X0024889Y0083134D01*
X0024800Y0082919D01*
X0024800Y0078809D01*
X0024981Y0078372D01*
X0024981Y0077106D01*
X0024497Y0075937D01*
X0023602Y0075042D01*
X0022433Y0074558D01*
X0021167Y0074558D01*
X0019998Y0075042D01*
X0019103Y0075937D01*
X0018619Y0077106D01*
X0018619Y0078372D01*
X0018800Y0078809D01*
X0018800Y0082919D01*
X0018619Y0083356D01*
X0018619Y0084622D01*
X0018800Y0085059D01*
X0018800Y0089169D01*
X0018619Y0089606D01*
X0018619Y0090872D01*
X0018800Y0091309D01*
X0018800Y0098336D01*
X0019257Y0099438D01*
X0024502Y0104684D01*
X0025605Y0105141D01*
X0038101Y0105141D01*
X0038101Y0105870D01*
X0038921Y0106690D01*
X0047100Y0106690D01*
X0047100Y0108788D01*
X0039448Y0108788D01*
X0039448Y0107360D01*
X0038628Y0106540D01*
X0031169Y0106540D01*
X0030349Y0107360D01*
X0030349Y0115618D01*
X0031004Y0116274D01*
X0029081Y0116274D01*
X0029081Y0120055D01*
X0028712Y0120055D01*
X0028712Y0116274D01*
X0027596Y0116274D01*
X0028251Y0115618D01*
X0028251Y0107360D01*
X0027431Y0106540D01*
X0019972Y0106540D01*
X0019152Y0107360D01*
X0019152Y0115618D01*
X0019972Y0116438D01*
X0020004Y0116438D01*
X0020004Y0116674D01*
X0019655Y0116674D01*
X0018835Y0117494D01*
X0018835Y0122984D01*
X0019655Y0123804D01*
X0019986Y0123804D01*
X0019103Y0124687D01*
X0018619Y0125856D01*
X0018619Y0127122D01*
X0019103Y0128291D01*
X0019998Y0129186D01*
X0021167Y0129670D01*
X0021870Y0129670D01*
X0024005Y0131805D01*
X0023861Y0131803D01*
X0023845Y0131819D01*
X0023822Y0131819D01*
X0023563Y0132077D01*
X0020502Y0132077D01*
X0019681Y0132897D01*
X0019681Y0138388D01*
X0020006Y0138712D01*
X0019976Y0138730D01*
X0019641Y0139065D01*
X0019404Y0139475D01*
X0019281Y0139933D01*
X0019281Y0142151D01*
X0022866Y0142151D01*
X0022866Y0142520D01*
X0022866Y0146301D01*
X0020845Y0146301D01*
X0020387Y0146178D01*
X0019976Y0145941D01*
X0019641Y0145606D01*
X0019404Y0145196D01*
X0019281Y0144738D01*
X0019281Y0142520D01*
X0022866Y0142520D01*
X0023234Y0142520D01*
X0023234Y0146301D01*
X0025255Y0146301D01*
X0025713Y0146178D01*
X0025850Y0146099D01*
X0025850Y0147138D01*
X0025558Y0147259D01*
X0024320Y0148497D01*
X0023650Y0150114D01*
X0023650Y0157864D01*
X0024320Y0159481D01*
X0025558Y0160719D01*
X0027175Y0161389D01*
X0028925Y0161389D01*
X0030542Y0160719D01*
X0031780Y0159481D01*
X0032450Y0157864D01*
X0032450Y0150114D01*
X0031780Y0148497D01*
X0030542Y0147259D01*
X0030250Y0147138D01*
X0030250Y0139900D01*
X0031373Y0138778D01*
X0031424Y0138778D01*
X0031424Y0142322D01*
X0031383Y0142362D01*
X0031146Y0142773D01*
X0031024Y0143230D01*
X0031024Y0144255D01*
X0035481Y0144255D01*
X0035481Y0146842D01*
X0032587Y0146842D01*
X0032129Y0146719D01*
X0031718Y0146482D01*
X0031383Y0146147D01*
X0031146Y0145737D01*
X0031024Y0145279D01*
X0031024Y0144255D01*
X0035481Y0144255D01*
X0035481Y0144255D01*
X0035481Y0146842D01*
X0036564Y0146842D01*
X0035558Y0147259D01*
X0034320Y0148497D01*
X0033650Y0150114D01*
X0033650Y0157864D01*
X0034320Y0159481D01*
X0035558Y0160719D01*
X0037175Y0161389D01*
X0038925Y0161389D01*
X0040542Y0160719D01*
X0041780Y0159481D01*
X0042450Y0157864D01*
X0042450Y0150114D01*
X0042109Y0149291D01*
X0047505Y0143896D01*
X0048782Y0143896D01*
X0047139Y0145539D01*
X0045850Y0146828D01*
X0045850Y0147138D01*
X0045558Y0147259D01*
X0044320Y0148497D01*
X0043650Y0150114D01*
X0043650Y0157864D01*
X0044320Y0159481D01*
X0045558Y0160719D01*
X0047175Y0161389D01*
X0048925Y0161389D01*
X0050542Y0160719D01*
X0051780Y0159481D01*
X0052450Y0157864D01*
X0052450Y0150114D01*
X0051780Y0148497D01*
X0051092Y0147808D01*
X0052446Y0146455D01*
X0056472Y0146455D01*
X0056207Y0146541D01*
X0055534Y0146884D01*
X0054923Y0147328D01*
X0054389Y0147862D01*
X0053945Y0148473D01*
X0053602Y0149146D01*
X0053368Y0149865D01*
X0053250Y0150611D01*
X0053250Y0153789D01*
X0057850Y0153789D01*
X0057850Y0154189D01*
X0057850Y0161789D01*
X0057672Y0161789D01*
X0056926Y0161671D01*
X0056207Y0161437D01*
X0055534Y0161094D01*
X0054923Y0160650D01*
X0054389Y0160116D01*
X0053945Y0159505D01*
X0053602Y0158832D01*
X0053368Y0158113D01*
X0053250Y0157367D01*
X0053250Y0154189D01*
X0057850Y0154189D01*
X0058250Y0154189D01*
X0058250Y0161789D01*
X0058428Y0161789D01*
X0059174Y0161671D01*
X0059893Y0161437D01*
X0060566Y0161094D01*
X0061177Y0160650D01*
X0061711Y0160116D01*
X0062155Y0159505D01*
X0062498Y0158832D01*
X0062732Y0158113D01*
X0062850Y0157367D01*
X0062850Y0154189D01*
X0058250Y0154189D01*
X0058250Y0153789D01*
X0062850Y0153789D01*
X0062850Y0150611D01*
X0062732Y0149865D01*
X0062498Y0149146D01*
X0062397Y0148947D01*
X0065850Y0152400D01*
X0066506Y0153056D01*
X0066603Y0153291D01*
X0067498Y0154186D01*
X0068667Y0154670D01*
X0069933Y0154670D01*
X0071102Y0154186D01*
X0071997Y0153291D01*
X0072481Y0152122D01*
X0072481Y0150856D01*
X0071997Y0149687D01*
X0071299Y0148989D01*
X0071997Y0148291D01*
X0072481Y0147122D01*
X0072481Y0145856D01*
X0072116Y0144976D01*
X0074888Y0147747D01*
X0074888Y0150287D01*
X0075454Y0150853D01*
X0075454Y0151546D01*
X0073809Y0151546D01*
X0072989Y0152366D01*
X0072989Y0160612D01*
X0073809Y0161432D01*
X0081268Y0161432D01*
X0082088Y0160612D01*
X0082088Y0152366D01*
X0081454Y0151732D01*
X0081454Y0150853D01*
X0081523Y0150783D01*
X0081541Y0150813D01*
X0081876Y0151148D01*
X0082286Y0151385D01*
X0082744Y0151507D01*
X0084305Y0151507D01*
X0083972Y0151840D01*
X0083735Y0152251D01*
X0083612Y0152709D01*
X0083612Y0155714D01*
X0087787Y0155714D01*
X0089337Y0155714D01*
X0089337Y0157264D01*
X0093511Y0157264D01*
X0093511Y0160269D01*
X0093389Y0160727D01*
X0093152Y0161138D01*
X0092817Y0161473D01*
X0092406Y0161710D01*
X0091948Y0161832D01*
X0089337Y0161832D01*
X0089337Y0157264D01*
X0087787Y0157264D01*
X0087787Y0161832D01*
X0085175Y0161832D01*
X0084717Y0161710D01*
X0084307Y0161473D01*
X0083972Y0161138D01*
X0083735Y0160727D01*
X0083612Y0160269D01*
X0083612Y0157264D01*
X0087787Y0157264D01*
X0087787Y0155714D01*
X0087787Y0151444D01*
X0088007Y0151385D01*
X0088417Y0151148D01*
X0088752Y0150813D01*
X0088989Y0150402D01*
X0089112Y0149944D01*
X0089112Y0147923D01*
X0085331Y0147923D01*
X0085331Y0147555D01*
X0089112Y0147555D01*
X0089112Y0145533D01*
X0088989Y0145076D01*
X0088752Y0144665D01*
X0088417Y0144330D01*
X0088007Y0144093D01*
X0087549Y0143970D01*
X0085331Y0143970D01*
X0085331Y0147555D01*
X0084962Y0147555D01*
X0084962Y0143970D01*
X0082744Y0143970D01*
X0082286Y0144093D01*
X0081876Y0144330D01*
X0081541Y0144665D01*
X0081523Y0144695D01*
X0081199Y0144370D01*
X0077734Y0144370D01*
X0065182Y0131819D01*
X0062576Y0131819D01*
X0062576Y0131459D01*
X0058119Y0131459D01*
X0058119Y0131459D01*
X0062576Y0131459D01*
X0062576Y0131100D01*
X0064550Y0131100D01*
X0074600Y0141150D01*
X0075889Y0142439D01*
X0090211Y0142439D01*
X0099183Y0133467D01*
X0099183Y0136939D01*
X0103726Y0136939D01*
X0103726Y0138539D01*
X0099183Y0138539D01*
X0099183Y0144275D01*
X0099306Y0144733D01*
X0099543Y0145143D01*
X0099878Y0145479D01*
X0100288Y0145716D01*
X0100746Y0145838D01*
X0103726Y0145838D01*
X0103726Y0138539D01*
X0105326Y0138539D01*
X0105326Y0145838D01*
X0108307Y0145838D01*
X0108764Y0145716D01*
X0109175Y0145479D01*
X0109510Y0145143D01*
X0109747Y0144733D01*
X0109870Y0144275D01*
X0109870Y0138539D01*
X0105326Y0138539D01*
X0105326Y0136939D01*
X0105326Y0129640D01*
X0108307Y0129640D01*
X0108764Y0129762D01*
X0109175Y0129999D01*
X0109510Y0130335D01*
X0109747Y0130745D01*
X0109870Y0131203D01*
X0109870Y0136939D01*
X0105326Y0136939D01*
X0103726Y0136939D01*
X0103726Y0129640D01*
X0103010Y0129640D01*
X0103961Y0128689D01*
X0107711Y0128689D01*
X0109000Y0127400D01*
X0112750Y0123650D01*
X0112750Y0118201D01*
X0112823Y0118220D01*
X0117390Y0118220D01*
X0117390Y0115239D01*
X0117391Y0115239D01*
X0123521Y0115239D01*
X0123521Y0116657D01*
X0123399Y0117115D01*
X0123162Y0117525D01*
X0122826Y0117860D01*
X0122416Y0118097D01*
X0121958Y0118220D01*
X0117391Y0118220D01*
X0117391Y0115239D01*
X0117391Y0115239D01*
X0123521Y0115239D01*
X0123521Y0113821D01*
X0123399Y0113363D01*
X0123162Y0112953D01*
X0122826Y0112618D01*
X0122622Y0112499D01*
X0123121Y0112000D01*
X0123121Y0108478D01*
X0122382Y0107739D01*
X0123121Y0107000D01*
X0123121Y0103478D01*
X0122382Y0102739D01*
X0123121Y0102000D01*
X0123121Y0099576D01*
X0124150Y0100604D01*
X0124150Y0130040D01*
X0122450Y0130040D01*
X0121630Y0130860D01*
X0121630Y0133327D01*
X0118731Y0130427D01*
X0118731Y0129606D01*
X0118247Y0128437D01*
X0117352Y0127542D01*
X0116183Y0127058D01*
X0114917Y0127058D01*
X0113748Y0127542D01*
X0112853Y0128437D01*
X0112369Y0129606D01*
X0112369Y0130872D01*
X0112550Y0131309D01*
X0112550Y0132086D01*
X0113007Y0133188D01*
X0113851Y0134032D01*
X0119257Y0139438D01*
X0120101Y0140282D01*
X0121203Y0140739D01*
X0121630Y0140739D01*
X0121630Y0144618D01*
X0122450Y0145438D01*
X0122674Y0145438D01*
X0122674Y0146290D01*
X0122450Y0146290D01*
X0121630Y0147110D01*
X0121630Y0160868D01*
X0122450Y0161688D01*
X0130697Y0161688D01*
X0131517Y0160868D01*
X0131517Y0147110D01*
X0130697Y0146290D01*
X0130474Y0146290D01*
X0130474Y0145438D01*
X0130697Y0145438D01*
X0131517Y0144618D01*
X0131517Y0138084D01*
X0131950Y0137038D01*
X0131950Y0098213D01*
X0131356Y0096780D01*
X0127606Y0093030D01*
X0126819Y0092243D01*
X0129412Y0089651D01*
X0131848Y0089651D01*
X0132668Y0088831D01*
X0132668Y0083340D01*
X0132344Y0083015D01*
X0132374Y0082998D01*
X0132709Y0082663D01*
X0132946Y0082253D01*
X0133068Y0081795D01*
X0133068Y0079577D01*
X0129484Y0079577D01*
X0129484Y0079208D01*
X0129484Y0075427D01*
X0131505Y0075427D01*
X0131963Y0075550D01*
X0132374Y0075787D01*
X0132709Y0076122D01*
X0132946Y0076532D01*
X0133068Y0076990D01*
X0133068Y0079208D01*
X0129484Y0079208D01*
X0129116Y0079208D01*
X0129116Y0075427D01*
X0127300Y0075427D01*
X0127300Y0069651D01*
X0131848Y0069651D01*
X0132668Y0068831D01*
X0132668Y0063340D01*
X0132067Y0062739D01*
X0132668Y0062138D01*
X0132668Y0056647D01*
X0131848Y0055827D01*
X0129977Y0055827D01*
X0129346Y0055196D01*
X0128243Y0054739D01*
X0123139Y0054739D01*
X0125255Y0052623D01*
X0125255Y0048977D01*
X0122678Y0046400D01*
X0119033Y0046400D01*
X0116455Y0048977D01*
X0116455Y0052623D01*
X0118572Y0054739D01*
X0113139Y0054739D01*
X0115255Y0052623D01*
X0115255Y0048977D01*
X0112678Y0046400D01*
X0109033Y0046400D01*
X0106455Y0048977D01*
X0106455Y0052623D01*
X0108572Y0054739D01*
X0103704Y0054739D01*
X0105655Y0052788D01*
X0105655Y0051000D01*
X0101055Y0051000D01*
X0101055Y0050600D01*
X0101055Y0046000D01*
X0102843Y0046000D01*
X0105655Y0048812D01*
X0105655Y0050600D01*
X0101055Y0050600D01*
X0100655Y0050600D01*
X0096055Y0050600D01*
X0096055Y0048812D01*
X0098867Y0046000D01*
X0100655Y0046000D01*
X0100655Y0050600D01*
X0100655Y0051000D01*
X0096055Y0051000D01*
X0096055Y0051757D01*
X0095255Y0050957D01*
X0095255Y0048977D01*
X0094755Y0048477D01*
X0094755Y0043123D01*
X0095255Y0042623D01*
X0095255Y0038977D01*
X0092678Y0036400D01*
X0089033Y0036400D01*
X0086455Y0038977D01*
X0086455Y0042623D01*
X0086955Y0043123D01*
X0086955Y0047800D01*
X0084755Y0047800D01*
X0084755Y0043123D01*
X0085255Y0042623D01*
X0085255Y0038977D01*
X0082678Y0036400D01*
X0079033Y0036400D01*
X0076455Y0038977D01*
X0076455Y0042623D01*
X0076955Y0043123D01*
X0076955Y0048477D01*
X0076455Y0048977D01*
X0076455Y0052623D01*
X0077855Y0054023D01*
X0077855Y0057441D01*
X0072601Y0062696D01*
X0071757Y0063540D01*
X0071300Y0064642D01*
X0071300Y0067418D01*
X0071235Y0067381D01*
X0070777Y0067258D01*
X0066209Y0067258D01*
X0066209Y0070239D01*
X0066209Y0070239D01*
X0060079Y0070239D01*
X0060079Y0068821D01*
X0060201Y0068363D01*
X0060438Y0067953D01*
X0060774Y0067618D01*
X0061184Y0067381D01*
X0061642Y0067258D01*
X0066209Y0067258D01*
X0066209Y0070239D01*
X0060079Y0070239D01*
X0060079Y0071657D01*
X0060201Y0072115D01*
X0060438Y0072525D01*
X0060774Y0072860D01*
X0060978Y0072979D01*
X0060479Y0073478D01*
X0060479Y0077000D01*
X0060537Y0077058D01*
X0059917Y0077058D01*
X0058748Y0077542D01*
X0057853Y0078437D01*
X0057527Y0079224D01*
X0055646Y0077343D01*
X0055646Y0073353D01*
X0056212Y0072787D01*
X0056212Y0067691D01*
X0055392Y0066870D01*
X0050661Y0066870D01*
X0062332Y0055200D01*
X0062678Y0055200D01*
X0063178Y0054700D01*
X0068533Y0054700D01*
X0069033Y0055200D01*
X0072678Y0055200D01*
X0075255Y0052623D01*
X0075255Y0048977D01*
X0074755Y0048477D01*
X0074755Y0043123D01*
X0075255Y0042623D01*
X0075255Y0038977D01*
X0072678Y0036400D01*
X0069033Y0036400D01*
X0066455Y0038977D01*
X0066455Y0042623D01*
X0066955Y0043123D01*
X0066955Y0046900D01*
X0064755Y0046900D01*
X0064755Y0043123D01*
X0065255Y0042623D01*
X0065255Y0038977D01*
X0062678Y0036400D01*
X0059033Y0036400D01*
X0056455Y0038977D01*
X0056455Y0042623D01*
X0056955Y0043123D01*
X0056955Y0048477D01*
X0056455Y0048977D01*
X0056455Y0052591D01*
X0054893Y0054153D01*
X0054893Y0054108D01*
X0054928Y0054009D01*
X0054893Y0053336D01*
X0054893Y0052985D01*
X0055255Y0052623D01*
X0055255Y0048977D01*
X0054450Y0048172D01*
X0054450Y0043428D01*
X0055255Y0042623D01*
X0055255Y0038977D01*
X0052678Y0036400D01*
X0051473Y0036400D01*
X0051326Y0036339D01*
X0039774Y0036339D01*
X0039627Y0036400D01*
X0039033Y0036400D01*
X0038612Y0036820D01*
X0038341Y0036933D01*
X0037244Y0038030D01*
X0037131Y0038301D01*
X0036455Y0038977D01*
X0036455Y0042623D01*
X0039033Y0045200D01*
X0042678Y0045200D01*
X0043739Y0044139D01*
X0046650Y0044139D01*
X0046650Y0048783D01*
X0046455Y0048977D01*
X0046455Y0052623D01*
X0046650Y0052817D01*
X0040165Y0059302D01*
X0038515Y0059302D01*
X0038515Y0057967D02*
X0041500Y0057967D01*
X0043098Y0056368D02*
X0038069Y0056368D01*
X0039033Y0055200D02*
X0036455Y0052623D01*
X0036455Y0048977D01*
X0039033Y0046400D01*
X0042678Y0046400D01*
X0045255Y0048977D01*
X0045255Y0052623D01*
X0042678Y0055200D01*
X0039033Y0055200D01*
X0038602Y0054770D02*
X0033674Y0054770D01*
X0032843Y0055600D02*
X0031055Y0055600D01*
X0031055Y0051000D01*
X0030655Y0051000D01*
X0030655Y0050600D01*
X0026055Y0050600D01*
X0026055Y0048812D01*
X0028867Y0046000D01*
X0030655Y0046000D01*
X0030655Y0050600D01*
X0031055Y0050600D01*
X0031055Y0046000D01*
X0032843Y0046000D01*
X0035655Y0048812D01*
X0035655Y0050600D01*
X0031055Y0050600D01*
X0031055Y0051000D01*
X0035655Y0051000D01*
X0035655Y0052788D01*
X0032843Y0055600D01*
X0035272Y0053171D02*
X0037004Y0053171D01*
X0036455Y0051573D02*
X0035655Y0051573D01*
X0035655Y0049974D02*
X0036455Y0049974D01*
X0037057Y0048376D02*
X0035219Y0048376D01*
X0033620Y0046777D02*
X0038656Y0046777D01*
X0039011Y0045179D02*
X0033265Y0045179D01*
X0032843Y0045600D02*
X0031055Y0045600D01*
X0031055Y0041000D01*
X0030655Y0041000D01*
X0030655Y0040600D01*
X0026055Y0040600D01*
X0026055Y0038812D01*
X0028867Y0036000D01*
X0030655Y0036000D01*
X0030655Y0040600D01*
X0031055Y0040600D01*
X0031055Y0036000D01*
X0032843Y0036000D01*
X0035655Y0038812D01*
X0035655Y0040600D01*
X0031055Y0040600D01*
X0031055Y0041000D01*
X0035655Y0041000D01*
X0035655Y0042788D01*
X0032843Y0045600D01*
X0034863Y0043580D02*
X0037413Y0043580D01*
X0036455Y0041982D02*
X0035655Y0041982D01*
X0035655Y0040383D02*
X0036455Y0040383D01*
X0036648Y0038785D02*
X0035628Y0038785D01*
X0034029Y0037186D02*
X0038088Y0037186D01*
X0031055Y0037186D02*
X0030655Y0037186D01*
X0030655Y0038785D02*
X0031055Y0038785D01*
X0031055Y0040383D02*
X0030655Y0040383D01*
X0030655Y0041000D02*
X0026055Y0041000D01*
X0026055Y0042788D01*
X0028867Y0045600D01*
X0030655Y0045600D01*
X0030655Y0041000D01*
X0030655Y0041982D02*
X0031055Y0041982D01*
X0031055Y0043580D02*
X0030655Y0043580D01*
X0030655Y0045179D02*
X0031055Y0045179D01*
X0031055Y0046777D02*
X0030655Y0046777D01*
X0030655Y0048376D02*
X0031055Y0048376D01*
X0031055Y0049974D02*
X0030655Y0049974D01*
X0030655Y0051000D02*
X0026055Y0051000D01*
X0026055Y0052788D01*
X0028867Y0055600D01*
X0030655Y0055600D01*
X0030655Y0051000D01*
X0030655Y0051573D02*
X0031055Y0051573D01*
X0031055Y0053171D02*
X0030655Y0053171D01*
X0030655Y0054770D02*
X0031055Y0054770D01*
X0028037Y0054770D02*
X0018600Y0054770D01*
X0018600Y0056368D02*
X0025531Y0056368D01*
X0025085Y0057967D02*
X0018600Y0057967D01*
X0018600Y0059565D02*
X0025085Y0059565D01*
X0025085Y0061164D02*
X0018600Y0061164D01*
X0018600Y0062762D02*
X0025085Y0062762D01*
X0025085Y0064361D02*
X0018600Y0064361D01*
X0018600Y0065959D02*
X0025085Y0065959D01*
X0025085Y0067558D02*
X0018600Y0067558D01*
X0018600Y0069156D02*
X0025085Y0069156D01*
X0027900Y0070755D02*
X0018600Y0070755D01*
X0018600Y0072353D02*
X0027937Y0072353D01*
X0028747Y0073952D02*
X0018600Y0073952D01*
X0018600Y0075550D02*
X0019490Y0075550D01*
X0018619Y0077149D02*
X0018600Y0077149D01*
X0018600Y0078747D02*
X0018774Y0078747D01*
X0018800Y0080346D02*
X0018600Y0080346D01*
X0018600Y0081944D02*
X0018800Y0081944D01*
X0018619Y0083543D02*
X0018600Y0083543D01*
X0018600Y0085141D02*
X0018800Y0085141D01*
X0018800Y0086740D02*
X0018600Y0086740D01*
X0018600Y0088338D02*
X0018800Y0088338D01*
X0018619Y0089937D02*
X0018600Y0089937D01*
X0018600Y0091535D02*
X0018800Y0091535D01*
X0018800Y0093134D02*
X0018600Y0093134D01*
X0018600Y0094732D02*
X0018800Y0094732D01*
X0018800Y0096331D02*
X0018600Y0096331D01*
X0018600Y0097929D02*
X0018800Y0097929D01*
X0018600Y0099528D02*
X0019346Y0099528D01*
X0018600Y0101126D02*
X0020945Y0101126D01*
X0022543Y0102725D02*
X0018600Y0102725D01*
X0018600Y0104323D02*
X0024142Y0104323D01*
X0028251Y0107520D02*
X0030349Y0107520D01*
X0030349Y0109119D02*
X0028251Y0109119D01*
X0028251Y0110718D02*
X0030349Y0110718D01*
X0030349Y0112316D02*
X0028251Y0112316D01*
X0028251Y0113915D02*
X0030349Y0113915D01*
X0030349Y0115513D02*
X0028251Y0115513D01*
X0028712Y0117112D02*
X0029081Y0117112D01*
X0029081Y0118710D02*
X0028712Y0118710D01*
X0035481Y0121223D02*
X0035481Y0114572D01*
X0034898Y0111489D01*
X0039448Y0107520D02*
X0047100Y0107520D01*
X0049300Y0103989D02*
X0049300Y0122739D01*
X0051800Y0125239D01*
X0051800Y0131489D01*
X0054330Y0134019D01*
X0058119Y0134019D01*
X0064270Y0134019D01*
X0077991Y0147739D01*
X0078454Y0147739D01*
X0077649Y0144286D02*
X0081952Y0144286D01*
X0084962Y0144286D02*
X0085331Y0144286D01*
X0085331Y0145885D02*
X0084962Y0145885D01*
X0084962Y0147483D02*
X0085331Y0147483D01*
X0089112Y0147483D02*
X0099183Y0147483D01*
X0099183Y0147453D02*
X0099306Y0146995D01*
X0099543Y0146585D01*
X0099878Y0146249D01*
X0100288Y0146012D01*
X0100746Y0145890D01*
X0103726Y0145890D01*
X0103726Y0153189D01*
X0099183Y0153189D01*
X0099183Y0147453D01*
X0099183Y0149082D02*
X0089112Y0149082D01*
X0088829Y0150680D02*
X0099183Y0150680D01*
X0099183Y0152279D02*
X0093396Y0152279D01*
X0093389Y0152251D02*
X0093511Y0152709D01*
X0093511Y0155714D01*
X0089337Y0155714D01*
X0089337Y0151146D01*
X0091948Y0151146D01*
X0092406Y0151268D01*
X0092817Y0151505D01*
X0093152Y0151840D01*
X0093389Y0152251D01*
X0093511Y0153877D02*
X0103726Y0153877D01*
X0103726Y0153189D02*
X0103726Y0154789D01*
X0099183Y0154789D01*
X0099183Y0160525D01*
X0099306Y0160983D01*
X0099543Y0161393D01*
X0099878Y0161729D01*
X0100288Y0161966D01*
X0100746Y0162088D01*
X0103726Y0162088D01*
X0103726Y0154789D01*
X0105326Y0154789D01*
X0105326Y0162088D01*
X0108307Y0162088D01*
X0108764Y0161966D01*
X0109175Y0161729D01*
X0109510Y0161393D01*
X0109747Y0160983D01*
X0109870Y0160525D01*
X0109870Y0154789D01*
X0105326Y0154789D01*
X0105326Y0153189D01*
X0105326Y0145890D01*
X0108307Y0145890D01*
X0108764Y0146012D01*
X0109175Y0146249D01*
X0109510Y0146585D01*
X0109747Y0146995D01*
X0109870Y0147453D01*
X0109870Y0153189D01*
X0105326Y0153189D01*
X0103726Y0153189D01*
X0103726Y0152279D02*
X0105326Y0152279D01*
X0105326Y0153877D02*
X0121630Y0153877D01*
X0121630Y0152279D02*
X0109870Y0152279D01*
X0109870Y0150680D02*
X0121630Y0150680D01*
X0121630Y0149082D02*
X0109870Y0149082D01*
X0109870Y0147483D02*
X0121630Y0147483D01*
X0122674Y0145885D02*
X0089112Y0145885D01*
X0088341Y0144286D02*
X0099186Y0144286D01*
X0099183Y0142688D02*
X0076051Y0142688D01*
X0074539Y0141089D02*
X0074452Y0141089D01*
X0072940Y0139491D02*
X0072854Y0139491D01*
X0071342Y0137892D02*
X0071255Y0137892D01*
X0069743Y0136294D02*
X0069657Y0136294D01*
X0068145Y0134695D02*
X0068058Y0134695D01*
X0066546Y0133097D02*
X0066460Y0133097D01*
X0064948Y0131498D02*
X0062576Y0131498D01*
X0065461Y0128900D02*
X0076800Y0140239D01*
X0089300Y0140239D01*
X0103050Y0126489D01*
X0106800Y0126489D01*
X0110550Y0122739D01*
X0110550Y0101489D01*
X0111800Y0100239D01*
X0117391Y0100239D01*
X0122396Y0102725D02*
X0124150Y0102725D01*
X0124150Y0104323D02*
X0123121Y0104323D01*
X0123121Y0105922D02*
X0124150Y0105922D01*
X0124150Y0107520D02*
X0122601Y0107520D01*
X0123121Y0109119D02*
X0124150Y0109119D01*
X0124150Y0110718D02*
X0123121Y0110718D01*
X0122805Y0112316D02*
X0124150Y0112316D01*
X0124150Y0113915D02*
X0123521Y0113915D01*
X0123521Y0115513D02*
X0124150Y0115513D01*
X0124150Y0117112D02*
X0123399Y0117112D01*
X0124150Y0118710D02*
X0112750Y0118710D01*
X0112750Y0120309D02*
X0124150Y0120309D01*
X0124150Y0121907D02*
X0112750Y0121907D01*
X0112750Y0123506D02*
X0124150Y0123506D01*
X0124150Y0125104D02*
X0111296Y0125104D01*
X0109698Y0126703D02*
X0124150Y0126703D01*
X0124150Y0128301D02*
X0118111Y0128301D01*
X0118731Y0129900D02*
X0124150Y0129900D01*
X0121630Y0131498D02*
X0119802Y0131498D01*
X0121400Y0133097D02*
X0121630Y0133097D01*
X0117711Y0137892D02*
X0105326Y0137892D01*
X0105326Y0136294D02*
X0103726Y0136294D01*
X0103726Y0137892D02*
X0094758Y0137892D01*
X0096357Y0136294D02*
X0099183Y0136294D01*
X0099183Y0134695D02*
X0097955Y0134695D01*
X0099183Y0139491D02*
X0093160Y0139491D01*
X0091561Y0141089D02*
X0099183Y0141089D01*
X0103726Y0141089D02*
X0105326Y0141089D01*
X0105326Y0139491D02*
X0103726Y0139491D01*
X0103726Y0142688D02*
X0105326Y0142688D01*
X0105326Y0144286D02*
X0103726Y0144286D01*
X0103726Y0147483D02*
X0105326Y0147483D01*
X0105326Y0149082D02*
X0103726Y0149082D01*
X0103726Y0150680D02*
X0105326Y0150680D01*
X0105326Y0155476D02*
X0103726Y0155476D01*
X0103726Y0157074D02*
X0105326Y0157074D01*
X0105326Y0158673D02*
X0103726Y0158673D01*
X0103726Y0160271D02*
X0105326Y0160271D01*
X0105326Y0161870D02*
X0103726Y0161870D01*
X0100123Y0161870D02*
X0018600Y0161870D01*
X0018600Y0162110D02*
X0133110Y0162110D01*
X0133110Y0035789D01*
X0018600Y0035789D01*
X0018600Y0162110D01*
X0018600Y0160271D02*
X0025110Y0160271D01*
X0023985Y0158673D02*
X0018600Y0158673D01*
X0018600Y0157074D02*
X0023650Y0157074D01*
X0023650Y0155476D02*
X0018600Y0155476D01*
X0018600Y0153877D02*
X0023650Y0153877D01*
X0023650Y0152279D02*
X0018600Y0152279D01*
X0018600Y0150680D02*
X0023650Y0150680D01*
X0024077Y0149082D02*
X0018600Y0149082D01*
X0018600Y0147483D02*
X0025333Y0147483D01*
X0023234Y0145885D02*
X0022866Y0145885D01*
X0022866Y0144286D02*
X0023234Y0144286D01*
X0023234Y0142688D02*
X0022866Y0142688D01*
X0019920Y0145885D02*
X0018600Y0145885D01*
X0018600Y0144286D02*
X0019281Y0144286D01*
X0019281Y0142688D02*
X0018600Y0142688D01*
X0018600Y0141089D02*
X0019281Y0141089D01*
X0019400Y0139491D02*
X0018600Y0139491D01*
X0018600Y0137892D02*
X0019681Y0137892D01*
X0019681Y0136294D02*
X0018600Y0136294D01*
X0018600Y0134695D02*
X0019681Y0134695D01*
X0019681Y0133097D02*
X0018600Y0133097D01*
X0018600Y0131498D02*
X0023698Y0131498D01*
X0022099Y0129900D02*
X0018600Y0129900D01*
X0018600Y0128301D02*
X0019113Y0128301D01*
X0018619Y0126703D02*
X0018600Y0126703D01*
X0018600Y0125104D02*
X0018930Y0125104D01*
X0018600Y0123506D02*
X0019356Y0123506D01*
X0018835Y0121907D02*
X0018600Y0121907D01*
X0018600Y0120309D02*
X0018835Y0120309D01*
X0018835Y0118710D02*
X0018600Y0118710D01*
X0018600Y0117112D02*
X0019217Y0117112D01*
X0019152Y0115513D02*
X0018600Y0115513D01*
X0018600Y0113915D02*
X0019152Y0113915D01*
X0019152Y0112316D02*
X0018600Y0112316D01*
X0018600Y0110718D02*
X0019152Y0110718D01*
X0019152Y0109119D02*
X0018600Y0109119D01*
X0018600Y0107520D02*
X0019152Y0107520D01*
X0018600Y0105922D02*
X0038153Y0105922D01*
X0043050Y0102141D02*
X0047452Y0102141D01*
X0049300Y0103989D01*
X0051500Y0104323D02*
X0051781Y0104323D01*
X0051781Y0103327D02*
X0051781Y0105545D01*
X0051904Y0106003D01*
X0052141Y0106413D01*
X0052476Y0106748D01*
X0052506Y0106765D01*
X0052181Y0107090D01*
X0052181Y0112581D01*
X0053002Y0113401D01*
X0053350Y0113401D01*
X0053350Y0115808D01*
X0052417Y0115808D01*
X0051500Y0116188D01*
X0051500Y0103078D01*
X0050211Y0101789D01*
X0048363Y0099941D01*
X0047999Y0099941D01*
X0047999Y0098411D01*
X0047179Y0097591D01*
X0038921Y0097591D01*
X0038101Y0098411D01*
X0038101Y0099141D01*
X0027444Y0099141D01*
X0024800Y0096496D01*
X0024800Y0096249D01*
X0024808Y0096278D01*
X0025045Y0096689D01*
X0025380Y0097024D01*
X0025790Y0097261D01*
X0026248Y0097383D01*
X0031000Y0097383D01*
X0031000Y0090576D01*
X0032600Y0090576D01*
X0038915Y0090576D01*
X0038915Y0095820D01*
X0038792Y0096278D01*
X0038555Y0096689D01*
X0038220Y0097024D01*
X0037810Y0097261D01*
X0037352Y0097383D01*
X0032600Y0097383D01*
X0032600Y0090576D01*
X0032600Y0088976D01*
X0038915Y0088976D01*
X0038915Y0084119D01*
X0053341Y0098545D01*
X0054774Y0099139D01*
X0060479Y0099139D01*
X0060479Y0102000D01*
X0061218Y0102739D01*
X0060479Y0103478D01*
X0060479Y0107000D01*
X0061218Y0107739D01*
X0060479Y0108478D01*
X0060479Y0112000D01*
X0060978Y0112499D01*
X0060774Y0112618D01*
X0060438Y0112953D01*
X0060201Y0113363D01*
X0060079Y0113821D01*
X0060079Y0115239D01*
X0066209Y0115239D01*
X0066209Y0115239D01*
X0060079Y0115239D01*
X0060079Y0116657D01*
X0060201Y0117115D01*
X0060438Y0117525D01*
X0060774Y0117860D01*
X0061184Y0118097D01*
X0061642Y0118220D01*
X0066209Y0118220D01*
X0066209Y0115239D01*
X0066209Y0115239D01*
X0066209Y0118220D01*
X0070777Y0118220D01*
X0071235Y0118097D01*
X0071645Y0117860D01*
X0071981Y0117525D01*
X0072217Y0117115D01*
X0072340Y0116657D01*
X0072340Y0115239D01*
X0066210Y0115239D01*
X0066210Y0115239D01*
X0072340Y0115239D01*
X0072340Y0113821D01*
X0072217Y0113363D01*
X0071981Y0112953D01*
X0071645Y0112618D01*
X0071441Y0112499D01*
X0071940Y0112000D01*
X0071940Y0108478D01*
X0071201Y0107739D01*
X0071940Y0107000D01*
X0071940Y0103478D01*
X0071701Y0103239D01*
X0072397Y0103239D01*
X0073499Y0102782D01*
X0075999Y0100282D01*
X0075999Y0100282D01*
X0076843Y0099438D01*
X0077300Y0098336D01*
X0077300Y0066482D01*
X0083398Y0060383D01*
X0083855Y0059281D01*
X0083855Y0054023D01*
X0084078Y0053800D01*
X0087633Y0053800D01*
X0089033Y0055200D01*
X0091012Y0055200D01*
X0096095Y0060282D01*
X0097197Y0060739D01*
X0125931Y0060739D01*
X0125931Y0062138D01*
X0126533Y0062739D01*
X0125931Y0063340D01*
X0125931Y0063489D01*
X0124953Y0063489D01*
X0123851Y0063946D01*
X0123007Y0064790D01*
X0121757Y0066040D01*
X0121300Y0067142D01*
X0121300Y0067258D01*
X0117391Y0067258D01*
X0117391Y0070239D01*
X0117390Y0070239D01*
X0111260Y0070239D01*
X0117390Y0070239D01*
X0117390Y0070239D01*
X0117390Y0067258D01*
X0112823Y0067258D01*
X0112365Y0067381D01*
X0111955Y0067618D01*
X0111619Y0067953D01*
X0111383Y0068363D01*
X0111260Y0068821D01*
X0111260Y0070239D01*
X0111260Y0071657D01*
X0111383Y0072115D01*
X0111619Y0072525D01*
X0111955Y0072860D01*
X0112159Y0072979D01*
X0111660Y0073478D01*
X0111660Y0077000D01*
X0112399Y0077739D01*
X0111660Y0078478D01*
X0111660Y0078518D01*
X0110850Y0079328D01*
X0105850Y0084328D01*
X0105850Y0120578D01*
X0104639Y0121789D01*
X0100889Y0121789D01*
X0092481Y0130197D01*
X0092481Y0129606D01*
X0091997Y0128437D01*
X0091102Y0127542D01*
X0089933Y0127058D01*
X0088667Y0127058D01*
X0088251Y0127230D01*
X0087695Y0126674D01*
X0082598Y0126674D01*
X0081800Y0127472D01*
X0081002Y0126674D01*
X0077596Y0126674D01*
X0069946Y0119023D01*
X0060319Y0119023D01*
X0060319Y0118147D01*
X0059030Y0116858D01*
X0059030Y0116858D01*
X0057750Y0115578D01*
X0057750Y0113401D01*
X0058098Y0113401D01*
X0058918Y0112581D01*
X0058918Y0107090D01*
X0058594Y0106765D01*
X0058624Y0106748D01*
X0058959Y0106413D01*
X0059196Y0106003D01*
X0059318Y0105545D01*
X0059318Y0103327D01*
X0055734Y0103327D01*
X0055734Y0102958D01*
X0055734Y0099177D01*
X0057755Y0099177D01*
X0058213Y0099300D01*
X0058624Y0099537D01*
X0058959Y0099872D01*
X0059196Y0100282D01*
X0059318Y0100740D01*
X0059318Y0102958D01*
X0055734Y0102958D01*
X0055366Y0102958D01*
X0055366Y0099177D01*
X0053345Y0099177D01*
X0052887Y0099300D01*
X0052476Y0099537D01*
X0052141Y0099872D01*
X0051904Y0100282D01*
X0051781Y0100740D01*
X0051781Y0102958D01*
X0055366Y0102958D01*
X0055366Y0103327D01*
X0051781Y0103327D01*
X0051781Y0102725D02*
X0051147Y0102725D01*
X0051781Y0101126D02*
X0049549Y0101126D01*
X0047999Y0099528D02*
X0052492Y0099528D01*
X0052725Y0097929D02*
X0047518Y0097929D01*
X0049528Y0094732D02*
X0038915Y0094732D01*
X0038915Y0093134D02*
X0047930Y0093134D01*
X0046331Y0091535D02*
X0038915Y0091535D01*
X0038915Y0088338D02*
X0043134Y0088338D01*
X0044732Y0089937D02*
X0032600Y0089937D01*
X0032600Y0091535D02*
X0031000Y0091535D01*
X0031000Y0093134D02*
X0032600Y0093134D01*
X0032600Y0094732D02*
X0031000Y0094732D01*
X0031000Y0096331D02*
X0032600Y0096331D01*
X0038582Y0097929D02*
X0026233Y0097929D01*
X0024838Y0096331D02*
X0024800Y0096331D01*
X0031000Y0088338D02*
X0032600Y0088338D01*
X0032600Y0086740D02*
X0031000Y0086740D01*
X0031000Y0085141D02*
X0032600Y0085141D01*
X0032600Y0083543D02*
X0031000Y0083543D01*
X0035141Y0080346D02*
X0024800Y0080346D01*
X0024800Y0081944D02*
X0036740Y0081944D01*
X0038915Y0085141D02*
X0039937Y0085141D01*
X0038915Y0086740D02*
X0041535Y0086740D01*
X0038762Y0096331D02*
X0051127Y0096331D01*
X0055366Y0099528D02*
X0055734Y0099528D01*
X0055734Y0101126D02*
X0055366Y0101126D01*
X0055366Y0102725D02*
X0055734Y0102725D01*
X0059318Y0102725D02*
X0061204Y0102725D01*
X0060479Y0104323D02*
X0059318Y0104323D01*
X0059217Y0105922D02*
X0060479Y0105922D01*
X0060999Y0107520D02*
X0058918Y0107520D01*
X0058918Y0109119D02*
X0060479Y0109119D01*
X0060479Y0110718D02*
X0058918Y0110718D01*
X0058918Y0112316D02*
X0060795Y0112316D01*
X0060079Y0113915D02*
X0057750Y0113915D01*
X0057750Y0115513D02*
X0060079Y0115513D01*
X0060201Y0117112D02*
X0059284Y0117112D01*
X0060319Y0118710D02*
X0105850Y0118710D01*
X0105850Y0117112D02*
X0072218Y0117112D01*
X0072340Y0115513D02*
X0105850Y0115513D01*
X0105850Y0113915D02*
X0072340Y0113915D01*
X0071624Y0112316D02*
X0105850Y0112316D01*
X0105850Y0110718D02*
X0071940Y0110718D01*
X0071940Y0109119D02*
X0105850Y0109119D01*
X0105850Y0107520D02*
X0071420Y0107520D01*
X0071940Y0105922D02*
X0105850Y0105922D01*
X0105850Y0104323D02*
X0071940Y0104323D01*
X0073557Y0102725D02*
X0105850Y0102725D01*
X0105850Y0101126D02*
X0075155Y0101126D01*
X0076754Y0099528D02*
X0105850Y0099528D01*
X0105850Y0097929D02*
X0077300Y0097929D01*
X0077300Y0096331D02*
X0105850Y0096331D01*
X0105850Y0094732D02*
X0077300Y0094732D01*
X0077300Y0093134D02*
X0105850Y0093134D01*
X0105850Y0091535D02*
X0077300Y0091535D01*
X0077300Y0089937D02*
X0105850Y0089937D01*
X0105850Y0088338D02*
X0077300Y0088338D01*
X0077300Y0086740D02*
X0105850Y0086740D01*
X0105850Y0085141D02*
X0077300Y0085141D01*
X0077300Y0083543D02*
X0106635Y0083543D01*
X0108050Y0085239D02*
X0113050Y0080239D01*
X0117391Y0080239D01*
X0111809Y0077149D02*
X0077300Y0077149D01*
X0077300Y0078747D02*
X0111430Y0078747D01*
X0109832Y0080346D02*
X0077300Y0080346D01*
X0077300Y0081944D02*
X0108233Y0081944D01*
X0108050Y0085239D02*
X0108050Y0121489D01*
X0105550Y0123989D01*
X0101800Y0123989D01*
X0088050Y0137739D01*
X0078050Y0137739D01*
X0066652Y0126341D01*
X0058119Y0126341D01*
X0058119Y0128900D02*
X0065461Y0128900D01*
X0069034Y0121223D02*
X0077204Y0129393D01*
X0078454Y0130239D01*
X0081031Y0126703D02*
X0082569Y0126703D01*
X0087724Y0126703D02*
X0095975Y0126703D01*
X0094377Y0128301D02*
X0091861Y0128301D01*
X0092481Y0129900D02*
X0092778Y0129900D01*
X0097574Y0125104D02*
X0076026Y0125104D01*
X0074428Y0123506D02*
X0099172Y0123506D01*
X0100771Y0121907D02*
X0072829Y0121907D01*
X0071231Y0120309D02*
X0105850Y0120309D01*
X0108099Y0128301D02*
X0112989Y0128301D01*
X0112369Y0129900D02*
X0109002Y0129900D01*
X0109870Y0131498D02*
X0112550Y0131498D01*
X0112969Y0133097D02*
X0109870Y0133097D01*
X0109870Y0134695D02*
X0114514Y0134695D01*
X0116112Y0136294D02*
X0109870Y0136294D01*
X0109870Y0139491D02*
X0119309Y0139491D01*
X0121630Y0141089D02*
X0109870Y0141089D01*
X0109870Y0142688D02*
X0121630Y0142688D01*
X0121630Y0144286D02*
X0109867Y0144286D01*
X0105326Y0134695D02*
X0103726Y0134695D01*
X0103726Y0133097D02*
X0105326Y0133097D01*
X0105326Y0131498D02*
X0103726Y0131498D01*
X0103726Y0129900D02*
X0105326Y0129900D01*
X0117390Y0117112D02*
X0117391Y0117112D01*
X0117390Y0115513D02*
X0117391Y0115513D01*
X0123121Y0101126D02*
X0124150Y0101126D01*
X0129309Y0094732D02*
X0133110Y0094732D01*
X0133110Y0093134D02*
X0127710Y0093134D01*
X0127527Y0091535D02*
X0133110Y0091535D01*
X0133110Y0089937D02*
X0129125Y0089937D01*
X0132668Y0088338D02*
X0133110Y0088338D01*
X0133110Y0086740D02*
X0132668Y0086740D01*
X0132668Y0085141D02*
X0133110Y0085141D01*
X0133110Y0083543D02*
X0132668Y0083543D01*
X0133028Y0081944D02*
X0133110Y0081944D01*
X0133068Y0080346D02*
X0133110Y0080346D01*
X0133068Y0078747D02*
X0133110Y0078747D01*
X0133068Y0077149D02*
X0133110Y0077149D01*
X0133110Y0075550D02*
X0131964Y0075550D01*
X0133110Y0073952D02*
X0127300Y0073952D01*
X0127300Y0072353D02*
X0133110Y0072353D01*
X0133110Y0070755D02*
X0127300Y0070755D01*
X0129116Y0075550D02*
X0129484Y0075550D01*
X0129484Y0077149D02*
X0129116Y0077149D01*
X0129116Y0078747D02*
X0129484Y0078747D01*
X0132343Y0069156D02*
X0133110Y0069156D01*
X0133110Y0067558D02*
X0132668Y0067558D01*
X0132668Y0065959D02*
X0133110Y0065959D01*
X0133110Y0064361D02*
X0132668Y0064361D01*
X0133110Y0062762D02*
X0132091Y0062762D01*
X0132668Y0061164D02*
X0133110Y0061164D01*
X0133110Y0059565D02*
X0132668Y0059565D01*
X0132668Y0057967D02*
X0133110Y0057967D01*
X0133110Y0056368D02*
X0132389Y0056368D01*
X0133110Y0054770D02*
X0128317Y0054770D01*
X0125255Y0051573D02*
X0133110Y0051573D01*
X0133110Y0053171D02*
X0124707Y0053171D01*
X0125255Y0049974D02*
X0133110Y0049974D01*
X0133110Y0048376D02*
X0124653Y0048376D01*
X0123055Y0046777D02*
X0133110Y0046777D01*
X0133110Y0045179D02*
X0122699Y0045179D01*
X0122678Y0045200D02*
X0119033Y0045200D01*
X0116455Y0042623D01*
X0116455Y0038977D01*
X0119033Y0036400D01*
X0122678Y0036400D01*
X0125255Y0038977D01*
X0125255Y0042623D01*
X0122678Y0045200D01*
X0124298Y0043580D02*
X0133110Y0043580D01*
X0133110Y0041982D02*
X0125255Y0041982D01*
X0125255Y0040383D02*
X0133110Y0040383D01*
X0133110Y0038785D02*
X0125062Y0038785D01*
X0123464Y0037186D02*
X0133110Y0037186D01*
X0119011Y0045179D02*
X0112699Y0045179D01*
X0112678Y0045200D02*
X0109033Y0045200D01*
X0106455Y0042623D01*
X0106455Y0038977D01*
X0109033Y0036400D01*
X0112678Y0036400D01*
X0115255Y0038977D01*
X0115255Y0042623D01*
X0112678Y0045200D01*
X0113055Y0046777D02*
X0118656Y0046777D01*
X0117057Y0048376D02*
X0114653Y0048376D01*
X0115255Y0049974D02*
X0116455Y0049974D01*
X0116455Y0051573D02*
X0115255Y0051573D01*
X0114707Y0053171D02*
X0117004Y0053171D01*
X0117413Y0043580D02*
X0114298Y0043580D01*
X0115255Y0041982D02*
X0116455Y0041982D01*
X0116455Y0040383D02*
X0115255Y0040383D01*
X0115062Y0038785D02*
X0116648Y0038785D01*
X0118247Y0037186D02*
X0113464Y0037186D01*
X0108247Y0037186D02*
X0104029Y0037186D01*
X0102843Y0036000D02*
X0105655Y0038812D01*
X0105655Y0040600D01*
X0101055Y0040600D01*
X0101055Y0036000D01*
X0102843Y0036000D01*
X0101055Y0037186D02*
X0100655Y0037186D01*
X0100655Y0036000D02*
X0100655Y0040600D01*
X0096055Y0040600D01*
X0096055Y0038812D01*
X0098867Y0036000D01*
X0100655Y0036000D01*
X0100655Y0038785D02*
X0101055Y0038785D01*
X0101055Y0040383D02*
X0100655Y0040383D01*
X0100655Y0040600D02*
X0101055Y0040600D01*
X0101055Y0041000D01*
X0100655Y0041000D01*
X0100655Y0040600D01*
X0100655Y0041000D02*
X0096055Y0041000D01*
X0096055Y0042788D01*
X0098867Y0045600D01*
X0100655Y0045600D01*
X0100655Y0041000D01*
X0101055Y0041000D02*
X0101055Y0045600D01*
X0102843Y0045600D01*
X0105655Y0042788D01*
X0105655Y0041000D01*
X0101055Y0041000D01*
X0101055Y0041982D02*
X0100655Y0041982D01*
X0100655Y0043580D02*
X0101055Y0043580D01*
X0101055Y0045179D02*
X0100655Y0045179D01*
X0100655Y0046777D02*
X0101055Y0046777D01*
X0101055Y0048376D02*
X0100655Y0048376D01*
X0100655Y0049974D02*
X0101055Y0049974D01*
X0103620Y0046777D02*
X0108656Y0046777D01*
X0109011Y0045179D02*
X0103265Y0045179D01*
X0104863Y0043580D02*
X0107413Y0043580D01*
X0106455Y0041982D02*
X0105655Y0041982D01*
X0105655Y0040383D02*
X0106455Y0040383D01*
X0106648Y0038785D02*
X0105628Y0038785D01*
X0105219Y0048376D02*
X0107057Y0048376D01*
X0106455Y0049974D02*
X0105655Y0049974D01*
X0105655Y0051573D02*
X0106455Y0051573D01*
X0107004Y0053171D02*
X0105272Y0053171D01*
X0098090Y0046777D02*
X0094755Y0046777D01*
X0094755Y0045179D02*
X0098445Y0045179D01*
X0096847Y0043580D02*
X0094755Y0043580D01*
X0095255Y0041982D02*
X0096055Y0041982D01*
X0096055Y0040383D02*
X0095255Y0040383D01*
X0095062Y0038785D02*
X0096082Y0038785D01*
X0097681Y0037186D02*
X0093464Y0037186D01*
X0088247Y0037186D02*
X0083464Y0037186D01*
X0085062Y0038785D02*
X0086648Y0038785D01*
X0086455Y0040383D02*
X0085255Y0040383D01*
X0085255Y0041982D02*
X0086455Y0041982D01*
X0086955Y0043580D02*
X0084755Y0043580D01*
X0084755Y0045179D02*
X0086955Y0045179D01*
X0086955Y0046777D02*
X0084755Y0046777D01*
X0083855Y0054770D02*
X0088602Y0054770D01*
X0092181Y0056368D02*
X0083855Y0056368D01*
X0083855Y0057967D02*
X0093779Y0057967D01*
X0095378Y0059565D02*
X0083737Y0059565D01*
X0082618Y0061164D02*
X0125931Y0061164D01*
X0126509Y0062762D02*
X0081019Y0062762D01*
X0079421Y0064361D02*
X0123436Y0064361D01*
X0121837Y0065959D02*
X0077822Y0065959D01*
X0077300Y0067558D02*
X0112058Y0067558D01*
X0111260Y0069156D02*
X0077300Y0069156D01*
X0077300Y0070755D02*
X0111260Y0070755D01*
X0111520Y0072353D02*
X0077300Y0072353D01*
X0077300Y0073952D02*
X0111660Y0073952D01*
X0111660Y0075550D02*
X0077300Y0075550D01*
X0071300Y0065959D02*
X0051572Y0065959D01*
X0053171Y0064361D02*
X0071417Y0064361D01*
X0072534Y0062762D02*
X0054769Y0062762D01*
X0056368Y0061164D02*
X0074133Y0061164D01*
X0075731Y0059565D02*
X0057966Y0059565D01*
X0059565Y0057967D02*
X0077330Y0057967D01*
X0077855Y0056368D02*
X0061163Y0056368D01*
X0063108Y0054770D02*
X0068602Y0054770D01*
X0073108Y0054770D02*
X0077855Y0054770D01*
X0077004Y0053171D02*
X0074707Y0053171D01*
X0075255Y0051573D02*
X0076455Y0051573D01*
X0076455Y0049974D02*
X0075255Y0049974D01*
X0074755Y0048376D02*
X0076955Y0048376D01*
X0076955Y0046777D02*
X0074755Y0046777D01*
X0074755Y0045179D02*
X0076955Y0045179D01*
X0076955Y0043580D02*
X0074755Y0043580D01*
X0075255Y0041982D02*
X0076455Y0041982D01*
X0076455Y0040383D02*
X0075255Y0040383D01*
X0075062Y0038785D02*
X0076648Y0038785D01*
X0078247Y0037186D02*
X0073464Y0037186D01*
X0068247Y0037186D02*
X0063464Y0037186D01*
X0065062Y0038785D02*
X0066648Y0038785D01*
X0066455Y0040383D02*
X0065255Y0040383D01*
X0065255Y0041982D02*
X0066455Y0041982D01*
X0066955Y0043580D02*
X0064755Y0043580D01*
X0064755Y0045179D02*
X0066955Y0045179D01*
X0066955Y0046777D02*
X0064755Y0046777D01*
X0056955Y0046777D02*
X0054450Y0046777D01*
X0054450Y0045179D02*
X0056955Y0045179D01*
X0056955Y0043580D02*
X0054450Y0043580D01*
X0055255Y0041982D02*
X0056455Y0041982D01*
X0056455Y0040383D02*
X0055255Y0040383D01*
X0055062Y0038785D02*
X0056648Y0038785D01*
X0058247Y0037186D02*
X0053464Y0037186D01*
X0046650Y0045179D02*
X0042699Y0045179D01*
X0043055Y0046777D02*
X0046650Y0046777D01*
X0046650Y0048376D02*
X0044653Y0048376D01*
X0045255Y0049974D02*
X0046455Y0049974D01*
X0046455Y0051573D02*
X0045255Y0051573D01*
X0044707Y0053171D02*
X0046295Y0053171D01*
X0044697Y0054770D02*
X0043108Y0054770D01*
X0054893Y0053171D02*
X0055875Y0053171D01*
X0056455Y0051573D02*
X0055255Y0051573D01*
X0055255Y0049974D02*
X0056455Y0049974D01*
X0056955Y0048376D02*
X0054653Y0048376D01*
X0056079Y0067558D02*
X0060877Y0067558D01*
X0060079Y0069156D02*
X0056212Y0069156D01*
X0056212Y0070755D02*
X0060079Y0070755D01*
X0060339Y0072353D02*
X0056212Y0072353D01*
X0055646Y0073952D02*
X0060479Y0073952D01*
X0060479Y0075550D02*
X0055646Y0075550D01*
X0055646Y0077149D02*
X0059698Y0077149D01*
X0057725Y0078747D02*
X0057051Y0078747D01*
X0060550Y0080239D02*
X0066209Y0080239D01*
X0066209Y0070239D02*
X0066209Y0070239D01*
X0066209Y0069156D02*
X0066209Y0069156D01*
X0066209Y0067558D02*
X0066209Y0067558D01*
X0060479Y0099528D02*
X0058608Y0099528D01*
X0059318Y0101126D02*
X0060479Y0101126D01*
X0055550Y0109835D02*
X0055550Y0116489D01*
X0058119Y0119058D01*
X0058119Y0121223D01*
X0069034Y0121223D01*
X0066209Y0117112D02*
X0066209Y0117112D01*
X0066209Y0115513D02*
X0066209Y0115513D01*
X0058300Y0121223D02*
X0058119Y0121223D01*
X0058119Y0123782D02*
X0054093Y0123782D01*
X0053050Y0122739D01*
X0053050Y0118989D01*
X0053350Y0115513D02*
X0051500Y0115513D01*
X0051500Y0113915D02*
X0053350Y0113915D01*
X0052181Y0112316D02*
X0051500Y0112316D01*
X0051500Y0110718D02*
X0052181Y0110718D01*
X0052181Y0109119D02*
X0051500Y0109119D01*
X0051500Y0107520D02*
X0052181Y0107520D01*
X0051883Y0105922D02*
X0051500Y0105922D01*
X0043050Y0113337D02*
X0043050Y0120239D01*
X0048050Y0125239D01*
X0048050Y0131489D01*
X0045520Y0134019D01*
X0035481Y0134019D01*
X0024733Y0134019D01*
X0023050Y0135643D01*
X0026770Y0131459D02*
X0021800Y0126489D01*
X0022204Y0120239D02*
X0022204Y0112987D01*
X0023702Y0111489D01*
X0029300Y0126489D02*
X0031889Y0128900D01*
X0035481Y0128900D01*
X0035481Y0126341D02*
X0039152Y0126341D01*
X0043050Y0130239D01*
X0043050Y0125239D02*
X0041593Y0123782D01*
X0035481Y0123782D01*
X0035481Y0131459D02*
X0026770Y0131459D01*
X0030461Y0136578D02*
X0028050Y0138989D01*
X0028050Y0153989D01*
X0032450Y0153877D02*
X0033650Y0153877D01*
X0033650Y0152279D02*
X0032450Y0152279D01*
X0032450Y0150680D02*
X0033650Y0150680D01*
X0034077Y0149082D02*
X0032023Y0149082D01*
X0030767Y0147483D02*
X0035333Y0147483D01*
X0035481Y0145885D02*
X0035481Y0145885D01*
X0035481Y0144286D02*
X0035481Y0144286D01*
X0035481Y0144255D02*
X0035481Y0144255D01*
X0039939Y0144255D01*
X0039939Y0145239D01*
X0045682Y0139496D01*
X0047505Y0139496D01*
X0054061Y0139496D01*
X0054061Y0136218D01*
X0053418Y0136218D01*
X0049925Y0132725D01*
X0048961Y0133689D01*
X0046432Y0136218D01*
X0039539Y0136218D01*
X0039539Y0142322D01*
X0039579Y0142362D01*
X0039816Y0142773D01*
X0039939Y0143230D01*
X0039939Y0144255D01*
X0035481Y0144255D01*
X0035481Y0144255D01*
X0031232Y0145885D02*
X0030250Y0145885D01*
X0030250Y0144286D02*
X0031024Y0144286D01*
X0031195Y0142688D02*
X0030250Y0142688D01*
X0030250Y0141089D02*
X0031424Y0141089D01*
X0031424Y0139491D02*
X0030660Y0139491D01*
X0030461Y0136578D02*
X0035481Y0136578D01*
X0039539Y0136294D02*
X0054061Y0136294D01*
X0054061Y0137892D02*
X0039539Y0137892D01*
X0039539Y0139491D02*
X0054061Y0139491D01*
X0051895Y0134695D02*
X0047955Y0134695D01*
X0049554Y0133097D02*
X0050296Y0133097D01*
X0046593Y0141696D02*
X0038050Y0150239D01*
X0038050Y0153989D01*
X0042450Y0153877D02*
X0043650Y0153877D01*
X0043650Y0152279D02*
X0042450Y0152279D01*
X0042450Y0150680D02*
X0043650Y0150680D01*
X0044077Y0149082D02*
X0042318Y0149082D01*
X0043917Y0147483D02*
X0045333Y0147483D01*
X0045515Y0145885D02*
X0046793Y0145885D01*
X0047114Y0144286D02*
X0048391Y0144286D01*
X0051534Y0144255D02*
X0048050Y0147739D01*
X0048050Y0153989D01*
X0052450Y0153877D02*
X0057850Y0153877D01*
X0058250Y0153877D02*
X0067190Y0153877D01*
X0065729Y0152279D02*
X0062850Y0152279D01*
X0062850Y0150680D02*
X0064130Y0150680D01*
X0062532Y0149082D02*
X0062465Y0149082D01*
X0063050Y0146489D02*
X0068050Y0151489D01*
X0069300Y0151489D01*
X0071410Y0153877D02*
X0072989Y0153877D01*
X0072989Y0155476D02*
X0062850Y0155476D01*
X0062850Y0157074D02*
X0072989Y0157074D01*
X0072989Y0158673D02*
X0062550Y0158673D01*
X0061556Y0160271D02*
X0072989Y0160271D01*
X0073076Y0152279D02*
X0072416Y0152279D01*
X0072408Y0150680D02*
X0075281Y0150680D01*
X0074888Y0149082D02*
X0071392Y0149082D01*
X0072331Y0147483D02*
X0074624Y0147483D01*
X0073025Y0145885D02*
X0072481Y0145885D01*
X0069300Y0146489D02*
X0065550Y0142739D01*
X0065550Y0138989D01*
X0063139Y0136578D01*
X0058119Y0136578D01*
X0058119Y0139137D02*
X0061948Y0139137D01*
X0063050Y0140239D01*
X0063050Y0146489D01*
X0058119Y0144255D02*
X0051534Y0144255D01*
X0051417Y0147483D02*
X0054767Y0147483D01*
X0053635Y0149082D02*
X0052023Y0149082D01*
X0052450Y0150680D02*
X0053250Y0150680D01*
X0053250Y0152279D02*
X0052450Y0152279D01*
X0052450Y0155476D02*
X0053250Y0155476D01*
X0053250Y0157074D02*
X0052450Y0157074D01*
X0052115Y0158673D02*
X0053550Y0158673D01*
X0054544Y0160271D02*
X0050990Y0160271D01*
X0045110Y0160271D02*
X0040990Y0160271D01*
X0042115Y0158673D02*
X0043985Y0158673D01*
X0043650Y0157074D02*
X0042450Y0157074D01*
X0042450Y0155476D02*
X0043650Y0155476D01*
X0035110Y0160271D02*
X0030990Y0160271D01*
X0032115Y0158673D02*
X0033985Y0158673D01*
X0033650Y0157074D02*
X0032450Y0157074D01*
X0032450Y0155476D02*
X0033650Y0155476D01*
X0039939Y0144286D02*
X0040891Y0144286D01*
X0039767Y0142688D02*
X0042490Y0142688D01*
X0044088Y0141089D02*
X0039539Y0141089D01*
X0046593Y0141696D02*
X0058119Y0141696D01*
X0058250Y0155476D02*
X0057850Y0155476D01*
X0057850Y0157074D02*
X0058250Y0157074D01*
X0058250Y0158673D02*
X0057850Y0158673D01*
X0057850Y0160271D02*
X0058250Y0160271D01*
X0082088Y0160271D02*
X0083613Y0160271D01*
X0083612Y0158673D02*
X0082088Y0158673D01*
X0082088Y0157074D02*
X0087787Y0157074D01*
X0089337Y0157074D02*
X0099183Y0157074D01*
X0099183Y0155476D02*
X0093511Y0155476D01*
X0093511Y0158673D02*
X0099183Y0158673D01*
X0099183Y0160271D02*
X0093511Y0160271D01*
X0089337Y0160271D02*
X0087787Y0160271D01*
X0087787Y0158673D02*
X0089337Y0158673D01*
X0089337Y0155476D02*
X0087787Y0155476D01*
X0087787Y0153877D02*
X0089337Y0153877D01*
X0089337Y0152279D02*
X0087787Y0152279D01*
X0083727Y0152279D02*
X0082001Y0152279D01*
X0082088Y0153877D02*
X0083612Y0153877D01*
X0083612Y0155476D02*
X0082088Y0155476D01*
X0108930Y0161870D02*
X0133110Y0161870D01*
X0133110Y0160271D02*
X0131517Y0160271D01*
X0131517Y0158673D02*
X0133110Y0158673D01*
X0133110Y0157074D02*
X0131517Y0157074D01*
X0131517Y0155476D02*
X0133110Y0155476D01*
X0133110Y0153877D02*
X0131517Y0153877D01*
X0131517Y0152279D02*
X0133110Y0152279D01*
X0133110Y0150680D02*
X0131517Y0150680D01*
X0131517Y0149082D02*
X0133110Y0149082D01*
X0133110Y0147483D02*
X0131517Y0147483D01*
X0130474Y0145885D02*
X0133110Y0145885D01*
X0133110Y0144286D02*
X0131517Y0144286D01*
X0131517Y0142688D02*
X0133110Y0142688D01*
X0133110Y0141089D02*
X0131517Y0141089D01*
X0131517Y0139491D02*
X0133110Y0139491D01*
X0133110Y0137892D02*
X0131596Y0137892D01*
X0131950Y0136294D02*
X0133110Y0136294D01*
X0133110Y0134695D02*
X0131950Y0134695D01*
X0131950Y0133097D02*
X0133110Y0133097D01*
X0133110Y0131498D02*
X0131950Y0131498D01*
X0131950Y0129900D02*
X0133110Y0129900D01*
X0133110Y0128301D02*
X0131950Y0128301D01*
X0131950Y0126703D02*
X0133110Y0126703D01*
X0133110Y0125104D02*
X0131950Y0125104D01*
X0131950Y0123506D02*
X0133110Y0123506D01*
X0133110Y0121907D02*
X0131950Y0121907D01*
X0131950Y0120309D02*
X0133110Y0120309D01*
X0133110Y0118710D02*
X0131950Y0118710D01*
X0131950Y0117112D02*
X0133110Y0117112D01*
X0133110Y0115513D02*
X0131950Y0115513D01*
X0131950Y0113915D02*
X0133110Y0113915D01*
X0133110Y0112316D02*
X0131950Y0112316D01*
X0131950Y0110718D02*
X0133110Y0110718D01*
X0133110Y0109119D02*
X0131950Y0109119D01*
X0131950Y0107520D02*
X0133110Y0107520D01*
X0133110Y0105922D02*
X0131950Y0105922D01*
X0131950Y0104323D02*
X0133110Y0104323D01*
X0133110Y0102725D02*
X0131950Y0102725D01*
X0131950Y0101126D02*
X0133110Y0101126D01*
X0133110Y0099528D02*
X0131950Y0099528D01*
X0131832Y0097929D02*
X0133110Y0097929D01*
X0133110Y0096331D02*
X0130907Y0096331D01*
X0117391Y0069156D02*
X0117390Y0069156D01*
X0117390Y0067558D02*
X0117391Y0067558D01*
X0096055Y0051573D02*
X0095870Y0051573D01*
X0096055Y0049974D02*
X0095255Y0049974D01*
X0094755Y0048376D02*
X0096491Y0048376D01*
X0033543Y0078747D02*
X0024826Y0078747D01*
X0024981Y0077149D02*
X0031944Y0077149D01*
X0030346Y0075550D02*
X0024110Y0075550D01*
X0026438Y0053171D02*
X0018600Y0053171D01*
X0018600Y0051573D02*
X0026055Y0051573D01*
X0026055Y0049974D02*
X0018600Y0049974D01*
X0018600Y0048376D02*
X0026491Y0048376D01*
X0028090Y0046777D02*
X0018600Y0046777D01*
X0018600Y0045179D02*
X0028445Y0045179D01*
X0026847Y0043580D02*
X0018600Y0043580D01*
X0018600Y0041982D02*
X0026055Y0041982D01*
X0026055Y0040383D02*
X0018600Y0040383D01*
X0018600Y0038785D02*
X0026082Y0038785D01*
X0027681Y0037186D02*
X0018600Y0037186D01*
X0109870Y0155476D02*
X0121630Y0155476D01*
X0121630Y0157074D02*
X0109870Y0157074D01*
X0109870Y0158673D02*
X0121630Y0158673D01*
X0121630Y0160271D02*
X0109870Y0160271D01*
D23*
X0115550Y0130239D03*
X0094300Y0120239D03*
X0094300Y0115239D03*
X0089300Y0115239D03*
X0089300Y0120239D03*
X0089300Y0110239D03*
X0094300Y0110239D03*
X0094300Y0105239D03*
X0089300Y0105239D03*
X0089300Y0100239D03*
X0089300Y0095239D03*
X0094300Y0095239D03*
X0094300Y0100239D03*
X0099300Y0100239D03*
X0099300Y0095239D03*
X0099300Y0090239D03*
X0094300Y0090239D03*
X0089300Y0090239D03*
X0089300Y0085239D03*
X0094300Y0085239D03*
X0099300Y0085239D03*
X0099300Y0080239D03*
X0094300Y0080239D03*
X0089300Y0080239D03*
X0089300Y0075239D03*
X0089300Y0070239D03*
X0094300Y0070239D03*
X0094300Y0075239D03*
X0094300Y0065239D03*
X0089300Y0065239D03*
X0084300Y0080239D03*
X0084300Y0085239D03*
X0084300Y0090239D03*
X0084300Y0095239D03*
X0084300Y0100239D03*
X0084300Y0105239D03*
X0099300Y0105239D03*
X0089300Y0130239D03*
X0069300Y0146489D03*
X0069300Y0151489D03*
X0043050Y0130239D03*
X0043050Y0125239D03*
X0053050Y0118989D03*
X0029300Y0126489D03*
X0021800Y0126489D03*
X0021800Y0090239D03*
X0021800Y0083989D03*
X0021800Y0077739D03*
X0060550Y0080239D03*
D24*
X0059300Y0085239D02*
X0066209Y0085239D01*
X0066209Y0090239D02*
X0058050Y0090239D01*
X0045954Y0078143D01*
X0045954Y0070239D01*
X0045954Y0067335D01*
X0060855Y0052434D01*
X0060855Y0050800D01*
X0074300Y0065239D02*
X0074300Y0097739D01*
X0071800Y0100239D01*
X0066209Y0100239D01*
X0059300Y0085239D02*
X0052646Y0078585D01*
X0052646Y0070239D01*
X0074300Y0065239D02*
X0080855Y0058684D01*
X0080855Y0050800D01*
X0090855Y0050800D01*
X0091111Y0050800D01*
X0091111Y0051056D01*
X0097794Y0057739D01*
X0127646Y0057739D01*
X0129300Y0059393D01*
X0129300Y0058989D01*
X0129300Y0066085D02*
X0128896Y0066489D01*
X0125550Y0066489D01*
X0124300Y0067739D01*
X0124300Y0082739D01*
X0121800Y0085239D01*
X0117391Y0085239D01*
X0115550Y0130239D02*
X0115550Y0131489D01*
X0121800Y0137739D01*
X0126574Y0137739D01*
X0089300Y0130239D02*
X0085146Y0130239D01*
X0078454Y0147739D02*
X0078454Y0154324D01*
X0077538Y0156489D01*
X0043050Y0102141D02*
X0026202Y0102141D01*
X0021800Y0097739D01*
X0021800Y0077739D01*
D25*
X0031800Y0071489D02*
X0031800Y0063202D01*
X0041780Y0063202D01*
X0050993Y0053989D01*
X0050993Y0053438D01*
X0050855Y0050800D01*
X0050550Y0050239D02*
X0050550Y0040239D01*
X0040550Y0040239D01*
X0060855Y0040800D02*
X0060855Y0050800D01*
X0070855Y0050800D01*
X0070855Y0040800D01*
X0080855Y0040800D02*
X0080855Y0050800D01*
X0090855Y0050800D02*
X0090855Y0040800D01*
X0066209Y0095239D02*
X0055550Y0095239D01*
X0031800Y0071489D01*
X0117391Y0095239D02*
X0124300Y0095239D01*
X0128050Y0098989D01*
X0128050Y0136263D01*
X0126574Y0137739D01*
X0126574Y0153989D01*
D26*
X0125146Y0090239D02*
X0117391Y0090239D01*
X0125146Y0090239D02*
X0129300Y0086085D01*
M02*
