G75*
%MOIN*%
%OFA0B0*%
%FSLAX25Y25*%
%IPPOS*%
%LPD*%
%AMOC8*
5,1,8,0,0,1.08239X$1,22.5*
%
%ADD10C,0.00000*%
%ADD11C,0.00600*%
%ADD12C,0.01000*%
%ADD13C,0.00700*%
%ADD14C,0.00400*%
%ADD15C,0.02400*%
%ADD16C,0.00500*%
%ADD17R,0.03500X0.05000*%
%ADD18R,0.04000X0.21000*%
%ADD19C,0.00200*%
%ADD20R,0.02500X0.03000*%
%ADD21R,0.11000X0.05000*%
%ADD22R,0.20000X0.05000*%
%ADD23C,0.01600*%
%ADD24R,0.00787X0.00787*%
%ADD25R,0.00984X0.00591*%
%ADD26R,0.02500X0.02500*%
%ADD27C,0.00800*%
%ADD28R,0.02400X0.06200*%
D10*
X0002474Y0011800D02*
X0002474Y0228335D01*
X0278065Y0228335D01*
X0278065Y0011800D01*
X0002474Y0011800D01*
X0323724Y0120068D02*
X0323726Y0120229D01*
X0323732Y0120389D01*
X0323742Y0120550D01*
X0323756Y0120710D01*
X0323774Y0120870D01*
X0323795Y0121029D01*
X0323821Y0121188D01*
X0323851Y0121346D01*
X0323884Y0121503D01*
X0323922Y0121660D01*
X0323963Y0121815D01*
X0324008Y0121969D01*
X0324057Y0122122D01*
X0324110Y0122274D01*
X0324166Y0122425D01*
X0324227Y0122574D01*
X0324290Y0122722D01*
X0324358Y0122868D01*
X0324429Y0123012D01*
X0324503Y0123154D01*
X0324581Y0123295D01*
X0324663Y0123433D01*
X0324748Y0123570D01*
X0324836Y0123704D01*
X0324928Y0123836D01*
X0325023Y0123966D01*
X0325121Y0124094D01*
X0325222Y0124219D01*
X0325326Y0124341D01*
X0325433Y0124461D01*
X0325543Y0124578D01*
X0325656Y0124693D01*
X0325772Y0124804D01*
X0325891Y0124913D01*
X0326012Y0125018D01*
X0326136Y0125121D01*
X0326262Y0125221D01*
X0326390Y0125317D01*
X0326521Y0125410D01*
X0326655Y0125500D01*
X0326790Y0125587D01*
X0326928Y0125670D01*
X0327067Y0125750D01*
X0327209Y0125826D01*
X0327352Y0125899D01*
X0327497Y0125968D01*
X0327644Y0126034D01*
X0327792Y0126096D01*
X0327942Y0126154D01*
X0328093Y0126209D01*
X0328246Y0126260D01*
X0328400Y0126307D01*
X0328555Y0126350D01*
X0328711Y0126389D01*
X0328867Y0126425D01*
X0329025Y0126456D01*
X0329183Y0126484D01*
X0329342Y0126508D01*
X0329502Y0126528D01*
X0329662Y0126544D01*
X0329822Y0126556D01*
X0329983Y0126564D01*
X0330144Y0126568D01*
X0330304Y0126568D01*
X0330465Y0126564D01*
X0330626Y0126556D01*
X0330786Y0126544D01*
X0330946Y0126528D01*
X0331106Y0126508D01*
X0331265Y0126484D01*
X0331423Y0126456D01*
X0331581Y0126425D01*
X0331737Y0126389D01*
X0331893Y0126350D01*
X0332048Y0126307D01*
X0332202Y0126260D01*
X0332355Y0126209D01*
X0332506Y0126154D01*
X0332656Y0126096D01*
X0332804Y0126034D01*
X0332951Y0125968D01*
X0333096Y0125899D01*
X0333239Y0125826D01*
X0333381Y0125750D01*
X0333520Y0125670D01*
X0333658Y0125587D01*
X0333793Y0125500D01*
X0333927Y0125410D01*
X0334058Y0125317D01*
X0334186Y0125221D01*
X0334312Y0125121D01*
X0334436Y0125018D01*
X0334557Y0124913D01*
X0334676Y0124804D01*
X0334792Y0124693D01*
X0334905Y0124578D01*
X0335015Y0124461D01*
X0335122Y0124341D01*
X0335226Y0124219D01*
X0335327Y0124094D01*
X0335425Y0123966D01*
X0335520Y0123836D01*
X0335612Y0123704D01*
X0335700Y0123570D01*
X0335785Y0123433D01*
X0335867Y0123295D01*
X0335945Y0123154D01*
X0336019Y0123012D01*
X0336090Y0122868D01*
X0336158Y0122722D01*
X0336221Y0122574D01*
X0336282Y0122425D01*
X0336338Y0122274D01*
X0336391Y0122122D01*
X0336440Y0121969D01*
X0336485Y0121815D01*
X0336526Y0121660D01*
X0336564Y0121503D01*
X0336597Y0121346D01*
X0336627Y0121188D01*
X0336653Y0121029D01*
X0336674Y0120870D01*
X0336692Y0120710D01*
X0336706Y0120550D01*
X0336716Y0120389D01*
X0336722Y0120229D01*
X0336724Y0120068D01*
X0336722Y0119907D01*
X0336716Y0119747D01*
X0336706Y0119586D01*
X0336692Y0119426D01*
X0336674Y0119266D01*
X0336653Y0119107D01*
X0336627Y0118948D01*
X0336597Y0118790D01*
X0336564Y0118633D01*
X0336526Y0118476D01*
X0336485Y0118321D01*
X0336440Y0118167D01*
X0336391Y0118014D01*
X0336338Y0117862D01*
X0336282Y0117711D01*
X0336221Y0117562D01*
X0336158Y0117414D01*
X0336090Y0117268D01*
X0336019Y0117124D01*
X0335945Y0116982D01*
X0335867Y0116841D01*
X0335785Y0116703D01*
X0335700Y0116566D01*
X0335612Y0116432D01*
X0335520Y0116300D01*
X0335425Y0116170D01*
X0335327Y0116042D01*
X0335226Y0115917D01*
X0335122Y0115795D01*
X0335015Y0115675D01*
X0334905Y0115558D01*
X0334792Y0115443D01*
X0334676Y0115332D01*
X0334557Y0115223D01*
X0334436Y0115118D01*
X0334312Y0115015D01*
X0334186Y0114915D01*
X0334058Y0114819D01*
X0333927Y0114726D01*
X0333793Y0114636D01*
X0333658Y0114549D01*
X0333520Y0114466D01*
X0333381Y0114386D01*
X0333239Y0114310D01*
X0333096Y0114237D01*
X0332951Y0114168D01*
X0332804Y0114102D01*
X0332656Y0114040D01*
X0332506Y0113982D01*
X0332355Y0113927D01*
X0332202Y0113876D01*
X0332048Y0113829D01*
X0331893Y0113786D01*
X0331737Y0113747D01*
X0331581Y0113711D01*
X0331423Y0113680D01*
X0331265Y0113652D01*
X0331106Y0113628D01*
X0330946Y0113608D01*
X0330786Y0113592D01*
X0330626Y0113580D01*
X0330465Y0113572D01*
X0330304Y0113568D01*
X0330144Y0113568D01*
X0329983Y0113572D01*
X0329822Y0113580D01*
X0329662Y0113592D01*
X0329502Y0113608D01*
X0329342Y0113628D01*
X0329183Y0113652D01*
X0329025Y0113680D01*
X0328867Y0113711D01*
X0328711Y0113747D01*
X0328555Y0113786D01*
X0328400Y0113829D01*
X0328246Y0113876D01*
X0328093Y0113927D01*
X0327942Y0113982D01*
X0327792Y0114040D01*
X0327644Y0114102D01*
X0327497Y0114168D01*
X0327352Y0114237D01*
X0327209Y0114310D01*
X0327067Y0114386D01*
X0326928Y0114466D01*
X0326790Y0114549D01*
X0326655Y0114636D01*
X0326521Y0114726D01*
X0326390Y0114819D01*
X0326262Y0114915D01*
X0326136Y0115015D01*
X0326012Y0115118D01*
X0325891Y0115223D01*
X0325772Y0115332D01*
X0325656Y0115443D01*
X0325543Y0115558D01*
X0325433Y0115675D01*
X0325326Y0115795D01*
X0325222Y0115917D01*
X0325121Y0116042D01*
X0325023Y0116170D01*
X0324928Y0116300D01*
X0324836Y0116432D01*
X0324748Y0116566D01*
X0324663Y0116703D01*
X0324581Y0116841D01*
X0324503Y0116982D01*
X0324429Y0117124D01*
X0324358Y0117268D01*
X0324290Y0117414D01*
X0324227Y0117562D01*
X0324166Y0117711D01*
X0324110Y0117862D01*
X0324057Y0118014D01*
X0324008Y0118167D01*
X0323963Y0118321D01*
X0323922Y0118476D01*
X0323884Y0118633D01*
X0323851Y0118790D01*
X0323821Y0118948D01*
X0323795Y0119107D01*
X0323774Y0119266D01*
X0323756Y0119426D01*
X0323742Y0119586D01*
X0323732Y0119747D01*
X0323726Y0119907D01*
X0323724Y0120068D01*
D11*
X0252174Y0143168D02*
X0251107Y0142100D01*
X0246836Y0142100D01*
X0245769Y0143168D01*
X0245769Y0145303D01*
X0246836Y0146370D01*
X0246836Y0148545D02*
X0251107Y0148545D01*
X0252174Y0149613D01*
X0252174Y0151748D01*
X0251107Y0152816D01*
X0246836Y0152816D01*
X0245769Y0151748D01*
X0245769Y0149613D01*
X0246836Y0148545D01*
X0251107Y0146370D02*
X0252174Y0145303D01*
X0252174Y0143168D01*
X0252174Y0154991D02*
X0245769Y0154991D01*
X0247904Y0157126D01*
X0245769Y0159261D01*
X0252174Y0159261D01*
X0252174Y0161436D02*
X0245769Y0161436D01*
X0245769Y0164639D01*
X0246836Y0165707D01*
X0248972Y0165707D01*
X0250039Y0164639D01*
X0250039Y0161436D01*
X0251107Y0167882D02*
X0246836Y0167882D01*
X0245769Y0168950D01*
X0245769Y0171085D01*
X0246836Y0172152D01*
X0251107Y0172152D01*
X0252174Y0171085D01*
X0252174Y0168950D01*
X0251107Y0167882D01*
X0245769Y0174327D02*
X0245769Y0178598D01*
X0245769Y0176463D02*
X0252174Y0176463D01*
X0252174Y0180773D02*
X0245769Y0180773D01*
X0245769Y0185043D01*
X0246836Y0187218D02*
X0247904Y0187218D01*
X0248972Y0188286D01*
X0248972Y0190421D01*
X0250039Y0191489D01*
X0251107Y0191489D01*
X0252174Y0190421D01*
X0252174Y0188286D01*
X0251107Y0187218D01*
X0252174Y0185043D02*
X0252174Y0180773D01*
X0248972Y0180773D02*
X0248972Y0182908D01*
X0246836Y0187218D02*
X0245769Y0188286D01*
X0245769Y0190421D01*
X0246836Y0191489D01*
X0118224Y0201800D02*
X0118224Y0081800D01*
X0118222Y0081713D01*
X0118216Y0081626D01*
X0118207Y0081539D01*
X0118194Y0081453D01*
X0118177Y0081367D01*
X0118156Y0081282D01*
X0118131Y0081199D01*
X0118103Y0081116D01*
X0118072Y0081035D01*
X0118037Y0080955D01*
X0117998Y0080877D01*
X0117956Y0080800D01*
X0117911Y0080725D01*
X0117862Y0080653D01*
X0117811Y0080582D01*
X0117756Y0080514D01*
X0117699Y0080449D01*
X0117638Y0080386D01*
X0117575Y0080325D01*
X0117510Y0080268D01*
X0117442Y0080213D01*
X0117371Y0080162D01*
X0117299Y0080113D01*
X0117224Y0080068D01*
X0117147Y0080026D01*
X0117069Y0079987D01*
X0116989Y0079952D01*
X0116908Y0079921D01*
X0116825Y0079893D01*
X0116742Y0079868D01*
X0116657Y0079847D01*
X0116571Y0079830D01*
X0116485Y0079817D01*
X0116398Y0079808D01*
X0116311Y0079802D01*
X0116224Y0079800D01*
X0076224Y0079800D01*
X0076137Y0079802D01*
X0076050Y0079808D01*
X0075963Y0079817D01*
X0075877Y0079830D01*
X0075791Y0079847D01*
X0075706Y0079868D01*
X0075623Y0079893D01*
X0075540Y0079921D01*
X0075459Y0079952D01*
X0075379Y0079987D01*
X0075301Y0080026D01*
X0075224Y0080068D01*
X0075149Y0080113D01*
X0075077Y0080162D01*
X0075006Y0080213D01*
X0074938Y0080268D01*
X0074873Y0080325D01*
X0074810Y0080386D01*
X0074749Y0080449D01*
X0074692Y0080514D01*
X0074637Y0080582D01*
X0074586Y0080653D01*
X0074537Y0080725D01*
X0074492Y0080800D01*
X0074450Y0080877D01*
X0074411Y0080955D01*
X0074376Y0081035D01*
X0074345Y0081116D01*
X0074317Y0081199D01*
X0074292Y0081282D01*
X0074271Y0081367D01*
X0074254Y0081453D01*
X0074241Y0081539D01*
X0074232Y0081626D01*
X0074226Y0081713D01*
X0074224Y0081800D01*
X0074224Y0201800D01*
X0074226Y0201887D01*
X0074232Y0201974D01*
X0074241Y0202061D01*
X0074254Y0202147D01*
X0074271Y0202233D01*
X0074292Y0202318D01*
X0074317Y0202401D01*
X0074345Y0202484D01*
X0074376Y0202565D01*
X0074411Y0202645D01*
X0074450Y0202723D01*
X0074492Y0202800D01*
X0074537Y0202875D01*
X0074586Y0202947D01*
X0074637Y0203018D01*
X0074692Y0203086D01*
X0074749Y0203151D01*
X0074810Y0203214D01*
X0074873Y0203275D01*
X0074938Y0203332D01*
X0075006Y0203387D01*
X0075077Y0203438D01*
X0075149Y0203487D01*
X0075224Y0203532D01*
X0075301Y0203574D01*
X0075379Y0203613D01*
X0075459Y0203648D01*
X0075540Y0203679D01*
X0075623Y0203707D01*
X0075706Y0203732D01*
X0075791Y0203753D01*
X0075877Y0203770D01*
X0075963Y0203783D01*
X0076050Y0203792D01*
X0076137Y0203798D01*
X0076224Y0203800D01*
X0116224Y0203800D01*
X0116311Y0203798D01*
X0116398Y0203792D01*
X0116485Y0203783D01*
X0116571Y0203770D01*
X0116657Y0203753D01*
X0116742Y0203732D01*
X0116825Y0203707D01*
X0116908Y0203679D01*
X0116989Y0203648D01*
X0117069Y0203613D01*
X0117147Y0203574D01*
X0117224Y0203532D01*
X0117299Y0203487D01*
X0117371Y0203438D01*
X0117442Y0203387D01*
X0117510Y0203332D01*
X0117575Y0203275D01*
X0117638Y0203214D01*
X0117699Y0203151D01*
X0117756Y0203086D01*
X0117811Y0203018D01*
X0117862Y0202947D01*
X0117911Y0202875D01*
X0117956Y0202800D01*
X0117998Y0202723D01*
X0118037Y0202645D01*
X0118072Y0202565D01*
X0118103Y0202484D01*
X0118131Y0202401D01*
X0118156Y0202318D01*
X0118177Y0202233D01*
X0118194Y0202147D01*
X0118207Y0202061D01*
X0118216Y0201974D01*
X0118222Y0201887D01*
X0118224Y0201800D01*
X0096224Y0206300D02*
X0056224Y0206300D01*
X0056224Y0227300D01*
X0096224Y0227300D01*
X0096224Y0206300D01*
X0081224Y0216800D02*
X0076224Y0216800D01*
X0076224Y0214500D01*
X0077724Y0214500D01*
X0076224Y0216800D02*
X0076224Y0219100D01*
X0074724Y0219100D01*
X0076224Y0216800D02*
X0066224Y0216800D01*
X0071224Y0214500D02*
X0071224Y0219100D01*
X0076224Y0216800D01*
X0071224Y0214500D01*
X0068974Y0196550D02*
X0041974Y0196550D01*
X0032974Y0196550D02*
X0005974Y0196550D01*
X0005974Y0164550D01*
X0032974Y0164550D01*
X0041974Y0164550D02*
X0068974Y0164550D01*
X0069974Y0143050D02*
X0004974Y0143050D01*
X0004974Y0054050D01*
X0069974Y0054050D01*
X0069974Y0143050D01*
X0037474Y0124550D02*
X0037474Y0120550D01*
X0034974Y0118050D02*
X0039974Y0108050D01*
X0037474Y0105550D02*
X0037474Y0079550D01*
X0034974Y0077050D02*
X0022674Y0077050D01*
X0039974Y0077050D02*
X0052174Y0077050D01*
X0032833Y0051501D02*
X0032833Y0050702D01*
X0072132Y0050702D01*
X0072132Y0024702D01*
X0072132Y0015300D01*
X0032833Y0015300D01*
X0032833Y0024702D01*
X0032833Y0050702D01*
X0032833Y0051501D02*
X0072132Y0051501D01*
X0072132Y0050702D01*
X0077833Y0050702D02*
X0077833Y0051501D01*
X0117132Y0051501D01*
X0117132Y0050702D01*
X0117132Y0024702D01*
X0117132Y0015300D01*
X0077833Y0015300D01*
X0077833Y0024702D01*
X0077833Y0050702D01*
X0117132Y0050702D01*
X0105332Y0045500D02*
X0105334Y0045589D01*
X0105340Y0045678D01*
X0105350Y0045767D01*
X0105364Y0045855D01*
X0105381Y0045942D01*
X0105403Y0046028D01*
X0105429Y0046114D01*
X0105458Y0046198D01*
X0105491Y0046281D01*
X0105527Y0046362D01*
X0105568Y0046442D01*
X0105611Y0046519D01*
X0105658Y0046595D01*
X0105709Y0046668D01*
X0105762Y0046739D01*
X0105819Y0046808D01*
X0105879Y0046874D01*
X0105942Y0046938D01*
X0106007Y0046998D01*
X0106075Y0047056D01*
X0106146Y0047110D01*
X0106219Y0047161D01*
X0106294Y0047209D01*
X0106371Y0047254D01*
X0106450Y0047295D01*
X0106531Y0047332D01*
X0106613Y0047366D01*
X0106697Y0047397D01*
X0106782Y0047423D01*
X0106868Y0047446D01*
X0106955Y0047464D01*
X0107043Y0047479D01*
X0107132Y0047490D01*
X0107221Y0047497D01*
X0107310Y0047500D01*
X0107399Y0047499D01*
X0107488Y0047494D01*
X0107576Y0047485D01*
X0107665Y0047472D01*
X0107752Y0047455D01*
X0107839Y0047435D01*
X0107925Y0047410D01*
X0108009Y0047382D01*
X0108092Y0047350D01*
X0108174Y0047314D01*
X0108254Y0047275D01*
X0108332Y0047232D01*
X0108408Y0047186D01*
X0108482Y0047136D01*
X0108554Y0047083D01*
X0108623Y0047027D01*
X0108690Y0046968D01*
X0108754Y0046906D01*
X0108815Y0046842D01*
X0108874Y0046774D01*
X0108929Y0046704D01*
X0108981Y0046632D01*
X0109030Y0046557D01*
X0109075Y0046481D01*
X0109117Y0046402D01*
X0109155Y0046322D01*
X0109190Y0046240D01*
X0109221Y0046156D01*
X0109249Y0046071D01*
X0109272Y0045985D01*
X0109292Y0045898D01*
X0109308Y0045811D01*
X0109320Y0045722D01*
X0109328Y0045634D01*
X0109332Y0045545D01*
X0109332Y0045455D01*
X0109328Y0045366D01*
X0109320Y0045278D01*
X0109308Y0045189D01*
X0109292Y0045102D01*
X0109272Y0045015D01*
X0109249Y0044929D01*
X0109221Y0044844D01*
X0109190Y0044760D01*
X0109155Y0044678D01*
X0109117Y0044598D01*
X0109075Y0044519D01*
X0109030Y0044443D01*
X0108981Y0044368D01*
X0108929Y0044296D01*
X0108874Y0044226D01*
X0108815Y0044158D01*
X0108754Y0044094D01*
X0108690Y0044032D01*
X0108623Y0043973D01*
X0108554Y0043917D01*
X0108482Y0043864D01*
X0108408Y0043814D01*
X0108332Y0043768D01*
X0108254Y0043725D01*
X0108174Y0043686D01*
X0108092Y0043650D01*
X0108009Y0043618D01*
X0107925Y0043590D01*
X0107839Y0043565D01*
X0107752Y0043545D01*
X0107665Y0043528D01*
X0107576Y0043515D01*
X0107488Y0043506D01*
X0107399Y0043501D01*
X0107310Y0043500D01*
X0107221Y0043503D01*
X0107132Y0043510D01*
X0107043Y0043521D01*
X0106955Y0043536D01*
X0106868Y0043554D01*
X0106782Y0043577D01*
X0106697Y0043603D01*
X0106613Y0043634D01*
X0106531Y0043668D01*
X0106450Y0043705D01*
X0106371Y0043746D01*
X0106294Y0043791D01*
X0106219Y0043839D01*
X0106146Y0043890D01*
X0106075Y0043944D01*
X0106007Y0044002D01*
X0105942Y0044062D01*
X0105879Y0044126D01*
X0105819Y0044192D01*
X0105762Y0044261D01*
X0105709Y0044332D01*
X0105658Y0044405D01*
X0105611Y0044481D01*
X0105568Y0044558D01*
X0105527Y0044638D01*
X0105491Y0044719D01*
X0105458Y0044802D01*
X0105429Y0044886D01*
X0105403Y0044972D01*
X0105381Y0045058D01*
X0105364Y0045145D01*
X0105350Y0045233D01*
X0105340Y0045322D01*
X0105334Y0045411D01*
X0105332Y0045500D01*
X0085632Y0045500D02*
X0085634Y0045589D01*
X0085640Y0045678D01*
X0085650Y0045767D01*
X0085664Y0045855D01*
X0085681Y0045942D01*
X0085703Y0046028D01*
X0085729Y0046114D01*
X0085758Y0046198D01*
X0085791Y0046281D01*
X0085827Y0046362D01*
X0085868Y0046442D01*
X0085911Y0046519D01*
X0085958Y0046595D01*
X0086009Y0046668D01*
X0086062Y0046739D01*
X0086119Y0046808D01*
X0086179Y0046874D01*
X0086242Y0046938D01*
X0086307Y0046998D01*
X0086375Y0047056D01*
X0086446Y0047110D01*
X0086519Y0047161D01*
X0086594Y0047209D01*
X0086671Y0047254D01*
X0086750Y0047295D01*
X0086831Y0047332D01*
X0086913Y0047366D01*
X0086997Y0047397D01*
X0087082Y0047423D01*
X0087168Y0047446D01*
X0087255Y0047464D01*
X0087343Y0047479D01*
X0087432Y0047490D01*
X0087521Y0047497D01*
X0087610Y0047500D01*
X0087699Y0047499D01*
X0087788Y0047494D01*
X0087876Y0047485D01*
X0087965Y0047472D01*
X0088052Y0047455D01*
X0088139Y0047435D01*
X0088225Y0047410D01*
X0088309Y0047382D01*
X0088392Y0047350D01*
X0088474Y0047314D01*
X0088554Y0047275D01*
X0088632Y0047232D01*
X0088708Y0047186D01*
X0088782Y0047136D01*
X0088854Y0047083D01*
X0088923Y0047027D01*
X0088990Y0046968D01*
X0089054Y0046906D01*
X0089115Y0046842D01*
X0089174Y0046774D01*
X0089229Y0046704D01*
X0089281Y0046632D01*
X0089330Y0046557D01*
X0089375Y0046481D01*
X0089417Y0046402D01*
X0089455Y0046322D01*
X0089490Y0046240D01*
X0089521Y0046156D01*
X0089549Y0046071D01*
X0089572Y0045985D01*
X0089592Y0045898D01*
X0089608Y0045811D01*
X0089620Y0045722D01*
X0089628Y0045634D01*
X0089632Y0045545D01*
X0089632Y0045455D01*
X0089628Y0045366D01*
X0089620Y0045278D01*
X0089608Y0045189D01*
X0089592Y0045102D01*
X0089572Y0045015D01*
X0089549Y0044929D01*
X0089521Y0044844D01*
X0089490Y0044760D01*
X0089455Y0044678D01*
X0089417Y0044598D01*
X0089375Y0044519D01*
X0089330Y0044443D01*
X0089281Y0044368D01*
X0089229Y0044296D01*
X0089174Y0044226D01*
X0089115Y0044158D01*
X0089054Y0044094D01*
X0088990Y0044032D01*
X0088923Y0043973D01*
X0088854Y0043917D01*
X0088782Y0043864D01*
X0088708Y0043814D01*
X0088632Y0043768D01*
X0088554Y0043725D01*
X0088474Y0043686D01*
X0088392Y0043650D01*
X0088309Y0043618D01*
X0088225Y0043590D01*
X0088139Y0043565D01*
X0088052Y0043545D01*
X0087965Y0043528D01*
X0087876Y0043515D01*
X0087788Y0043506D01*
X0087699Y0043501D01*
X0087610Y0043500D01*
X0087521Y0043503D01*
X0087432Y0043510D01*
X0087343Y0043521D01*
X0087255Y0043536D01*
X0087168Y0043554D01*
X0087082Y0043577D01*
X0086997Y0043603D01*
X0086913Y0043634D01*
X0086831Y0043668D01*
X0086750Y0043705D01*
X0086671Y0043746D01*
X0086594Y0043791D01*
X0086519Y0043839D01*
X0086446Y0043890D01*
X0086375Y0043944D01*
X0086307Y0044002D01*
X0086242Y0044062D01*
X0086179Y0044126D01*
X0086119Y0044192D01*
X0086062Y0044261D01*
X0086009Y0044332D01*
X0085958Y0044405D01*
X0085911Y0044481D01*
X0085868Y0044558D01*
X0085827Y0044638D01*
X0085791Y0044719D01*
X0085758Y0044802D01*
X0085729Y0044886D01*
X0085703Y0044972D01*
X0085681Y0045058D01*
X0085664Y0045145D01*
X0085650Y0045233D01*
X0085640Y0045322D01*
X0085634Y0045411D01*
X0085632Y0045500D01*
X0060332Y0045500D02*
X0060334Y0045589D01*
X0060340Y0045678D01*
X0060350Y0045767D01*
X0060364Y0045855D01*
X0060381Y0045942D01*
X0060403Y0046028D01*
X0060429Y0046114D01*
X0060458Y0046198D01*
X0060491Y0046281D01*
X0060527Y0046362D01*
X0060568Y0046442D01*
X0060611Y0046519D01*
X0060658Y0046595D01*
X0060709Y0046668D01*
X0060762Y0046739D01*
X0060819Y0046808D01*
X0060879Y0046874D01*
X0060942Y0046938D01*
X0061007Y0046998D01*
X0061075Y0047056D01*
X0061146Y0047110D01*
X0061219Y0047161D01*
X0061294Y0047209D01*
X0061371Y0047254D01*
X0061450Y0047295D01*
X0061531Y0047332D01*
X0061613Y0047366D01*
X0061697Y0047397D01*
X0061782Y0047423D01*
X0061868Y0047446D01*
X0061955Y0047464D01*
X0062043Y0047479D01*
X0062132Y0047490D01*
X0062221Y0047497D01*
X0062310Y0047500D01*
X0062399Y0047499D01*
X0062488Y0047494D01*
X0062576Y0047485D01*
X0062665Y0047472D01*
X0062752Y0047455D01*
X0062839Y0047435D01*
X0062925Y0047410D01*
X0063009Y0047382D01*
X0063092Y0047350D01*
X0063174Y0047314D01*
X0063254Y0047275D01*
X0063332Y0047232D01*
X0063408Y0047186D01*
X0063482Y0047136D01*
X0063554Y0047083D01*
X0063623Y0047027D01*
X0063690Y0046968D01*
X0063754Y0046906D01*
X0063815Y0046842D01*
X0063874Y0046774D01*
X0063929Y0046704D01*
X0063981Y0046632D01*
X0064030Y0046557D01*
X0064075Y0046481D01*
X0064117Y0046402D01*
X0064155Y0046322D01*
X0064190Y0046240D01*
X0064221Y0046156D01*
X0064249Y0046071D01*
X0064272Y0045985D01*
X0064292Y0045898D01*
X0064308Y0045811D01*
X0064320Y0045722D01*
X0064328Y0045634D01*
X0064332Y0045545D01*
X0064332Y0045455D01*
X0064328Y0045366D01*
X0064320Y0045278D01*
X0064308Y0045189D01*
X0064292Y0045102D01*
X0064272Y0045015D01*
X0064249Y0044929D01*
X0064221Y0044844D01*
X0064190Y0044760D01*
X0064155Y0044678D01*
X0064117Y0044598D01*
X0064075Y0044519D01*
X0064030Y0044443D01*
X0063981Y0044368D01*
X0063929Y0044296D01*
X0063874Y0044226D01*
X0063815Y0044158D01*
X0063754Y0044094D01*
X0063690Y0044032D01*
X0063623Y0043973D01*
X0063554Y0043917D01*
X0063482Y0043864D01*
X0063408Y0043814D01*
X0063332Y0043768D01*
X0063254Y0043725D01*
X0063174Y0043686D01*
X0063092Y0043650D01*
X0063009Y0043618D01*
X0062925Y0043590D01*
X0062839Y0043565D01*
X0062752Y0043545D01*
X0062665Y0043528D01*
X0062576Y0043515D01*
X0062488Y0043506D01*
X0062399Y0043501D01*
X0062310Y0043500D01*
X0062221Y0043503D01*
X0062132Y0043510D01*
X0062043Y0043521D01*
X0061955Y0043536D01*
X0061868Y0043554D01*
X0061782Y0043577D01*
X0061697Y0043603D01*
X0061613Y0043634D01*
X0061531Y0043668D01*
X0061450Y0043705D01*
X0061371Y0043746D01*
X0061294Y0043791D01*
X0061219Y0043839D01*
X0061146Y0043890D01*
X0061075Y0043944D01*
X0061007Y0044002D01*
X0060942Y0044062D01*
X0060879Y0044126D01*
X0060819Y0044192D01*
X0060762Y0044261D01*
X0060709Y0044332D01*
X0060658Y0044405D01*
X0060611Y0044481D01*
X0060568Y0044558D01*
X0060527Y0044638D01*
X0060491Y0044719D01*
X0060458Y0044802D01*
X0060429Y0044886D01*
X0060403Y0044972D01*
X0060381Y0045058D01*
X0060364Y0045145D01*
X0060350Y0045233D01*
X0060340Y0045322D01*
X0060334Y0045411D01*
X0060332Y0045500D01*
X0040632Y0045500D02*
X0040634Y0045589D01*
X0040640Y0045678D01*
X0040650Y0045767D01*
X0040664Y0045855D01*
X0040681Y0045942D01*
X0040703Y0046028D01*
X0040729Y0046114D01*
X0040758Y0046198D01*
X0040791Y0046281D01*
X0040827Y0046362D01*
X0040868Y0046442D01*
X0040911Y0046519D01*
X0040958Y0046595D01*
X0041009Y0046668D01*
X0041062Y0046739D01*
X0041119Y0046808D01*
X0041179Y0046874D01*
X0041242Y0046938D01*
X0041307Y0046998D01*
X0041375Y0047056D01*
X0041446Y0047110D01*
X0041519Y0047161D01*
X0041594Y0047209D01*
X0041671Y0047254D01*
X0041750Y0047295D01*
X0041831Y0047332D01*
X0041913Y0047366D01*
X0041997Y0047397D01*
X0042082Y0047423D01*
X0042168Y0047446D01*
X0042255Y0047464D01*
X0042343Y0047479D01*
X0042432Y0047490D01*
X0042521Y0047497D01*
X0042610Y0047500D01*
X0042699Y0047499D01*
X0042788Y0047494D01*
X0042876Y0047485D01*
X0042965Y0047472D01*
X0043052Y0047455D01*
X0043139Y0047435D01*
X0043225Y0047410D01*
X0043309Y0047382D01*
X0043392Y0047350D01*
X0043474Y0047314D01*
X0043554Y0047275D01*
X0043632Y0047232D01*
X0043708Y0047186D01*
X0043782Y0047136D01*
X0043854Y0047083D01*
X0043923Y0047027D01*
X0043990Y0046968D01*
X0044054Y0046906D01*
X0044115Y0046842D01*
X0044174Y0046774D01*
X0044229Y0046704D01*
X0044281Y0046632D01*
X0044330Y0046557D01*
X0044375Y0046481D01*
X0044417Y0046402D01*
X0044455Y0046322D01*
X0044490Y0046240D01*
X0044521Y0046156D01*
X0044549Y0046071D01*
X0044572Y0045985D01*
X0044592Y0045898D01*
X0044608Y0045811D01*
X0044620Y0045722D01*
X0044628Y0045634D01*
X0044632Y0045545D01*
X0044632Y0045455D01*
X0044628Y0045366D01*
X0044620Y0045278D01*
X0044608Y0045189D01*
X0044592Y0045102D01*
X0044572Y0045015D01*
X0044549Y0044929D01*
X0044521Y0044844D01*
X0044490Y0044760D01*
X0044455Y0044678D01*
X0044417Y0044598D01*
X0044375Y0044519D01*
X0044330Y0044443D01*
X0044281Y0044368D01*
X0044229Y0044296D01*
X0044174Y0044226D01*
X0044115Y0044158D01*
X0044054Y0044094D01*
X0043990Y0044032D01*
X0043923Y0043973D01*
X0043854Y0043917D01*
X0043782Y0043864D01*
X0043708Y0043814D01*
X0043632Y0043768D01*
X0043554Y0043725D01*
X0043474Y0043686D01*
X0043392Y0043650D01*
X0043309Y0043618D01*
X0043225Y0043590D01*
X0043139Y0043565D01*
X0043052Y0043545D01*
X0042965Y0043528D01*
X0042876Y0043515D01*
X0042788Y0043506D01*
X0042699Y0043501D01*
X0042610Y0043500D01*
X0042521Y0043503D01*
X0042432Y0043510D01*
X0042343Y0043521D01*
X0042255Y0043536D01*
X0042168Y0043554D01*
X0042082Y0043577D01*
X0041997Y0043603D01*
X0041913Y0043634D01*
X0041831Y0043668D01*
X0041750Y0043705D01*
X0041671Y0043746D01*
X0041594Y0043791D01*
X0041519Y0043839D01*
X0041446Y0043890D01*
X0041375Y0043944D01*
X0041307Y0044002D01*
X0041242Y0044062D01*
X0041179Y0044126D01*
X0041119Y0044192D01*
X0041062Y0044261D01*
X0041009Y0044332D01*
X0040958Y0044405D01*
X0040911Y0044481D01*
X0040868Y0044558D01*
X0040827Y0044638D01*
X0040791Y0044719D01*
X0040758Y0044802D01*
X0040729Y0044886D01*
X0040703Y0044972D01*
X0040681Y0045058D01*
X0040664Y0045145D01*
X0040650Y0045233D01*
X0040640Y0045322D01*
X0040634Y0045411D01*
X0040632Y0045500D01*
X0039132Y0024702D02*
X0032833Y0024702D01*
X0046132Y0024702D02*
X0058833Y0024702D01*
X0065833Y0024702D02*
X0072132Y0024702D01*
X0077833Y0024702D02*
X0084132Y0024702D01*
X0091132Y0024702D02*
X0103833Y0024702D01*
X0110833Y0024702D02*
X0117132Y0024702D01*
X0186224Y0024300D02*
X0188724Y0021800D01*
X0193724Y0021800D01*
X0196224Y0024300D01*
X0198724Y0021800D01*
X0203724Y0021800D01*
X0206224Y0024300D01*
X0208724Y0021800D01*
X0213724Y0021800D01*
X0216224Y0024300D01*
X0216224Y0029300D01*
X0213724Y0031800D01*
X0208724Y0031800D01*
X0206224Y0029300D01*
X0203724Y0031800D01*
X0198724Y0031800D01*
X0196224Y0029300D01*
X0193724Y0031800D01*
X0188724Y0031800D01*
X0186224Y0029300D01*
X0186224Y0024300D01*
X0202474Y0046800D02*
X0199974Y0049300D01*
X0199974Y0054300D01*
X0202474Y0056800D01*
X0199974Y0059300D01*
X0199974Y0064300D01*
X0202474Y0066800D01*
X0199974Y0069300D01*
X0199974Y0074300D01*
X0202474Y0076800D01*
X0199974Y0079300D01*
X0199974Y0084300D01*
X0202474Y0086800D01*
X0207474Y0086800D01*
X0209974Y0084300D01*
X0209974Y0079300D01*
X0207474Y0076800D01*
X0209974Y0074300D01*
X0209974Y0069300D01*
X0207474Y0066800D01*
X0209974Y0064300D01*
X0209974Y0059300D01*
X0207474Y0056800D01*
X0209974Y0054300D01*
X0209974Y0049300D01*
X0207474Y0046800D01*
X0202474Y0046800D01*
X0224974Y0084300D02*
X0224974Y0086800D01*
X0224974Y0084300D02*
X0227474Y0084300D01*
X0237474Y0084300D02*
X0239974Y0084300D01*
X0239974Y0086800D01*
X0239974Y0096800D02*
X0239974Y0099300D01*
X0237474Y0099300D01*
X0227474Y0099300D02*
X0224974Y0099300D01*
X0224974Y0096800D01*
X0147474Y0097050D02*
X0147474Y0089050D01*
X0146474Y0088050D01*
X0138474Y0088050D01*
X0137474Y0089050D01*
X0136474Y0088050D01*
X0128474Y0088050D01*
X0127474Y0089050D01*
X0127474Y0097050D01*
X0128474Y0098050D01*
X0136474Y0098050D01*
X0137474Y0097050D01*
X0138474Y0098050D01*
X0146474Y0098050D01*
X0147474Y0097050D01*
X0096224Y0096300D02*
X0096224Y0111800D01*
X0096224Y0115300D02*
X0096224Y0187300D01*
X0039974Y0118050D02*
X0034974Y0118050D01*
X0034974Y0113050D02*
X0013974Y0113050D01*
X0013974Y0115550D01*
X0039974Y0113050D02*
X0060974Y0113050D01*
X0060974Y0115550D01*
D12*
X0039974Y0113050D02*
X0039974Y0108050D01*
X0034974Y0108050D01*
X0034974Y0113050D01*
X0034974Y0118050D01*
X0039974Y0118050D02*
X0039974Y0113050D01*
X0037474Y0079550D02*
X0039974Y0077050D01*
X0041174Y0075750D01*
X0169974Y0153300D02*
X0174974Y0153300D01*
X0172474Y0155800D02*
X0172474Y0150800D01*
X0179974Y0154300D02*
X0179974Y0158100D01*
X0189974Y0158100D01*
X0189974Y0162600D01*
X0169974Y0162600D01*
X0169974Y0158100D01*
X0179974Y0158100D01*
X0132474Y0164300D02*
X0132488Y0165466D01*
X0132531Y0166631D01*
X0132603Y0167794D01*
X0132703Y0168956D01*
X0132831Y0170115D01*
X0132988Y0171270D01*
X0133173Y0172421D01*
X0133387Y0173567D01*
X0133628Y0174707D01*
X0133898Y0175842D01*
X0134195Y0176969D01*
X0134519Y0178089D01*
X0134871Y0179200D01*
X0135251Y0180302D01*
X0135657Y0181395D01*
X0136090Y0182477D01*
X0136549Y0183549D01*
X0137035Y0184609D01*
X0137546Y0185657D01*
X0138083Y0186691D01*
X0138645Y0187713D01*
X0139232Y0188720D01*
X0139843Y0189712D01*
X0140479Y0190690D01*
X0141139Y0191651D01*
X0141822Y0192596D01*
X0142528Y0193524D01*
X0143256Y0194434D01*
X0144007Y0195326D01*
X0144779Y0196199D01*
X0145572Y0197053D01*
X0146386Y0197888D01*
X0147221Y0198702D01*
X0148075Y0199495D01*
X0148948Y0200267D01*
X0149840Y0201018D01*
X0150750Y0201746D01*
X0151678Y0202452D01*
X0152623Y0203135D01*
X0153584Y0203795D01*
X0154562Y0204431D01*
X0155554Y0205042D01*
X0156561Y0205629D01*
X0157583Y0206191D01*
X0158617Y0206728D01*
X0159665Y0207239D01*
X0160725Y0207725D01*
X0161797Y0208184D01*
X0162879Y0208617D01*
X0163972Y0209023D01*
X0165074Y0209403D01*
X0166185Y0209755D01*
X0167305Y0210079D01*
X0168432Y0210376D01*
X0169567Y0210646D01*
X0170707Y0210887D01*
X0171853Y0211101D01*
X0173004Y0211286D01*
X0174159Y0211443D01*
X0175318Y0211571D01*
X0176480Y0211671D01*
X0177643Y0211743D01*
X0178808Y0211786D01*
X0179974Y0211800D01*
X0181140Y0211786D01*
X0182305Y0211743D01*
X0183468Y0211671D01*
X0184630Y0211571D01*
X0185789Y0211443D01*
X0186944Y0211286D01*
X0188095Y0211101D01*
X0189241Y0210887D01*
X0190381Y0210646D01*
X0191516Y0210376D01*
X0192643Y0210079D01*
X0193763Y0209755D01*
X0194874Y0209403D01*
X0195976Y0209023D01*
X0197069Y0208617D01*
X0198151Y0208184D01*
X0199223Y0207725D01*
X0200283Y0207239D01*
X0201331Y0206728D01*
X0202365Y0206191D01*
X0203387Y0205629D01*
X0204394Y0205042D01*
X0205386Y0204431D01*
X0206364Y0203795D01*
X0207325Y0203135D01*
X0208270Y0202452D01*
X0209198Y0201746D01*
X0210108Y0201018D01*
X0211000Y0200267D01*
X0211873Y0199495D01*
X0212727Y0198702D01*
X0213562Y0197888D01*
X0214376Y0197053D01*
X0215169Y0196199D01*
X0215941Y0195326D01*
X0216692Y0194434D01*
X0217420Y0193524D01*
X0218126Y0192596D01*
X0218809Y0191651D01*
X0219469Y0190690D01*
X0220105Y0189712D01*
X0220716Y0188720D01*
X0221303Y0187713D01*
X0221865Y0186691D01*
X0222402Y0185657D01*
X0222913Y0184609D01*
X0223399Y0183549D01*
X0223858Y0182477D01*
X0224291Y0181395D01*
X0224697Y0180302D01*
X0225077Y0179200D01*
X0225429Y0178089D01*
X0225753Y0176969D01*
X0226050Y0175842D01*
X0226320Y0174707D01*
X0226561Y0173567D01*
X0226775Y0172421D01*
X0226960Y0171270D01*
X0227117Y0170115D01*
X0227245Y0168956D01*
X0227345Y0167794D01*
X0227417Y0166631D01*
X0227460Y0165466D01*
X0227474Y0164300D01*
X0227460Y0163134D01*
X0227417Y0161969D01*
X0227345Y0160806D01*
X0227245Y0159644D01*
X0227117Y0158485D01*
X0226960Y0157330D01*
X0226775Y0156179D01*
X0226561Y0155033D01*
X0226320Y0153893D01*
X0226050Y0152758D01*
X0225753Y0151631D01*
X0225429Y0150511D01*
X0225077Y0149400D01*
X0224697Y0148298D01*
X0224291Y0147205D01*
X0223858Y0146123D01*
X0223399Y0145051D01*
X0222913Y0143991D01*
X0222402Y0142943D01*
X0221865Y0141909D01*
X0221303Y0140887D01*
X0220716Y0139880D01*
X0220105Y0138888D01*
X0219469Y0137910D01*
X0218809Y0136949D01*
X0218126Y0136004D01*
X0217420Y0135076D01*
X0216692Y0134166D01*
X0215941Y0133274D01*
X0215169Y0132401D01*
X0214376Y0131547D01*
X0213562Y0130712D01*
X0212727Y0129898D01*
X0211873Y0129105D01*
X0211000Y0128333D01*
X0210108Y0127582D01*
X0209198Y0126854D01*
X0208270Y0126148D01*
X0207325Y0125465D01*
X0206364Y0124805D01*
X0205386Y0124169D01*
X0204394Y0123558D01*
X0203387Y0122971D01*
X0202365Y0122409D01*
X0201331Y0121872D01*
X0200283Y0121361D01*
X0199223Y0120875D01*
X0198151Y0120416D01*
X0197069Y0119983D01*
X0195976Y0119577D01*
X0194874Y0119197D01*
X0193763Y0118845D01*
X0192643Y0118521D01*
X0191516Y0118224D01*
X0190381Y0117954D01*
X0189241Y0117713D01*
X0188095Y0117499D01*
X0186944Y0117314D01*
X0185789Y0117157D01*
X0184630Y0117029D01*
X0183468Y0116929D01*
X0182305Y0116857D01*
X0181140Y0116814D01*
X0179974Y0116800D01*
X0178808Y0116814D01*
X0177643Y0116857D01*
X0176480Y0116929D01*
X0175318Y0117029D01*
X0174159Y0117157D01*
X0173004Y0117314D01*
X0171853Y0117499D01*
X0170707Y0117713D01*
X0169567Y0117954D01*
X0168432Y0118224D01*
X0167305Y0118521D01*
X0166185Y0118845D01*
X0165074Y0119197D01*
X0163972Y0119577D01*
X0162879Y0119983D01*
X0161797Y0120416D01*
X0160725Y0120875D01*
X0159665Y0121361D01*
X0158617Y0121872D01*
X0157583Y0122409D01*
X0156561Y0122971D01*
X0155554Y0123558D01*
X0154562Y0124169D01*
X0153584Y0124805D01*
X0152623Y0125465D01*
X0151678Y0126148D01*
X0150750Y0126854D01*
X0149840Y0127582D01*
X0148948Y0128333D01*
X0148075Y0129105D01*
X0147221Y0129898D01*
X0146386Y0130712D01*
X0145572Y0131547D01*
X0144779Y0132401D01*
X0144007Y0133274D01*
X0143256Y0134166D01*
X0142528Y0135076D01*
X0141822Y0136004D01*
X0141139Y0136949D01*
X0140479Y0137910D01*
X0139843Y0138888D01*
X0139232Y0139880D01*
X0138645Y0140887D01*
X0138083Y0141909D01*
X0137546Y0142943D01*
X0137035Y0143991D01*
X0136549Y0145051D01*
X0136090Y0146123D01*
X0135657Y0147205D01*
X0135251Y0148298D01*
X0134871Y0149400D01*
X0134519Y0150511D01*
X0134195Y0151631D01*
X0133898Y0152758D01*
X0133628Y0153893D01*
X0133387Y0155033D01*
X0133173Y0156179D01*
X0132988Y0157330D01*
X0132831Y0158485D01*
X0132703Y0159644D01*
X0132603Y0160806D01*
X0132531Y0161969D01*
X0132488Y0163134D01*
X0132474Y0164300D01*
X0119974Y0164300D02*
X0119992Y0165772D01*
X0120046Y0167244D01*
X0120137Y0168714D01*
X0120263Y0170181D01*
X0120425Y0171645D01*
X0120623Y0173104D01*
X0120857Y0174558D01*
X0121127Y0176005D01*
X0121432Y0177446D01*
X0121772Y0178879D01*
X0122147Y0180303D01*
X0122558Y0181717D01*
X0123002Y0183121D01*
X0123481Y0184513D01*
X0123994Y0185894D01*
X0124541Y0187261D01*
X0125121Y0188614D01*
X0125735Y0189953D01*
X0126381Y0191277D01*
X0127059Y0192584D01*
X0127769Y0193874D01*
X0128510Y0195146D01*
X0129283Y0196400D01*
X0130086Y0197634D01*
X0130919Y0198848D01*
X0131782Y0200042D01*
X0132673Y0201214D01*
X0133593Y0202364D01*
X0134541Y0203490D01*
X0135517Y0204594D01*
X0136519Y0205672D01*
X0137548Y0206726D01*
X0138602Y0207755D01*
X0139680Y0208757D01*
X0140784Y0209733D01*
X0141910Y0210681D01*
X0143060Y0211601D01*
X0144232Y0212492D01*
X0145426Y0213355D01*
X0146640Y0214188D01*
X0147874Y0214991D01*
X0149128Y0215764D01*
X0150400Y0216505D01*
X0151690Y0217215D01*
X0152997Y0217893D01*
X0154321Y0218539D01*
X0155660Y0219153D01*
X0157013Y0219733D01*
X0158380Y0220280D01*
X0159761Y0220793D01*
X0161153Y0221272D01*
X0162557Y0221716D01*
X0163971Y0222127D01*
X0165395Y0222502D01*
X0166828Y0222842D01*
X0168269Y0223147D01*
X0169716Y0223417D01*
X0171170Y0223651D01*
X0172629Y0223849D01*
X0174093Y0224011D01*
X0175560Y0224137D01*
X0177030Y0224228D01*
X0178502Y0224282D01*
X0179974Y0224300D01*
X0181446Y0224282D01*
X0182918Y0224228D01*
X0184388Y0224137D01*
X0185855Y0224011D01*
X0187319Y0223849D01*
X0188778Y0223651D01*
X0190232Y0223417D01*
X0191679Y0223147D01*
X0193120Y0222842D01*
X0194553Y0222502D01*
X0195977Y0222127D01*
X0197391Y0221716D01*
X0198795Y0221272D01*
X0200187Y0220793D01*
X0201568Y0220280D01*
X0202935Y0219733D01*
X0204288Y0219153D01*
X0205627Y0218539D01*
X0206951Y0217893D01*
X0208258Y0217215D01*
X0209548Y0216505D01*
X0210820Y0215764D01*
X0212074Y0214991D01*
X0213308Y0214188D01*
X0214522Y0213355D01*
X0215716Y0212492D01*
X0216888Y0211601D01*
X0218038Y0210681D01*
X0219164Y0209733D01*
X0220268Y0208757D01*
X0221346Y0207755D01*
X0222400Y0206726D01*
X0223429Y0205672D01*
X0224431Y0204594D01*
X0225407Y0203490D01*
X0226355Y0202364D01*
X0227275Y0201214D01*
X0228166Y0200042D01*
X0229029Y0198848D01*
X0229862Y0197634D01*
X0230665Y0196400D01*
X0231438Y0195146D01*
X0232179Y0193874D01*
X0232889Y0192584D01*
X0233567Y0191277D01*
X0234213Y0189953D01*
X0234827Y0188614D01*
X0235407Y0187261D01*
X0235954Y0185894D01*
X0236467Y0184513D01*
X0236946Y0183121D01*
X0237390Y0181717D01*
X0237801Y0180303D01*
X0238176Y0178879D01*
X0238516Y0177446D01*
X0238821Y0176005D01*
X0239091Y0174558D01*
X0239325Y0173104D01*
X0239523Y0171645D01*
X0239685Y0170181D01*
X0239811Y0168714D01*
X0239902Y0167244D01*
X0239956Y0165772D01*
X0239974Y0164300D01*
X0239956Y0162828D01*
X0239902Y0161356D01*
X0239811Y0159886D01*
X0239685Y0158419D01*
X0239523Y0156955D01*
X0239325Y0155496D01*
X0239091Y0154042D01*
X0238821Y0152595D01*
X0238516Y0151154D01*
X0238176Y0149721D01*
X0237801Y0148297D01*
X0237390Y0146883D01*
X0236946Y0145479D01*
X0236467Y0144087D01*
X0235954Y0142706D01*
X0235407Y0141339D01*
X0234827Y0139986D01*
X0234213Y0138647D01*
X0233567Y0137323D01*
X0232889Y0136016D01*
X0232179Y0134726D01*
X0231438Y0133454D01*
X0230665Y0132200D01*
X0229862Y0130966D01*
X0229029Y0129752D01*
X0228166Y0128558D01*
X0227275Y0127386D01*
X0226355Y0126236D01*
X0225407Y0125110D01*
X0224431Y0124006D01*
X0223429Y0122928D01*
X0222400Y0121874D01*
X0221346Y0120845D01*
X0220268Y0119843D01*
X0219164Y0118867D01*
X0218038Y0117919D01*
X0216888Y0116999D01*
X0215716Y0116108D01*
X0214522Y0115245D01*
X0213308Y0114412D01*
X0212074Y0113609D01*
X0210820Y0112836D01*
X0209548Y0112095D01*
X0208258Y0111385D01*
X0206951Y0110707D01*
X0205627Y0110061D01*
X0204288Y0109447D01*
X0202935Y0108867D01*
X0201568Y0108320D01*
X0200187Y0107807D01*
X0198795Y0107328D01*
X0197391Y0106884D01*
X0195977Y0106473D01*
X0194553Y0106098D01*
X0193120Y0105758D01*
X0191679Y0105453D01*
X0190232Y0105183D01*
X0188778Y0104949D01*
X0187319Y0104751D01*
X0185855Y0104589D01*
X0184388Y0104463D01*
X0182918Y0104372D01*
X0181446Y0104318D01*
X0179974Y0104300D01*
X0178502Y0104318D01*
X0177030Y0104372D01*
X0175560Y0104463D01*
X0174093Y0104589D01*
X0172629Y0104751D01*
X0171170Y0104949D01*
X0169716Y0105183D01*
X0168269Y0105453D01*
X0166828Y0105758D01*
X0165395Y0106098D01*
X0163971Y0106473D01*
X0162557Y0106884D01*
X0161153Y0107328D01*
X0159761Y0107807D01*
X0158380Y0108320D01*
X0157013Y0108867D01*
X0155660Y0109447D01*
X0154321Y0110061D01*
X0152997Y0110707D01*
X0151690Y0111385D01*
X0150400Y0112095D01*
X0149128Y0112836D01*
X0147874Y0113609D01*
X0146640Y0114412D01*
X0145426Y0115245D01*
X0144232Y0116108D01*
X0143060Y0116999D01*
X0141910Y0117919D01*
X0140784Y0118867D01*
X0139680Y0119843D01*
X0138602Y0120845D01*
X0137548Y0121874D01*
X0136519Y0122928D01*
X0135517Y0124006D01*
X0134541Y0125110D01*
X0133593Y0126236D01*
X0132673Y0127386D01*
X0131782Y0128558D01*
X0130919Y0129752D01*
X0130086Y0130966D01*
X0129283Y0132200D01*
X0128510Y0133454D01*
X0127769Y0134726D01*
X0127059Y0136016D01*
X0126381Y0137323D01*
X0125735Y0138647D01*
X0125121Y0139986D01*
X0124541Y0141339D01*
X0123994Y0142706D01*
X0123481Y0144087D01*
X0123002Y0145479D01*
X0122558Y0146883D01*
X0122147Y0148297D01*
X0121772Y0149721D01*
X0121432Y0151154D01*
X0121127Y0152595D01*
X0120857Y0154042D01*
X0120623Y0155496D01*
X0120425Y0156955D01*
X0120263Y0158419D01*
X0120137Y0159886D01*
X0120046Y0161356D01*
X0119992Y0162828D01*
X0119974Y0164300D01*
X0179974Y0166800D02*
X0179974Y0174300D01*
D13*
X0145482Y0215650D02*
X0141279Y0215650D01*
X0143381Y0215650D02*
X0143381Y0221955D01*
X0141279Y0219854D01*
X0139037Y0220904D02*
X0137986Y0221955D01*
X0135884Y0221955D01*
X0134833Y0220904D01*
X0134833Y0216701D01*
X0135884Y0215650D01*
X0137986Y0215650D01*
X0139037Y0216701D01*
X0126374Y0114908D02*
X0126374Y0110704D01*
X0122171Y0114908D01*
X0121120Y0114908D01*
X0120069Y0113857D01*
X0120069Y0111755D01*
X0121120Y0110704D01*
X0121120Y0108463D02*
X0120069Y0107412D01*
X0120069Y0105310D01*
X0121120Y0104259D01*
X0125323Y0104259D01*
X0126374Y0105310D01*
X0126374Y0107412D01*
X0125323Y0108463D01*
X0014332Y0044400D02*
X0010129Y0044400D01*
X0012231Y0044400D02*
X0012231Y0050705D01*
X0010129Y0048604D01*
X0007887Y0050705D02*
X0003683Y0046502D01*
X0004734Y0047553D02*
X0007887Y0044400D01*
X0003683Y0044400D02*
X0003683Y0050705D01*
X0307069Y0123578D02*
X0307069Y0125679D01*
X0308120Y0126730D01*
X0312323Y0126730D01*
X0313374Y0125679D01*
X0313374Y0123578D01*
X0312323Y0122527D01*
X0308120Y0122527D01*
X0307069Y0123578D01*
X0311273Y0124629D02*
X0313374Y0126730D01*
X0313374Y0128972D02*
X0309171Y0133176D01*
X0308120Y0133176D01*
X0307069Y0132125D01*
X0307069Y0130023D01*
X0308120Y0128972D01*
X0313374Y0128972D02*
X0313374Y0133176D01*
D14*
X0192274Y0110156D02*
X0187670Y0110156D01*
X0189972Y0107854D01*
X0189972Y0110923D01*
X0188438Y0106319D02*
X0187670Y0105552D01*
X0187670Y0104017D01*
X0188438Y0103250D01*
X0191507Y0103250D01*
X0192274Y0104017D01*
X0192274Y0105552D01*
X0191507Y0106319D01*
X0183524Y0106319D02*
X0181990Y0104785D01*
X0181990Y0105552D02*
X0181990Y0103250D01*
X0183524Y0103250D02*
X0178920Y0103250D01*
X0178920Y0105552D01*
X0179688Y0106319D01*
X0181222Y0106319D01*
X0181990Y0105552D01*
X0182757Y0107854D02*
X0183524Y0108621D01*
X0183524Y0110156D01*
X0182757Y0110923D01*
X0179688Y0110923D01*
X0178920Y0110156D01*
X0178920Y0108621D01*
X0179688Y0107854D01*
X0180455Y0107854D01*
X0181222Y0108621D01*
X0181222Y0110923D01*
X0174774Y0110923D02*
X0174774Y0107854D01*
X0170170Y0107854D01*
X0170170Y0110923D01*
X0170170Y0112458D02*
X0170170Y0114760D01*
X0170938Y0115527D01*
X0174007Y0115527D01*
X0174774Y0114760D01*
X0174774Y0112458D01*
X0170170Y0112458D01*
X0172472Y0109389D02*
X0172472Y0107854D01*
X0174774Y0106319D02*
X0174774Y0103250D01*
X0170170Y0103250D01*
X0170506Y0093965D02*
X0170429Y0093892D01*
X0170354Y0093817D01*
X0170283Y0093739D01*
X0170214Y0093658D01*
X0170148Y0093575D01*
X0170085Y0093490D01*
X0170026Y0093402D01*
X0169969Y0093313D01*
X0169916Y0093221D01*
X0169866Y0093127D01*
X0169820Y0093032D01*
X0169777Y0092935D01*
X0169738Y0092837D01*
X0169702Y0092737D01*
X0169670Y0092636D01*
X0169642Y0092534D01*
X0169617Y0092431D01*
X0169596Y0092327D01*
X0169579Y0092222D01*
X0169565Y0092117D01*
X0169556Y0092012D01*
X0169550Y0091906D01*
X0169548Y0091800D01*
X0169550Y0091694D01*
X0169556Y0091588D01*
X0169565Y0091483D01*
X0169579Y0091378D01*
X0169596Y0091273D01*
X0169617Y0091169D01*
X0169642Y0091066D01*
X0169670Y0090964D01*
X0169702Y0090863D01*
X0169738Y0090763D01*
X0169777Y0090665D01*
X0169820Y0090568D01*
X0169866Y0090473D01*
X0169916Y0090379D01*
X0169969Y0090287D01*
X0170026Y0090198D01*
X0170085Y0090110D01*
X0170148Y0090025D01*
X0170214Y0089942D01*
X0170283Y0089861D01*
X0170354Y0089783D01*
X0170429Y0089708D01*
X0170506Y0089635D01*
X0174442Y0089635D02*
X0174519Y0089708D01*
X0174594Y0089783D01*
X0174665Y0089861D01*
X0174734Y0089942D01*
X0174800Y0090025D01*
X0174863Y0090110D01*
X0174922Y0090198D01*
X0174979Y0090287D01*
X0175032Y0090379D01*
X0175082Y0090473D01*
X0175128Y0090568D01*
X0175171Y0090665D01*
X0175210Y0090763D01*
X0175246Y0090863D01*
X0175278Y0090964D01*
X0175306Y0091066D01*
X0175331Y0091169D01*
X0175352Y0091273D01*
X0175369Y0091378D01*
X0175383Y0091483D01*
X0175392Y0091588D01*
X0175398Y0091694D01*
X0175400Y0091800D01*
X0175398Y0091906D01*
X0175392Y0092012D01*
X0175383Y0092117D01*
X0175369Y0092222D01*
X0175352Y0092327D01*
X0175331Y0092431D01*
X0175306Y0092534D01*
X0175278Y0092636D01*
X0175246Y0092737D01*
X0175210Y0092837D01*
X0175171Y0092935D01*
X0175128Y0093032D01*
X0175082Y0093127D01*
X0175032Y0093221D01*
X0174979Y0093313D01*
X0174922Y0093402D01*
X0174863Y0093490D01*
X0174800Y0093575D01*
X0174734Y0093658D01*
X0174665Y0093739D01*
X0174594Y0093817D01*
X0174519Y0093892D01*
X0174442Y0093965D01*
X0147909Y0080837D02*
X0147142Y0081604D01*
X0145607Y0081604D01*
X0144840Y0080837D01*
X0144840Y0077767D01*
X0145607Y0077000D01*
X0147142Y0077000D01*
X0147909Y0077767D01*
X0143305Y0077767D02*
X0143305Y0078535D01*
X0142538Y0079302D01*
X0141771Y0079302D01*
X0142538Y0079302D02*
X0143305Y0080069D01*
X0143305Y0080837D01*
X0142538Y0081604D01*
X0141003Y0081604D01*
X0140236Y0080837D01*
X0138701Y0080837D02*
X0138701Y0080069D01*
X0137934Y0079302D01*
X0138701Y0078535D01*
X0138701Y0077767D01*
X0137934Y0077000D01*
X0136399Y0077000D01*
X0135632Y0077767D01*
X0137167Y0079302D02*
X0137934Y0079302D01*
X0138701Y0080837D02*
X0137934Y0081604D01*
X0136399Y0081604D01*
X0135632Y0080837D01*
X0134098Y0081604D02*
X0131028Y0081604D01*
X0131028Y0077000D01*
X0129494Y0077000D02*
X0126424Y0077000D01*
X0126424Y0081604D01*
X0131028Y0079302D02*
X0132563Y0079302D01*
X0140236Y0077767D02*
X0141003Y0077000D01*
X0142538Y0077000D01*
X0143305Y0077767D01*
X0176420Y0065465D02*
X0177188Y0063931D01*
X0178722Y0062396D01*
X0178722Y0064698D01*
X0179490Y0065465D01*
X0180257Y0065465D01*
X0181024Y0064698D01*
X0181024Y0063163D01*
X0180257Y0062396D01*
X0178722Y0062396D01*
X0178722Y0060861D02*
X0177188Y0060861D01*
X0176420Y0060094D01*
X0176420Y0057792D01*
X0181024Y0057792D01*
X0179490Y0057792D02*
X0179490Y0060094D01*
X0178722Y0060861D01*
X0179490Y0059327D02*
X0181024Y0060861D01*
X0169890Y0044104D02*
X0168355Y0043337D01*
X0166820Y0041802D01*
X0169122Y0041802D01*
X0169890Y0041035D01*
X0169890Y0040267D01*
X0169122Y0039500D01*
X0167588Y0039500D01*
X0166820Y0040267D01*
X0166820Y0041802D01*
X0165286Y0043337D02*
X0164518Y0044104D01*
X0162984Y0044104D01*
X0162216Y0043337D01*
X0162216Y0040267D01*
X0162984Y0039500D01*
X0164518Y0039500D01*
X0165286Y0040267D01*
X0173466Y0033337D02*
X0173466Y0030267D01*
X0174234Y0029500D01*
X0175768Y0029500D01*
X0176536Y0030267D01*
X0178070Y0030267D02*
X0178838Y0029500D01*
X0180372Y0029500D01*
X0181140Y0030267D01*
X0181140Y0031802D01*
X0180372Y0032569D01*
X0179605Y0032569D01*
X0178070Y0031802D01*
X0178070Y0034104D01*
X0181140Y0034104D01*
X0176536Y0033337D02*
X0175768Y0034104D01*
X0174234Y0034104D01*
X0173466Y0033337D01*
X0154274Y0029948D02*
X0154274Y0028413D01*
X0153507Y0027646D01*
X0153507Y0026111D02*
X0150438Y0026111D01*
X0149670Y0025344D01*
X0149670Y0023042D01*
X0154274Y0023042D01*
X0154274Y0025344D01*
X0153507Y0026111D01*
X0150438Y0027646D02*
X0149670Y0028413D01*
X0149670Y0029948D01*
X0150438Y0030715D01*
X0151205Y0030715D01*
X0151972Y0029948D01*
X0152740Y0030715D01*
X0153507Y0030715D01*
X0154274Y0029948D01*
X0151972Y0029948D02*
X0151972Y0029181D01*
X0151722Y0021923D02*
X0151722Y0018854D01*
X0149420Y0021156D01*
X0154024Y0021156D01*
X0153257Y0017319D02*
X0150188Y0017319D01*
X0149420Y0016552D01*
X0149420Y0014250D01*
X0154024Y0014250D01*
X0154024Y0016552D01*
X0153257Y0017319D01*
X0117274Y0016344D02*
X0117274Y0014809D01*
X0116507Y0014042D01*
X0113438Y0014042D01*
X0112670Y0014809D01*
X0112670Y0016344D01*
X0113438Y0017111D01*
X0112670Y0018646D02*
X0112670Y0021715D01*
X0113438Y0021715D01*
X0116507Y0018646D01*
X0117274Y0018646D01*
X0116507Y0017111D02*
X0117274Y0016344D01*
X0171705Y0117062D02*
X0170170Y0118596D01*
X0174774Y0118596D01*
X0174774Y0117062D02*
X0174774Y0120131D01*
D15*
X0069974Y0168550D02*
X0069974Y0192550D01*
X0068974Y0196550D02*
X0068974Y0164550D01*
X0066474Y0162550D02*
X0066474Y0198550D01*
X0063474Y0198550D02*
X0063474Y0162550D01*
X0059974Y0162550D02*
X0059974Y0198550D01*
X0055974Y0198550D02*
X0055974Y0162550D01*
X0051974Y0162550D02*
X0051974Y0198550D01*
X0046974Y0198550D02*
X0046974Y0162550D01*
X0042474Y0165550D02*
X0042474Y0195550D01*
X0037474Y0198550D02*
X0037474Y0163050D01*
X0032474Y0165550D02*
X0032474Y0195550D01*
X0027974Y0198550D02*
X0027974Y0162550D01*
X0022974Y0162550D02*
X0022974Y0198550D01*
X0018974Y0198550D02*
X0018974Y0162550D01*
X0014974Y0162550D02*
X0014974Y0198550D01*
X0011474Y0198550D02*
X0011474Y0162550D01*
X0008474Y0162550D02*
X0008474Y0198550D01*
X0004974Y0192550D02*
X0004974Y0168550D01*
D16*
X0043516Y0201050D02*
X0046519Y0201050D01*
X0048120Y0201050D02*
X0051123Y0204053D01*
X0051123Y0204803D01*
X0050372Y0205554D01*
X0048871Y0205554D01*
X0048120Y0204803D01*
X0048120Y0201050D02*
X0051123Y0201050D01*
X0043516Y0201050D02*
X0043516Y0205554D01*
X0046016Y0223050D02*
X0048268Y0223050D01*
X0049019Y0223801D01*
X0049019Y0226803D01*
X0048268Y0227554D01*
X0046016Y0227554D01*
X0046016Y0223050D01*
X0050620Y0223050D02*
X0053623Y0226053D01*
X0053623Y0226803D01*
X0052872Y0227554D01*
X0051371Y0227554D01*
X0050620Y0226803D01*
X0050620Y0223050D02*
X0053623Y0223050D01*
X0129164Y0105054D02*
X0130665Y0105054D01*
X0129914Y0105054D02*
X0129914Y0101301D01*
X0129164Y0100550D01*
X0128413Y0100550D01*
X0127663Y0101301D01*
X0132266Y0102051D02*
X0134518Y0102051D01*
X0135269Y0102802D01*
X0135269Y0104303D01*
X0134518Y0105054D01*
X0132266Y0105054D01*
X0132266Y0100550D01*
X0136870Y0100550D02*
X0139873Y0100550D01*
X0138372Y0100550D02*
X0138372Y0105054D01*
X0136870Y0103553D01*
X0168695Y0074674D02*
X0196254Y0074674D01*
X0196254Y0058926D01*
X0168695Y0058926D01*
X0168695Y0074674D01*
X0148724Y0069300D02*
X0148724Y0044300D01*
X0144974Y0044300D01*
X0127474Y0044300D01*
X0123724Y0044300D01*
X0123724Y0069300D01*
X0148724Y0069300D01*
X0190348Y0070737D02*
X0190350Y0070825D01*
X0190356Y0070913D01*
X0190366Y0071001D01*
X0190380Y0071089D01*
X0190397Y0071175D01*
X0190419Y0071261D01*
X0190444Y0071345D01*
X0190474Y0071429D01*
X0190506Y0071511D01*
X0190543Y0071591D01*
X0190583Y0071670D01*
X0190627Y0071747D01*
X0190674Y0071822D01*
X0190724Y0071894D01*
X0190778Y0071965D01*
X0190834Y0072032D01*
X0190894Y0072098D01*
X0190956Y0072160D01*
X0191022Y0072220D01*
X0191089Y0072276D01*
X0191160Y0072330D01*
X0191232Y0072380D01*
X0191307Y0072427D01*
X0191384Y0072471D01*
X0191463Y0072511D01*
X0191543Y0072548D01*
X0191625Y0072580D01*
X0191709Y0072610D01*
X0191793Y0072635D01*
X0191879Y0072657D01*
X0191965Y0072674D01*
X0192053Y0072688D01*
X0192141Y0072698D01*
X0192229Y0072704D01*
X0192317Y0072706D01*
X0192405Y0072704D01*
X0192493Y0072698D01*
X0192581Y0072688D01*
X0192669Y0072674D01*
X0192755Y0072657D01*
X0192841Y0072635D01*
X0192925Y0072610D01*
X0193009Y0072580D01*
X0193091Y0072548D01*
X0193171Y0072511D01*
X0193250Y0072471D01*
X0193327Y0072427D01*
X0193402Y0072380D01*
X0193474Y0072330D01*
X0193545Y0072276D01*
X0193612Y0072220D01*
X0193678Y0072160D01*
X0193740Y0072098D01*
X0193800Y0072032D01*
X0193856Y0071965D01*
X0193910Y0071894D01*
X0193960Y0071822D01*
X0194007Y0071747D01*
X0194051Y0071670D01*
X0194091Y0071591D01*
X0194128Y0071511D01*
X0194160Y0071429D01*
X0194190Y0071345D01*
X0194215Y0071261D01*
X0194237Y0071175D01*
X0194254Y0071089D01*
X0194268Y0071001D01*
X0194278Y0070913D01*
X0194284Y0070825D01*
X0194286Y0070737D01*
X0194284Y0070649D01*
X0194278Y0070561D01*
X0194268Y0070473D01*
X0194254Y0070385D01*
X0194237Y0070299D01*
X0194215Y0070213D01*
X0194190Y0070129D01*
X0194160Y0070045D01*
X0194128Y0069963D01*
X0194091Y0069883D01*
X0194051Y0069804D01*
X0194007Y0069727D01*
X0193960Y0069652D01*
X0193910Y0069580D01*
X0193856Y0069509D01*
X0193800Y0069442D01*
X0193740Y0069376D01*
X0193678Y0069314D01*
X0193612Y0069254D01*
X0193545Y0069198D01*
X0193474Y0069144D01*
X0193402Y0069094D01*
X0193327Y0069047D01*
X0193250Y0069003D01*
X0193171Y0068963D01*
X0193091Y0068926D01*
X0193009Y0068894D01*
X0192925Y0068864D01*
X0192841Y0068839D01*
X0192755Y0068817D01*
X0192669Y0068800D01*
X0192581Y0068786D01*
X0192493Y0068776D01*
X0192405Y0068770D01*
X0192317Y0068768D01*
X0192229Y0068770D01*
X0192141Y0068776D01*
X0192053Y0068786D01*
X0191965Y0068800D01*
X0191879Y0068817D01*
X0191793Y0068839D01*
X0191709Y0068864D01*
X0191625Y0068894D01*
X0191543Y0068926D01*
X0191463Y0068963D01*
X0191384Y0069003D01*
X0191307Y0069047D01*
X0191232Y0069094D01*
X0191160Y0069144D01*
X0191089Y0069198D01*
X0191022Y0069254D01*
X0190956Y0069314D01*
X0190894Y0069376D01*
X0190834Y0069442D01*
X0190778Y0069509D01*
X0190724Y0069580D01*
X0190674Y0069652D01*
X0190627Y0069727D01*
X0190583Y0069804D01*
X0190543Y0069883D01*
X0190506Y0069963D01*
X0190474Y0070045D01*
X0190444Y0070129D01*
X0190419Y0070213D01*
X0190397Y0070299D01*
X0190380Y0070385D01*
X0190366Y0070473D01*
X0190356Y0070561D01*
X0190350Y0070649D01*
X0190348Y0070737D01*
X0204222Y0086946D02*
X0202720Y0088447D01*
X0207224Y0088447D01*
X0207224Y0086946D02*
X0207224Y0089949D01*
X0212970Y0089698D02*
X0212970Y0087446D01*
X0217474Y0087446D01*
X0215973Y0087446D02*
X0215973Y0089698D01*
X0215222Y0090449D01*
X0213721Y0090449D01*
X0212970Y0089698D01*
X0215973Y0088947D02*
X0217474Y0090449D01*
X0217474Y0085845D02*
X0217474Y0082842D01*
X0212970Y0082842D01*
X0212970Y0085845D01*
X0215222Y0084343D02*
X0215222Y0082842D01*
X0212970Y0081241D02*
X0217474Y0081241D01*
X0214472Y0079739D02*
X0212970Y0081241D01*
X0214472Y0079739D02*
X0212970Y0078238D01*
X0217474Y0078238D01*
X0217474Y0076637D02*
X0212970Y0076637D01*
X0214472Y0075135D01*
X0212970Y0073634D01*
X0217474Y0073634D01*
X0217474Y0072033D02*
X0214472Y0072033D01*
X0212970Y0070532D01*
X0214472Y0069030D01*
X0217474Y0069030D01*
X0217474Y0067429D02*
X0215973Y0065928D01*
X0215973Y0066678D02*
X0215973Y0064426D01*
X0217474Y0064426D02*
X0212970Y0064426D01*
X0212970Y0066678D01*
X0213721Y0067429D01*
X0215222Y0067429D01*
X0215973Y0066678D01*
X0215222Y0069030D02*
X0215222Y0072033D01*
X0215222Y0062825D02*
X0215222Y0061324D01*
X0215222Y0062825D02*
X0216724Y0062825D01*
X0217474Y0062074D01*
X0217474Y0060573D01*
X0216724Y0059822D01*
X0213721Y0059822D01*
X0212970Y0060573D01*
X0212970Y0062074D01*
X0213721Y0062825D01*
X0213721Y0058221D02*
X0212970Y0057470D01*
X0212970Y0055969D01*
X0213721Y0055219D01*
X0216724Y0055219D01*
X0217474Y0055969D01*
X0217474Y0057470D01*
X0216724Y0058221D01*
X0213721Y0058221D01*
X0213721Y0053617D02*
X0215222Y0053617D01*
X0215973Y0052866D01*
X0215973Y0050615D01*
X0215973Y0052116D02*
X0217474Y0053617D01*
X0213721Y0053617D02*
X0212970Y0052866D01*
X0212970Y0050615D01*
X0217474Y0050615D01*
X0215222Y0049013D02*
X0215973Y0048263D01*
X0215973Y0046011D01*
X0217474Y0046011D02*
X0212970Y0046011D01*
X0212970Y0048263D01*
X0213721Y0049013D01*
X0215222Y0049013D01*
X0207224Y0043698D02*
X0202720Y0043698D01*
X0204972Y0041446D01*
X0204972Y0044449D01*
X0222320Y0058807D02*
X0224444Y0056684D01*
X0225505Y0056684D01*
X0226567Y0057746D01*
X0226567Y0058807D01*
X0227699Y0059940D02*
X0228761Y0059940D01*
X0229822Y0061001D01*
X0229822Y0062063D01*
X0227699Y0064186D01*
X0226637Y0064186D01*
X0225576Y0063124D01*
X0225576Y0062063D01*
X0227699Y0059940D01*
X0224444Y0060931D02*
X0223382Y0060931D01*
X0222320Y0059869D01*
X0222320Y0058807D01*
X0228301Y0065849D02*
X0233608Y0064788D01*
X0230424Y0067972D01*
X0231556Y0069105D02*
X0233679Y0071228D01*
X0232618Y0070166D02*
X0235802Y0066981D01*
X0237996Y0069175D02*
X0234811Y0072360D01*
X0236404Y0073952D01*
X0237465Y0073952D01*
X0238527Y0072891D01*
X0238527Y0071829D01*
X0236935Y0070237D01*
X0237996Y0071299D02*
X0240119Y0071299D01*
X0240721Y0072962D02*
X0241782Y0072962D01*
X0242844Y0074023D01*
X0242844Y0075085D01*
X0240721Y0077208D01*
X0239659Y0077208D01*
X0238598Y0076146D01*
X0238598Y0075085D01*
X0240721Y0072962D01*
X0244507Y0075686D02*
X0246630Y0077809D01*
X0248293Y0078411D02*
X0250416Y0080534D01*
X0251018Y0082197D02*
X0247833Y0085382D01*
X0249426Y0086974D01*
X0250487Y0086974D01*
X0251549Y0085913D01*
X0251549Y0084851D01*
X0249956Y0083259D01*
X0253743Y0085983D02*
X0254804Y0085983D01*
X0255866Y0087045D01*
X0255866Y0088107D01*
X0253743Y0090230D01*
X0252681Y0090230D01*
X0251620Y0089168D01*
X0251620Y0088107D01*
X0253743Y0085983D01*
X0257529Y0088708D02*
X0258591Y0089770D01*
X0258060Y0089239D02*
X0254875Y0092424D01*
X0254344Y0091893D02*
X0255406Y0092954D01*
X0256515Y0094063D02*
X0261822Y0093002D01*
X0258638Y0096186D01*
X0259770Y0097319D02*
X0261893Y0099442D01*
X0260832Y0098380D02*
X0264016Y0095195D01*
X0259699Y0090878D02*
X0256515Y0094063D01*
X0241322Y0078871D02*
X0244507Y0075686D01*
X0231485Y0062664D02*
X0228301Y0065849D01*
X0281224Y0099568D02*
X0330224Y0099568D01*
X0330224Y0103068D01*
X0336224Y0103068D01*
X0336224Y0099568D01*
X0343724Y0099568D01*
X0343724Y0140568D01*
X0336224Y0140568D01*
X0336224Y0137068D01*
X0330224Y0137068D01*
X0330224Y0140568D01*
X0281224Y0140568D01*
X0281224Y0099568D01*
X0317471Y0115012D02*
X0318606Y0116146D01*
X0320874Y0116146D01*
X0320874Y0117468D02*
X0320874Y0119737D01*
X0320874Y0118603D02*
X0317471Y0118603D01*
X0318606Y0117468D01*
X0319173Y0116146D02*
X0319173Y0113877D01*
X0318606Y0113877D02*
X0317471Y0115012D01*
X0318606Y0113877D02*
X0320874Y0113877D01*
X0320874Y0121059D02*
X0320307Y0121059D01*
X0318039Y0123328D01*
X0317471Y0123328D01*
X0317471Y0121059D01*
X0320307Y0125218D02*
X0320874Y0125218D01*
X0320874Y0125785D01*
X0320307Y0125785D01*
X0320307Y0125218D01*
X0320874Y0125785D02*
X0322009Y0124650D01*
X0320307Y0127045D02*
X0320874Y0127612D01*
X0320874Y0128746D01*
X0320307Y0129313D01*
X0319173Y0129313D01*
X0318606Y0128746D01*
X0318606Y0128179D01*
X0319173Y0127045D01*
X0317471Y0127045D01*
X0317471Y0129313D01*
X0318606Y0130636D02*
X0318606Y0131203D01*
X0319173Y0131770D01*
X0318606Y0132337D01*
X0319173Y0132904D01*
X0320874Y0132904D01*
X0320874Y0131770D02*
X0319173Y0131770D01*
X0318606Y0130636D02*
X0320874Y0130636D01*
X0320874Y0134227D02*
X0318606Y0134227D01*
X0318606Y0134794D01*
X0319173Y0135361D01*
X0318606Y0135928D01*
X0319173Y0136495D01*
X0320874Y0136495D01*
X0320874Y0135361D02*
X0319173Y0135361D01*
X0323124Y0120068D02*
X0323126Y0120242D01*
X0323133Y0120416D01*
X0323143Y0120590D01*
X0323158Y0120764D01*
X0323177Y0120937D01*
X0323201Y0121110D01*
X0323229Y0121282D01*
X0323260Y0121453D01*
X0323297Y0121624D01*
X0323337Y0121793D01*
X0323381Y0121962D01*
X0323430Y0122129D01*
X0323482Y0122295D01*
X0323539Y0122460D01*
X0323600Y0122623D01*
X0323664Y0122785D01*
X0323733Y0122945D01*
X0323806Y0123104D01*
X0323882Y0123260D01*
X0323962Y0123415D01*
X0324046Y0123568D01*
X0324134Y0123718D01*
X0324226Y0123866D01*
X0324321Y0124013D01*
X0324419Y0124156D01*
X0324521Y0124297D01*
X0324627Y0124436D01*
X0324736Y0124572D01*
X0324848Y0124706D01*
X0324963Y0124836D01*
X0325082Y0124964D01*
X0325204Y0125088D01*
X0325328Y0125210D01*
X0325456Y0125329D01*
X0325586Y0125444D01*
X0325720Y0125556D01*
X0325856Y0125665D01*
X0325995Y0125771D01*
X0326136Y0125873D01*
X0326279Y0125971D01*
X0326426Y0126066D01*
X0326574Y0126158D01*
X0326724Y0126246D01*
X0326877Y0126330D01*
X0327032Y0126410D01*
X0327188Y0126486D01*
X0327347Y0126559D01*
X0327507Y0126628D01*
X0327669Y0126692D01*
X0327832Y0126753D01*
X0327997Y0126810D01*
X0328163Y0126862D01*
X0328330Y0126911D01*
X0328499Y0126955D01*
X0328668Y0126995D01*
X0328839Y0127032D01*
X0329010Y0127063D01*
X0329182Y0127091D01*
X0329355Y0127115D01*
X0329528Y0127134D01*
X0329702Y0127149D01*
X0329876Y0127159D01*
X0330050Y0127166D01*
X0330224Y0127168D01*
X0330398Y0127166D01*
X0330572Y0127159D01*
X0330746Y0127149D01*
X0330920Y0127134D01*
X0331093Y0127115D01*
X0331266Y0127091D01*
X0331438Y0127063D01*
X0331609Y0127032D01*
X0331780Y0126995D01*
X0331949Y0126955D01*
X0332118Y0126911D01*
X0332285Y0126862D01*
X0332451Y0126810D01*
X0332616Y0126753D01*
X0332779Y0126692D01*
X0332941Y0126628D01*
X0333101Y0126559D01*
X0333260Y0126486D01*
X0333416Y0126410D01*
X0333571Y0126330D01*
X0333724Y0126246D01*
X0333874Y0126158D01*
X0334022Y0126066D01*
X0334169Y0125971D01*
X0334312Y0125873D01*
X0334453Y0125771D01*
X0334592Y0125665D01*
X0334728Y0125556D01*
X0334862Y0125444D01*
X0334992Y0125329D01*
X0335120Y0125210D01*
X0335244Y0125088D01*
X0335366Y0124964D01*
X0335485Y0124836D01*
X0335600Y0124706D01*
X0335712Y0124572D01*
X0335821Y0124436D01*
X0335927Y0124297D01*
X0336029Y0124156D01*
X0336127Y0124013D01*
X0336222Y0123866D01*
X0336314Y0123718D01*
X0336402Y0123568D01*
X0336486Y0123415D01*
X0336566Y0123260D01*
X0336642Y0123104D01*
X0336715Y0122945D01*
X0336784Y0122785D01*
X0336848Y0122623D01*
X0336909Y0122460D01*
X0336966Y0122295D01*
X0337018Y0122129D01*
X0337067Y0121962D01*
X0337111Y0121793D01*
X0337151Y0121624D01*
X0337188Y0121453D01*
X0337219Y0121282D01*
X0337247Y0121110D01*
X0337271Y0120937D01*
X0337290Y0120764D01*
X0337305Y0120590D01*
X0337315Y0120416D01*
X0337322Y0120242D01*
X0337324Y0120068D01*
X0337322Y0119894D01*
X0337315Y0119720D01*
X0337305Y0119546D01*
X0337290Y0119372D01*
X0337271Y0119199D01*
X0337247Y0119026D01*
X0337219Y0118854D01*
X0337188Y0118683D01*
X0337151Y0118512D01*
X0337111Y0118343D01*
X0337067Y0118174D01*
X0337018Y0118007D01*
X0336966Y0117841D01*
X0336909Y0117676D01*
X0336848Y0117513D01*
X0336784Y0117351D01*
X0336715Y0117191D01*
X0336642Y0117032D01*
X0336566Y0116876D01*
X0336486Y0116721D01*
X0336402Y0116568D01*
X0336314Y0116418D01*
X0336222Y0116270D01*
X0336127Y0116123D01*
X0336029Y0115980D01*
X0335927Y0115839D01*
X0335821Y0115700D01*
X0335712Y0115564D01*
X0335600Y0115430D01*
X0335485Y0115300D01*
X0335366Y0115172D01*
X0335244Y0115048D01*
X0335120Y0114926D01*
X0334992Y0114807D01*
X0334862Y0114692D01*
X0334728Y0114580D01*
X0334592Y0114471D01*
X0334453Y0114365D01*
X0334312Y0114263D01*
X0334169Y0114165D01*
X0334022Y0114070D01*
X0333874Y0113978D01*
X0333724Y0113890D01*
X0333571Y0113806D01*
X0333416Y0113726D01*
X0333260Y0113650D01*
X0333101Y0113577D01*
X0332941Y0113508D01*
X0332779Y0113444D01*
X0332616Y0113383D01*
X0332451Y0113326D01*
X0332285Y0113274D01*
X0332118Y0113225D01*
X0331949Y0113181D01*
X0331780Y0113141D01*
X0331609Y0113104D01*
X0331438Y0113073D01*
X0331266Y0113045D01*
X0331093Y0113021D01*
X0330920Y0113002D01*
X0330746Y0112987D01*
X0330572Y0112977D01*
X0330398Y0112970D01*
X0330224Y0112968D01*
X0330050Y0112970D01*
X0329876Y0112977D01*
X0329702Y0112987D01*
X0329528Y0113002D01*
X0329355Y0113021D01*
X0329182Y0113045D01*
X0329010Y0113073D01*
X0328839Y0113104D01*
X0328668Y0113141D01*
X0328499Y0113181D01*
X0328330Y0113225D01*
X0328163Y0113274D01*
X0327997Y0113326D01*
X0327832Y0113383D01*
X0327669Y0113444D01*
X0327507Y0113508D01*
X0327347Y0113577D01*
X0327188Y0113650D01*
X0327032Y0113726D01*
X0326877Y0113806D01*
X0326724Y0113890D01*
X0326574Y0113978D01*
X0326426Y0114070D01*
X0326279Y0114165D01*
X0326136Y0114263D01*
X0325995Y0114365D01*
X0325856Y0114471D01*
X0325720Y0114580D01*
X0325586Y0114692D01*
X0325456Y0114807D01*
X0325328Y0114926D01*
X0325204Y0115048D01*
X0325082Y0115172D01*
X0324963Y0115300D01*
X0324848Y0115430D01*
X0324736Y0115564D01*
X0324627Y0115700D01*
X0324521Y0115839D01*
X0324419Y0115980D01*
X0324321Y0116123D01*
X0324226Y0116270D01*
X0324134Y0116418D01*
X0324046Y0116568D01*
X0323962Y0116721D01*
X0323882Y0116876D01*
X0323806Y0117032D01*
X0323733Y0117191D01*
X0323664Y0117351D01*
X0323600Y0117513D01*
X0323539Y0117676D01*
X0323482Y0117841D01*
X0323430Y0118007D01*
X0323381Y0118174D01*
X0323337Y0118343D01*
X0323297Y0118512D01*
X0323260Y0118683D01*
X0323229Y0118854D01*
X0323201Y0119026D01*
X0323177Y0119199D01*
X0323158Y0119372D01*
X0323143Y0119546D01*
X0323133Y0119720D01*
X0323126Y0119894D01*
X0323124Y0120068D01*
X0182976Y0029054D02*
X0182976Y0024550D01*
X0184477Y0024550D02*
X0181474Y0024550D01*
X0181474Y0027553D02*
X0182976Y0029054D01*
X0186474Y0019304D02*
X0187976Y0017803D01*
X0189477Y0019304D01*
X0189477Y0014800D01*
X0191078Y0014800D02*
X0191078Y0017803D01*
X0192580Y0019304D01*
X0194081Y0017803D01*
X0194081Y0014800D01*
X0195682Y0015551D02*
X0196433Y0014800D01*
X0197934Y0014800D01*
X0198685Y0015551D01*
X0198685Y0016301D01*
X0197934Y0017052D01*
X0196433Y0017052D01*
X0195682Y0017803D01*
X0195682Y0018553D01*
X0196433Y0019304D01*
X0197934Y0019304D01*
X0198685Y0018553D01*
X0200286Y0019304D02*
X0203289Y0019304D01*
X0201787Y0019304D02*
X0201787Y0014800D01*
X0204890Y0014800D02*
X0207893Y0014800D01*
X0209494Y0014800D02*
X0209494Y0019304D01*
X0211746Y0019304D01*
X0212497Y0018553D01*
X0212497Y0017052D01*
X0211746Y0016301D01*
X0209494Y0016301D01*
X0210995Y0016301D02*
X0212497Y0014800D01*
X0207893Y0019304D02*
X0204890Y0019304D01*
X0204890Y0014800D01*
X0204890Y0017052D02*
X0206391Y0017052D01*
X0194081Y0017052D02*
X0191078Y0017052D01*
X0186474Y0014800D02*
X0186474Y0019304D01*
X0104000Y0019602D02*
X0103249Y0018851D01*
X0100998Y0018851D01*
X0102499Y0018851D02*
X0104000Y0017350D01*
X0104000Y0019602D02*
X0104000Y0021103D01*
X0103249Y0021854D01*
X0100998Y0021854D01*
X0100998Y0017350D01*
X0099396Y0017350D02*
X0096394Y0017350D01*
X0096394Y0021854D01*
X0099396Y0021854D01*
X0097895Y0019602D02*
X0096394Y0019602D01*
X0094792Y0017350D02*
X0094792Y0021854D01*
X0091790Y0021854D02*
X0091790Y0017350D01*
X0093291Y0018851D01*
X0094792Y0017350D01*
X0090188Y0018101D02*
X0090188Y0021103D01*
X0089438Y0021854D01*
X0087936Y0021854D01*
X0087186Y0021103D01*
X0087186Y0018101D01*
X0087936Y0017350D01*
X0089438Y0017350D01*
X0090188Y0018101D01*
X0085584Y0019602D02*
X0084834Y0018851D01*
X0082582Y0018851D01*
X0082582Y0017350D02*
X0082582Y0021854D01*
X0084834Y0021854D01*
X0085584Y0021103D01*
X0085584Y0019602D01*
X0062069Y0019602D02*
X0061319Y0018851D01*
X0059067Y0018851D01*
X0059067Y0017350D02*
X0059067Y0021854D01*
X0061319Y0021854D01*
X0062069Y0021103D01*
X0062069Y0019602D01*
X0060568Y0018851D02*
X0062069Y0017350D01*
X0057465Y0017350D02*
X0054463Y0017350D01*
X0054463Y0021854D01*
X0057465Y0021854D01*
X0055964Y0019602D02*
X0054463Y0019602D01*
X0052862Y0021854D02*
X0049859Y0018851D01*
X0050610Y0019602D02*
X0052862Y0017350D01*
X0049859Y0017350D02*
X0049859Y0021854D01*
X0048258Y0021103D02*
X0047507Y0021854D01*
X0046006Y0021854D01*
X0045255Y0021103D01*
X0045255Y0018101D01*
X0046006Y0017350D01*
X0047507Y0017350D01*
X0048258Y0018101D01*
X0043687Y0017350D02*
X0042186Y0017350D01*
X0042936Y0017350D02*
X0042936Y0021854D01*
X0042186Y0021854D02*
X0043687Y0021854D01*
X0040584Y0021854D02*
X0037582Y0018851D01*
X0038332Y0019602D02*
X0040584Y0017350D01*
X0037582Y0017350D02*
X0037582Y0021854D01*
X0037884Y0039550D02*
X0034882Y0039550D01*
X0036383Y0039550D02*
X0036383Y0044054D01*
X0034882Y0042553D01*
X0054382Y0043303D02*
X0055132Y0044054D01*
X0056634Y0044054D01*
X0057384Y0043303D01*
X0057384Y0042553D01*
X0054382Y0039550D01*
X0057384Y0039550D01*
X0079882Y0039550D02*
X0082884Y0039550D01*
X0081383Y0039550D02*
X0081383Y0044054D01*
X0079882Y0042553D01*
X0099382Y0043303D02*
X0100132Y0044054D01*
X0101634Y0044054D01*
X0102384Y0043303D01*
X0102384Y0042553D01*
X0099382Y0039550D01*
X0102384Y0039550D01*
D17*
X0097974Y0216800D03*
X0054474Y0216800D03*
D18*
X0091224Y0216800D03*
D19*
X0283724Y0138068D02*
X0283724Y0102068D01*
X0316224Y0102068D01*
X0316224Y0138068D01*
X0283724Y0138068D01*
X0167876Y0062704D02*
X0167876Y0061236D01*
X0167876Y0061970D02*
X0165674Y0061970D01*
X0166408Y0061236D01*
X0166041Y0060494D02*
X0166775Y0060494D01*
X0167142Y0060127D01*
X0167142Y0059026D01*
X0167876Y0059026D02*
X0165674Y0059026D01*
X0165674Y0060127D01*
X0166041Y0060494D01*
D20*
X0268974Y0110068D03*
X0268974Y0120068D03*
X0268974Y0130068D03*
D21*
X0275724Y0130068D03*
X0275724Y0120068D03*
X0275724Y0110068D03*
D22*
X0179974Y0168100D03*
D23*
X0103724Y0115300D02*
X0096224Y0115300D01*
X0088724Y0115300D01*
X0088724Y0111800D02*
X0096224Y0111800D01*
X0103724Y0111800D01*
X0127474Y0044300D02*
X0127474Y0033050D01*
X0144974Y0033050D02*
X0144974Y0044300D01*
D24*
X0172474Y0091800D03*
D25*
X0174738Y0093867D03*
D26*
X0136224Y0043050D03*
D27*
X0139443Y0030019D02*
X0139443Y0026081D01*
X0135506Y0028050D01*
X0139443Y0030019D01*
X0139443Y0021269D02*
X0139443Y0017331D01*
X0135506Y0019300D01*
X0139443Y0021269D01*
D28*
X0135274Y0019300D03*
X0135274Y0028050D03*
M02*
