G75*
%MOIN*%
%OFA0B0*%
%FSLAX25Y25*%
%IPPOS*%
%LPD*%
%AMOC8*
5,1,8,0,0,1.08239X$1,22.5*
%
%ADD10C,0.00000*%
%ADD11C,0.00400*%
%ADD12C,0.00800*%
%ADD13R,0.02400X0.06200*%
%ADD14C,0.00600*%
%ADD15C,0.00500*%
D10*
X0002474Y0011800D02*
X0002474Y0228335D01*
X0278065Y0228335D01*
X0278065Y0011800D01*
X0002474Y0011800D01*
X0323724Y0120068D02*
X0323726Y0120229D01*
X0323732Y0120389D01*
X0323742Y0120550D01*
X0323756Y0120710D01*
X0323774Y0120870D01*
X0323795Y0121029D01*
X0323821Y0121188D01*
X0323851Y0121346D01*
X0323884Y0121503D01*
X0323922Y0121660D01*
X0323963Y0121815D01*
X0324008Y0121969D01*
X0324057Y0122122D01*
X0324110Y0122274D01*
X0324166Y0122425D01*
X0324227Y0122574D01*
X0324290Y0122722D01*
X0324358Y0122868D01*
X0324429Y0123012D01*
X0324503Y0123154D01*
X0324581Y0123295D01*
X0324663Y0123433D01*
X0324748Y0123570D01*
X0324836Y0123704D01*
X0324928Y0123836D01*
X0325023Y0123966D01*
X0325121Y0124094D01*
X0325222Y0124219D01*
X0325326Y0124341D01*
X0325433Y0124461D01*
X0325543Y0124578D01*
X0325656Y0124693D01*
X0325772Y0124804D01*
X0325891Y0124913D01*
X0326012Y0125018D01*
X0326136Y0125121D01*
X0326262Y0125221D01*
X0326390Y0125317D01*
X0326521Y0125410D01*
X0326655Y0125500D01*
X0326790Y0125587D01*
X0326928Y0125670D01*
X0327067Y0125750D01*
X0327209Y0125826D01*
X0327352Y0125899D01*
X0327497Y0125968D01*
X0327644Y0126034D01*
X0327792Y0126096D01*
X0327942Y0126154D01*
X0328093Y0126209D01*
X0328246Y0126260D01*
X0328400Y0126307D01*
X0328555Y0126350D01*
X0328711Y0126389D01*
X0328867Y0126425D01*
X0329025Y0126456D01*
X0329183Y0126484D01*
X0329342Y0126508D01*
X0329502Y0126528D01*
X0329662Y0126544D01*
X0329822Y0126556D01*
X0329983Y0126564D01*
X0330144Y0126568D01*
X0330304Y0126568D01*
X0330465Y0126564D01*
X0330626Y0126556D01*
X0330786Y0126544D01*
X0330946Y0126528D01*
X0331106Y0126508D01*
X0331265Y0126484D01*
X0331423Y0126456D01*
X0331581Y0126425D01*
X0331737Y0126389D01*
X0331893Y0126350D01*
X0332048Y0126307D01*
X0332202Y0126260D01*
X0332355Y0126209D01*
X0332506Y0126154D01*
X0332656Y0126096D01*
X0332804Y0126034D01*
X0332951Y0125968D01*
X0333096Y0125899D01*
X0333239Y0125826D01*
X0333381Y0125750D01*
X0333520Y0125670D01*
X0333658Y0125587D01*
X0333793Y0125500D01*
X0333927Y0125410D01*
X0334058Y0125317D01*
X0334186Y0125221D01*
X0334312Y0125121D01*
X0334436Y0125018D01*
X0334557Y0124913D01*
X0334676Y0124804D01*
X0334792Y0124693D01*
X0334905Y0124578D01*
X0335015Y0124461D01*
X0335122Y0124341D01*
X0335226Y0124219D01*
X0335327Y0124094D01*
X0335425Y0123966D01*
X0335520Y0123836D01*
X0335612Y0123704D01*
X0335700Y0123570D01*
X0335785Y0123433D01*
X0335867Y0123295D01*
X0335945Y0123154D01*
X0336019Y0123012D01*
X0336090Y0122868D01*
X0336158Y0122722D01*
X0336221Y0122574D01*
X0336282Y0122425D01*
X0336338Y0122274D01*
X0336391Y0122122D01*
X0336440Y0121969D01*
X0336485Y0121815D01*
X0336526Y0121660D01*
X0336564Y0121503D01*
X0336597Y0121346D01*
X0336627Y0121188D01*
X0336653Y0121029D01*
X0336674Y0120870D01*
X0336692Y0120710D01*
X0336706Y0120550D01*
X0336716Y0120389D01*
X0336722Y0120229D01*
X0336724Y0120068D01*
X0336722Y0119907D01*
X0336716Y0119747D01*
X0336706Y0119586D01*
X0336692Y0119426D01*
X0336674Y0119266D01*
X0336653Y0119107D01*
X0336627Y0118948D01*
X0336597Y0118790D01*
X0336564Y0118633D01*
X0336526Y0118476D01*
X0336485Y0118321D01*
X0336440Y0118167D01*
X0336391Y0118014D01*
X0336338Y0117862D01*
X0336282Y0117711D01*
X0336221Y0117562D01*
X0336158Y0117414D01*
X0336090Y0117268D01*
X0336019Y0117124D01*
X0335945Y0116982D01*
X0335867Y0116841D01*
X0335785Y0116703D01*
X0335700Y0116566D01*
X0335612Y0116432D01*
X0335520Y0116300D01*
X0335425Y0116170D01*
X0335327Y0116042D01*
X0335226Y0115917D01*
X0335122Y0115795D01*
X0335015Y0115675D01*
X0334905Y0115558D01*
X0334792Y0115443D01*
X0334676Y0115332D01*
X0334557Y0115223D01*
X0334436Y0115118D01*
X0334312Y0115015D01*
X0334186Y0114915D01*
X0334058Y0114819D01*
X0333927Y0114726D01*
X0333793Y0114636D01*
X0333658Y0114549D01*
X0333520Y0114466D01*
X0333381Y0114386D01*
X0333239Y0114310D01*
X0333096Y0114237D01*
X0332951Y0114168D01*
X0332804Y0114102D01*
X0332656Y0114040D01*
X0332506Y0113982D01*
X0332355Y0113927D01*
X0332202Y0113876D01*
X0332048Y0113829D01*
X0331893Y0113786D01*
X0331737Y0113747D01*
X0331581Y0113711D01*
X0331423Y0113680D01*
X0331265Y0113652D01*
X0331106Y0113628D01*
X0330946Y0113608D01*
X0330786Y0113592D01*
X0330626Y0113580D01*
X0330465Y0113572D01*
X0330304Y0113568D01*
X0330144Y0113568D01*
X0329983Y0113572D01*
X0329822Y0113580D01*
X0329662Y0113592D01*
X0329502Y0113608D01*
X0329342Y0113628D01*
X0329183Y0113652D01*
X0329025Y0113680D01*
X0328867Y0113711D01*
X0328711Y0113747D01*
X0328555Y0113786D01*
X0328400Y0113829D01*
X0328246Y0113876D01*
X0328093Y0113927D01*
X0327942Y0113982D01*
X0327792Y0114040D01*
X0327644Y0114102D01*
X0327497Y0114168D01*
X0327352Y0114237D01*
X0327209Y0114310D01*
X0327067Y0114386D01*
X0326928Y0114466D01*
X0326790Y0114549D01*
X0326655Y0114636D01*
X0326521Y0114726D01*
X0326390Y0114819D01*
X0326262Y0114915D01*
X0326136Y0115015D01*
X0326012Y0115118D01*
X0325891Y0115223D01*
X0325772Y0115332D01*
X0325656Y0115443D01*
X0325543Y0115558D01*
X0325433Y0115675D01*
X0325326Y0115795D01*
X0325222Y0115917D01*
X0325121Y0116042D01*
X0325023Y0116170D01*
X0324928Y0116300D01*
X0324836Y0116432D01*
X0324748Y0116566D01*
X0324663Y0116703D01*
X0324581Y0116841D01*
X0324503Y0116982D01*
X0324429Y0117124D01*
X0324358Y0117268D01*
X0324290Y0117414D01*
X0324227Y0117562D01*
X0324166Y0117711D01*
X0324110Y0117862D01*
X0324057Y0118014D01*
X0324008Y0118167D01*
X0323963Y0118321D01*
X0323922Y0118476D01*
X0323884Y0118633D01*
X0323851Y0118790D01*
X0323821Y0118948D01*
X0323795Y0119107D01*
X0323774Y0119266D01*
X0323756Y0119426D01*
X0323742Y0119586D01*
X0323732Y0119747D01*
X0323726Y0119907D01*
X0323724Y0120068D01*
D11*
X0276482Y0107854D02*
X0276482Y0103250D01*
X0276482Y0104785D02*
X0274180Y0104785D01*
X0273413Y0105552D01*
X0273413Y0107087D01*
X0274180Y0107854D01*
X0276482Y0107854D01*
X0274948Y0104785D02*
X0273413Y0103250D01*
X0271878Y0104017D02*
X0271878Y0104785D01*
X0271111Y0105552D01*
X0269576Y0105552D01*
X0268809Y0104785D01*
X0268809Y0104017D01*
X0269576Y0103250D01*
X0271111Y0103250D01*
X0271878Y0104017D01*
X0271111Y0105552D02*
X0271878Y0106319D01*
X0271878Y0107087D01*
X0271111Y0107854D01*
X0269576Y0107854D01*
X0268809Y0107087D01*
X0268809Y0106319D01*
X0269576Y0105552D01*
X0116028Y0079698D02*
X0113726Y0077396D01*
X0113726Y0080465D01*
X0111424Y0079698D02*
X0116028Y0079698D01*
X0115261Y0075861D02*
X0113726Y0075861D01*
X0112959Y0075094D01*
X0112959Y0072792D01*
X0111424Y0072792D02*
X0116028Y0072792D01*
X0116028Y0075094D01*
X0115261Y0075861D01*
X0112959Y0074327D02*
X0111424Y0075861D01*
X0106028Y0075861D02*
X0106028Y0072792D01*
X0106028Y0074327D02*
X0101424Y0074327D01*
X0101424Y0077396D02*
X0101424Y0080465D01*
X0101424Y0078931D02*
X0106028Y0078931D01*
X0104494Y0077396D01*
X0096028Y0078163D02*
X0096028Y0079698D01*
X0095261Y0080465D01*
X0094494Y0080465D01*
X0093726Y0079698D01*
X0092959Y0080465D01*
X0092192Y0080465D01*
X0091424Y0079698D01*
X0091424Y0078163D01*
X0092192Y0077396D01*
X0091424Y0075861D02*
X0092959Y0074327D01*
X0092959Y0075094D02*
X0092959Y0072792D01*
X0091424Y0072792D02*
X0096028Y0072792D01*
X0096028Y0075094D01*
X0095261Y0075861D01*
X0093726Y0075861D01*
X0092959Y0075094D01*
X0095261Y0077396D02*
X0096028Y0078163D01*
X0093726Y0078931D02*
X0093726Y0079698D01*
X0086028Y0079698D02*
X0086028Y0078163D01*
X0085261Y0077396D01*
X0086028Y0075861D02*
X0086028Y0072792D01*
X0086028Y0074327D02*
X0081424Y0074327D01*
X0082192Y0077396D02*
X0081424Y0078163D01*
X0081424Y0079698D01*
X0082192Y0080465D01*
X0082959Y0080465D01*
X0083726Y0079698D01*
X0083726Y0078931D01*
X0083726Y0079698D02*
X0084494Y0080465D01*
X0085261Y0080465D01*
X0086028Y0079698D01*
X0076028Y0079389D02*
X0074494Y0077854D01*
X0075261Y0076319D02*
X0073726Y0076319D01*
X0072959Y0075552D01*
X0072959Y0073250D01*
X0072959Y0074785D02*
X0071424Y0076319D01*
X0071424Y0077854D02*
X0071424Y0080923D01*
X0071424Y0079389D02*
X0076028Y0079389D01*
X0075261Y0076319D02*
X0076028Y0075552D01*
X0076028Y0073250D01*
X0071424Y0073250D01*
X0071424Y0042173D02*
X0071424Y0039104D01*
X0074494Y0042173D01*
X0075261Y0042173D01*
X0076028Y0041406D01*
X0076028Y0039871D01*
X0075261Y0039104D01*
X0075261Y0037569D02*
X0073726Y0037569D01*
X0072959Y0036802D01*
X0072959Y0034500D01*
X0072959Y0036035D02*
X0071424Y0037569D01*
X0075261Y0037569D02*
X0076028Y0036802D01*
X0076028Y0034500D01*
X0071424Y0034500D01*
X0082674Y0036035D02*
X0087278Y0036035D01*
X0087278Y0037569D02*
X0087278Y0034500D01*
X0086511Y0039104D02*
X0087278Y0039871D01*
X0087278Y0041406D01*
X0086511Y0042173D01*
X0085744Y0042173D01*
X0082674Y0039104D01*
X0082674Y0042173D01*
X0100174Y0041406D02*
X0104778Y0041406D01*
X0102476Y0039104D01*
X0102476Y0042173D01*
X0104778Y0037569D02*
X0104778Y0034500D01*
X0104778Y0036035D02*
X0100174Y0036035D01*
X0029774Y0102000D02*
X0029774Y0106604D01*
X0027472Y0106604D01*
X0026705Y0105837D01*
X0026705Y0104302D01*
X0027472Y0103535D01*
X0029774Y0103535D01*
X0028240Y0103535D02*
X0026705Y0102000D01*
X0025170Y0102000D02*
X0025170Y0102767D01*
X0022101Y0105837D01*
X0022101Y0106604D01*
X0025170Y0106604D01*
X0023611Y0112000D02*
X0024378Y0112767D01*
X0023611Y0112000D02*
X0022076Y0112000D01*
X0021309Y0112767D01*
X0021309Y0114302D01*
X0022076Y0115069D01*
X0022844Y0115069D01*
X0024378Y0114302D01*
X0024378Y0116604D01*
X0021309Y0116604D01*
X0025913Y0116604D02*
X0028982Y0116604D01*
X0027448Y0116604D02*
X0027448Y0112000D01*
X0023732Y0163750D02*
X0021430Y0163750D01*
X0020663Y0164517D01*
X0020663Y0167587D01*
X0021430Y0168354D01*
X0023732Y0168354D01*
X0023732Y0163750D01*
X0019128Y0163750D02*
X0016059Y0163750D01*
X0017594Y0163750D02*
X0017594Y0168354D01*
X0019128Y0166819D01*
D12*
X0019256Y0161269D02*
X0019256Y0157331D01*
X0023193Y0159300D01*
X0019256Y0161269D01*
D13*
X0023424Y0159300D03*
D14*
X0152724Y0099050D02*
X0152724Y0096550D01*
X0153224Y0096050D01*
X0153224Y0070050D01*
X0152724Y0069550D01*
X0152724Y0067050D01*
X0152726Y0066990D01*
X0152731Y0066929D01*
X0152740Y0066870D01*
X0152753Y0066811D01*
X0152769Y0066752D01*
X0152789Y0066695D01*
X0152812Y0066640D01*
X0152839Y0066585D01*
X0152868Y0066533D01*
X0152901Y0066482D01*
X0152937Y0066433D01*
X0152975Y0066387D01*
X0153017Y0066343D01*
X0153061Y0066301D01*
X0153107Y0066263D01*
X0153156Y0066227D01*
X0153207Y0066194D01*
X0153259Y0066165D01*
X0153314Y0066138D01*
X0153369Y0066115D01*
X0153426Y0066095D01*
X0153485Y0066079D01*
X0153544Y0066066D01*
X0153603Y0066057D01*
X0153664Y0066052D01*
X0153724Y0066050D01*
X0163724Y0066050D02*
X0163784Y0066052D01*
X0163845Y0066057D01*
X0163904Y0066066D01*
X0163963Y0066079D01*
X0164022Y0066095D01*
X0164079Y0066115D01*
X0164134Y0066138D01*
X0164189Y0066165D01*
X0164241Y0066194D01*
X0164292Y0066227D01*
X0164341Y0066263D01*
X0164387Y0066301D01*
X0164431Y0066343D01*
X0164473Y0066387D01*
X0164511Y0066433D01*
X0164547Y0066482D01*
X0164580Y0066533D01*
X0164609Y0066585D01*
X0164636Y0066640D01*
X0164659Y0066695D01*
X0164679Y0066752D01*
X0164695Y0066811D01*
X0164708Y0066870D01*
X0164717Y0066929D01*
X0164722Y0066990D01*
X0164724Y0067050D01*
X0164724Y0069550D01*
X0164224Y0070050D01*
X0164224Y0096050D01*
X0164724Y0096550D01*
X0164724Y0099050D01*
X0164722Y0099110D01*
X0164717Y0099171D01*
X0164708Y0099230D01*
X0164695Y0099289D01*
X0164679Y0099348D01*
X0164659Y0099405D01*
X0164636Y0099460D01*
X0164609Y0099515D01*
X0164580Y0099567D01*
X0164547Y0099618D01*
X0164511Y0099667D01*
X0164473Y0099713D01*
X0164431Y0099757D01*
X0164387Y0099799D01*
X0164341Y0099837D01*
X0164292Y0099873D01*
X0164241Y0099906D01*
X0164189Y0099935D01*
X0164134Y0099962D01*
X0164079Y0099985D01*
X0164022Y0100005D01*
X0163963Y0100021D01*
X0163904Y0100034D01*
X0163845Y0100043D01*
X0163784Y0100048D01*
X0163724Y0100050D01*
X0153724Y0100050D02*
X0153664Y0100048D01*
X0153603Y0100043D01*
X0153544Y0100034D01*
X0153485Y0100021D01*
X0153426Y0100005D01*
X0153369Y0099985D01*
X0153314Y0099962D01*
X0153259Y0099935D01*
X0153207Y0099906D01*
X0153156Y0099873D01*
X0153107Y0099837D01*
X0153061Y0099799D01*
X0153017Y0099757D01*
X0152975Y0099713D01*
X0152937Y0099667D01*
X0152901Y0099618D01*
X0152868Y0099567D01*
X0152839Y0099515D01*
X0152812Y0099460D01*
X0152789Y0099405D01*
X0152769Y0099348D01*
X0152753Y0099289D01*
X0152740Y0099230D01*
X0152731Y0099171D01*
X0152726Y0099110D01*
X0152724Y0099050D01*
D15*
X0152228Y0098904D02*
X0149976Y0098904D01*
X0150727Y0100405D01*
X0150727Y0101156D01*
X0149976Y0101906D01*
X0148475Y0101906D01*
X0147724Y0101156D01*
X0147724Y0099655D01*
X0148475Y0098904D01*
X0147724Y0097303D02*
X0149226Y0095801D01*
X0149226Y0096552D02*
X0149226Y0094300D01*
X0147724Y0094300D02*
X0152228Y0094300D01*
X0152228Y0096552D01*
X0151478Y0097303D01*
X0149976Y0097303D01*
X0149226Y0096552D01*
X0152228Y0098904D02*
X0152228Y0101906D01*
M02*
