G75*
%MOIN*%
%OFA0B0*%
%FSLAX25Y25*%
%IPPOS*%
%LPD*%
%AMOC8*
5,1,8,0,0,1.08239X$1,22.5*
%
%ADD10C,0.00000*%
%ADD11C,0.07800*%
%ADD12R,0.04331X0.03937*%
%ADD13C,0.06000*%
%ADD14C,0.08850*%
%ADD15C,0.06600*%
%ADD16R,0.03937X0.04331*%
%ADD17C,0.18100*%
%ADD18OC8,0.18100*%
%ADD19OC8,0.07050*%
%ADD20R,0.03937X0.05512*%
%ADD21R,0.05512X0.03937*%
%ADD22C,0.07050*%
%ADD23OC8,0.15000*%
%ADD24C,0.05600*%
%ADD25R,0.05512X0.07087*%
%ADD26OC8,0.05200*%
%ADD27C,0.25400*%
%ADD28C,0.01600*%
%ADD29C,0.10000*%
%ADD30C,0.02400*%
%ADD31C,0.03962*%
%ADD32C,0.04000*%
%ADD33C,0.15000*%
%ADD34C,0.11811*%
D10*
X0002474Y0011800D02*
X0002474Y0228335D01*
X0278065Y0228335D01*
X0278065Y0011800D01*
X0002474Y0011800D01*
X0323724Y0120068D02*
X0323726Y0120229D01*
X0323732Y0120389D01*
X0323742Y0120550D01*
X0323756Y0120710D01*
X0323774Y0120870D01*
X0323795Y0121029D01*
X0323821Y0121188D01*
X0323851Y0121346D01*
X0323884Y0121503D01*
X0323922Y0121660D01*
X0323963Y0121815D01*
X0324008Y0121969D01*
X0324057Y0122122D01*
X0324110Y0122274D01*
X0324166Y0122425D01*
X0324227Y0122574D01*
X0324290Y0122722D01*
X0324358Y0122868D01*
X0324429Y0123012D01*
X0324503Y0123154D01*
X0324581Y0123295D01*
X0324663Y0123433D01*
X0324748Y0123570D01*
X0324836Y0123704D01*
X0324928Y0123836D01*
X0325023Y0123966D01*
X0325121Y0124094D01*
X0325222Y0124219D01*
X0325326Y0124341D01*
X0325433Y0124461D01*
X0325543Y0124578D01*
X0325656Y0124693D01*
X0325772Y0124804D01*
X0325891Y0124913D01*
X0326012Y0125018D01*
X0326136Y0125121D01*
X0326262Y0125221D01*
X0326390Y0125317D01*
X0326521Y0125410D01*
X0326655Y0125500D01*
X0326790Y0125587D01*
X0326928Y0125670D01*
X0327067Y0125750D01*
X0327209Y0125826D01*
X0327352Y0125899D01*
X0327497Y0125968D01*
X0327644Y0126034D01*
X0327792Y0126096D01*
X0327942Y0126154D01*
X0328093Y0126209D01*
X0328246Y0126260D01*
X0328400Y0126307D01*
X0328555Y0126350D01*
X0328711Y0126389D01*
X0328867Y0126425D01*
X0329025Y0126456D01*
X0329183Y0126484D01*
X0329342Y0126508D01*
X0329502Y0126528D01*
X0329662Y0126544D01*
X0329822Y0126556D01*
X0329983Y0126564D01*
X0330144Y0126568D01*
X0330304Y0126568D01*
X0330465Y0126564D01*
X0330626Y0126556D01*
X0330786Y0126544D01*
X0330946Y0126528D01*
X0331106Y0126508D01*
X0331265Y0126484D01*
X0331423Y0126456D01*
X0331581Y0126425D01*
X0331737Y0126389D01*
X0331893Y0126350D01*
X0332048Y0126307D01*
X0332202Y0126260D01*
X0332355Y0126209D01*
X0332506Y0126154D01*
X0332656Y0126096D01*
X0332804Y0126034D01*
X0332951Y0125968D01*
X0333096Y0125899D01*
X0333239Y0125826D01*
X0333381Y0125750D01*
X0333520Y0125670D01*
X0333658Y0125587D01*
X0333793Y0125500D01*
X0333927Y0125410D01*
X0334058Y0125317D01*
X0334186Y0125221D01*
X0334312Y0125121D01*
X0334436Y0125018D01*
X0334557Y0124913D01*
X0334676Y0124804D01*
X0334792Y0124693D01*
X0334905Y0124578D01*
X0335015Y0124461D01*
X0335122Y0124341D01*
X0335226Y0124219D01*
X0335327Y0124094D01*
X0335425Y0123966D01*
X0335520Y0123836D01*
X0335612Y0123704D01*
X0335700Y0123570D01*
X0335785Y0123433D01*
X0335867Y0123295D01*
X0335945Y0123154D01*
X0336019Y0123012D01*
X0336090Y0122868D01*
X0336158Y0122722D01*
X0336221Y0122574D01*
X0336282Y0122425D01*
X0336338Y0122274D01*
X0336391Y0122122D01*
X0336440Y0121969D01*
X0336485Y0121815D01*
X0336526Y0121660D01*
X0336564Y0121503D01*
X0336597Y0121346D01*
X0336627Y0121188D01*
X0336653Y0121029D01*
X0336674Y0120870D01*
X0336692Y0120710D01*
X0336706Y0120550D01*
X0336716Y0120389D01*
X0336722Y0120229D01*
X0336724Y0120068D01*
X0336722Y0119907D01*
X0336716Y0119747D01*
X0336706Y0119586D01*
X0336692Y0119426D01*
X0336674Y0119266D01*
X0336653Y0119107D01*
X0336627Y0118948D01*
X0336597Y0118790D01*
X0336564Y0118633D01*
X0336526Y0118476D01*
X0336485Y0118321D01*
X0336440Y0118167D01*
X0336391Y0118014D01*
X0336338Y0117862D01*
X0336282Y0117711D01*
X0336221Y0117562D01*
X0336158Y0117414D01*
X0336090Y0117268D01*
X0336019Y0117124D01*
X0335945Y0116982D01*
X0335867Y0116841D01*
X0335785Y0116703D01*
X0335700Y0116566D01*
X0335612Y0116432D01*
X0335520Y0116300D01*
X0335425Y0116170D01*
X0335327Y0116042D01*
X0335226Y0115917D01*
X0335122Y0115795D01*
X0335015Y0115675D01*
X0334905Y0115558D01*
X0334792Y0115443D01*
X0334676Y0115332D01*
X0334557Y0115223D01*
X0334436Y0115118D01*
X0334312Y0115015D01*
X0334186Y0114915D01*
X0334058Y0114819D01*
X0333927Y0114726D01*
X0333793Y0114636D01*
X0333658Y0114549D01*
X0333520Y0114466D01*
X0333381Y0114386D01*
X0333239Y0114310D01*
X0333096Y0114237D01*
X0332951Y0114168D01*
X0332804Y0114102D01*
X0332656Y0114040D01*
X0332506Y0113982D01*
X0332355Y0113927D01*
X0332202Y0113876D01*
X0332048Y0113829D01*
X0331893Y0113786D01*
X0331737Y0113747D01*
X0331581Y0113711D01*
X0331423Y0113680D01*
X0331265Y0113652D01*
X0331106Y0113628D01*
X0330946Y0113608D01*
X0330786Y0113592D01*
X0330626Y0113580D01*
X0330465Y0113572D01*
X0330304Y0113568D01*
X0330144Y0113568D01*
X0329983Y0113572D01*
X0329822Y0113580D01*
X0329662Y0113592D01*
X0329502Y0113608D01*
X0329342Y0113628D01*
X0329183Y0113652D01*
X0329025Y0113680D01*
X0328867Y0113711D01*
X0328711Y0113747D01*
X0328555Y0113786D01*
X0328400Y0113829D01*
X0328246Y0113876D01*
X0328093Y0113927D01*
X0327942Y0113982D01*
X0327792Y0114040D01*
X0327644Y0114102D01*
X0327497Y0114168D01*
X0327352Y0114237D01*
X0327209Y0114310D01*
X0327067Y0114386D01*
X0326928Y0114466D01*
X0326790Y0114549D01*
X0326655Y0114636D01*
X0326521Y0114726D01*
X0326390Y0114819D01*
X0326262Y0114915D01*
X0326136Y0115015D01*
X0326012Y0115118D01*
X0325891Y0115223D01*
X0325772Y0115332D01*
X0325656Y0115443D01*
X0325543Y0115558D01*
X0325433Y0115675D01*
X0325326Y0115795D01*
X0325222Y0115917D01*
X0325121Y0116042D01*
X0325023Y0116170D01*
X0324928Y0116300D01*
X0324836Y0116432D01*
X0324748Y0116566D01*
X0324663Y0116703D01*
X0324581Y0116841D01*
X0324503Y0116982D01*
X0324429Y0117124D01*
X0324358Y0117268D01*
X0324290Y0117414D01*
X0324227Y0117562D01*
X0324166Y0117711D01*
X0324110Y0117862D01*
X0324057Y0118014D01*
X0324008Y0118167D01*
X0323963Y0118321D01*
X0323922Y0118476D01*
X0323884Y0118633D01*
X0323851Y0118790D01*
X0323821Y0118948D01*
X0323795Y0119107D01*
X0323774Y0119266D01*
X0323756Y0119426D01*
X0323742Y0119586D01*
X0323732Y0119747D01*
X0323726Y0119907D01*
X0323724Y0120068D01*
D11*
X0060974Y0121150D02*
X0060974Y0128950D01*
X0037474Y0129150D02*
X0037474Y0136950D01*
X0013974Y0128950D02*
X0013974Y0121150D01*
X0013974Y0080950D02*
X0013974Y0073150D01*
X0060974Y0073150D02*
X0060974Y0080950D01*
D12*
X0073724Y0070146D03*
X0073724Y0063454D03*
X0073724Y0053896D03*
X0073724Y0047204D03*
X0093724Y0063454D03*
X0093724Y0070146D03*
X0113724Y0070146D03*
X0113724Y0063454D03*
D13*
X0191224Y0029800D02*
X0191224Y0023800D01*
X0201224Y0023800D02*
X0201224Y0029800D01*
X0211224Y0029800D02*
X0211224Y0023800D01*
X0207974Y0051800D02*
X0201974Y0051800D01*
X0201974Y0061800D02*
X0207974Y0061800D01*
X0207974Y0071800D02*
X0201974Y0071800D01*
X0201974Y0081800D02*
X0207974Y0081800D01*
X0040474Y0160550D02*
X0034474Y0160550D01*
X0034474Y0200550D02*
X0040474Y0200550D01*
D14*
X0041799Y0216800D02*
X0050649Y0216800D01*
X0101799Y0216800D02*
X0110649Y0216800D01*
D15*
X0244207Y0120068D02*
X0261224Y0120068D01*
X0257924Y0120068D02*
X0264524Y0120068D01*
X0264524Y0130068D02*
X0257924Y0130068D01*
X0257924Y0110068D02*
X0264524Y0110068D01*
D16*
X0266628Y0110550D03*
X0273321Y0110550D03*
X0024571Y0098050D03*
X0017878Y0098050D03*
D17*
X0179974Y0144300D03*
D18*
X0179974Y0184300D03*
D19*
X0096224Y0195800D03*
X0096224Y0087800D03*
D20*
X0099984Y0069881D03*
X0107464Y0069881D03*
X0103724Y0061219D03*
X0087464Y0069881D03*
X0079984Y0069881D03*
X0083724Y0061219D03*
X0017464Y0103719D03*
X0009984Y0103719D03*
X0013724Y0112381D03*
D21*
X0089305Y0054290D03*
X0080644Y0050550D03*
X0089305Y0046810D03*
X0098144Y0050550D03*
X0106805Y0054290D03*
X0106805Y0046810D03*
D22*
X0107317Y0035325D02*
X0107317Y0028275D01*
X0087632Y0028275D02*
X0087632Y0035325D01*
X0062317Y0035325D02*
X0062317Y0028275D01*
X0042632Y0028275D02*
X0042632Y0035325D01*
D23*
X0232474Y0091800D03*
D24*
X0142474Y0090250D02*
X0142474Y0095850D01*
X0132474Y0095850D02*
X0132474Y0090250D01*
D25*
X0027917Y0159300D03*
X0014531Y0159300D03*
D26*
X0158724Y0103050D03*
X0158724Y0063050D03*
D27*
X0238695Y0027548D03*
X0018222Y0027548D03*
X0018222Y0212587D03*
X0238695Y0212587D03*
D28*
X0261707Y0110550D02*
X0261224Y0110068D01*
X0261707Y0110550D02*
X0266628Y0110550D01*
X0273321Y0110550D02*
X0273321Y0107204D01*
X0273724Y0106800D01*
X0276224Y0078050D02*
X0253665Y0077900D01*
X0214514Y0038748D01*
X0213190Y0038200D01*
X0116758Y0038200D01*
X0115435Y0038748D01*
X0114422Y0039761D01*
X0110973Y0043210D01*
X0107844Y0043210D01*
X0106560Y0041926D01*
X0105531Y0041500D01*
X0104417Y0041500D01*
X0091258Y0041500D01*
X0090229Y0041926D01*
X0088914Y0043241D01*
X0085886Y0043241D01*
X0084949Y0044179D01*
X0084949Y0047666D01*
X0084840Y0047476D01*
X0084505Y0047141D01*
X0084094Y0046904D01*
X0083637Y0046781D01*
X0080828Y0046781D01*
X0080828Y0050366D01*
X0080828Y0050734D01*
X0085200Y0050734D01*
X0085200Y0051409D01*
X0085886Y0050722D01*
X0092724Y0050722D01*
X0093661Y0051659D01*
X0093661Y0051755D01*
X0093788Y0051808D01*
X0093788Y0047919D01*
X0094606Y0047100D01*
X0093661Y0047100D01*
X0093661Y0049441D01*
X0092724Y0050378D01*
X0085886Y0050378D01*
X0085200Y0049691D01*
X0085200Y0050366D01*
X0080828Y0050366D01*
X0080459Y0050366D01*
X0080459Y0046781D01*
X0077690Y0046781D01*
X0077690Y0044998D01*
X0077567Y0044540D01*
X0077330Y0044130D01*
X0076995Y0043795D01*
X0076584Y0043558D01*
X0076127Y0043435D01*
X0073909Y0043435D01*
X0073909Y0047019D01*
X0073540Y0047019D01*
X0073540Y0043435D01*
X0071322Y0043435D01*
X0070864Y0043558D01*
X0070454Y0043795D01*
X0070119Y0044130D01*
X0069882Y0044540D01*
X0069759Y0044998D01*
X0069759Y0047019D01*
X0073540Y0047019D01*
X0073540Y0047388D01*
X0069759Y0047388D01*
X0069759Y0049409D01*
X0069882Y0049867D01*
X0070119Y0050277D01*
X0070454Y0050612D01*
X0070554Y0050670D01*
X0069959Y0051265D01*
X0069959Y0055869D01*
X0056224Y0040550D01*
X0056224Y0013600D01*
X0276265Y0013600D01*
X0276265Y0075900D01*
X0276224Y0078050D01*
X0276238Y0077339D02*
X0253104Y0077339D01*
X0251506Y0075740D02*
X0276265Y0075740D01*
X0276265Y0074142D02*
X0249907Y0074142D01*
X0248309Y0072543D02*
X0276265Y0072543D01*
X0276265Y0070945D02*
X0246710Y0070945D01*
X0245112Y0069346D02*
X0276265Y0069346D01*
X0276265Y0067748D02*
X0243513Y0067748D01*
X0241915Y0066149D02*
X0276265Y0066149D01*
X0276265Y0064551D02*
X0240316Y0064551D01*
X0238718Y0062952D02*
X0276265Y0062952D01*
X0276265Y0061354D02*
X0237119Y0061354D01*
X0235521Y0059755D02*
X0276265Y0059755D01*
X0276265Y0058157D02*
X0233922Y0058157D01*
X0232324Y0056558D02*
X0276265Y0056558D01*
X0276265Y0054960D02*
X0230725Y0054960D01*
X0229127Y0053361D02*
X0276265Y0053361D01*
X0276265Y0051763D02*
X0227528Y0051763D01*
X0225930Y0050164D02*
X0276265Y0050164D01*
X0276265Y0048566D02*
X0224331Y0048566D01*
X0222733Y0046967D02*
X0276265Y0046967D01*
X0276265Y0045369D02*
X0221134Y0045369D01*
X0219536Y0043770D02*
X0276265Y0043770D01*
X0276265Y0042172D02*
X0217937Y0042172D01*
X0216339Y0040573D02*
X0276265Y0040573D01*
X0276265Y0038975D02*
X0214740Y0038975D01*
X0212672Y0034179D02*
X0276265Y0034179D01*
X0276265Y0032581D02*
X0214949Y0032581D01*
X0215124Y0032406D02*
X0213830Y0033700D01*
X0212139Y0034400D01*
X0210309Y0034400D01*
X0208619Y0033700D01*
X0207325Y0032406D01*
X0206624Y0030715D01*
X0206624Y0022885D01*
X0207325Y0021194D01*
X0208619Y0019900D01*
X0210309Y0019200D01*
X0212139Y0019200D01*
X0213830Y0019900D01*
X0215124Y0021194D01*
X0215824Y0022885D01*
X0215824Y0030715D01*
X0215124Y0032406D01*
X0215714Y0030982D02*
X0276265Y0030982D01*
X0276265Y0029384D02*
X0215824Y0029384D01*
X0215824Y0027785D02*
X0276265Y0027785D01*
X0276265Y0026187D02*
X0215824Y0026187D01*
X0215824Y0024588D02*
X0276265Y0024588D01*
X0276265Y0022990D02*
X0215824Y0022990D01*
X0215206Y0021391D02*
X0276265Y0021391D01*
X0276265Y0019793D02*
X0213570Y0019793D01*
X0208879Y0019793D02*
X0203875Y0019793D01*
X0203740Y0019695D02*
X0204351Y0020139D01*
X0204886Y0020673D01*
X0205330Y0021284D01*
X0205673Y0021957D01*
X0205906Y0022676D01*
X0206024Y0023422D01*
X0206024Y0026600D01*
X0201424Y0026600D01*
X0201424Y0019000D01*
X0201602Y0019000D01*
X0202348Y0019118D01*
X0203067Y0019352D01*
X0203740Y0019695D01*
X0201424Y0019793D02*
X0201024Y0019793D01*
X0201024Y0019000D02*
X0201024Y0026600D01*
X0196424Y0026600D01*
X0196424Y0023422D01*
X0196543Y0022676D01*
X0196776Y0021957D01*
X0197119Y0021284D01*
X0197563Y0020673D01*
X0198097Y0020139D01*
X0198709Y0019695D01*
X0199382Y0019352D01*
X0200100Y0019118D01*
X0200847Y0019000D01*
X0201024Y0019000D01*
X0201024Y0021391D02*
X0201424Y0021391D01*
X0201424Y0022990D02*
X0201024Y0022990D01*
X0201024Y0024588D02*
X0201424Y0024588D01*
X0201424Y0026187D02*
X0201024Y0026187D01*
X0201024Y0026600D02*
X0201424Y0026600D01*
X0201424Y0027000D01*
X0201024Y0027000D01*
X0201024Y0026600D01*
X0201024Y0027000D02*
X0196424Y0027000D01*
X0196424Y0030178D01*
X0196543Y0030924D01*
X0196776Y0031643D01*
X0197119Y0032316D01*
X0197563Y0032927D01*
X0198097Y0033461D01*
X0198709Y0033905D01*
X0199382Y0034248D01*
X0200100Y0034482D01*
X0200847Y0034600D01*
X0201024Y0034600D01*
X0201024Y0027000D01*
X0201424Y0027000D02*
X0201424Y0034600D01*
X0201602Y0034600D01*
X0202348Y0034482D01*
X0203067Y0034248D01*
X0203740Y0033905D01*
X0204351Y0033461D01*
X0204886Y0032927D01*
X0205330Y0032316D01*
X0205673Y0031643D01*
X0205906Y0030924D01*
X0206024Y0030178D01*
X0206024Y0027000D01*
X0201424Y0027000D01*
X0201424Y0027785D02*
X0201024Y0027785D01*
X0201024Y0029384D02*
X0201424Y0029384D01*
X0201424Y0030982D02*
X0201024Y0030982D01*
X0201024Y0032581D02*
X0201424Y0032581D01*
X0201424Y0034179D02*
X0201024Y0034179D01*
X0199246Y0034179D02*
X0192672Y0034179D01*
X0192139Y0034400D02*
X0190309Y0034400D01*
X0188619Y0033700D01*
X0187325Y0032406D01*
X0186624Y0030715D01*
X0186624Y0022885D01*
X0187325Y0021194D01*
X0188619Y0019900D01*
X0190309Y0019200D01*
X0192139Y0019200D01*
X0193830Y0019900D01*
X0195124Y0021194D01*
X0195824Y0022885D01*
X0195824Y0030715D01*
X0195124Y0032406D01*
X0193830Y0033700D01*
X0192139Y0034400D01*
X0189776Y0034179D02*
X0112642Y0034179D01*
X0112642Y0035744D02*
X0112642Y0032175D01*
X0107692Y0032175D01*
X0107692Y0031425D01*
X0112642Y0031425D01*
X0112642Y0027856D01*
X0112511Y0027028D01*
X0112252Y0026231D01*
X0111871Y0025484D01*
X0111379Y0024806D01*
X0110786Y0024213D01*
X0110108Y0023721D01*
X0109361Y0023340D01*
X0108564Y0023081D01*
X0107736Y0022950D01*
X0107692Y0022950D01*
X0107692Y0031425D01*
X0106942Y0031425D01*
X0106942Y0022950D01*
X0106898Y0022950D01*
X0106070Y0023081D01*
X0105273Y0023340D01*
X0104526Y0023721D01*
X0103848Y0024213D01*
X0103255Y0024806D01*
X0102762Y0025484D01*
X0102382Y0026231D01*
X0102123Y0027028D01*
X0101992Y0027856D01*
X0101992Y0031425D01*
X0106942Y0031425D01*
X0106942Y0032175D01*
X0106942Y0040650D01*
X0106898Y0040650D01*
X0106070Y0040519D01*
X0105273Y0040260D01*
X0104526Y0039879D01*
X0103848Y0039387D01*
X0103255Y0038794D01*
X0102762Y0038116D01*
X0102382Y0037369D01*
X0102123Y0036572D01*
X0101992Y0035744D01*
X0101992Y0032175D01*
X0106942Y0032175D01*
X0107692Y0032175D01*
X0107692Y0040650D01*
X0107736Y0040650D01*
X0108564Y0040519D01*
X0109361Y0040260D01*
X0110108Y0039879D01*
X0110786Y0039387D01*
X0111379Y0038794D01*
X0111871Y0038116D01*
X0112252Y0037369D01*
X0112511Y0036572D01*
X0112642Y0035744D01*
X0112637Y0035778D02*
X0276265Y0035778D01*
X0276265Y0037376D02*
X0112248Y0037376D01*
X0111198Y0038975D02*
X0115208Y0038975D01*
X0113610Y0040573D02*
X0108221Y0040573D01*
X0107692Y0040573D02*
X0106942Y0040573D01*
X0106413Y0040573D02*
X0063221Y0040573D01*
X0063564Y0040519D02*
X0062736Y0040650D01*
X0062692Y0040650D01*
X0062692Y0032175D01*
X0067642Y0032175D01*
X0067642Y0035744D01*
X0067511Y0036572D01*
X0067252Y0037369D01*
X0066871Y0038116D01*
X0066379Y0038794D01*
X0065786Y0039387D01*
X0065108Y0039879D01*
X0064361Y0040260D01*
X0063564Y0040519D01*
X0062692Y0040573D02*
X0061942Y0040573D01*
X0061942Y0040650D02*
X0061898Y0040650D01*
X0061070Y0040519D01*
X0060273Y0040260D01*
X0059526Y0039879D01*
X0058848Y0039387D01*
X0058255Y0038794D01*
X0057762Y0038116D01*
X0057382Y0037369D01*
X0057123Y0036572D01*
X0056992Y0035744D01*
X0056992Y0032175D01*
X0061942Y0032175D01*
X0061942Y0040650D01*
X0061413Y0040573D02*
X0056245Y0040573D01*
X0056224Y0038975D02*
X0058436Y0038975D01*
X0057386Y0037376D02*
X0056224Y0037376D01*
X0056224Y0035778D02*
X0056997Y0035778D01*
X0056992Y0034179D02*
X0056224Y0034179D01*
X0056224Y0032581D02*
X0056992Y0032581D01*
X0056992Y0031425D02*
X0056992Y0027856D01*
X0057123Y0027028D01*
X0057382Y0026231D01*
X0057762Y0025484D01*
X0058255Y0024806D01*
X0058848Y0024213D01*
X0059526Y0023721D01*
X0060273Y0023340D01*
X0061070Y0023081D01*
X0061898Y0022950D01*
X0061942Y0022950D01*
X0061942Y0031425D01*
X0062692Y0031425D01*
X0062692Y0032175D01*
X0061942Y0032175D01*
X0061942Y0031425D01*
X0056992Y0031425D01*
X0056992Y0030982D02*
X0056224Y0030982D01*
X0056224Y0029384D02*
X0056992Y0029384D01*
X0057003Y0027785D02*
X0056224Y0027785D01*
X0056224Y0026187D02*
X0057405Y0026187D01*
X0058473Y0024588D02*
X0056224Y0024588D01*
X0056224Y0022990D02*
X0061648Y0022990D01*
X0061942Y0022990D02*
X0062692Y0022990D01*
X0062692Y0022950D02*
X0062736Y0022950D01*
X0063564Y0023081D01*
X0064361Y0023340D01*
X0065108Y0023721D01*
X0065786Y0024213D01*
X0066379Y0024806D01*
X0066871Y0025484D01*
X0067252Y0026231D01*
X0067511Y0027028D01*
X0067642Y0027856D01*
X0067642Y0031425D01*
X0062692Y0031425D01*
X0062692Y0022950D01*
X0062986Y0022990D02*
X0106648Y0022990D01*
X0106942Y0022990D02*
X0107692Y0022990D01*
X0107986Y0022990D02*
X0186624Y0022990D01*
X0186624Y0024588D02*
X0111161Y0024588D01*
X0112229Y0026187D02*
X0186624Y0026187D01*
X0186624Y0027785D02*
X0112631Y0027785D01*
X0112642Y0029384D02*
X0186624Y0029384D01*
X0186735Y0030982D02*
X0112642Y0030982D01*
X0112642Y0032581D02*
X0187500Y0032581D01*
X0194949Y0032581D02*
X0197311Y0032581D01*
X0196561Y0030982D02*
X0195714Y0030982D01*
X0195824Y0029384D02*
X0196424Y0029384D01*
X0196424Y0027785D02*
X0195824Y0027785D01*
X0195824Y0026187D02*
X0196424Y0026187D01*
X0196424Y0024588D02*
X0195824Y0024588D01*
X0195824Y0022990D02*
X0196493Y0022990D01*
X0197065Y0021391D02*
X0195206Y0021391D01*
X0193570Y0019793D02*
X0198574Y0019793D01*
X0205384Y0021391D02*
X0207243Y0021391D01*
X0206624Y0022990D02*
X0205956Y0022990D01*
X0206024Y0024588D02*
X0206624Y0024588D01*
X0206624Y0026187D02*
X0206024Y0026187D01*
X0206024Y0027785D02*
X0206624Y0027785D01*
X0206624Y0029384D02*
X0206024Y0029384D01*
X0205887Y0030982D02*
X0206735Y0030982D01*
X0207500Y0032581D02*
X0205137Y0032581D01*
X0203203Y0034179D02*
X0209776Y0034179D01*
X0210983Y0045400D02*
X0118966Y0045400D01*
X0114504Y0049862D01*
X0113181Y0050410D01*
X0106768Y0050410D01*
X0106692Y0050378D01*
X0103386Y0050378D01*
X0102500Y0049491D01*
X0102500Y0051609D01*
X0103386Y0050722D01*
X0110224Y0050722D01*
X0111161Y0051659D01*
X0111161Y0056921D01*
X0110224Y0057859D01*
X0109605Y0057859D01*
X0109605Y0058419D01*
X0112047Y0058419D01*
X0113076Y0058846D01*
X0114116Y0059885D01*
X0116552Y0059885D01*
X0117490Y0060822D01*
X0117490Y0066085D01*
X0116895Y0066680D01*
X0116995Y0066738D01*
X0117330Y0067073D01*
X0117567Y0067483D01*
X0117690Y0067941D01*
X0117690Y0069962D01*
X0113909Y0069962D01*
X0113909Y0070331D01*
X0117690Y0070331D01*
X0117690Y0072352D01*
X0117567Y0072810D01*
X0117330Y0073220D01*
X0116995Y0073555D01*
X0116584Y0073792D01*
X0116127Y0073915D01*
X0113909Y0073915D01*
X0113909Y0070331D01*
X0113540Y0070331D01*
X0113540Y0073915D01*
X0111322Y0073915D01*
X0110864Y0073792D01*
X0110659Y0073674D01*
X0110096Y0074237D01*
X0104833Y0074237D01*
X0103896Y0073299D01*
X0103896Y0070019D01*
X0103893Y0070012D01*
X0103893Y0068588D01*
X0103896Y0068581D01*
X0103896Y0066462D01*
X0104783Y0065575D01*
X0102666Y0065575D01*
X0103553Y0066462D01*
X0103553Y0073299D01*
X0102615Y0074237D01*
X0097353Y0074237D01*
X0096692Y0073576D01*
X0096552Y0073715D01*
X0090896Y0073715D01*
X0090892Y0073710D01*
X0090873Y0073742D01*
X0090538Y0074077D01*
X0090128Y0074314D01*
X0089670Y0074437D01*
X0087649Y0074437D01*
X0087649Y0070065D01*
X0087280Y0070065D01*
X0087280Y0069696D01*
X0087649Y0069696D01*
X0087649Y0065325D01*
X0089670Y0065325D01*
X0089959Y0065402D01*
X0089959Y0064019D01*
X0087293Y0064019D01*
X0087293Y0064638D01*
X0086606Y0065325D01*
X0087280Y0065325D01*
X0087280Y0069696D01*
X0083696Y0069696D01*
X0083696Y0066888D01*
X0083819Y0066430D01*
X0084056Y0066020D01*
X0084391Y0065684D01*
X0084580Y0065575D01*
X0082666Y0065575D01*
X0083553Y0066462D01*
X0083553Y0071032D01*
X0083696Y0071191D01*
X0083696Y0070065D01*
X0087280Y0070065D01*
X0087280Y0074437D01*
X0086605Y0074437D01*
X0087693Y0075650D01*
X0157730Y0075650D01*
X0170143Y0063237D01*
X0170143Y0062338D01*
X0170688Y0061021D01*
X0171696Y0060014D01*
X0173012Y0059469D01*
X0174437Y0059469D01*
X0175753Y0060014D01*
X0176760Y0061021D01*
X0177305Y0062338D01*
X0177305Y0063762D01*
X0176760Y0065079D01*
X0175753Y0066086D01*
X0174437Y0066631D01*
X0173537Y0066631D01*
X0162874Y0077294D01*
X0200230Y0077543D01*
X0201059Y0077200D01*
X0208889Y0077200D01*
X0209873Y0077608D01*
X0243414Y0077831D01*
X0210983Y0045400D01*
X0212550Y0046967D02*
X0117398Y0046967D01*
X0115800Y0048566D02*
X0198420Y0048566D01*
X0198313Y0048673D02*
X0198847Y0048139D01*
X0199459Y0047695D01*
X0200132Y0047352D01*
X0200850Y0047118D01*
X0201597Y0047000D01*
X0204774Y0047000D01*
X0204774Y0051600D01*
X0197174Y0051600D01*
X0197174Y0051422D01*
X0197293Y0050676D01*
X0197526Y0049957D01*
X0197869Y0049284D01*
X0198313Y0048673D01*
X0197459Y0050164D02*
X0113773Y0050164D01*
X0111161Y0051763D02*
X0204774Y0051763D01*
X0204774Y0051600D02*
X0204774Y0052000D01*
X0197174Y0052000D01*
X0197174Y0052178D01*
X0197293Y0052924D01*
X0197526Y0053643D01*
X0197869Y0054316D01*
X0198313Y0054927D01*
X0198847Y0055461D01*
X0199459Y0055905D01*
X0200132Y0056248D01*
X0200850Y0056482D01*
X0201597Y0056600D01*
X0204774Y0056600D01*
X0204774Y0052000D01*
X0205174Y0052000D01*
X0205174Y0056600D01*
X0208352Y0056600D01*
X0209098Y0056482D01*
X0209817Y0056248D01*
X0210490Y0055905D01*
X0211101Y0055461D01*
X0211636Y0054927D01*
X0212080Y0054316D01*
X0212423Y0053643D01*
X0212656Y0052924D01*
X0212774Y0052178D01*
X0212774Y0052000D01*
X0205174Y0052000D01*
X0205174Y0051600D01*
X0205174Y0047000D01*
X0208352Y0047000D01*
X0209098Y0047118D01*
X0209817Y0047352D01*
X0210490Y0047695D01*
X0211101Y0048139D01*
X0211636Y0048673D01*
X0212080Y0049284D01*
X0212423Y0049957D01*
X0212656Y0050676D01*
X0212774Y0051422D01*
X0212774Y0051600D01*
X0205174Y0051600D01*
X0204774Y0051600D01*
X0205174Y0051763D02*
X0217346Y0051763D01*
X0218944Y0053361D02*
X0212514Y0053361D01*
X0211603Y0054960D02*
X0220543Y0054960D01*
X0222141Y0056558D02*
X0208615Y0056558D01*
X0208889Y0057200D02*
X0210580Y0057900D01*
X0211874Y0059194D01*
X0212574Y0060885D01*
X0212574Y0062715D01*
X0211874Y0064406D01*
X0210580Y0065700D01*
X0208889Y0066400D01*
X0201059Y0066400D01*
X0199369Y0065700D01*
X0198075Y0064406D01*
X0197374Y0062715D01*
X0197374Y0060885D01*
X0198075Y0059194D01*
X0199369Y0057900D01*
X0201059Y0057200D01*
X0208889Y0057200D01*
X0210837Y0058157D02*
X0223740Y0058157D01*
X0225339Y0059755D02*
X0212106Y0059755D01*
X0212574Y0061354D02*
X0226937Y0061354D01*
X0228536Y0062952D02*
X0212476Y0062952D01*
X0211729Y0064551D02*
X0230134Y0064551D01*
X0231733Y0066149D02*
X0209494Y0066149D01*
X0208889Y0067200D02*
X0210580Y0067900D01*
X0211874Y0069194D01*
X0212574Y0070885D01*
X0212574Y0072715D01*
X0211874Y0074406D01*
X0210580Y0075700D01*
X0208889Y0076400D01*
X0201059Y0076400D01*
X0199369Y0075700D01*
X0198075Y0074406D01*
X0197374Y0072715D01*
X0197374Y0070885D01*
X0198075Y0069194D01*
X0199369Y0067900D01*
X0201059Y0067200D01*
X0208889Y0067200D01*
X0210212Y0067748D02*
X0233331Y0067748D01*
X0234930Y0069346D02*
X0211937Y0069346D01*
X0212574Y0070945D02*
X0236528Y0070945D01*
X0238127Y0072543D02*
X0212574Y0072543D01*
X0211983Y0074142D02*
X0239725Y0074142D01*
X0241324Y0075740D02*
X0210482Y0075740D01*
X0209225Y0077339D02*
X0242922Y0077339D01*
X0205174Y0056558D02*
X0204774Y0056558D01*
X0204774Y0054960D02*
X0205174Y0054960D01*
X0205174Y0053361D02*
X0204774Y0053361D01*
X0201333Y0056558D02*
X0111161Y0056558D01*
X0111161Y0054960D02*
X0198346Y0054960D01*
X0197435Y0053361D02*
X0111161Y0053361D01*
X0109605Y0058157D02*
X0199112Y0058157D01*
X0197842Y0059755D02*
X0175128Y0059755D01*
X0176898Y0061354D02*
X0197374Y0061354D01*
X0197473Y0062952D02*
X0177305Y0062952D01*
X0176979Y0064551D02*
X0198220Y0064551D01*
X0200454Y0066149D02*
X0175600Y0066149D01*
X0172421Y0067748D02*
X0199737Y0067748D01*
X0198012Y0069346D02*
X0170822Y0069346D01*
X0169224Y0070945D02*
X0197374Y0070945D01*
X0197374Y0072543D02*
X0167625Y0072543D01*
X0166026Y0074142D02*
X0197965Y0074142D01*
X0199467Y0075740D02*
X0164428Y0075740D01*
X0160837Y0072543D02*
X0117638Y0072543D01*
X0117690Y0070945D02*
X0162435Y0070945D01*
X0164034Y0069346D02*
X0117690Y0069346D01*
X0117638Y0067748D02*
X0165632Y0067748D01*
X0167231Y0066149D02*
X0161565Y0066149D01*
X0160464Y0067250D02*
X0162924Y0064790D01*
X0162924Y0061310D01*
X0160464Y0058850D01*
X0156985Y0058850D01*
X0154524Y0061310D01*
X0154524Y0064790D01*
X0156985Y0067250D01*
X0160464Y0067250D01*
X0162924Y0064551D02*
X0168829Y0064551D01*
X0170143Y0062952D02*
X0162924Y0062952D01*
X0162924Y0061354D02*
X0170551Y0061354D01*
X0172320Y0059755D02*
X0161369Y0059755D01*
X0156079Y0059755D02*
X0113986Y0059755D01*
X0117490Y0061354D02*
X0154524Y0061354D01*
X0154524Y0062952D02*
X0117490Y0062952D01*
X0117490Y0064551D02*
X0154524Y0064551D01*
X0155884Y0066149D02*
X0117425Y0066149D01*
X0113909Y0070945D02*
X0113540Y0070945D01*
X0113540Y0072543D02*
X0113909Y0072543D01*
X0110190Y0074142D02*
X0159238Y0074142D01*
X0158724Y0078050D02*
X0079974Y0078050D01*
X0068724Y0089300D01*
X0039974Y0089300D01*
X0031224Y0098050D01*
X0024571Y0098050D01*
X0023724Y0090550D02*
X0014974Y0090550D01*
X0010555Y0094969D01*
X0010555Y0103719D01*
X0009984Y0103719D01*
X0013724Y0112381D02*
X0013724Y0124800D01*
X0013974Y0125050D01*
X0013974Y0158743D01*
X0014531Y0159300D01*
X0027917Y0159300D02*
X0029167Y0160550D01*
X0037474Y0160550D01*
X0023724Y0090550D02*
X0067474Y0046800D01*
X0073321Y0046800D01*
X0073724Y0047204D01*
X0073540Y0046967D02*
X0073909Y0046967D01*
X0073909Y0045369D02*
X0073540Y0045369D01*
X0073540Y0043770D02*
X0073909Y0043770D01*
X0076953Y0043770D02*
X0085358Y0043770D01*
X0084949Y0045369D02*
X0077690Y0045369D01*
X0080459Y0046967D02*
X0080828Y0046967D01*
X0080828Y0048566D02*
X0080459Y0048566D01*
X0080459Y0050164D02*
X0080828Y0050164D01*
X0080828Y0050734D02*
X0080459Y0050734D01*
X0080459Y0054318D01*
X0077651Y0054318D01*
X0077490Y0054275D01*
X0077490Y0056528D01*
X0076552Y0057465D01*
X0076524Y0057465D01*
X0076524Y0059885D01*
X0076552Y0059885D01*
X0077417Y0060750D01*
X0078214Y0061080D01*
X0079002Y0061867D01*
X0080156Y0063022D01*
X0080156Y0057801D01*
X0081093Y0056863D01*
X0084949Y0056863D01*
X0084949Y0053434D01*
X0084840Y0053624D01*
X0084505Y0053959D01*
X0084094Y0054196D01*
X0083637Y0054318D01*
X0080828Y0054318D01*
X0080828Y0050734D01*
X0080828Y0051763D02*
X0080459Y0051763D01*
X0080459Y0053361D02*
X0080828Y0053361D01*
X0077490Y0054960D02*
X0084949Y0054960D01*
X0084949Y0056558D02*
X0077459Y0056558D01*
X0076524Y0058157D02*
X0080156Y0058157D01*
X0080156Y0059755D02*
X0076524Y0059755D01*
X0078488Y0061354D02*
X0080156Y0061354D01*
X0080156Y0062952D02*
X0080086Y0062952D01*
X0083240Y0066149D02*
X0083981Y0066149D01*
X0083696Y0067748D02*
X0083553Y0067748D01*
X0083553Y0069346D02*
X0083696Y0069346D01*
X0083696Y0070945D02*
X0083553Y0070945D01*
X0087280Y0070945D02*
X0087649Y0070945D01*
X0087649Y0072543D02*
X0087280Y0072543D01*
X0087280Y0074142D02*
X0087649Y0074142D01*
X0090426Y0074142D02*
X0097258Y0074142D01*
X0102710Y0074142D02*
X0104739Y0074142D01*
X0103896Y0072543D02*
X0103553Y0072543D01*
X0103553Y0070945D02*
X0103896Y0070945D01*
X0103893Y0069346D02*
X0103553Y0069346D01*
X0103553Y0067748D02*
X0103896Y0067748D01*
X0104209Y0066149D02*
X0103240Y0066149D01*
X0089959Y0064551D02*
X0087293Y0064551D01*
X0087280Y0066149D02*
X0087649Y0066149D01*
X0087649Y0067748D02*
X0087280Y0067748D01*
X0087280Y0069346D02*
X0087649Y0069346D01*
X0073724Y0070146D02*
X0073724Y0070550D01*
X0069959Y0054960D02*
X0069143Y0054960D01*
X0069959Y0053361D02*
X0067710Y0053361D01*
X0066277Y0051763D02*
X0069959Y0051763D01*
X0070053Y0050164D02*
X0064844Y0050164D01*
X0063411Y0048566D02*
X0069759Y0048566D01*
X0069759Y0046967D02*
X0061978Y0046967D01*
X0060545Y0045369D02*
X0069759Y0045369D01*
X0070496Y0043770D02*
X0059111Y0043770D01*
X0057678Y0042172D02*
X0089983Y0042172D01*
X0088651Y0040450D02*
X0086612Y0040450D01*
X0084729Y0039670D01*
X0083287Y0038228D01*
X0082507Y0036344D01*
X0082507Y0027256D01*
X0083287Y0025372D01*
X0084729Y0023930D01*
X0086612Y0023150D01*
X0088651Y0023150D01*
X0090535Y0023930D01*
X0091977Y0025372D01*
X0092757Y0027256D01*
X0092757Y0036344D01*
X0091977Y0038228D01*
X0090535Y0039670D01*
X0088651Y0040450D01*
X0091230Y0038975D02*
X0103436Y0038975D01*
X0102386Y0037376D02*
X0092329Y0037376D01*
X0092757Y0035778D02*
X0101997Y0035778D01*
X0101992Y0034179D02*
X0092757Y0034179D01*
X0092757Y0032581D02*
X0101992Y0032581D01*
X0101992Y0030982D02*
X0092757Y0030982D01*
X0092757Y0029384D02*
X0101992Y0029384D01*
X0102003Y0027785D02*
X0092757Y0027785D01*
X0092314Y0026187D02*
X0102405Y0026187D01*
X0103473Y0024588D02*
X0091193Y0024588D01*
X0084071Y0024588D02*
X0066161Y0024588D01*
X0067229Y0026187D02*
X0082950Y0026187D01*
X0082507Y0027785D02*
X0067631Y0027785D01*
X0067642Y0029384D02*
X0082507Y0029384D01*
X0082507Y0030982D02*
X0067642Y0030982D01*
X0067642Y0032581D02*
X0082507Y0032581D01*
X0082507Y0034179D02*
X0067642Y0034179D01*
X0067637Y0035778D02*
X0082507Y0035778D01*
X0082934Y0037376D02*
X0067248Y0037376D01*
X0066198Y0038975D02*
X0084034Y0038975D01*
X0084204Y0046967D02*
X0084949Y0046967D01*
X0085200Y0050164D02*
X0085672Y0050164D01*
X0092938Y0050164D02*
X0093788Y0050164D01*
X0093788Y0048566D02*
X0093661Y0048566D01*
X0093680Y0051763D02*
X0093788Y0051763D01*
X0102500Y0050164D02*
X0103172Y0050164D01*
X0106806Y0042172D02*
X0112011Y0042172D01*
X0107692Y0038975D02*
X0106942Y0038975D01*
X0106942Y0037376D02*
X0107692Y0037376D01*
X0107692Y0035778D02*
X0106942Y0035778D01*
X0106942Y0034179D02*
X0107692Y0034179D01*
X0107692Y0032581D02*
X0106942Y0032581D01*
X0106942Y0030982D02*
X0107692Y0030982D01*
X0107692Y0029384D02*
X0106942Y0029384D01*
X0106942Y0027785D02*
X0107692Y0027785D01*
X0107692Y0026187D02*
X0106942Y0026187D01*
X0106942Y0024588D02*
X0107692Y0024588D01*
X0062692Y0024588D02*
X0061942Y0024588D01*
X0061942Y0026187D02*
X0062692Y0026187D01*
X0062692Y0027785D02*
X0061942Y0027785D01*
X0061942Y0029384D02*
X0062692Y0029384D01*
X0062692Y0030982D02*
X0061942Y0030982D01*
X0061942Y0032581D02*
X0062692Y0032581D01*
X0062692Y0034179D02*
X0061942Y0034179D01*
X0061942Y0035778D02*
X0062692Y0035778D01*
X0062692Y0037376D02*
X0061942Y0037376D01*
X0061942Y0038975D02*
X0062692Y0038975D01*
X0056224Y0021391D02*
X0187243Y0021391D01*
X0188879Y0019793D02*
X0056224Y0019793D01*
X0056224Y0018194D02*
X0276265Y0018194D01*
X0276265Y0016596D02*
X0056224Y0016596D01*
X0056224Y0014997D02*
X0276265Y0014997D01*
X0215747Y0050164D02*
X0212490Y0050164D01*
X0211528Y0048566D02*
X0214149Y0048566D01*
X0205174Y0048566D02*
X0204774Y0048566D01*
X0204774Y0050164D02*
X0205174Y0050164D01*
X0173724Y0063050D02*
X0158724Y0078050D01*
X0169570Y0077339D02*
X0200724Y0077339D01*
D29*
X0232474Y0091800D02*
X0179974Y0144300D01*
X0261224Y0050078D02*
X0238695Y0027548D01*
D30*
X0113724Y0063454D02*
X0111490Y0061219D01*
X0107474Y0061219D01*
X0106805Y0060639D01*
X0106805Y0054290D01*
X0098724Y0050550D02*
X0098144Y0050550D01*
X0092464Y0054290D02*
X0099394Y0061219D01*
X0103724Y0061219D01*
X0107474Y0061219D01*
X0107474Y0069300D02*
X0107464Y0069310D01*
X0107464Y0069881D01*
X0099984Y0069881D02*
X0099718Y0070146D01*
X0093724Y0070146D01*
X0093724Y0063454D02*
X0091490Y0061219D01*
X0083724Y0061219D01*
X0079984Y0066810D02*
X0076628Y0063454D01*
X0073724Y0063454D01*
X0073724Y0053896D01*
X0089305Y0054290D02*
X0092464Y0054290D01*
X0089305Y0046810D02*
X0091815Y0044300D01*
X0104974Y0044300D01*
X0107484Y0046810D01*
X0106805Y0046810D01*
X0079984Y0066810D02*
X0079984Y0069881D01*
X0079718Y0070146D01*
X0017878Y0098050D02*
X0017730Y0098709D01*
X0017730Y0103454D01*
X0017464Y0103719D01*
D31*
X0073724Y0070550D03*
X0098724Y0050550D03*
X0107474Y0069300D03*
X0173724Y0063050D03*
D32*
X0212474Y0041800D02*
X0273724Y0103050D01*
X0273724Y0106800D01*
X0273724Y0124300D01*
X0267957Y0130068D01*
X0261224Y0130068D01*
X0212474Y0041800D02*
X0117474Y0041800D01*
X0112464Y0046810D01*
X0107484Y0046810D01*
D33*
X0042474Y0038050D02*
X0042474Y0031957D01*
X0042474Y0038050D02*
X0013974Y0066550D01*
X0013974Y0077050D01*
X0048724Y0101800D02*
X0096224Y0101800D01*
X0096224Y0099300D01*
X0096224Y0101800D02*
X0097474Y0101800D01*
X0139974Y0144300D01*
X0179974Y0144300D01*
X0189974Y0164300D02*
X0084974Y0164300D01*
X0048724Y0200550D01*
X0047474Y0200550D01*
X0046224Y0201800D01*
X0046224Y0216800D01*
X0047474Y0200550D02*
X0037474Y0200550D01*
X0037474Y0133050D02*
X0037474Y0113050D01*
X0048724Y0101800D01*
X0189974Y0164300D02*
X0234207Y0120068D01*
X0244207Y0120068D01*
D34*
X0096224Y0099300D02*
X0096224Y0087800D01*
M02*
