%
M48
M72
T01C0.02362
T02C0.03200
T03C0.03600
T04C0.04000
T05C0.04400
T06C0.04700
T07C0.05200
T08C0.05500
T09C0.05900
T10C0.07900
T11C0.12598
T12C0.13000
%
T01
X107474Y69300
X98724Y50550
X173724Y63050
X73724Y70550
T02
X158724Y63050
X158724Y103050
T03
X142474Y93050
X132474Y93050
T04
X37474Y160550
X37474Y200550
X204974Y81800
X204974Y71800
X204974Y61800
X204974Y51800
X191224Y26800
X201224Y26800
X211224Y26800
T05
X261224Y130068
X261224Y120068
X261224Y110068
T06
X96224Y87800
X96224Y195800
X87632Y31800
X107317Y31800
X42632Y31800
X62317Y31800
T07
X37474Y133050
X13974Y125050
X60974Y125050
X60974Y77050
X13974Y77050
T08
X232474Y91800
T09
X106224Y216800
X46224Y216800
T10
X179974Y144300
X179974Y184300
T11
X238695Y27548
X238695Y212587
X18222Y212587
X18222Y27548
T12
X330224Y120068
M30
