G75*
%MOIN*%
%OFA0B0*%
%FSLAX25Y25*%
%IPPOS*%
%LPD*%
%AMOC8*
5,1,8,0,0,1.08239X$1,22.5*
%
%ADD10C,0.00000*%
%ADD11C,0.07800*%
%ADD12R,0.04331X0.03937*%
%ADD13C,0.06000*%
%ADD14C,0.08850*%
%ADD15C,0.06600*%
%ADD16C,0.18100*%
%ADD17OC8,0.18100*%
%ADD18OC8,0.07050*%
%ADD19C,0.07050*%
%ADD20R,0.01575X0.05315*%
%ADD21R,0.03937X0.04331*%
%ADD22R,0.07098X0.06299*%
%ADD23R,0.22835X0.24409*%
%ADD24R,0.06299X0.11811*%
%ADD25R,0.05512X0.07087*%
%ADD26OC8,0.15000*%
%ADD27C,0.05600*%
%ADD28OC8,0.05200*%
%ADD29C,0.25400*%
%ADD30C,0.01600*%
%ADD31C,0.10000*%
%ADD32C,0.03962*%
%ADD33C,0.02400*%
%ADD34C,0.07874*%
%ADD35C,0.15000*%
D10*
X0002474Y0011800D02*
X0002474Y0228335D01*
X0278065Y0228335D01*
X0278065Y0011800D01*
X0002474Y0011800D01*
X0323724Y0120068D02*
X0323726Y0120229D01*
X0323732Y0120389D01*
X0323742Y0120550D01*
X0323756Y0120710D01*
X0323774Y0120870D01*
X0323795Y0121029D01*
X0323821Y0121188D01*
X0323851Y0121346D01*
X0323884Y0121503D01*
X0323922Y0121660D01*
X0323963Y0121815D01*
X0324008Y0121969D01*
X0324057Y0122122D01*
X0324110Y0122274D01*
X0324166Y0122425D01*
X0324227Y0122574D01*
X0324290Y0122722D01*
X0324358Y0122868D01*
X0324429Y0123012D01*
X0324503Y0123154D01*
X0324581Y0123295D01*
X0324663Y0123433D01*
X0324748Y0123570D01*
X0324836Y0123704D01*
X0324928Y0123836D01*
X0325023Y0123966D01*
X0325121Y0124094D01*
X0325222Y0124219D01*
X0325326Y0124341D01*
X0325433Y0124461D01*
X0325543Y0124578D01*
X0325656Y0124693D01*
X0325772Y0124804D01*
X0325891Y0124913D01*
X0326012Y0125018D01*
X0326136Y0125121D01*
X0326262Y0125221D01*
X0326390Y0125317D01*
X0326521Y0125410D01*
X0326655Y0125500D01*
X0326790Y0125587D01*
X0326928Y0125670D01*
X0327067Y0125750D01*
X0327209Y0125826D01*
X0327352Y0125899D01*
X0327497Y0125968D01*
X0327644Y0126034D01*
X0327792Y0126096D01*
X0327942Y0126154D01*
X0328093Y0126209D01*
X0328246Y0126260D01*
X0328400Y0126307D01*
X0328555Y0126350D01*
X0328711Y0126389D01*
X0328867Y0126425D01*
X0329025Y0126456D01*
X0329183Y0126484D01*
X0329342Y0126508D01*
X0329502Y0126528D01*
X0329662Y0126544D01*
X0329822Y0126556D01*
X0329983Y0126564D01*
X0330144Y0126568D01*
X0330304Y0126568D01*
X0330465Y0126564D01*
X0330626Y0126556D01*
X0330786Y0126544D01*
X0330946Y0126528D01*
X0331106Y0126508D01*
X0331265Y0126484D01*
X0331423Y0126456D01*
X0331581Y0126425D01*
X0331737Y0126389D01*
X0331893Y0126350D01*
X0332048Y0126307D01*
X0332202Y0126260D01*
X0332355Y0126209D01*
X0332506Y0126154D01*
X0332656Y0126096D01*
X0332804Y0126034D01*
X0332951Y0125968D01*
X0333096Y0125899D01*
X0333239Y0125826D01*
X0333381Y0125750D01*
X0333520Y0125670D01*
X0333658Y0125587D01*
X0333793Y0125500D01*
X0333927Y0125410D01*
X0334058Y0125317D01*
X0334186Y0125221D01*
X0334312Y0125121D01*
X0334436Y0125018D01*
X0334557Y0124913D01*
X0334676Y0124804D01*
X0334792Y0124693D01*
X0334905Y0124578D01*
X0335015Y0124461D01*
X0335122Y0124341D01*
X0335226Y0124219D01*
X0335327Y0124094D01*
X0335425Y0123966D01*
X0335520Y0123836D01*
X0335612Y0123704D01*
X0335700Y0123570D01*
X0335785Y0123433D01*
X0335867Y0123295D01*
X0335945Y0123154D01*
X0336019Y0123012D01*
X0336090Y0122868D01*
X0336158Y0122722D01*
X0336221Y0122574D01*
X0336282Y0122425D01*
X0336338Y0122274D01*
X0336391Y0122122D01*
X0336440Y0121969D01*
X0336485Y0121815D01*
X0336526Y0121660D01*
X0336564Y0121503D01*
X0336597Y0121346D01*
X0336627Y0121188D01*
X0336653Y0121029D01*
X0336674Y0120870D01*
X0336692Y0120710D01*
X0336706Y0120550D01*
X0336716Y0120389D01*
X0336722Y0120229D01*
X0336724Y0120068D01*
X0336722Y0119907D01*
X0336716Y0119747D01*
X0336706Y0119586D01*
X0336692Y0119426D01*
X0336674Y0119266D01*
X0336653Y0119107D01*
X0336627Y0118948D01*
X0336597Y0118790D01*
X0336564Y0118633D01*
X0336526Y0118476D01*
X0336485Y0118321D01*
X0336440Y0118167D01*
X0336391Y0118014D01*
X0336338Y0117862D01*
X0336282Y0117711D01*
X0336221Y0117562D01*
X0336158Y0117414D01*
X0336090Y0117268D01*
X0336019Y0117124D01*
X0335945Y0116982D01*
X0335867Y0116841D01*
X0335785Y0116703D01*
X0335700Y0116566D01*
X0335612Y0116432D01*
X0335520Y0116300D01*
X0335425Y0116170D01*
X0335327Y0116042D01*
X0335226Y0115917D01*
X0335122Y0115795D01*
X0335015Y0115675D01*
X0334905Y0115558D01*
X0334792Y0115443D01*
X0334676Y0115332D01*
X0334557Y0115223D01*
X0334436Y0115118D01*
X0334312Y0115015D01*
X0334186Y0114915D01*
X0334058Y0114819D01*
X0333927Y0114726D01*
X0333793Y0114636D01*
X0333658Y0114549D01*
X0333520Y0114466D01*
X0333381Y0114386D01*
X0333239Y0114310D01*
X0333096Y0114237D01*
X0332951Y0114168D01*
X0332804Y0114102D01*
X0332656Y0114040D01*
X0332506Y0113982D01*
X0332355Y0113927D01*
X0332202Y0113876D01*
X0332048Y0113829D01*
X0331893Y0113786D01*
X0331737Y0113747D01*
X0331581Y0113711D01*
X0331423Y0113680D01*
X0331265Y0113652D01*
X0331106Y0113628D01*
X0330946Y0113608D01*
X0330786Y0113592D01*
X0330626Y0113580D01*
X0330465Y0113572D01*
X0330304Y0113568D01*
X0330144Y0113568D01*
X0329983Y0113572D01*
X0329822Y0113580D01*
X0329662Y0113592D01*
X0329502Y0113608D01*
X0329342Y0113628D01*
X0329183Y0113652D01*
X0329025Y0113680D01*
X0328867Y0113711D01*
X0328711Y0113747D01*
X0328555Y0113786D01*
X0328400Y0113829D01*
X0328246Y0113876D01*
X0328093Y0113927D01*
X0327942Y0113982D01*
X0327792Y0114040D01*
X0327644Y0114102D01*
X0327497Y0114168D01*
X0327352Y0114237D01*
X0327209Y0114310D01*
X0327067Y0114386D01*
X0326928Y0114466D01*
X0326790Y0114549D01*
X0326655Y0114636D01*
X0326521Y0114726D01*
X0326390Y0114819D01*
X0326262Y0114915D01*
X0326136Y0115015D01*
X0326012Y0115118D01*
X0325891Y0115223D01*
X0325772Y0115332D01*
X0325656Y0115443D01*
X0325543Y0115558D01*
X0325433Y0115675D01*
X0325326Y0115795D01*
X0325222Y0115917D01*
X0325121Y0116042D01*
X0325023Y0116170D01*
X0324928Y0116300D01*
X0324836Y0116432D01*
X0324748Y0116566D01*
X0324663Y0116703D01*
X0324581Y0116841D01*
X0324503Y0116982D01*
X0324429Y0117124D01*
X0324358Y0117268D01*
X0324290Y0117414D01*
X0324227Y0117562D01*
X0324166Y0117711D01*
X0324110Y0117862D01*
X0324057Y0118014D01*
X0324008Y0118167D01*
X0323963Y0118321D01*
X0323922Y0118476D01*
X0323884Y0118633D01*
X0323851Y0118790D01*
X0323821Y0118948D01*
X0323795Y0119107D01*
X0323774Y0119266D01*
X0323756Y0119426D01*
X0323742Y0119586D01*
X0323732Y0119747D01*
X0323726Y0119907D01*
X0323724Y0120068D01*
D11*
X0060974Y0121150D02*
X0060974Y0128950D01*
X0037474Y0129150D02*
X0037474Y0136950D01*
X0013974Y0128950D02*
X0013974Y0121150D01*
X0013974Y0080950D02*
X0013974Y0073150D01*
X0060974Y0073150D02*
X0060974Y0080950D01*
D12*
X0164974Y0062646D03*
X0164974Y0055954D03*
X0181224Y0092204D03*
X0181224Y0098896D03*
D13*
X0201974Y0081800D02*
X0207974Y0081800D01*
X0207974Y0071800D02*
X0201974Y0071800D01*
X0201974Y0061800D02*
X0207974Y0061800D01*
X0207974Y0051800D02*
X0201974Y0051800D01*
X0201224Y0029800D02*
X0201224Y0023800D01*
X0191224Y0023800D02*
X0191224Y0029800D01*
X0211224Y0029800D02*
X0211224Y0023800D01*
X0040474Y0160550D02*
X0034474Y0160550D01*
X0034474Y0200550D02*
X0040474Y0200550D01*
D14*
X0041799Y0216800D02*
X0050649Y0216800D01*
X0101799Y0216800D02*
X0110649Y0216800D01*
D15*
X0257924Y0130068D02*
X0264524Y0130068D01*
X0264524Y0120068D02*
X0257924Y0120068D01*
X0257924Y0110068D02*
X0264524Y0110068D01*
X0261224Y0110068D02*
X0261224Y0050078D01*
X0260211Y0049064D01*
D16*
X0179974Y0144300D03*
D17*
X0179974Y0184300D03*
D18*
X0096224Y0195800D03*
X0096224Y0087800D03*
D19*
X0087632Y0035325D02*
X0087632Y0028275D01*
X0107317Y0028275D02*
X0107317Y0035325D01*
X0062317Y0035325D02*
X0062317Y0028275D01*
X0042632Y0028275D02*
X0042632Y0035325D01*
D20*
X0170959Y0055481D03*
X0173518Y0055481D03*
X0176077Y0055481D03*
X0178636Y0055481D03*
X0181195Y0055481D03*
X0183754Y0055481D03*
X0186313Y0055481D03*
X0188872Y0055481D03*
X0191431Y0055481D03*
X0193990Y0055481D03*
X0193990Y0078119D03*
X0191431Y0078119D03*
X0188872Y0078119D03*
X0186313Y0078119D03*
X0183754Y0078119D03*
X0181195Y0078119D03*
X0178636Y0078119D03*
X0176077Y0078119D03*
X0173518Y0078119D03*
X0170959Y0078119D03*
D21*
X0189974Y0092204D03*
X0189974Y0098896D03*
X0183724Y0043896D03*
X0183724Y0037204D03*
X0153724Y0035954D03*
X0153724Y0042646D03*
X0121224Y0025146D03*
X0121224Y0018454D03*
D22*
X0172474Y0086202D03*
X0172474Y0097398D03*
D23*
X0136224Y0061800D03*
D24*
X0127228Y0033532D03*
X0145220Y0033532D03*
D25*
X0144167Y0028050D03*
X0144167Y0019300D03*
X0130781Y0019300D03*
X0130781Y0028050D03*
D26*
X0232474Y0091800D03*
D27*
X0142474Y0090250D02*
X0142474Y0095850D01*
X0132474Y0095850D02*
X0132474Y0090250D01*
D28*
X0158724Y0103050D03*
X0158724Y0063050D03*
D29*
X0238695Y0027548D03*
X0018222Y0027548D03*
X0018222Y0212587D03*
X0238695Y0212587D03*
D30*
X0179974Y0144300D02*
X0158724Y0123050D01*
X0158724Y0103050D01*
X0166224Y0103050D02*
X0203724Y0103050D01*
X0218724Y0088050D01*
X0218724Y0078050D01*
X0276265Y0078050D01*
X0276265Y0013600D01*
X0056224Y0013600D01*
X0056224Y0040550D01*
X0058159Y0042700D01*
X0063705Y0042700D01*
X0082477Y0023928D01*
X0085822Y0022543D01*
X0089442Y0022543D01*
X0092787Y0023928D01*
X0095346Y0026488D01*
X0096732Y0029832D01*
X0096732Y0033610D01*
X0096112Y0035107D01*
X0102268Y0041263D01*
X0112755Y0041263D01*
X0121691Y0031397D01*
X0121691Y0030860D01*
X0121659Y0030683D01*
X0120123Y0030683D01*
X0118088Y0029840D01*
X0116530Y0028283D01*
X0115687Y0026248D01*
X0115687Y0024045D01*
X0116530Y0022010D01*
X0117504Y0021036D01*
X0117456Y0020856D01*
X0117456Y0018638D01*
X0121040Y0018638D01*
X0121040Y0018269D01*
X0121409Y0018269D01*
X0121409Y0018638D01*
X0124993Y0018638D01*
X0124993Y0019609D01*
X0125244Y0019609D01*
X0125244Y0018199D01*
X0126087Y0016164D01*
X0126426Y0015825D01*
X0126426Y0015094D01*
X0127363Y0014157D01*
X0128730Y0014157D01*
X0129680Y0013763D01*
X0131883Y0013763D01*
X0132833Y0014157D01*
X0134200Y0014157D01*
X0135137Y0015094D01*
X0135137Y0015825D01*
X0135475Y0016164D01*
X0136318Y0018199D01*
X0136318Y0027544D01*
X0136426Y0028129D01*
X0136318Y0028634D01*
X0136318Y0029151D01*
X0136091Y0029701D01*
X0135967Y0030283D01*
X0135673Y0030709D01*
X0135475Y0031186D01*
X0135137Y0031525D01*
X0135137Y0032256D01*
X0134200Y0033193D01*
X0133026Y0033193D01*
X0132765Y0033363D01*
X0132765Y0033395D01*
X0132813Y0034359D01*
X0132765Y0034492D01*
X0132765Y0034634D01*
X0132396Y0035525D01*
X0132071Y0036433D01*
X0131978Y0036536D01*
X0131978Y0040101D01*
X0131041Y0041038D01*
X0127901Y0041038D01*
X0119959Y0049806D01*
X0119905Y0049936D01*
X0119223Y0050618D01*
X0118575Y0051333D01*
X0118447Y0051394D01*
X0118347Y0051494D01*
X0117456Y0051863D01*
X0116584Y0052276D01*
X0116443Y0052283D01*
X0116312Y0052337D01*
X0115347Y0052337D01*
X0114384Y0052385D01*
X0114251Y0052337D01*
X0104471Y0052337D01*
X0109848Y0057714D01*
X0110274Y0058743D01*
X0110274Y0067036D01*
X0110510Y0067271D01*
X0111055Y0068588D01*
X0111055Y0070012D01*
X0110510Y0071329D01*
X0109503Y0072336D01*
X0108187Y0072881D01*
X0106762Y0072881D01*
X0105446Y0072336D01*
X0104438Y0071329D01*
X0103893Y0070012D01*
X0103893Y0068588D01*
X0104438Y0067271D01*
X0104674Y0067036D01*
X0104674Y0060460D01*
X0098346Y0054131D01*
X0098012Y0054131D01*
X0096696Y0053586D01*
X0095688Y0052579D01*
X0095143Y0051262D01*
X0095143Y0049838D01*
X0095154Y0049811D01*
X0088744Y0043400D01*
X0075189Y0056955D01*
X0072978Y0059165D01*
X0088939Y0076900D01*
X0124202Y0076900D01*
X0125084Y0077265D01*
X0125868Y0078050D01*
X0150074Y0078050D01*
X0150074Y0050073D01*
X0150440Y0049191D01*
X0151115Y0048515D01*
X0153018Y0046612D01*
X0151519Y0046612D01*
X0151061Y0046489D01*
X0150651Y0046252D01*
X0150315Y0045917D01*
X0150078Y0045507D01*
X0149956Y0045049D01*
X0149956Y0042831D01*
X0153540Y0042831D01*
X0153540Y0042462D01*
X0149956Y0042462D01*
X0149956Y0041491D01*
X0149454Y0041491D01*
X0148926Y0041599D01*
X0148363Y0041491D01*
X0147790Y0041491D01*
X0147292Y0041284D01*
X0146763Y0041182D01*
X0146544Y0041038D01*
X0141408Y0041038D01*
X0140471Y0040101D01*
X0140471Y0036535D01*
X0140320Y0036171D01*
X0140018Y0035724D01*
X0139903Y0035163D01*
X0139683Y0034634D01*
X0139683Y0034094D01*
X0139575Y0033566D01*
X0139683Y0033004D01*
X0139683Y0031397D01*
X0139473Y0031186D01*
X0138630Y0029151D01*
X0138630Y0026949D01*
X0139473Y0024914D01*
X0139811Y0024575D01*
X0139811Y0023844D01*
X0139874Y0023781D01*
X0139734Y0023538D01*
X0139611Y0023080D01*
X0139611Y0019878D01*
X0143589Y0019878D01*
X0143589Y0018722D01*
X0139611Y0018722D01*
X0139611Y0015520D01*
X0139734Y0015062D01*
X0139971Y0014651D01*
X0140306Y0014316D01*
X0140717Y0014079D01*
X0141174Y0013957D01*
X0143589Y0013957D01*
X0143589Y0018722D01*
X0144745Y0018722D01*
X0144745Y0013957D01*
X0147160Y0013957D01*
X0147618Y0014079D01*
X0148028Y0014316D01*
X0148364Y0014651D01*
X0148600Y0015062D01*
X0148723Y0015520D01*
X0148723Y0018722D01*
X0144745Y0018722D01*
X0144745Y0019878D01*
X0148723Y0019878D01*
X0148723Y0023080D01*
X0148600Y0023538D01*
X0148460Y0023781D01*
X0148523Y0023844D01*
X0148523Y0024575D01*
X0149914Y0025967D01*
X0150757Y0028002D01*
X0150757Y0030417D01*
X0154826Y0030417D01*
X0156861Y0031259D01*
X0158418Y0032817D01*
X0158558Y0033154D01*
X0173435Y0033154D01*
X0174464Y0033580D01*
X0179956Y0039072D01*
X0179956Y0037388D01*
X0183540Y0037388D01*
X0183540Y0037019D01*
X0183909Y0037019D01*
X0183909Y0037388D01*
X0187493Y0037388D01*
X0187493Y0039606D01*
X0187370Y0040064D01*
X0187133Y0040474D01*
X0186916Y0040691D01*
X0187293Y0041068D01*
X0187293Y0044837D01*
X0188824Y0043306D01*
X0188824Y0033785D01*
X0188619Y0033700D01*
X0187325Y0032406D01*
X0186624Y0030715D01*
X0186624Y0022885D01*
X0187325Y0021194D01*
X0188619Y0019900D01*
X0190309Y0019200D01*
X0192139Y0019200D01*
X0193830Y0019900D01*
X0195124Y0021194D01*
X0195824Y0022885D01*
X0195824Y0030715D01*
X0195124Y0032406D01*
X0193830Y0033700D01*
X0193624Y0033785D01*
X0193624Y0043506D01*
X0199190Y0037941D01*
X0199865Y0037265D01*
X0200747Y0036900D01*
X0205230Y0036900D01*
X0208525Y0033606D01*
X0207325Y0032406D01*
X0206624Y0030715D01*
X0206624Y0022885D01*
X0207325Y0021194D01*
X0208619Y0019900D01*
X0210309Y0019200D01*
X0212139Y0019200D01*
X0213830Y0019900D01*
X0215124Y0021194D01*
X0215824Y0022885D01*
X0215824Y0030715D01*
X0215124Y0032406D01*
X0213830Y0033700D01*
X0213624Y0033785D01*
X0213624Y0034777D01*
X0213259Y0035659D01*
X0212584Y0036335D01*
X0207584Y0041335D01*
X0206702Y0041700D01*
X0202218Y0041700D01*
X0192695Y0051224D01*
X0195440Y0051224D01*
X0196377Y0052161D01*
X0196377Y0054973D01*
X0196390Y0055004D01*
X0196390Y0057322D01*
X0198169Y0059100D01*
X0199369Y0057900D01*
X0201059Y0057200D01*
X0208889Y0057200D01*
X0210580Y0057900D01*
X0211874Y0059194D01*
X0212574Y0060885D01*
X0212574Y0062715D01*
X0211874Y0064406D01*
X0210580Y0065700D01*
X0208889Y0066400D01*
X0201059Y0066400D01*
X0199369Y0065700D01*
X0198075Y0064406D01*
X0197989Y0064200D01*
X0196997Y0064200D01*
X0196115Y0063835D01*
X0195440Y0063159D01*
X0193831Y0061551D01*
X0193831Y0062263D01*
X0199439Y0067871D01*
X0201059Y0067200D01*
X0208889Y0067200D01*
X0210580Y0067900D01*
X0211874Y0069194D01*
X0212574Y0070885D01*
X0212574Y0072715D01*
X0211874Y0074406D01*
X0210580Y0075700D01*
X0208889Y0076400D01*
X0201059Y0076400D01*
X0199369Y0075700D01*
X0198075Y0074406D01*
X0197374Y0072715D01*
X0197374Y0072594D01*
X0189396Y0064616D01*
X0189031Y0063734D01*
X0189031Y0059739D01*
X0186124Y0059739D01*
X0186124Y0073861D01*
X0192374Y0073861D01*
X0192508Y0073784D01*
X0192966Y0073661D01*
X0193990Y0073661D01*
X0193990Y0078119D01*
X0193990Y0082576D01*
X0192966Y0082576D01*
X0192508Y0082454D01*
X0192374Y0082376D01*
X0190195Y0082376D01*
X0190968Y0083150D01*
X0197555Y0083150D01*
X0197374Y0082715D01*
X0197374Y0080885D01*
X0198075Y0079194D01*
X0199369Y0077900D01*
X0201059Y0077200D01*
X0208889Y0077200D01*
X0210580Y0077900D01*
X0211874Y0079194D01*
X0212574Y0080885D01*
X0212574Y0082715D01*
X0211874Y0084406D01*
X0210580Y0085700D01*
X0208889Y0086400D01*
X0203768Y0086400D01*
X0202584Y0087585D01*
X0201702Y0087950D01*
X0190768Y0087950D01*
X0191257Y0088438D01*
X0192606Y0088438D01*
X0193543Y0089375D01*
X0193543Y0095032D01*
X0193166Y0095409D01*
X0193383Y0095626D01*
X0193620Y0096036D01*
X0193743Y0096494D01*
X0193743Y0098712D01*
X0190159Y0098712D01*
X0190159Y0099081D01*
X0193743Y0099081D01*
X0193743Y0101299D01*
X0193620Y0101757D01*
X0193383Y0102167D01*
X0193048Y0102502D01*
X0192638Y0102739D01*
X0192180Y0102862D01*
X0190159Y0102862D01*
X0190159Y0099081D01*
X0189790Y0099081D01*
X0189790Y0102862D01*
X0187769Y0102862D01*
X0187311Y0102739D01*
X0186901Y0102502D01*
X0186565Y0102167D01*
X0186328Y0101757D01*
X0186206Y0101299D01*
X0186206Y0099081D01*
X0189790Y0099081D01*
X0189790Y0098712D01*
X0186206Y0098712D01*
X0186206Y0096494D01*
X0186328Y0096036D01*
X0186565Y0095626D01*
X0186783Y0095409D01*
X0186406Y0095032D01*
X0186406Y0090376D01*
X0181719Y0085689D01*
X0181354Y0084807D01*
X0181354Y0082376D01*
X0177611Y0082376D01*
X0177624Y0082389D01*
X0177624Y0089125D01*
X0177954Y0088795D01*
X0178364Y0088558D01*
X0178822Y0088435D01*
X0181040Y0088435D01*
X0181040Y0092019D01*
X0181409Y0092019D01*
X0181409Y0092388D01*
X0185190Y0092388D01*
X0185190Y0094409D01*
X0185067Y0094867D01*
X0184830Y0095277D01*
X0184495Y0095612D01*
X0184395Y0095670D01*
X0184990Y0096265D01*
X0184990Y0101528D01*
X0184052Y0102465D01*
X0178396Y0102465D01*
X0177459Y0101528D01*
X0177459Y0101375D01*
X0176686Y0102148D01*
X0168262Y0102148D01*
X0167325Y0101211D01*
X0167325Y0099958D01*
X0167249Y0099825D01*
X0167232Y0099688D01*
X0167177Y0099561D01*
X0167173Y0099218D01*
X0167130Y0098877D01*
X0167166Y0098745D01*
X0167165Y0098607D01*
X0167292Y0098288D01*
X0167325Y0098166D01*
X0167325Y0093586D01*
X0168262Y0092649D01*
X0176686Y0092649D01*
X0177259Y0093222D01*
X0177259Y0092388D01*
X0181040Y0092388D01*
X0181040Y0092019D01*
X0177259Y0092019D01*
X0177259Y0090378D01*
X0176686Y0090951D01*
X0168262Y0090951D01*
X0167325Y0090014D01*
X0167325Y0082389D01*
X0168262Y0081452D01*
X0168559Y0081452D01*
X0168559Y0077641D01*
X0168571Y0077611D01*
X0168571Y0074799D01*
X0169508Y0073861D01*
X0181324Y0073861D01*
X0181324Y0059939D01*
X0181195Y0059939D01*
X0181195Y0055481D01*
X0181195Y0051024D01*
X0181354Y0051024D01*
X0181354Y0047662D01*
X0181093Y0047662D01*
X0180156Y0046725D01*
X0180156Y0046652D01*
X0179235Y0046270D01*
X0178447Y0045483D01*
X0171718Y0038754D01*
X0158558Y0038754D01*
X0158418Y0039090D01*
X0157445Y0040064D01*
X0157493Y0040244D01*
X0157493Y0042462D01*
X0153909Y0042462D01*
X0153909Y0042831D01*
X0157493Y0042831D01*
X0157493Y0045049D01*
X0157370Y0045507D01*
X0157287Y0045650D01*
X0175452Y0045650D01*
X0176334Y0046015D01*
X0177009Y0046691D01*
X0180670Y0050352D01*
X0180949Y0051024D01*
X0181195Y0051024D01*
X0181195Y0055481D01*
X0181195Y0055481D01*
X0181195Y0055481D01*
X0181195Y0059939D01*
X0180170Y0059939D01*
X0179713Y0059816D01*
X0179579Y0059739D01*
X0175918Y0059739D01*
X0175918Y0060179D01*
X0176760Y0061021D01*
X0177305Y0062338D01*
X0177305Y0063762D01*
X0176760Y0065079D01*
X0175753Y0066086D01*
X0174437Y0066631D01*
X0173012Y0066631D01*
X0171696Y0066086D01*
X0170688Y0065079D01*
X0170143Y0063762D01*
X0170143Y0062338D01*
X0170688Y0061021D01*
X0171118Y0060592D01*
X0171118Y0059739D01*
X0169508Y0059739D01*
X0168571Y0058801D01*
X0168571Y0058753D01*
X0168145Y0059180D01*
X0168245Y0059238D01*
X0168580Y0059573D01*
X0168817Y0059983D01*
X0168940Y0060441D01*
X0168940Y0062462D01*
X0165159Y0062462D01*
X0165159Y0062831D01*
X0168940Y0062831D01*
X0168940Y0064852D01*
X0168817Y0065310D01*
X0168580Y0065720D01*
X0168245Y0066055D01*
X0167834Y0066292D01*
X0167377Y0066415D01*
X0165159Y0066415D01*
X0165159Y0062831D01*
X0164790Y0062831D01*
X0164790Y0066415D01*
X0162572Y0066415D01*
X0162114Y0066292D01*
X0161704Y0066055D01*
X0161681Y0066033D01*
X0160464Y0067250D01*
X0156985Y0067250D01*
X0154874Y0065140D01*
X0154874Y0070550D01*
X0166224Y0070550D01*
X0166224Y0103050D01*
X0166224Y0102915D02*
X0203859Y0102915D01*
X0205458Y0101317D02*
X0193738Y0101317D01*
X0193743Y0099718D02*
X0207056Y0099718D01*
X0208655Y0098120D02*
X0193743Y0098120D01*
X0193743Y0096521D02*
X0210253Y0096521D01*
X0211852Y0094923D02*
X0193543Y0094923D01*
X0193543Y0093324D02*
X0213450Y0093324D01*
X0215049Y0091726D02*
X0193543Y0091726D01*
X0193543Y0090127D02*
X0216647Y0090127D01*
X0218246Y0088529D02*
X0192696Y0088529D01*
X0189974Y0090550D02*
X0189974Y0092204D01*
X0189974Y0090550D02*
X0183754Y0084330D01*
X0183754Y0078119D01*
X0183724Y0078089D01*
X0183724Y0055511D01*
X0183754Y0055481D01*
X0183754Y0045176D01*
X0183724Y0043896D01*
X0187293Y0043770D02*
X0188360Y0043770D01*
X0188824Y0042172D02*
X0187293Y0042172D01*
X0187034Y0040573D02*
X0188824Y0040573D01*
X0188824Y0038975D02*
X0187493Y0038975D01*
X0187493Y0037019D02*
X0183909Y0037019D01*
X0183909Y0033238D01*
X0185930Y0033238D01*
X0186388Y0033361D01*
X0186798Y0033598D01*
X0187133Y0033933D01*
X0187370Y0034343D01*
X0187493Y0034801D01*
X0187493Y0037019D01*
X0187493Y0035778D02*
X0188824Y0035778D01*
X0188824Y0037376D02*
X0183909Y0037376D01*
X0183540Y0037376D02*
X0178260Y0037376D01*
X0179956Y0037019D02*
X0179956Y0034801D01*
X0180078Y0034343D01*
X0180315Y0033933D01*
X0180651Y0033598D01*
X0181061Y0033361D01*
X0181519Y0033238D01*
X0183540Y0033238D01*
X0183540Y0037019D01*
X0179956Y0037019D01*
X0179956Y0035778D02*
X0176662Y0035778D01*
X0175063Y0034179D02*
X0180173Y0034179D01*
X0183540Y0034179D02*
X0183909Y0034179D01*
X0183909Y0035778D02*
X0183540Y0035778D01*
X0187275Y0034179D02*
X0188824Y0034179D01*
X0187500Y0032581D02*
X0158182Y0032581D01*
X0156191Y0030982D02*
X0186735Y0030982D01*
X0186624Y0029384D02*
X0150757Y0029384D01*
X0150668Y0027785D02*
X0186624Y0027785D01*
X0186624Y0026187D02*
X0150006Y0026187D01*
X0148536Y0024588D02*
X0186624Y0024588D01*
X0186624Y0022990D02*
X0148723Y0022990D01*
X0148723Y0021391D02*
X0187243Y0021391D01*
X0188879Y0019793D02*
X0144745Y0019793D01*
X0143589Y0019793D02*
X0136318Y0019793D01*
X0136318Y0021391D02*
X0139611Y0021391D01*
X0139611Y0022990D02*
X0136318Y0022990D01*
X0136318Y0024588D02*
X0139799Y0024588D01*
X0138946Y0026187D02*
X0136318Y0026187D01*
X0136363Y0027785D02*
X0138630Y0027785D01*
X0138726Y0029384D02*
X0136222Y0029384D01*
X0135560Y0030982D02*
X0139389Y0030982D01*
X0139683Y0032581D02*
X0134813Y0032581D01*
X0132804Y0034179D02*
X0139683Y0034179D01*
X0140054Y0035778D02*
X0132306Y0035778D01*
X0131978Y0037376D02*
X0140471Y0037376D01*
X0140471Y0038975D02*
X0131978Y0038975D01*
X0131505Y0040573D02*
X0140943Y0040573D01*
X0137024Y0047795D02*
X0147879Y0047795D01*
X0148336Y0047918D01*
X0148747Y0048155D01*
X0149082Y0048490D01*
X0149319Y0048900D01*
X0149442Y0049358D01*
X0149442Y0061000D01*
X0137024Y0061000D01*
X0137024Y0047795D01*
X0137024Y0048566D02*
X0135424Y0048566D01*
X0135424Y0047795D02*
X0135424Y0061000D01*
X0123007Y0061000D01*
X0123007Y0049358D01*
X0123130Y0048900D01*
X0123367Y0048490D01*
X0123702Y0048155D01*
X0124112Y0047918D01*
X0124570Y0047795D01*
X0135424Y0047795D01*
X0135424Y0050164D02*
X0137024Y0050164D01*
X0137024Y0051763D02*
X0135424Y0051763D01*
X0135424Y0053361D02*
X0137024Y0053361D01*
X0137024Y0054960D02*
X0135424Y0054960D01*
X0135424Y0056558D02*
X0137024Y0056558D01*
X0137024Y0058157D02*
X0135424Y0058157D01*
X0135424Y0059755D02*
X0137024Y0059755D01*
X0137024Y0061000D02*
X0135424Y0061000D01*
X0135424Y0062600D01*
X0123007Y0062600D01*
X0123007Y0074242D01*
X0123130Y0074699D01*
X0123367Y0075110D01*
X0123702Y0075445D01*
X0124112Y0075682D01*
X0124570Y0075805D01*
X0135424Y0075805D01*
X0135424Y0062600D01*
X0137024Y0062600D01*
X0137024Y0075805D01*
X0147879Y0075805D01*
X0148336Y0075682D01*
X0148747Y0075445D01*
X0149082Y0075110D01*
X0149319Y0074699D01*
X0149442Y0074242D01*
X0149442Y0062600D01*
X0137024Y0062600D01*
X0137024Y0061000D01*
X0137024Y0061354D02*
X0150074Y0061354D01*
X0150074Y0062952D02*
X0149442Y0062952D01*
X0149442Y0064551D02*
X0150074Y0064551D01*
X0150074Y0066149D02*
X0149442Y0066149D01*
X0149442Y0067748D02*
X0150074Y0067748D01*
X0150074Y0069346D02*
X0149442Y0069346D01*
X0149442Y0070945D02*
X0150074Y0070945D01*
X0150074Y0072543D02*
X0149442Y0072543D01*
X0149442Y0074142D02*
X0150074Y0074142D01*
X0150074Y0075740D02*
X0148118Y0075740D01*
X0150074Y0077339D02*
X0125157Y0077339D01*
X0124330Y0075740D02*
X0087896Y0075740D01*
X0086457Y0074142D02*
X0123007Y0074142D01*
X0123007Y0072543D02*
X0109002Y0072543D01*
X0110669Y0070945D02*
X0123007Y0070945D01*
X0123007Y0069346D02*
X0111055Y0069346D01*
X0110708Y0067748D02*
X0123007Y0067748D01*
X0123007Y0066149D02*
X0110274Y0066149D01*
X0110274Y0064551D02*
X0123007Y0064551D01*
X0123007Y0062952D02*
X0110274Y0062952D01*
X0110274Y0061354D02*
X0135424Y0061354D01*
X0135424Y0062952D02*
X0137024Y0062952D01*
X0137024Y0064551D02*
X0135424Y0064551D01*
X0135424Y0066149D02*
X0137024Y0066149D01*
X0137024Y0067748D02*
X0135424Y0067748D01*
X0135424Y0069346D02*
X0137024Y0069346D01*
X0137024Y0070945D02*
X0135424Y0070945D01*
X0135424Y0072543D02*
X0137024Y0072543D01*
X0137024Y0074142D02*
X0135424Y0074142D01*
X0135424Y0075740D02*
X0137024Y0075740D01*
X0132474Y0088050D02*
X0123724Y0079300D01*
X0082474Y0079300D01*
X0073724Y0070550D01*
X0079264Y0066149D02*
X0104674Y0066149D01*
X0104674Y0064551D02*
X0077825Y0064551D01*
X0076386Y0062952D02*
X0104674Y0062952D01*
X0104674Y0061354D02*
X0074948Y0061354D01*
X0073509Y0059755D02*
X0103970Y0059755D01*
X0102371Y0058157D02*
X0073987Y0058157D01*
X0075585Y0056558D02*
X0100773Y0056558D01*
X0099174Y0054960D02*
X0077184Y0054960D01*
X0078782Y0053361D02*
X0096471Y0053361D01*
X0095351Y0051763D02*
X0080381Y0051763D01*
X0081979Y0050164D02*
X0095143Y0050164D01*
X0093910Y0048566D02*
X0083578Y0048566D01*
X0085176Y0046967D02*
X0092311Y0046967D01*
X0090713Y0045369D02*
X0086775Y0045369D01*
X0088373Y0043770D02*
X0089114Y0043770D01*
X0096782Y0035778D02*
X0101997Y0035778D01*
X0101992Y0035744D02*
X0101992Y0032175D01*
X0106942Y0032175D01*
X0106942Y0040650D01*
X0106898Y0040650D01*
X0106070Y0040519D01*
X0105273Y0040260D01*
X0104526Y0039879D01*
X0103848Y0039387D01*
X0103255Y0038794D01*
X0102762Y0038116D01*
X0102382Y0037369D01*
X0102123Y0036572D01*
X0101992Y0035744D01*
X0101992Y0034179D02*
X0096496Y0034179D01*
X0096732Y0032581D02*
X0101992Y0032581D01*
X0101992Y0031425D02*
X0101992Y0027856D01*
X0102123Y0027028D01*
X0102382Y0026231D01*
X0102762Y0025484D01*
X0103255Y0024806D01*
X0103848Y0024213D01*
X0104526Y0023721D01*
X0105273Y0023340D01*
X0106070Y0023081D01*
X0106898Y0022950D01*
X0106942Y0022950D01*
X0106942Y0031425D01*
X0107692Y0031425D01*
X0107692Y0032175D01*
X0112642Y0032175D01*
X0112642Y0035744D01*
X0112511Y0036572D01*
X0112252Y0037369D01*
X0111871Y0038116D01*
X0111379Y0038794D01*
X0110786Y0039387D01*
X0110108Y0039879D01*
X0109361Y0040260D01*
X0108564Y0040519D01*
X0107736Y0040650D01*
X0107692Y0040650D01*
X0107692Y0032175D01*
X0106942Y0032175D01*
X0106942Y0031425D01*
X0101992Y0031425D01*
X0101992Y0030982D02*
X0096732Y0030982D01*
X0096546Y0029384D02*
X0101992Y0029384D01*
X0102003Y0027785D02*
X0095884Y0027785D01*
X0095045Y0026187D02*
X0102405Y0026187D01*
X0103473Y0024588D02*
X0093447Y0024588D01*
X0090521Y0022990D02*
X0106648Y0022990D01*
X0106942Y0022990D02*
X0107692Y0022990D01*
X0107692Y0022950D02*
X0107736Y0022950D01*
X0108564Y0023081D01*
X0109361Y0023340D01*
X0110108Y0023721D01*
X0110786Y0024213D01*
X0111379Y0024806D01*
X0111871Y0025484D01*
X0112252Y0026231D01*
X0112511Y0027028D01*
X0112642Y0027856D01*
X0112642Y0031425D01*
X0107692Y0031425D01*
X0107692Y0022950D01*
X0107986Y0022990D02*
X0116125Y0022990D01*
X0115687Y0024588D02*
X0111161Y0024588D01*
X0112229Y0026187D02*
X0115687Y0026187D01*
X0116324Y0027785D02*
X0112631Y0027785D01*
X0112642Y0029384D02*
X0117631Y0029384D01*
X0121691Y0030982D02*
X0112642Y0030982D01*
X0112642Y0032581D02*
X0120619Y0032581D01*
X0119172Y0034179D02*
X0112642Y0034179D01*
X0112637Y0035778D02*
X0117724Y0035778D01*
X0116276Y0037376D02*
X0112248Y0037376D01*
X0111198Y0038975D02*
X0114828Y0038975D01*
X0113380Y0040573D02*
X0108221Y0040573D01*
X0107692Y0040573D02*
X0106942Y0040573D01*
X0106413Y0040573D02*
X0101578Y0040573D01*
X0099980Y0038975D02*
X0103436Y0038975D01*
X0102386Y0037376D02*
X0098381Y0037376D01*
X0106942Y0037376D02*
X0107692Y0037376D01*
X0107692Y0035778D02*
X0106942Y0035778D01*
X0106942Y0034179D02*
X0107692Y0034179D01*
X0107692Y0032581D02*
X0106942Y0032581D01*
X0106942Y0030982D02*
X0107692Y0030982D01*
X0107692Y0029384D02*
X0106942Y0029384D01*
X0106942Y0027785D02*
X0107692Y0027785D01*
X0107692Y0026187D02*
X0106942Y0026187D01*
X0106942Y0024588D02*
X0107692Y0024588D01*
X0117149Y0021391D02*
X0056224Y0021391D01*
X0056224Y0019793D02*
X0117456Y0019793D01*
X0117456Y0018269D02*
X0117456Y0016051D01*
X0117578Y0015593D01*
X0117815Y0015183D01*
X0118151Y0014848D01*
X0118561Y0014611D01*
X0119019Y0014488D01*
X0121040Y0014488D01*
X0121040Y0018269D01*
X0117456Y0018269D01*
X0117456Y0018194D02*
X0056224Y0018194D01*
X0056224Y0016596D02*
X0117456Y0016596D01*
X0118001Y0014997D02*
X0056224Y0014997D01*
X0056224Y0022990D02*
X0061648Y0022990D01*
X0061898Y0022950D02*
X0061942Y0022950D01*
X0061942Y0031425D01*
X0062692Y0031425D01*
X0062692Y0032175D01*
X0067642Y0032175D01*
X0067642Y0035744D01*
X0067511Y0036572D01*
X0067252Y0037369D01*
X0066871Y0038116D01*
X0066379Y0038794D01*
X0065786Y0039387D01*
X0065108Y0039879D01*
X0064361Y0040260D01*
X0063564Y0040519D01*
X0062736Y0040650D01*
X0062692Y0040650D01*
X0062692Y0032175D01*
X0061942Y0032175D01*
X0061942Y0040650D01*
X0061898Y0040650D01*
X0061070Y0040519D01*
X0060273Y0040260D01*
X0059526Y0039879D01*
X0058848Y0039387D01*
X0058255Y0038794D01*
X0057762Y0038116D01*
X0057382Y0037369D01*
X0057123Y0036572D01*
X0056992Y0035744D01*
X0056992Y0032175D01*
X0061942Y0032175D01*
X0061942Y0031425D01*
X0056992Y0031425D01*
X0056992Y0027856D01*
X0057123Y0027028D01*
X0057382Y0026231D01*
X0057762Y0025484D01*
X0058255Y0024806D01*
X0058848Y0024213D01*
X0059526Y0023721D01*
X0060273Y0023340D01*
X0061070Y0023081D01*
X0061898Y0022950D01*
X0061942Y0022990D02*
X0062692Y0022990D01*
X0062692Y0022950D02*
X0062736Y0022950D01*
X0063564Y0023081D01*
X0064361Y0023340D01*
X0065108Y0023721D01*
X0065786Y0024213D01*
X0066379Y0024806D01*
X0066871Y0025484D01*
X0067252Y0026231D01*
X0067511Y0027028D01*
X0067642Y0027856D01*
X0067642Y0031425D01*
X0062692Y0031425D01*
X0062692Y0022950D01*
X0062986Y0022990D02*
X0084742Y0022990D01*
X0081817Y0024588D02*
X0066161Y0024588D01*
X0067229Y0026187D02*
X0080218Y0026187D01*
X0078620Y0027785D02*
X0067631Y0027785D01*
X0067642Y0029384D02*
X0077021Y0029384D01*
X0075423Y0030982D02*
X0067642Y0030982D01*
X0067642Y0032581D02*
X0073824Y0032581D01*
X0072226Y0034179D02*
X0067642Y0034179D01*
X0067637Y0035778D02*
X0070627Y0035778D01*
X0069029Y0037376D02*
X0067248Y0037376D01*
X0067430Y0038975D02*
X0066198Y0038975D01*
X0065832Y0040573D02*
X0063221Y0040573D01*
X0062692Y0040573D02*
X0061942Y0040573D01*
X0061413Y0040573D02*
X0056245Y0040573D01*
X0056224Y0038975D02*
X0058436Y0038975D01*
X0057386Y0037376D02*
X0056224Y0037376D01*
X0056224Y0035778D02*
X0056997Y0035778D01*
X0056992Y0034179D02*
X0056224Y0034179D01*
X0056224Y0032581D02*
X0056992Y0032581D01*
X0056992Y0030982D02*
X0056224Y0030982D01*
X0056224Y0029384D02*
X0056992Y0029384D01*
X0057003Y0027785D02*
X0056224Y0027785D01*
X0056224Y0026187D02*
X0057405Y0026187D01*
X0058473Y0024588D02*
X0056224Y0024588D01*
X0061942Y0024588D02*
X0062692Y0024588D01*
X0062692Y0026187D02*
X0061942Y0026187D01*
X0061942Y0027785D02*
X0062692Y0027785D01*
X0062692Y0029384D02*
X0061942Y0029384D01*
X0061942Y0030982D02*
X0062692Y0030982D01*
X0062692Y0032581D02*
X0061942Y0032581D01*
X0061942Y0034179D02*
X0062692Y0034179D01*
X0062692Y0035778D02*
X0061942Y0035778D01*
X0061942Y0037376D02*
X0062692Y0037376D01*
X0062692Y0038975D02*
X0061942Y0038975D01*
X0064233Y0042172D02*
X0057684Y0042172D01*
X0080702Y0067748D02*
X0104241Y0067748D01*
X0103893Y0069346D02*
X0082141Y0069346D01*
X0083580Y0070945D02*
X0104280Y0070945D01*
X0105947Y0072543D02*
X0085018Y0072543D01*
X0110274Y0059755D02*
X0123007Y0059755D01*
X0123007Y0058157D02*
X0110032Y0058157D01*
X0108692Y0056558D02*
X0123007Y0056558D01*
X0123007Y0054960D02*
X0107094Y0054960D01*
X0105495Y0053361D02*
X0123007Y0053361D01*
X0123007Y0051763D02*
X0117698Y0051763D01*
X0119677Y0050164D02*
X0123007Y0050164D01*
X0123323Y0048566D02*
X0121082Y0048566D01*
X0122530Y0046967D02*
X0152663Y0046967D01*
X0151064Y0048566D02*
X0149126Y0048566D01*
X0149442Y0050164D02*
X0150074Y0050164D01*
X0150074Y0051763D02*
X0149442Y0051763D01*
X0149442Y0053361D02*
X0150074Y0053361D01*
X0150074Y0054960D02*
X0149442Y0054960D01*
X0149442Y0056558D02*
X0150074Y0056558D01*
X0150074Y0058157D02*
X0149442Y0058157D01*
X0149442Y0059755D02*
X0150074Y0059755D01*
X0158724Y0058050D02*
X0158724Y0063050D01*
X0155884Y0066149D02*
X0154874Y0066149D01*
X0154874Y0067748D02*
X0181324Y0067748D01*
X0181324Y0069346D02*
X0154874Y0069346D01*
X0161565Y0066149D02*
X0161867Y0066149D01*
X0164790Y0066149D02*
X0165159Y0066149D01*
X0165159Y0064551D02*
X0164790Y0064551D01*
X0164790Y0062952D02*
X0165159Y0062952D01*
X0168940Y0062952D02*
X0170143Y0062952D01*
X0170470Y0064551D02*
X0168940Y0064551D01*
X0168082Y0066149D02*
X0171849Y0066149D01*
X0173518Y0063257D02*
X0173724Y0063050D01*
X0173518Y0063257D02*
X0173518Y0055481D01*
X0170959Y0055481D02*
X0170486Y0055954D01*
X0164974Y0055954D01*
X0164571Y0055550D01*
X0161224Y0055550D01*
X0158724Y0058050D01*
X0168685Y0059755D02*
X0171118Y0059755D01*
X0170551Y0061354D02*
X0168940Y0061354D01*
X0175918Y0059755D02*
X0179608Y0059755D01*
X0181195Y0059755D02*
X0181195Y0059755D01*
X0181195Y0058157D02*
X0181195Y0058157D01*
X0181195Y0056558D02*
X0181195Y0056558D01*
X0181195Y0054960D02*
X0181195Y0054960D01*
X0181195Y0053361D02*
X0181195Y0053361D01*
X0181195Y0051763D02*
X0181195Y0051763D01*
X0181354Y0050164D02*
X0180483Y0050164D01*
X0181354Y0048566D02*
X0178884Y0048566D01*
X0180399Y0046967D02*
X0177286Y0046967D01*
X0178333Y0045369D02*
X0157407Y0045369D01*
X0157493Y0043770D02*
X0176735Y0043770D01*
X0175136Y0042172D02*
X0157493Y0042172D01*
X0157493Y0040573D02*
X0173538Y0040573D01*
X0171939Y0038975D02*
X0158466Y0038975D01*
X0149956Y0042172D02*
X0126874Y0042172D01*
X0125426Y0043770D02*
X0149956Y0043770D01*
X0150042Y0045369D02*
X0123978Y0045369D01*
X0107692Y0038975D02*
X0106942Y0038975D01*
X0121040Y0018194D02*
X0121409Y0018194D01*
X0121409Y0018269D02*
X0121409Y0014488D01*
X0123430Y0014488D01*
X0123888Y0014611D01*
X0124298Y0014848D01*
X0124633Y0015183D01*
X0124870Y0015593D01*
X0124993Y0016051D01*
X0124993Y0018269D01*
X0121409Y0018269D01*
X0121409Y0016596D02*
X0121040Y0016596D01*
X0121040Y0014997D02*
X0121409Y0014997D01*
X0124447Y0014997D02*
X0126522Y0014997D01*
X0125908Y0016596D02*
X0124993Y0016596D01*
X0124993Y0018194D02*
X0125246Y0018194D01*
X0135040Y0014997D02*
X0139771Y0014997D01*
X0139611Y0016596D02*
X0135654Y0016596D01*
X0136317Y0018194D02*
X0139611Y0018194D01*
X0143589Y0018194D02*
X0144745Y0018194D01*
X0144745Y0016596D02*
X0143589Y0016596D01*
X0143589Y0014997D02*
X0144745Y0014997D01*
X0148563Y0014997D02*
X0276265Y0014997D01*
X0276265Y0016596D02*
X0148723Y0016596D01*
X0148723Y0018194D02*
X0276265Y0018194D01*
X0276265Y0019793D02*
X0213570Y0019793D01*
X0215206Y0021391D02*
X0276265Y0021391D01*
X0276265Y0022990D02*
X0215824Y0022990D01*
X0215824Y0024588D02*
X0276265Y0024588D01*
X0276265Y0026187D02*
X0215824Y0026187D01*
X0215824Y0027785D02*
X0276265Y0027785D01*
X0276265Y0029384D02*
X0215824Y0029384D01*
X0215714Y0030982D02*
X0276265Y0030982D01*
X0276265Y0032581D02*
X0214949Y0032581D01*
X0213624Y0034179D02*
X0276265Y0034179D01*
X0276265Y0035778D02*
X0213141Y0035778D01*
X0211542Y0037376D02*
X0276265Y0037376D01*
X0276265Y0038975D02*
X0209944Y0038975D01*
X0208345Y0040573D02*
X0276265Y0040573D01*
X0276265Y0042172D02*
X0201747Y0042172D01*
X0200148Y0043770D02*
X0276265Y0043770D01*
X0276265Y0045369D02*
X0198550Y0045369D01*
X0196951Y0046967D02*
X0276265Y0046967D01*
X0276265Y0048566D02*
X0211528Y0048566D01*
X0211636Y0048673D02*
X0212080Y0049284D01*
X0212423Y0049957D01*
X0212656Y0050676D01*
X0212774Y0051422D01*
X0212774Y0051600D01*
X0205174Y0051600D01*
X0205174Y0047000D01*
X0208352Y0047000D01*
X0209098Y0047118D01*
X0209817Y0047352D01*
X0210490Y0047695D01*
X0211101Y0048139D01*
X0211636Y0048673D01*
X0212490Y0050164D02*
X0276265Y0050164D01*
X0276265Y0051763D02*
X0205174Y0051763D01*
X0205174Y0051600D02*
X0205174Y0052000D01*
X0204774Y0052000D01*
X0204774Y0051600D01*
X0197174Y0051600D01*
X0197174Y0051422D01*
X0197293Y0050676D01*
X0197526Y0049957D01*
X0197869Y0049284D01*
X0198313Y0048673D01*
X0198847Y0048139D01*
X0199459Y0047695D01*
X0200132Y0047352D01*
X0200850Y0047118D01*
X0201597Y0047000D01*
X0204774Y0047000D01*
X0204774Y0051600D01*
X0205174Y0051600D01*
X0205174Y0052000D02*
X0212774Y0052000D01*
X0212774Y0052178D01*
X0212656Y0052924D01*
X0212423Y0053643D01*
X0212080Y0054316D01*
X0211636Y0054927D01*
X0211101Y0055461D01*
X0210490Y0055905D01*
X0209817Y0056248D01*
X0209098Y0056482D01*
X0208352Y0056600D01*
X0205174Y0056600D01*
X0205174Y0052000D01*
X0204774Y0052000D02*
X0204774Y0056600D01*
X0201597Y0056600D01*
X0200850Y0056482D01*
X0200132Y0056248D01*
X0199459Y0055905D01*
X0198847Y0055461D01*
X0198313Y0054927D01*
X0197869Y0054316D01*
X0197526Y0053643D01*
X0197293Y0052924D01*
X0197174Y0052178D01*
X0197174Y0052000D01*
X0204774Y0052000D01*
X0204774Y0051763D02*
X0195979Y0051763D01*
X0196377Y0053361D02*
X0197435Y0053361D01*
X0198346Y0054960D02*
X0196377Y0054960D01*
X0196390Y0056558D02*
X0201333Y0056558D01*
X0199112Y0058157D02*
X0197225Y0058157D01*
X0193990Y0058316D02*
X0193990Y0055481D01*
X0191431Y0055481D02*
X0191431Y0063257D01*
X0199974Y0071800D01*
X0204974Y0071800D01*
X0199467Y0075740D02*
X0196577Y0075740D01*
X0196577Y0075224D02*
X0196577Y0078119D01*
X0196577Y0081013D01*
X0196455Y0081471D01*
X0196218Y0081882D01*
X0195883Y0082217D01*
X0195472Y0082454D01*
X0195014Y0082576D01*
X0193990Y0082576D01*
X0193990Y0078119D01*
X0193990Y0078119D01*
X0196577Y0078119D01*
X0193990Y0078119D01*
X0193990Y0078119D01*
X0193990Y0078119D01*
X0193990Y0073661D01*
X0195014Y0073661D01*
X0195472Y0073784D01*
X0195883Y0074021D01*
X0196218Y0074356D01*
X0196455Y0074767D01*
X0196577Y0075224D01*
X0196004Y0074142D02*
X0197965Y0074142D01*
X0197324Y0072543D02*
X0186124Y0072543D01*
X0186124Y0070945D02*
X0195725Y0070945D01*
X0194127Y0069346D02*
X0186124Y0069346D01*
X0186124Y0067748D02*
X0192528Y0067748D01*
X0190930Y0066149D02*
X0186124Y0066149D01*
X0186124Y0064551D02*
X0189369Y0064551D01*
X0189031Y0062952D02*
X0186124Y0062952D01*
X0186124Y0061354D02*
X0189031Y0061354D01*
X0189031Y0059755D02*
X0186124Y0059755D01*
X0186313Y0055481D02*
X0186313Y0049211D01*
X0191224Y0044300D01*
X0191224Y0026800D01*
X0195824Y0026187D02*
X0196424Y0026187D01*
X0196424Y0026600D02*
X0196424Y0023422D01*
X0196543Y0022676D01*
X0196776Y0021957D01*
X0197119Y0021284D01*
X0197563Y0020673D01*
X0198097Y0020139D01*
X0198709Y0019695D01*
X0199382Y0019352D01*
X0200100Y0019118D01*
X0200847Y0019000D01*
X0201024Y0019000D01*
X0201024Y0026600D01*
X0196424Y0026600D01*
X0196424Y0027000D02*
X0201024Y0027000D01*
X0201024Y0026600D01*
X0201424Y0026600D01*
X0201424Y0019000D01*
X0201602Y0019000D01*
X0202348Y0019118D01*
X0203067Y0019352D01*
X0203740Y0019695D01*
X0204351Y0020139D01*
X0204886Y0020673D01*
X0205330Y0021284D01*
X0205673Y0021957D01*
X0205906Y0022676D01*
X0206024Y0023422D01*
X0206024Y0026600D01*
X0201424Y0026600D01*
X0201424Y0027000D01*
X0201024Y0027000D01*
X0201024Y0034600D01*
X0200847Y0034600D01*
X0200100Y0034482D01*
X0199382Y0034248D01*
X0198709Y0033905D01*
X0198097Y0033461D01*
X0197563Y0032927D01*
X0197119Y0032316D01*
X0196776Y0031643D01*
X0196543Y0030924D01*
X0196424Y0030178D01*
X0196424Y0027000D01*
X0196424Y0027785D02*
X0195824Y0027785D01*
X0195824Y0029384D02*
X0196424Y0029384D01*
X0196561Y0030982D02*
X0195714Y0030982D01*
X0194949Y0032581D02*
X0197311Y0032581D01*
X0199246Y0034179D02*
X0193624Y0034179D01*
X0193624Y0035778D02*
X0206353Y0035778D01*
X0207951Y0034179D02*
X0203203Y0034179D01*
X0203067Y0034248D02*
X0202348Y0034482D01*
X0201602Y0034600D01*
X0201424Y0034600D01*
X0201424Y0027000D01*
X0206024Y0027000D01*
X0206024Y0030178D01*
X0205906Y0030924D01*
X0205673Y0031643D01*
X0205330Y0032316D01*
X0204886Y0032927D01*
X0204351Y0033461D01*
X0203740Y0033905D01*
X0203067Y0034248D01*
X0201424Y0034179D02*
X0201024Y0034179D01*
X0201024Y0032581D02*
X0201424Y0032581D01*
X0201424Y0030982D02*
X0201024Y0030982D01*
X0201024Y0029384D02*
X0201424Y0029384D01*
X0201424Y0027785D02*
X0201024Y0027785D01*
X0201024Y0026187D02*
X0201424Y0026187D01*
X0201424Y0024588D02*
X0201024Y0024588D01*
X0201024Y0022990D02*
X0201424Y0022990D01*
X0201424Y0021391D02*
X0201024Y0021391D01*
X0201024Y0019793D02*
X0201424Y0019793D01*
X0203875Y0019793D02*
X0208879Y0019793D01*
X0207243Y0021391D02*
X0205384Y0021391D01*
X0205956Y0022990D02*
X0206624Y0022990D01*
X0206624Y0024588D02*
X0206024Y0024588D01*
X0206024Y0026187D02*
X0206624Y0026187D01*
X0206624Y0027785D02*
X0206024Y0027785D01*
X0206024Y0029384D02*
X0206624Y0029384D01*
X0206735Y0030982D02*
X0205887Y0030982D01*
X0205137Y0032581D02*
X0207500Y0032581D01*
X0211224Y0034300D02*
X0211224Y0026800D01*
X0211224Y0034300D02*
X0206224Y0039300D01*
X0201224Y0039300D01*
X0188872Y0051652D01*
X0188872Y0055481D01*
X0193990Y0058316D02*
X0197474Y0061800D01*
X0204974Y0061800D01*
X0198220Y0064551D02*
X0196119Y0064551D01*
X0195233Y0062952D02*
X0194521Y0062952D01*
X0197718Y0066149D02*
X0200454Y0066149D01*
X0199737Y0067748D02*
X0199316Y0067748D01*
X0193990Y0074142D02*
X0193990Y0074142D01*
X0193990Y0075740D02*
X0193990Y0075740D01*
X0193990Y0077339D02*
X0193990Y0077339D01*
X0193990Y0078937D02*
X0193990Y0078937D01*
X0193990Y0080536D02*
X0193990Y0080536D01*
X0193990Y0082134D02*
X0193990Y0082134D01*
X0195965Y0082134D02*
X0197374Y0082134D01*
X0197519Y0080536D02*
X0196577Y0080536D01*
X0196577Y0078937D02*
X0198331Y0078937D01*
X0196577Y0077339D02*
X0200724Y0077339D01*
X0204974Y0081800D02*
X0201224Y0085550D01*
X0189974Y0085550D01*
X0186313Y0081889D01*
X0186313Y0078119D01*
X0181324Y0072543D02*
X0166224Y0072543D01*
X0166224Y0070945D02*
X0181324Y0070945D01*
X0181324Y0066149D02*
X0175600Y0066149D01*
X0176979Y0064551D02*
X0181324Y0064551D01*
X0181324Y0062952D02*
X0177305Y0062952D01*
X0176898Y0061354D02*
X0181324Y0061354D01*
X0178636Y0055481D02*
X0178636Y0051711D01*
X0174974Y0048050D01*
X0154974Y0048050D01*
X0152474Y0050550D01*
X0152474Y0083050D01*
X0142474Y0093050D01*
X0132474Y0093050D02*
X0132474Y0088050D01*
X0166224Y0088529D02*
X0167325Y0088529D01*
X0167325Y0086930D02*
X0166224Y0086930D01*
X0166224Y0085332D02*
X0167325Y0085332D01*
X0167325Y0083733D02*
X0166224Y0083733D01*
X0166224Y0082134D02*
X0167580Y0082134D01*
X0168559Y0080536D02*
X0166224Y0080536D01*
X0166224Y0078937D02*
X0168559Y0078937D01*
X0168571Y0077339D02*
X0166224Y0077339D01*
X0166224Y0075740D02*
X0168571Y0075740D01*
X0169228Y0074142D02*
X0166224Y0074142D01*
X0170959Y0078119D02*
X0170959Y0084686D01*
X0172474Y0086202D01*
X0177624Y0086930D02*
X0182960Y0086930D01*
X0183627Y0088435D02*
X0184084Y0088558D01*
X0184495Y0088795D01*
X0184830Y0089130D01*
X0185067Y0089540D01*
X0185190Y0089998D01*
X0185190Y0092019D01*
X0181409Y0092019D01*
X0181409Y0088435D01*
X0183627Y0088435D01*
X0183976Y0088529D02*
X0184559Y0088529D01*
X0185190Y0090127D02*
X0186157Y0090127D01*
X0186406Y0091726D02*
X0185190Y0091726D01*
X0185190Y0093324D02*
X0186406Y0093324D01*
X0186406Y0094923D02*
X0185035Y0094923D01*
X0184990Y0096521D02*
X0186206Y0096521D01*
X0186206Y0098120D02*
X0184990Y0098120D01*
X0184990Y0099718D02*
X0186206Y0099718D01*
X0186211Y0101317D02*
X0184990Y0101317D01*
X0181224Y0098896D02*
X0169571Y0099052D01*
X0172474Y0097398D01*
X0167325Y0098120D02*
X0166224Y0098120D01*
X0166224Y0099718D02*
X0167236Y0099718D01*
X0167431Y0101317D02*
X0166224Y0101317D01*
X0166224Y0096521D02*
X0167325Y0096521D01*
X0167325Y0094923D02*
X0166224Y0094923D01*
X0166224Y0093324D02*
X0167587Y0093324D01*
X0166224Y0091726D02*
X0177259Y0091726D01*
X0177624Y0088529D02*
X0178473Y0088529D01*
X0181040Y0088529D02*
X0181409Y0088529D01*
X0181409Y0090127D02*
X0181040Y0090127D01*
X0181040Y0091726D02*
X0181409Y0091726D01*
X0181571Y0085332D02*
X0177624Y0085332D01*
X0177624Y0083733D02*
X0181354Y0083733D01*
X0167438Y0090127D02*
X0166224Y0090127D01*
X0189974Y0098896D02*
X0190378Y0098050D01*
X0196224Y0098050D01*
X0197474Y0096800D01*
X0202474Y0096800D01*
X0203238Y0086930D02*
X0218724Y0086930D01*
X0218724Y0085332D02*
X0210948Y0085332D01*
X0212153Y0083733D02*
X0218724Y0083733D01*
X0218724Y0082134D02*
X0212574Y0082134D01*
X0212430Y0080536D02*
X0218724Y0080536D01*
X0218724Y0078937D02*
X0211617Y0078937D01*
X0209225Y0077339D02*
X0276265Y0077339D01*
X0276265Y0075740D02*
X0210482Y0075740D01*
X0211983Y0074142D02*
X0276265Y0074142D01*
X0276265Y0072543D02*
X0212574Y0072543D01*
X0212574Y0070945D02*
X0276265Y0070945D01*
X0276265Y0069346D02*
X0211937Y0069346D01*
X0210212Y0067748D02*
X0276265Y0067748D01*
X0276265Y0066149D02*
X0209494Y0066149D01*
X0211729Y0064551D02*
X0276265Y0064551D01*
X0276265Y0062952D02*
X0212476Y0062952D01*
X0212574Y0061354D02*
X0276265Y0061354D01*
X0276265Y0059755D02*
X0212106Y0059755D01*
X0210837Y0058157D02*
X0276265Y0058157D01*
X0276265Y0056558D02*
X0208615Y0056558D01*
X0211603Y0054960D02*
X0276265Y0054960D01*
X0276265Y0053361D02*
X0212514Y0053361D01*
X0205174Y0053361D02*
X0204774Y0053361D01*
X0204774Y0054960D02*
X0205174Y0054960D01*
X0205174Y0056558D02*
X0204774Y0056558D01*
X0204774Y0050164D02*
X0205174Y0050164D01*
X0205174Y0048566D02*
X0204774Y0048566D01*
X0198420Y0048566D02*
X0195353Y0048566D01*
X0193754Y0050164D02*
X0197459Y0050164D01*
X0194959Y0042172D02*
X0193624Y0042172D01*
X0193624Y0040573D02*
X0196557Y0040573D01*
X0198156Y0038975D02*
X0193624Y0038975D01*
X0193624Y0037376D02*
X0199754Y0037376D01*
X0196424Y0024588D02*
X0195824Y0024588D01*
X0195824Y0022990D02*
X0196493Y0022990D01*
X0197065Y0021391D02*
X0195206Y0021391D01*
X0193570Y0019793D02*
X0198574Y0019793D01*
X0179956Y0038975D02*
X0179859Y0038975D01*
X0189790Y0099718D02*
X0190159Y0099718D01*
X0190159Y0101317D02*
X0189790Y0101317D01*
D31*
X0202474Y0096800D02*
X0212474Y0106800D01*
X0212474Y0111800D01*
X0214207Y0110068D01*
X0212474Y0111800D02*
X0212474Y0151800D01*
X0179974Y0184300D01*
X0168474Y0195800D01*
X0096224Y0195800D01*
D32*
X0107474Y0069300D03*
X0098724Y0050550D03*
X0073724Y0070550D03*
X0173724Y0063050D03*
D33*
X0180821Y0043896D02*
X0183724Y0043896D01*
X0180821Y0043896D02*
X0172878Y0035954D01*
X0153724Y0035954D01*
X0107474Y0059300D02*
X0098724Y0050550D01*
X0102474Y0046800D01*
X0107474Y0059300D02*
X0107474Y0069300D01*
D34*
X0102474Y0046800D02*
X0099974Y0046800D01*
X0087632Y0034457D01*
X0087632Y0031800D01*
X0102474Y0046800D02*
X0115211Y0046800D01*
X0127228Y0033532D01*
X0127228Y0030353D01*
X0130781Y0028050D01*
X0127878Y0025146D01*
X0121224Y0025146D01*
X0130781Y0028050D02*
X0130781Y0019300D01*
X0144167Y0028050D02*
X0145220Y0029103D01*
X0145220Y0033532D01*
X0148892Y0035954D01*
X0153724Y0035954D01*
D35*
X0087632Y0031800D02*
X0087632Y0031643D01*
X0067474Y0051800D01*
X0057474Y0051800D01*
X0037474Y0071800D01*
X0037474Y0101550D01*
X0060974Y0125050D01*
X0060974Y0147050D01*
X0047474Y0160550D01*
X0037474Y0160550D01*
X0067474Y0186800D02*
X0067474Y0199300D01*
X0084974Y0216800D01*
X0106224Y0216800D01*
X0067474Y0186800D02*
X0084974Y0169300D01*
X0084974Y0114300D01*
X0060974Y0090300D01*
X0060974Y0077050D01*
M02*
