G75*
%MOIN*%
%OFA0B0*%
%FSLAX25Y25*%
%IPPOS*%
%LPD*%
%AMOC8*
5,1,8,0,0,1.08239X$1,22.5*
%
%ADD10C,0.00000*%
%ADD11C,0.08600*%
%ADD12R,0.05131X0.04737*%
%ADD13C,0.06800*%
%ADD14C,0.09650*%
%ADD15C,0.07400*%
%ADD16C,0.13800*%
%ADD17R,0.04737X0.05131*%
%ADD18C,0.18900*%
%ADD19OC8,0.18900*%
%ADD20OC8,0.07850*%
%ADD21R,0.04737X0.06312*%
%ADD22R,0.06312X0.04737*%
%ADD23C,0.07850*%
%ADD24OC8,0.15800*%
%ADD25C,0.06400*%
%ADD26R,0.06312X0.07887*%
%ADD27OC8,0.06000*%
%ADD28C,0.26200*%
%ADD29C,0.04762*%
D10*
X0002474Y0011800D02*
X0002474Y0228335D01*
X0278065Y0228335D01*
X0278065Y0011800D01*
X0002474Y0011800D01*
X0323724Y0120068D02*
X0323726Y0120229D01*
X0323732Y0120389D01*
X0323742Y0120550D01*
X0323756Y0120710D01*
X0323774Y0120870D01*
X0323795Y0121029D01*
X0323821Y0121188D01*
X0323851Y0121346D01*
X0323884Y0121503D01*
X0323922Y0121660D01*
X0323963Y0121815D01*
X0324008Y0121969D01*
X0324057Y0122122D01*
X0324110Y0122274D01*
X0324166Y0122425D01*
X0324227Y0122574D01*
X0324290Y0122722D01*
X0324358Y0122868D01*
X0324429Y0123012D01*
X0324503Y0123154D01*
X0324581Y0123295D01*
X0324663Y0123433D01*
X0324748Y0123570D01*
X0324836Y0123704D01*
X0324928Y0123836D01*
X0325023Y0123966D01*
X0325121Y0124094D01*
X0325222Y0124219D01*
X0325326Y0124341D01*
X0325433Y0124461D01*
X0325543Y0124578D01*
X0325656Y0124693D01*
X0325772Y0124804D01*
X0325891Y0124913D01*
X0326012Y0125018D01*
X0326136Y0125121D01*
X0326262Y0125221D01*
X0326390Y0125317D01*
X0326521Y0125410D01*
X0326655Y0125500D01*
X0326790Y0125587D01*
X0326928Y0125670D01*
X0327067Y0125750D01*
X0327209Y0125826D01*
X0327352Y0125899D01*
X0327497Y0125968D01*
X0327644Y0126034D01*
X0327792Y0126096D01*
X0327942Y0126154D01*
X0328093Y0126209D01*
X0328246Y0126260D01*
X0328400Y0126307D01*
X0328555Y0126350D01*
X0328711Y0126389D01*
X0328867Y0126425D01*
X0329025Y0126456D01*
X0329183Y0126484D01*
X0329342Y0126508D01*
X0329502Y0126528D01*
X0329662Y0126544D01*
X0329822Y0126556D01*
X0329983Y0126564D01*
X0330144Y0126568D01*
X0330304Y0126568D01*
X0330465Y0126564D01*
X0330626Y0126556D01*
X0330786Y0126544D01*
X0330946Y0126528D01*
X0331106Y0126508D01*
X0331265Y0126484D01*
X0331423Y0126456D01*
X0331581Y0126425D01*
X0331737Y0126389D01*
X0331893Y0126350D01*
X0332048Y0126307D01*
X0332202Y0126260D01*
X0332355Y0126209D01*
X0332506Y0126154D01*
X0332656Y0126096D01*
X0332804Y0126034D01*
X0332951Y0125968D01*
X0333096Y0125899D01*
X0333239Y0125826D01*
X0333381Y0125750D01*
X0333520Y0125670D01*
X0333658Y0125587D01*
X0333793Y0125500D01*
X0333927Y0125410D01*
X0334058Y0125317D01*
X0334186Y0125221D01*
X0334312Y0125121D01*
X0334436Y0125018D01*
X0334557Y0124913D01*
X0334676Y0124804D01*
X0334792Y0124693D01*
X0334905Y0124578D01*
X0335015Y0124461D01*
X0335122Y0124341D01*
X0335226Y0124219D01*
X0335327Y0124094D01*
X0335425Y0123966D01*
X0335520Y0123836D01*
X0335612Y0123704D01*
X0335700Y0123570D01*
X0335785Y0123433D01*
X0335867Y0123295D01*
X0335945Y0123154D01*
X0336019Y0123012D01*
X0336090Y0122868D01*
X0336158Y0122722D01*
X0336221Y0122574D01*
X0336282Y0122425D01*
X0336338Y0122274D01*
X0336391Y0122122D01*
X0336440Y0121969D01*
X0336485Y0121815D01*
X0336526Y0121660D01*
X0336564Y0121503D01*
X0336597Y0121346D01*
X0336627Y0121188D01*
X0336653Y0121029D01*
X0336674Y0120870D01*
X0336692Y0120710D01*
X0336706Y0120550D01*
X0336716Y0120389D01*
X0336722Y0120229D01*
X0336724Y0120068D01*
X0336722Y0119907D01*
X0336716Y0119747D01*
X0336706Y0119586D01*
X0336692Y0119426D01*
X0336674Y0119266D01*
X0336653Y0119107D01*
X0336627Y0118948D01*
X0336597Y0118790D01*
X0336564Y0118633D01*
X0336526Y0118476D01*
X0336485Y0118321D01*
X0336440Y0118167D01*
X0336391Y0118014D01*
X0336338Y0117862D01*
X0336282Y0117711D01*
X0336221Y0117562D01*
X0336158Y0117414D01*
X0336090Y0117268D01*
X0336019Y0117124D01*
X0335945Y0116982D01*
X0335867Y0116841D01*
X0335785Y0116703D01*
X0335700Y0116566D01*
X0335612Y0116432D01*
X0335520Y0116300D01*
X0335425Y0116170D01*
X0335327Y0116042D01*
X0335226Y0115917D01*
X0335122Y0115795D01*
X0335015Y0115675D01*
X0334905Y0115558D01*
X0334792Y0115443D01*
X0334676Y0115332D01*
X0334557Y0115223D01*
X0334436Y0115118D01*
X0334312Y0115015D01*
X0334186Y0114915D01*
X0334058Y0114819D01*
X0333927Y0114726D01*
X0333793Y0114636D01*
X0333658Y0114549D01*
X0333520Y0114466D01*
X0333381Y0114386D01*
X0333239Y0114310D01*
X0333096Y0114237D01*
X0332951Y0114168D01*
X0332804Y0114102D01*
X0332656Y0114040D01*
X0332506Y0113982D01*
X0332355Y0113927D01*
X0332202Y0113876D01*
X0332048Y0113829D01*
X0331893Y0113786D01*
X0331737Y0113747D01*
X0331581Y0113711D01*
X0331423Y0113680D01*
X0331265Y0113652D01*
X0331106Y0113628D01*
X0330946Y0113608D01*
X0330786Y0113592D01*
X0330626Y0113580D01*
X0330465Y0113572D01*
X0330304Y0113568D01*
X0330144Y0113568D01*
X0329983Y0113572D01*
X0329822Y0113580D01*
X0329662Y0113592D01*
X0329502Y0113608D01*
X0329342Y0113628D01*
X0329183Y0113652D01*
X0329025Y0113680D01*
X0328867Y0113711D01*
X0328711Y0113747D01*
X0328555Y0113786D01*
X0328400Y0113829D01*
X0328246Y0113876D01*
X0328093Y0113927D01*
X0327942Y0113982D01*
X0327792Y0114040D01*
X0327644Y0114102D01*
X0327497Y0114168D01*
X0327352Y0114237D01*
X0327209Y0114310D01*
X0327067Y0114386D01*
X0326928Y0114466D01*
X0326790Y0114549D01*
X0326655Y0114636D01*
X0326521Y0114726D01*
X0326390Y0114819D01*
X0326262Y0114915D01*
X0326136Y0115015D01*
X0326012Y0115118D01*
X0325891Y0115223D01*
X0325772Y0115332D01*
X0325656Y0115443D01*
X0325543Y0115558D01*
X0325433Y0115675D01*
X0325326Y0115795D01*
X0325222Y0115917D01*
X0325121Y0116042D01*
X0325023Y0116170D01*
X0324928Y0116300D01*
X0324836Y0116432D01*
X0324748Y0116566D01*
X0324663Y0116703D01*
X0324581Y0116841D01*
X0324503Y0116982D01*
X0324429Y0117124D01*
X0324358Y0117268D01*
X0324290Y0117414D01*
X0324227Y0117562D01*
X0324166Y0117711D01*
X0324110Y0117862D01*
X0324057Y0118014D01*
X0324008Y0118167D01*
X0323963Y0118321D01*
X0323922Y0118476D01*
X0323884Y0118633D01*
X0323851Y0118790D01*
X0323821Y0118948D01*
X0323795Y0119107D01*
X0323774Y0119266D01*
X0323756Y0119426D01*
X0323742Y0119586D01*
X0323732Y0119747D01*
X0323726Y0119907D01*
X0323724Y0120068D01*
D11*
X0060974Y0121150D02*
X0060974Y0128950D01*
X0037474Y0129150D02*
X0037474Y0136950D01*
X0013974Y0128950D02*
X0013974Y0121150D01*
X0013974Y0080950D02*
X0013974Y0073150D01*
X0060974Y0073150D02*
X0060974Y0080950D01*
D12*
X0073724Y0070146D03*
X0073724Y0063454D03*
X0073724Y0053896D03*
X0073724Y0047204D03*
X0093724Y0063454D03*
X0093724Y0070146D03*
X0113724Y0070146D03*
X0113724Y0063454D03*
D13*
X0191224Y0029800D02*
X0191224Y0023800D01*
X0201224Y0023800D02*
X0201224Y0029800D01*
X0211224Y0029800D02*
X0211224Y0023800D01*
X0207974Y0051800D02*
X0201974Y0051800D01*
X0201974Y0061800D02*
X0207974Y0061800D01*
X0207974Y0071800D02*
X0201974Y0071800D01*
X0201974Y0081800D02*
X0207974Y0081800D01*
X0040474Y0160550D02*
X0034474Y0160550D01*
X0034474Y0200550D02*
X0040474Y0200550D01*
D14*
X0041799Y0216800D02*
X0050649Y0216800D01*
X0101799Y0216800D02*
X0110649Y0216800D01*
D15*
X0257924Y0130068D02*
X0264524Y0130068D01*
X0264524Y0120068D02*
X0257924Y0120068D01*
X0257924Y0110068D02*
X0264524Y0110068D01*
D16*
X0330224Y0120068D03*
D17*
X0273321Y0110550D03*
X0266628Y0110550D03*
X0024571Y0098050D03*
X0017878Y0098050D03*
D18*
X0179974Y0144300D03*
D19*
X0179974Y0184300D03*
D20*
X0096224Y0195800D03*
X0096224Y0087800D03*
D21*
X0099984Y0069881D03*
X0107464Y0069881D03*
X0103724Y0061219D03*
X0087464Y0069881D03*
X0079984Y0069881D03*
X0083724Y0061219D03*
X0017464Y0103719D03*
X0009984Y0103719D03*
X0013724Y0112381D03*
D22*
X0089305Y0054290D03*
X0080644Y0050550D03*
X0089305Y0046810D03*
X0098144Y0050550D03*
X0106805Y0054290D03*
X0106805Y0046810D03*
D23*
X0107317Y0035325D02*
X0107317Y0028275D01*
X0087632Y0028275D02*
X0087632Y0035325D01*
X0062317Y0035325D02*
X0062317Y0028275D01*
X0042632Y0028275D02*
X0042632Y0035325D01*
D24*
X0232474Y0091800D03*
D25*
X0142474Y0090250D02*
X0142474Y0095850D01*
X0132474Y0095850D02*
X0132474Y0090250D01*
D26*
X0027917Y0159300D03*
X0014531Y0159300D03*
D27*
X0158724Y0103050D03*
X0158724Y0063050D03*
D28*
X0238695Y0027548D03*
X0018222Y0027548D03*
X0018222Y0212587D03*
X0238695Y0212587D03*
D29*
X0107474Y0069300D03*
X0098724Y0050550D03*
X0073724Y0070550D03*
X0173724Y0063050D03*
M02*
