%
M48
M72
T01C0.01969
T02C0.02362
T03C0.03200
T04C0.03600
T05C0.04000
T06C0.12598
%
T01
X321800Y96800
X324300Y141800
T02
X304300Y166800
X284300Y151800
X291800Y149300
X276800Y146800
X281800Y126800
T03
X103725Y312924
X101765Y303117
X208866Y269385
X203317Y261065
X289380Y188873
X281070Y183310
X332924Y83725
X323117Y81765
X99748Y293002
X97789Y283196
X197566Y252456
X192018Y244136
X272451Y177574
X264141Y172011
X313002Y79748
X303196Y77789
T04
X250158Y192658
X257229Y199729
X264300Y206800
X271371Y213871
X278442Y220942
T05
X343335Y50422
X333335Y50422
X323335Y50422
X313335Y50422
X303335Y50422
X70422Y323335
X70422Y313335
X70422Y303335
X70422Y293335
X70422Y283335
X323395Y109430
X313998Y106010
X304602Y102590
X295205Y99170
T06
X242351Y222351
M30
