G75*
%MOIN*%
%OFA0B0*%
%FSLAX25Y25*%
%IPPOS*%
%LPD*%
%AMOC8*
5,1,8,0,0,1.08239X$1,22.5*
%
%ADD10C,0.01600*%
%ADD11C,0.01200*%
%ADD12C,0.06000*%
%ADD13C,0.06800*%
%ADD14C,0.06400*%
%ADD15C,0.26200*%
%ADD16C,0.04762*%
%ADD17C,0.04369*%
D10*
X0050737Y0333847D02*
X0058061Y0333758D01*
X0065381Y0333493D01*
X0072693Y0333051D01*
X0079991Y0332432D01*
X0087273Y0331637D01*
X0094533Y0330666D01*
X0101768Y0329520D01*
X0108973Y0328200D01*
X0116143Y0326706D01*
X0123276Y0325039D01*
X0130366Y0323200D01*
X0137410Y0321191D01*
X0144403Y0319012D01*
X0151342Y0316664D01*
X0158221Y0314150D01*
X0165038Y0311470D01*
X0171788Y0308626D01*
X0178468Y0305620D01*
X0185073Y0302453D01*
X0191599Y0299128D01*
X0198043Y0295645D01*
X0204402Y0292009D01*
X0210670Y0288219D01*
X0216845Y0284279D01*
X0222923Y0280192D01*
X0228901Y0275958D01*
X0234774Y0271581D01*
X0240540Y0267064D01*
X0246195Y0262409D01*
X0251736Y0257618D01*
X0257160Y0252695D01*
X0262463Y0247642D01*
X0267642Y0242463D01*
X0272695Y0237160D01*
X0277618Y0231736D01*
X0282409Y0226195D01*
X0287064Y0220540D01*
X0291581Y0214774D01*
X0295958Y0208901D01*
X0300192Y0202923D01*
X0304279Y0196845D01*
X0308219Y0190670D01*
X0312009Y0184402D01*
X0315645Y0178043D01*
X0319128Y0171599D01*
X0322453Y0165073D01*
X0325620Y0158468D01*
X0328626Y0151788D01*
X0331470Y0145038D01*
X0334150Y0138221D01*
X0336664Y0131342D01*
X0339012Y0124403D01*
X0341191Y0117410D01*
X0343200Y0110366D01*
X0345039Y0103276D01*
X0346706Y0096143D01*
X0348200Y0088973D01*
X0349520Y0081768D01*
X0350666Y0074533D01*
X0351637Y0067273D01*
X0352432Y0059991D01*
X0353051Y0052693D01*
X0353493Y0045381D01*
X0353758Y0038061D01*
X0353847Y0030737D01*
X0292824Y0030737D01*
X0292753Y0036587D01*
X0292541Y0042433D01*
X0292188Y0048273D01*
X0291694Y0054102D01*
X0291059Y0059917D01*
X0290284Y0065716D01*
X0289368Y0071494D01*
X0288314Y0077248D01*
X0287121Y0082976D01*
X0285789Y0088672D01*
X0284321Y0094335D01*
X0282716Y0099961D01*
X0280975Y0105546D01*
X0279101Y0111088D01*
X0277092Y0116582D01*
X0274952Y0122027D01*
X0272680Y0127418D01*
X0270279Y0132753D01*
X0267750Y0138028D01*
X0265094Y0143240D01*
X0262313Y0148387D01*
X0259409Y0153465D01*
X0256382Y0158472D01*
X0253236Y0163404D01*
X0249971Y0168258D01*
X0246589Y0173032D01*
X0243094Y0177723D01*
X0239486Y0182328D01*
X0235768Y0186845D01*
X0231942Y0191270D01*
X0228010Y0195602D01*
X0223974Y0199838D01*
X0219838Y0203974D01*
X0215602Y0208010D01*
X0211270Y0211942D01*
X0206845Y0215768D01*
X0202328Y0219486D01*
X0197723Y0223094D01*
X0193032Y0226589D01*
X0188258Y0229971D01*
X0183404Y0233236D01*
X0178472Y0236382D01*
X0173465Y0239409D01*
X0168387Y0242313D01*
X0163240Y0245094D01*
X0158028Y0247750D01*
X0152753Y0250279D01*
X0147418Y0252680D01*
X0142027Y0254952D01*
X0136582Y0257092D01*
X0131088Y0259101D01*
X0125546Y0260975D01*
X0119961Y0262716D01*
X0114335Y0264321D01*
X0108672Y0265789D01*
X0102976Y0267121D01*
X0097248Y0268314D01*
X0091494Y0269368D01*
X0085716Y0270284D01*
X0079917Y0271059D01*
X0074102Y0271694D01*
X0068273Y0272188D01*
X0062433Y0272541D01*
X0056587Y0272753D01*
X0050737Y0272824D01*
X0050737Y0333847D01*
D11*
X0100920Y0301559D02*
X0100320Y0300959D01*
X0099217Y0302613D01*
X0099607Y0304562D01*
X0101261Y0305665D01*
X0103210Y0305275D01*
X0104313Y0303621D01*
X0103923Y0301672D01*
X0102269Y0300569D01*
X0100320Y0300959D01*
X0100863Y0301768D01*
X0100173Y0302802D01*
X0100416Y0304019D01*
X0101450Y0304709D01*
X0102667Y0304466D01*
X0103357Y0303432D01*
X0103114Y0302215D01*
X0102080Y0301525D01*
X0100863Y0301768D01*
X0101405Y0302578D01*
X0101129Y0302992D01*
X0101226Y0303477D01*
X0101640Y0303753D01*
X0102125Y0303656D01*
X0102401Y0303242D01*
X0102304Y0302757D01*
X0101890Y0302481D01*
X0101405Y0302578D01*
X0102880Y0311366D02*
X0102280Y0310766D01*
X0101177Y0312420D01*
X0101567Y0314369D01*
X0103221Y0315472D01*
X0105170Y0315082D01*
X0106273Y0313428D01*
X0105883Y0311479D01*
X0104229Y0310376D01*
X0102280Y0310766D01*
X0102823Y0311575D01*
X0102133Y0312609D01*
X0102376Y0313826D01*
X0103410Y0314516D01*
X0104627Y0314273D01*
X0105317Y0313239D01*
X0105074Y0312022D01*
X0104040Y0311332D01*
X0102823Y0311575D01*
X0103365Y0312385D01*
X0103089Y0312799D01*
X0103186Y0313284D01*
X0103600Y0313560D01*
X0104085Y0313463D01*
X0104361Y0313049D01*
X0104264Y0312564D01*
X0103850Y0312288D01*
X0103365Y0312385D01*
X0201759Y0260220D02*
X0201159Y0259620D01*
X0200769Y0261569D01*
X0201872Y0263223D01*
X0203821Y0263613D01*
X0205475Y0262510D01*
X0205865Y0260561D01*
X0204762Y0258907D01*
X0202813Y0258517D01*
X0201159Y0259620D01*
X0201969Y0260162D01*
X0201725Y0261380D01*
X0202414Y0262413D01*
X0203632Y0262657D01*
X0204665Y0261968D01*
X0204909Y0260750D01*
X0204220Y0259717D01*
X0203002Y0259473D01*
X0201969Y0260162D01*
X0202778Y0260704D01*
X0202681Y0261191D01*
X0202956Y0261604D01*
X0203443Y0261701D01*
X0203856Y0261426D01*
X0203953Y0260939D01*
X0203678Y0260526D01*
X0203191Y0260429D01*
X0202778Y0260704D01*
X0207308Y0268540D02*
X0206708Y0267940D01*
X0206318Y0269889D01*
X0207421Y0271543D01*
X0209370Y0271933D01*
X0211024Y0270830D01*
X0211414Y0268881D01*
X0210311Y0267227D01*
X0208362Y0266837D01*
X0206708Y0267940D01*
X0207518Y0268482D01*
X0207274Y0269700D01*
X0207963Y0270733D01*
X0209181Y0270977D01*
X0210214Y0270288D01*
X0210458Y0269070D01*
X0209769Y0268037D01*
X0208551Y0267793D01*
X0207518Y0268482D01*
X0208327Y0269024D01*
X0208230Y0269511D01*
X0208505Y0269924D01*
X0208992Y0270021D01*
X0209405Y0269746D01*
X0209502Y0269259D01*
X0209227Y0268846D01*
X0208740Y0268749D01*
X0208327Y0269024D01*
X0287433Y0188964D02*
X0286833Y0188364D01*
X0287219Y0190314D01*
X0288871Y0191420D01*
X0290821Y0191034D01*
X0291927Y0189382D01*
X0291541Y0187432D01*
X0289889Y0186326D01*
X0287939Y0186712D01*
X0286833Y0188364D01*
X0287789Y0188555D01*
X0288030Y0189774D01*
X0289062Y0190464D01*
X0290281Y0190223D01*
X0290971Y0189191D01*
X0290730Y0187972D01*
X0289698Y0187282D01*
X0288479Y0187523D01*
X0287789Y0188555D01*
X0288744Y0188746D01*
X0288841Y0189233D01*
X0289253Y0189509D01*
X0289740Y0189412D01*
X0290016Y0189000D01*
X0289919Y0188513D01*
X0289507Y0188237D01*
X0289020Y0188334D01*
X0288744Y0188746D01*
X0279123Y0183401D02*
X0278523Y0182801D01*
X0278909Y0184751D01*
X0280561Y0185857D01*
X0282511Y0185471D01*
X0283617Y0183819D01*
X0283231Y0181869D01*
X0281579Y0180763D01*
X0279629Y0181149D01*
X0278523Y0182801D01*
X0279479Y0182992D01*
X0279720Y0184211D01*
X0280752Y0184901D01*
X0281971Y0184660D01*
X0282661Y0183628D01*
X0282420Y0182409D01*
X0281388Y0181719D01*
X0280169Y0181960D01*
X0279479Y0182992D01*
X0280434Y0183183D01*
X0280531Y0183670D01*
X0280943Y0183946D01*
X0281430Y0183849D01*
X0281706Y0183437D01*
X0281609Y0182950D01*
X0281197Y0182674D01*
X0280710Y0182771D01*
X0280434Y0183183D01*
X0330976Y0083629D02*
X0330376Y0084229D01*
X0331479Y0085883D01*
X0333428Y0086273D01*
X0335082Y0085170D01*
X0335472Y0083221D01*
X0334369Y0081567D01*
X0332420Y0081177D01*
X0330766Y0082280D01*
X0330376Y0084229D01*
X0331332Y0084040D01*
X0332022Y0085074D01*
X0333239Y0085317D01*
X0334273Y0084627D01*
X0334516Y0083410D01*
X0333826Y0082376D01*
X0332609Y0082133D01*
X0331575Y0082823D01*
X0331332Y0084040D01*
X0332288Y0083850D01*
X0332564Y0084264D01*
X0333049Y0084361D01*
X0333463Y0084085D01*
X0333560Y0083600D01*
X0333284Y0083186D01*
X0332799Y0083089D01*
X0332385Y0083365D01*
X0332288Y0083850D01*
X0321169Y0081669D02*
X0320569Y0082269D01*
X0321672Y0083923D01*
X0323621Y0084313D01*
X0325275Y0083210D01*
X0325665Y0081261D01*
X0324562Y0079607D01*
X0322613Y0079217D01*
X0320959Y0080320D01*
X0320569Y0082269D01*
X0321525Y0082080D01*
X0322215Y0083114D01*
X0323432Y0083357D01*
X0324466Y0082667D01*
X0324709Y0081450D01*
X0324019Y0080416D01*
X0322802Y0080173D01*
X0321768Y0080863D01*
X0321525Y0082080D01*
X0322481Y0081890D01*
X0322757Y0082304D01*
X0323242Y0082401D01*
X0323656Y0082125D01*
X0323753Y0081640D01*
X0323477Y0081226D01*
X0322992Y0081129D01*
X0322578Y0081405D01*
X0322481Y0081890D01*
D12*
X0312493Y0082298D02*
X0313512Y0077199D01*
X0303706Y0075239D02*
X0302687Y0080338D01*
X0265588Y0169850D02*
X0262695Y0174171D01*
X0271005Y0179734D02*
X0273897Y0175413D01*
X0194181Y0242694D02*
X0189855Y0245579D01*
X0195403Y0253898D02*
X0199729Y0251013D01*
X0100338Y0282687D02*
X0095239Y0283706D01*
X0097199Y0293512D02*
X0102298Y0292493D01*
D13*
X0073422Y0293335D02*
X0067422Y0293335D01*
X0067422Y0283335D02*
X0073422Y0283335D01*
X0073422Y0303335D02*
X0067422Y0303335D01*
X0067422Y0313335D02*
X0073422Y0313335D01*
X0073422Y0323335D02*
X0067422Y0323335D01*
X0294179Y0101989D02*
X0296231Y0096351D01*
X0305628Y0099771D02*
X0303575Y0105409D01*
X0312972Y0108829D02*
X0315025Y0103191D01*
X0324421Y0106611D02*
X0322369Y0112249D01*
X0323335Y0053422D02*
X0323335Y0047422D01*
X0333335Y0047422D02*
X0333335Y0053422D01*
X0343335Y0053422D02*
X0343335Y0047422D01*
X0313335Y0047422D02*
X0313335Y0053422D01*
X0303335Y0053422D02*
X0303335Y0047422D01*
D14*
X0252138Y0190678D02*
X0248178Y0194638D01*
X0255249Y0201709D02*
X0259209Y0197749D01*
X0266280Y0204820D02*
X0262320Y0208780D01*
X0269391Y0215851D02*
X0273351Y0211891D01*
X0280422Y0218962D02*
X0276462Y0222922D01*
D15*
X0242351Y0222351D03*
D16*
X0304300Y0166800D03*
X0291800Y0149300D03*
X0284300Y0151800D03*
X0276800Y0146800D03*
X0281800Y0126800D03*
D17*
X0321800Y0096800D03*
X0324300Y0141800D03*
M02*
