G75*
%MOIN*%
%OFA0B0*%
%FSLAX25Y25*%
%IPPOS*%
%LPD*%
%AMOC8*
5,1,8,0,0,1.08239X$1,22.5*
%
%ADD10C,0.01600*%
%ADD11C,0.01040*%
%ADD12C,0.05200*%
%ADD13C,0.06000*%
%ADD14C,0.05600*%
%ADD15C,0.25400*%
%ADD16C,0.04000*%
%ADD17C,0.03200*%
%ADD18C,0.03962*%
%ADD19C,0.03569*%
D10*
X0050737Y0333847D02*
X0058061Y0333758D01*
X0065381Y0333493D01*
X0072693Y0333051D01*
X0079991Y0332432D01*
X0087273Y0331637D01*
X0094533Y0330666D01*
X0101768Y0329520D01*
X0108973Y0328200D01*
X0116143Y0326706D01*
X0123276Y0325039D01*
X0130366Y0323200D01*
X0137410Y0321191D01*
X0144403Y0319012D01*
X0151342Y0316664D01*
X0158221Y0314150D01*
X0165038Y0311470D01*
X0171788Y0308626D01*
X0178468Y0305620D01*
X0185073Y0302453D01*
X0191599Y0299128D01*
X0198043Y0295645D01*
X0204402Y0292009D01*
X0210670Y0288219D01*
X0216845Y0284279D01*
X0222923Y0280192D01*
X0228901Y0275958D01*
X0234774Y0271581D01*
X0240540Y0267064D01*
X0246195Y0262409D01*
X0251736Y0257618D01*
X0257160Y0252695D01*
X0262463Y0247642D01*
X0267642Y0242463D01*
X0272695Y0237160D01*
X0277618Y0231736D01*
X0282409Y0226195D01*
X0287064Y0220540D01*
X0291581Y0214774D01*
X0295958Y0208901D01*
X0300192Y0202923D01*
X0304279Y0196845D01*
X0308219Y0190670D01*
X0312009Y0184402D01*
X0315645Y0178043D01*
X0319128Y0171599D01*
X0322453Y0165073D01*
X0325620Y0158468D01*
X0328626Y0151788D01*
X0331470Y0145038D01*
X0334150Y0138221D01*
X0336664Y0131342D01*
X0339012Y0124403D01*
X0341191Y0117410D01*
X0343200Y0110366D01*
X0345039Y0103276D01*
X0346706Y0096143D01*
X0348200Y0088973D01*
X0349520Y0081768D01*
X0350666Y0074533D01*
X0351637Y0067273D01*
X0352432Y0059991D01*
X0353051Y0052693D01*
X0353493Y0045381D01*
X0353758Y0038061D01*
X0353847Y0030737D01*
X0292824Y0030737D01*
X0294924Y0032837D02*
X0294924Y0040331D01*
X0293418Y0059460D01*
X0290416Y0078412D01*
X0285937Y0097070D01*
X0280008Y0115319D01*
X0272665Y0133047D01*
X0263953Y0150144D01*
X0253927Y0166504D01*
X0242649Y0182028D01*
X0230187Y0196619D01*
X0216619Y0210187D01*
X0216619Y0210187D01*
X0202028Y0222649D01*
X0186504Y0233927D01*
X0170144Y0243953D01*
X0170144Y0243953D01*
X0153047Y0252665D01*
X0135319Y0260008D01*
X0117070Y0265937D01*
X0098412Y0270416D01*
X0079460Y0273418D01*
X0060331Y0274924D01*
X0052837Y0274924D01*
X0052837Y0331710D01*
X0061481Y0331555D01*
X0082914Y0330023D01*
X0104182Y0326965D01*
X0125179Y0322397D01*
X0145796Y0316343D01*
X0165929Y0308834D01*
X0185474Y0299908D01*
X0204334Y0289610D01*
X0222410Y0277993D01*
X0239612Y0265116D01*
X0255851Y0251045D01*
X0271045Y0235851D01*
X0279410Y0226197D01*
X0278955Y0226652D01*
X0277337Y0227322D01*
X0275587Y0227322D01*
X0273970Y0226652D01*
X0272732Y0225414D01*
X0272062Y0223797D01*
X0272062Y0222047D01*
X0272732Y0220430D01*
X0277930Y0215232D01*
X0279547Y0214562D01*
X0280530Y0214562D01*
X0302223Y0188049D01*
X0303412Y0185224D01*
X0282977Y0205659D01*
X0282977Y0205659D01*
X0282302Y0206335D01*
X0281420Y0206700D01*
X0275294Y0206700D01*
X0274422Y0207572D01*
X0275843Y0208161D01*
X0277081Y0209399D01*
X0277751Y0211016D01*
X0277751Y0212766D01*
X0277081Y0214384D01*
X0271884Y0219581D01*
X0270266Y0220251D01*
X0268516Y0220251D01*
X0266899Y0219581D01*
X0265661Y0218343D01*
X0265072Y0216922D01*
X0264200Y0217794D01*
X0264200Y0229777D01*
X0263835Y0230659D01*
X0251335Y0243159D01*
X0250659Y0243835D01*
X0249777Y0244200D01*
X0205294Y0244200D01*
X0203604Y0245890D01*
X0203405Y0246147D01*
X0203270Y0246224D01*
X0203159Y0246335D01*
X0202859Y0246459D01*
X0201742Y0247097D01*
X0202185Y0247346D01*
X0202728Y0247775D01*
X0203198Y0248284D01*
X0203390Y0248572D01*
X0203582Y0248860D01*
X0203872Y0249489D01*
X0204059Y0250156D01*
X0204140Y0250844D01*
X0204112Y0251536D01*
X0203976Y0252215D01*
X0203736Y0252865D01*
X0203397Y0253469D01*
X0202968Y0254012D01*
X0202459Y0254482D01*
X0200008Y0256116D01*
X0197566Y0252456D01*
X0191743Y0256340D01*
X0197566Y0252456D01*
X0197566Y0252456D01*
X0200008Y0256116D01*
X0197556Y0257751D01*
X0196927Y0258041D01*
X0196261Y0258228D01*
X0195573Y0258309D01*
X0194881Y0258281D01*
X0194202Y0258145D01*
X0193552Y0257905D01*
X0192948Y0257566D01*
X0192404Y0257137D01*
X0191935Y0256628D01*
X0191743Y0256340D01*
X0191551Y0256052D01*
X0191261Y0255422D01*
X0191074Y0254756D01*
X0190993Y0254068D01*
X0191021Y0253376D01*
X0191055Y0253204D01*
X0185562Y0256343D01*
X0140901Y0286117D01*
X0140800Y0286233D01*
X0140507Y0286380D01*
X0140234Y0286562D01*
X0140084Y0286591D01*
X0135722Y0288772D01*
X0135659Y0288835D01*
X0135297Y0288985D01*
X0134946Y0289160D01*
X0134859Y0289166D01*
X0134777Y0289200D01*
X0134385Y0289200D01*
X0133994Y0289228D01*
X0133911Y0289200D01*
X0107095Y0289200D01*
X0105599Y0289574D01*
X0105965Y0290038D01*
X0106304Y0290642D01*
X0106545Y0291291D01*
X0106613Y0291631D01*
X0106680Y0291970D01*
X0106708Y0292662D01*
X0106627Y0293350D01*
X0106440Y0294017D01*
X0106151Y0294646D01*
X0105766Y0295222D01*
X0105297Y0295731D01*
X0104753Y0296160D01*
X0104149Y0296499D01*
X0103500Y0296740D01*
X0100610Y0297317D01*
X0097721Y0297894D01*
X0097029Y0297922D01*
X0096341Y0297841D01*
X0095675Y0297654D01*
X0095045Y0297364D01*
X0094469Y0296980D01*
X0093960Y0296510D01*
X0093531Y0295967D01*
X0093192Y0295363D01*
X0092952Y0294713D01*
X0092884Y0294374D01*
X0099748Y0293002D01*
X0092884Y0294374D01*
X0092816Y0294034D01*
X0092788Y0293342D01*
X0092857Y0292760D01*
X0087554Y0294085D01*
X0087277Y0294200D01*
X0087095Y0294200D01*
X0086919Y0294244D01*
X0086622Y0294200D01*
X0078022Y0294200D01*
X0078022Y0294250D01*
X0077322Y0295941D01*
X0076028Y0297235D01*
X0074337Y0297935D01*
X0066507Y0297935D01*
X0064816Y0297235D01*
X0063522Y0295941D01*
X0062822Y0294250D01*
X0062822Y0292420D01*
X0063522Y0290730D01*
X0064816Y0289436D01*
X0066507Y0288735D01*
X0074337Y0288735D01*
X0075941Y0289400D01*
X0086505Y0289400D01*
X0093562Y0287636D01*
X0092214Y0286736D01*
X0091284Y0285348D01*
X0090957Y0283709D01*
X0091281Y0282070D01*
X0092209Y0280680D01*
X0093597Y0279751D01*
X0100335Y0278404D01*
X0101974Y0278729D01*
X0102980Y0279400D01*
X0121073Y0279400D01*
X0187602Y0235048D01*
X0187623Y0235018D01*
X0187998Y0234784D01*
X0188366Y0234538D01*
X0188402Y0234531D01*
X0207735Y0222448D01*
X0247378Y0177849D01*
X0264617Y0150761D01*
X0264674Y0150588D01*
X0264871Y0150362D01*
X0265032Y0150109D01*
X0265180Y0150004D01*
X0265300Y0149867D01*
X0265568Y0149733D01*
X0265813Y0149561D01*
X0265991Y0149521D01*
X0273313Y0145860D01*
X0273764Y0144771D01*
X0274771Y0143764D01*
X0276088Y0143219D01*
X0277512Y0143219D01*
X0278829Y0143764D01*
X0279836Y0144771D01*
X0280381Y0146088D01*
X0280381Y0147512D01*
X0279836Y0148829D01*
X0278829Y0149836D01*
X0277512Y0150381D01*
X0276088Y0150381D01*
X0275495Y0150136D01*
X0268468Y0153649D01*
X0266399Y0156900D01*
X0266562Y0156900D01*
X0266797Y0156853D01*
X0267035Y0156900D01*
X0275806Y0156900D01*
X0280719Y0151987D01*
X0280719Y0151088D01*
X0281264Y0149771D01*
X0282271Y0148764D01*
X0283588Y0148219D01*
X0285012Y0148219D01*
X0286329Y0148764D01*
X0287336Y0149771D01*
X0287881Y0151088D01*
X0287881Y0152512D01*
X0287336Y0153829D01*
X0286329Y0154836D01*
X0285012Y0155381D01*
X0284113Y0155381D01*
X0278835Y0160659D01*
X0278159Y0161335D01*
X0277277Y0161700D01*
X0268084Y0161700D01*
X0265493Y0165587D01*
X0265591Y0165568D01*
X0266924Y0165834D01*
X0267992Y0164765D01*
X0268874Y0164400D01*
X0278306Y0164400D01*
X0289400Y0153306D01*
X0289400Y0151964D01*
X0288764Y0151329D01*
X0288219Y0150012D01*
X0288219Y0148588D01*
X0288764Y0147271D01*
X0289771Y0146264D01*
X0291088Y0145719D01*
X0292512Y0145719D01*
X0293829Y0146264D01*
X0294836Y0147271D01*
X0295381Y0148588D01*
X0295381Y0150012D01*
X0294836Y0151329D01*
X0294200Y0151964D01*
X0294200Y0154777D01*
X0293835Y0155659D01*
X0281335Y0168159D01*
X0280659Y0168835D01*
X0279777Y0169200D01*
X0270346Y0169200D01*
X0269840Y0169705D01*
X0269870Y0169854D01*
X0269542Y0171492D01*
X0265720Y0177202D01*
X0264330Y0178129D01*
X0262691Y0178453D01*
X0261053Y0178126D01*
X0259664Y0177197D01*
X0258737Y0175807D01*
X0258724Y0175741D01*
X0253989Y0182844D01*
X0253949Y0182970D01*
X0253726Y0183238D01*
X0253532Y0183528D01*
X0253423Y0183602D01*
X0251155Y0186322D01*
X0251263Y0186278D01*
X0253013Y0186278D01*
X0253106Y0186316D01*
X0253230Y0186280D01*
X0253663Y0186100D01*
X0253835Y0186100D01*
X0254000Y0186051D01*
X0254467Y0186100D01*
X0269988Y0186100D01*
X0271170Y0184131D01*
X0270828Y0184144D01*
X0270140Y0184062D01*
X0269473Y0183874D01*
X0268845Y0183583D01*
X0268557Y0183391D01*
X0272451Y0177574D01*
X0272451Y0177574D01*
X0268557Y0183390D01*
X0268269Y0183198D01*
X0267761Y0182727D01*
X0267333Y0182183D01*
X0266995Y0181578D01*
X0266756Y0180928D01*
X0266621Y0180249D01*
X0266595Y0179557D01*
X0266677Y0178869D01*
X0266865Y0178203D01*
X0267156Y0177574D01*
X0268795Y0175126D01*
X0270434Y0172678D01*
X0270904Y0172169D01*
X0271448Y0171741D01*
X0272053Y0171403D01*
X0272703Y0171164D01*
X0273382Y0171030D01*
X0274074Y0171003D01*
X0274762Y0171085D01*
X0275429Y0171274D01*
X0276057Y0171564D01*
X0276345Y0171757D01*
X0276633Y0171949D01*
X0277141Y0172420D01*
X0277569Y0172964D01*
X0277907Y0173569D01*
X0277934Y0173641D01*
X0280827Y0170748D01*
X0281308Y0169674D01*
X0326138Y0127334D01*
X0335754Y0096084D01*
X0336772Y0085898D01*
X0336701Y0086254D01*
X0333807Y0088184D01*
X0330395Y0087502D01*
X0329789Y0086594D01*
X0329200Y0089538D01*
X0329200Y0089777D01*
X0329107Y0090001D01*
X0329060Y0090239D01*
X0328926Y0090438D01*
X0328835Y0090659D01*
X0328663Y0090831D01*
X0328528Y0091032D01*
X0328329Y0091165D01*
X0326272Y0093222D01*
X0325019Y0095728D01*
X0325184Y0096127D01*
X0325184Y0097473D01*
X0324669Y0098717D01*
X0323717Y0099669D01*
X0322473Y0100184D01*
X0321127Y0100184D01*
X0319883Y0099669D01*
X0318931Y0098717D01*
X0318416Y0097473D01*
X0318416Y0096127D01*
X0318931Y0094883D01*
X0319883Y0093931D01*
X0320726Y0093582D01*
X0322115Y0090803D01*
X0322265Y0090441D01*
X0322328Y0090378D01*
X0322367Y0090300D01*
X0322663Y0090043D01*
X0324589Y0088117D01*
X0325116Y0085480D01*
X0324000Y0086225D01*
X0320588Y0085543D01*
X0318658Y0082648D01*
X0319340Y0079236D01*
X0322234Y0077306D01*
X0325646Y0077987D01*
X0326392Y0079105D01*
X0326736Y0077382D01*
X0312592Y0058522D01*
X0312492Y0058448D01*
X0312307Y0058143D01*
X0312125Y0057900D01*
X0310730Y0057322D01*
X0309436Y0056028D01*
X0308735Y0054337D01*
X0308735Y0046507D01*
X0309436Y0044816D01*
X0310730Y0043522D01*
X0312420Y0042822D01*
X0314250Y0042822D01*
X0315941Y0043522D01*
X0317235Y0044816D01*
X0317935Y0046507D01*
X0317935Y0054337D01*
X0317235Y0056028D01*
X0316941Y0056322D01*
X0330975Y0075033D01*
X0331032Y0075072D01*
X0331260Y0075413D01*
X0331506Y0075742D01*
X0331524Y0075809D01*
X0331562Y0075866D01*
X0331641Y0076269D01*
X0331743Y0076667D01*
X0331734Y0076735D01*
X0331747Y0076803D01*
X0331666Y0077205D01*
X0331608Y0077612D01*
X0331573Y0077671D01*
X0331134Y0079870D01*
X0332041Y0079265D01*
X0335452Y0079947D01*
X0337118Y0082444D01*
X0338213Y0071492D01*
X0339340Y0055797D01*
X0338735Y0054337D01*
X0338735Y0046507D01*
X0339436Y0044816D01*
X0340730Y0043522D01*
X0342420Y0042822D01*
X0344250Y0042822D01*
X0345941Y0043522D01*
X0347235Y0044816D01*
X0347935Y0046507D01*
X0347935Y0054337D01*
X0347235Y0056028D01*
X0346488Y0056774D01*
X0345438Y0071396D01*
X0345453Y0071446D01*
X0345387Y0072108D01*
X0345339Y0072772D01*
X0345316Y0072819D01*
X0342917Y0096810D01*
X0342951Y0097174D01*
X0342846Y0097516D01*
X0342811Y0097871D01*
X0342638Y0098193D01*
X0332885Y0129891D01*
X0332878Y0130119D01*
X0332676Y0130570D01*
X0332530Y0131043D01*
X0332385Y0131218D01*
X0332292Y0131426D01*
X0331933Y0131765D01*
X0331617Y0132147D01*
X0331416Y0132253D01*
X0324891Y0138416D01*
X0324973Y0138416D01*
X0326217Y0138931D01*
X0327169Y0139883D01*
X0327684Y0141127D01*
X0327684Y0142473D01*
X0327169Y0143717D01*
X0326217Y0144669D01*
X0325586Y0144930D01*
X0307827Y0187108D01*
X0309610Y0184334D01*
X0319908Y0165474D01*
X0328834Y0145929D01*
X0336343Y0125796D01*
X0342397Y0105179D01*
X0346965Y0084182D01*
X0350023Y0062914D01*
X0351555Y0041481D01*
X0351710Y0032837D01*
X0294924Y0032837D01*
X0294924Y0033194D02*
X0351703Y0033194D01*
X0351675Y0034793D02*
X0294924Y0034793D01*
X0294924Y0036391D02*
X0351646Y0036391D01*
X0351618Y0037990D02*
X0294924Y0037990D01*
X0294924Y0039588D02*
X0351589Y0039588D01*
X0351561Y0041187D02*
X0294856Y0041187D01*
X0294730Y0042785D02*
X0302073Y0042785D01*
X0302211Y0042740D02*
X0302958Y0042622D01*
X0303135Y0042622D01*
X0303135Y0050222D01*
X0298535Y0050222D01*
X0298535Y0047044D01*
X0298654Y0046298D01*
X0298887Y0045579D01*
X0299230Y0044906D01*
X0299674Y0044295D01*
X0300208Y0043761D01*
X0300820Y0043317D01*
X0301493Y0042974D01*
X0302211Y0042740D01*
X0303135Y0042785D02*
X0303535Y0042785D01*
X0303535Y0042622D02*
X0303713Y0042622D01*
X0304459Y0042740D01*
X0305178Y0042974D01*
X0305851Y0043317D01*
X0306462Y0043761D01*
X0306997Y0044295D01*
X0307441Y0044906D01*
X0307784Y0045579D01*
X0308017Y0046298D01*
X0308135Y0047044D01*
X0308135Y0050222D01*
X0303536Y0050222D01*
X0303536Y0050622D01*
X0308135Y0050622D01*
X0308135Y0053800D01*
X0308017Y0054546D01*
X0307784Y0055265D01*
X0307441Y0055938D01*
X0306997Y0056549D01*
X0306462Y0057083D01*
X0305851Y0057527D01*
X0305178Y0057870D01*
X0304459Y0058104D01*
X0303713Y0058222D01*
X0303535Y0058222D01*
X0303535Y0050622D01*
X0303135Y0050622D01*
X0303135Y0050222D01*
X0303535Y0050222D01*
X0303535Y0042622D01*
X0304598Y0042785D02*
X0322073Y0042785D01*
X0322211Y0042740D02*
X0322958Y0042622D01*
X0323135Y0042622D01*
X0323135Y0050222D01*
X0318535Y0050222D01*
X0318535Y0047044D01*
X0318654Y0046298D01*
X0318887Y0045579D01*
X0319230Y0044906D01*
X0319674Y0044295D01*
X0320208Y0043761D01*
X0320820Y0043317D01*
X0321493Y0042974D01*
X0322211Y0042740D01*
X0323135Y0042785D02*
X0323535Y0042785D01*
X0323535Y0042622D02*
X0323713Y0042622D01*
X0324459Y0042740D01*
X0325178Y0042974D01*
X0325851Y0043317D01*
X0326462Y0043761D01*
X0326997Y0044295D01*
X0327441Y0044906D01*
X0327784Y0045579D01*
X0328017Y0046298D01*
X0328135Y0047044D01*
X0328135Y0050222D01*
X0323536Y0050222D01*
X0323536Y0050622D01*
X0328135Y0050622D01*
X0328135Y0053800D01*
X0328017Y0054546D01*
X0327784Y0055265D01*
X0327441Y0055938D01*
X0326997Y0056549D01*
X0326462Y0057083D01*
X0325851Y0057527D01*
X0325178Y0057870D01*
X0324459Y0058104D01*
X0323713Y0058222D01*
X0323535Y0058222D01*
X0323535Y0050622D01*
X0323135Y0050622D01*
X0323135Y0050222D01*
X0323535Y0050222D01*
X0323535Y0042622D01*
X0324598Y0042785D02*
X0332073Y0042785D01*
X0332211Y0042740D02*
X0332958Y0042622D01*
X0333135Y0042622D01*
X0333135Y0050222D01*
X0328535Y0050222D01*
X0328535Y0047044D01*
X0328654Y0046298D01*
X0328887Y0045579D01*
X0329230Y0044906D01*
X0329674Y0044295D01*
X0330208Y0043761D01*
X0330820Y0043317D01*
X0331493Y0042974D01*
X0332211Y0042740D01*
X0333135Y0042785D02*
X0333535Y0042785D01*
X0333535Y0042622D02*
X0333713Y0042622D01*
X0334459Y0042740D01*
X0335178Y0042974D01*
X0335851Y0043317D01*
X0336462Y0043761D01*
X0336997Y0044295D01*
X0337441Y0044906D01*
X0337784Y0045579D01*
X0338017Y0046298D01*
X0338135Y0047044D01*
X0338135Y0050222D01*
X0333536Y0050222D01*
X0333536Y0050622D01*
X0338135Y0050622D01*
X0338135Y0053800D01*
X0338017Y0054546D01*
X0337784Y0055265D01*
X0337441Y0055938D01*
X0336997Y0056549D01*
X0336462Y0057083D01*
X0335851Y0057527D01*
X0335178Y0057870D01*
X0334459Y0058104D01*
X0333713Y0058222D01*
X0333535Y0058222D01*
X0333535Y0050622D01*
X0333135Y0050622D01*
X0333135Y0050222D01*
X0333535Y0050222D01*
X0333535Y0042622D01*
X0334598Y0042785D02*
X0351462Y0042785D01*
X0351348Y0044384D02*
X0346802Y0044384D01*
X0347718Y0045982D02*
X0351234Y0045982D01*
X0351119Y0047581D02*
X0347935Y0047581D01*
X0347935Y0049179D02*
X0351005Y0049179D01*
X0350891Y0050778D02*
X0347935Y0050778D01*
X0347935Y0052376D02*
X0350776Y0052376D01*
X0350662Y0053975D02*
X0347935Y0053975D01*
X0347423Y0055573D02*
X0350548Y0055573D01*
X0350433Y0057172D02*
X0346460Y0057172D01*
X0346345Y0058770D02*
X0350319Y0058770D01*
X0350205Y0060369D02*
X0346230Y0060369D01*
X0346115Y0061967D02*
X0350090Y0061967D01*
X0349929Y0063566D02*
X0346001Y0063566D01*
X0345886Y0065164D02*
X0349699Y0065164D01*
X0349469Y0066763D02*
X0345771Y0066763D01*
X0345656Y0068361D02*
X0349239Y0068361D01*
X0349009Y0069960D02*
X0345541Y0069960D01*
X0345442Y0071558D02*
X0348780Y0071558D01*
X0348550Y0073157D02*
X0345282Y0073157D01*
X0345122Y0074755D02*
X0348320Y0074755D01*
X0348090Y0076354D02*
X0344963Y0076354D01*
X0344803Y0077952D02*
X0347860Y0077952D01*
X0347630Y0079551D02*
X0344643Y0079551D01*
X0344483Y0081149D02*
X0347401Y0081149D01*
X0347171Y0082748D02*
X0344323Y0082748D01*
X0344163Y0084346D02*
X0346929Y0084346D01*
X0346581Y0085945D02*
X0344003Y0085945D01*
X0343844Y0087543D02*
X0346233Y0087543D01*
X0345886Y0089142D02*
X0343684Y0089142D01*
X0343524Y0090740D02*
X0345538Y0090740D01*
X0345190Y0092339D02*
X0343364Y0092339D01*
X0343204Y0093937D02*
X0344842Y0093937D01*
X0344495Y0095536D02*
X0343044Y0095536D01*
X0342948Y0097134D02*
X0344147Y0097134D01*
X0343799Y0098733D02*
X0342472Y0098733D01*
X0341980Y0100332D02*
X0343452Y0100332D01*
X0343104Y0101930D02*
X0341488Y0101930D01*
X0340996Y0103529D02*
X0342756Y0103529D01*
X0342408Y0105127D02*
X0340504Y0105127D01*
X0340013Y0106726D02*
X0341943Y0106726D01*
X0341474Y0108324D02*
X0339521Y0108324D01*
X0339029Y0109923D02*
X0341004Y0109923D01*
X0340535Y0111521D02*
X0338537Y0111521D01*
X0338045Y0113120D02*
X0340065Y0113120D01*
X0339596Y0114718D02*
X0337553Y0114718D01*
X0337061Y0116317D02*
X0339127Y0116317D01*
X0338657Y0117915D02*
X0336570Y0117915D01*
X0336078Y0119514D02*
X0338188Y0119514D01*
X0337719Y0121112D02*
X0335586Y0121112D01*
X0335094Y0122711D02*
X0337249Y0122711D01*
X0336780Y0124309D02*
X0334602Y0124309D01*
X0334110Y0125908D02*
X0336302Y0125908D01*
X0335705Y0127506D02*
X0333618Y0127506D01*
X0333127Y0129105D02*
X0335109Y0129105D01*
X0334513Y0130703D02*
X0332635Y0130703D01*
X0331365Y0132302D02*
X0333917Y0132302D01*
X0333321Y0133900D02*
X0329672Y0133900D01*
X0327980Y0135499D02*
X0332724Y0135499D01*
X0332128Y0137097D02*
X0326287Y0137097D01*
X0325649Y0138696D02*
X0331532Y0138696D01*
X0330936Y0140294D02*
X0327339Y0140294D01*
X0327684Y0141893D02*
X0330339Y0141893D01*
X0329743Y0143491D02*
X0327263Y0143491D01*
X0325519Y0145090D02*
X0329147Y0145090D01*
X0328487Y0146688D02*
X0324846Y0146688D01*
X0324173Y0148287D02*
X0327757Y0148287D01*
X0327027Y0149885D02*
X0323500Y0149885D01*
X0322827Y0151484D02*
X0326297Y0151484D01*
X0325567Y0153082D02*
X0322154Y0153082D01*
X0321481Y0154681D02*
X0324837Y0154681D01*
X0324107Y0156279D02*
X0320807Y0156279D01*
X0320134Y0157878D02*
X0323377Y0157878D01*
X0322647Y0159476D02*
X0319461Y0159476D01*
X0318788Y0161075D02*
X0321917Y0161075D01*
X0321187Y0162673D02*
X0318115Y0162673D01*
X0317442Y0164272D02*
X0320457Y0164272D01*
X0319692Y0165870D02*
X0316769Y0165870D01*
X0316096Y0167469D02*
X0318819Y0167469D01*
X0317946Y0169068D02*
X0315423Y0169068D01*
X0314750Y0170666D02*
X0317073Y0170666D01*
X0316200Y0172265D02*
X0314077Y0172265D01*
X0313404Y0173863D02*
X0315327Y0173863D01*
X0314455Y0175462D02*
X0312731Y0175462D01*
X0312058Y0177060D02*
X0313582Y0177060D01*
X0312709Y0178659D02*
X0311385Y0178659D01*
X0311836Y0180257D02*
X0310712Y0180257D01*
X0310963Y0181856D02*
X0310039Y0181856D01*
X0310090Y0183454D02*
X0309365Y0183454D01*
X0309148Y0185053D02*
X0308692Y0185053D01*
X0308121Y0186651D02*
X0308019Y0186651D01*
X0304300Y0189300D02*
X0281800Y0216800D01*
X0278442Y0220942D01*
X0274540Y0218621D02*
X0272843Y0218621D01*
X0272942Y0220220D02*
X0270341Y0220220D01*
X0268441Y0220220D02*
X0264200Y0220220D01*
X0264200Y0221818D02*
X0272157Y0221818D01*
X0272062Y0223417D02*
X0264200Y0223417D01*
X0264200Y0225015D02*
X0272567Y0225015D01*
X0273932Y0226614D02*
X0264200Y0226614D01*
X0264200Y0228212D02*
X0277663Y0228212D01*
X0278993Y0226614D02*
X0279049Y0226614D01*
X0276278Y0229811D02*
X0264186Y0229811D01*
X0263085Y0231409D02*
X0274893Y0231409D01*
X0273508Y0233008D02*
X0261486Y0233008D01*
X0259888Y0234606D02*
X0272123Y0234606D01*
X0270691Y0236205D02*
X0258289Y0236205D01*
X0256691Y0237803D02*
X0269092Y0237803D01*
X0267494Y0239402D02*
X0255092Y0239402D01*
X0253494Y0241001D02*
X0265895Y0241001D01*
X0264297Y0242599D02*
X0251895Y0242599D01*
X0249783Y0244198D02*
X0262698Y0244198D01*
X0261099Y0245796D02*
X0203698Y0245796D01*
X0202247Y0247395D02*
X0259501Y0247395D01*
X0257902Y0248993D02*
X0203643Y0248993D01*
X0203390Y0248572D02*
X0197566Y0252456D01*
X0197566Y0252456D01*
X0197566Y0252456D01*
X0203390Y0248572D01*
X0202759Y0248993D02*
X0202758Y0248993D01*
X0204110Y0250592D02*
X0256304Y0250592D01*
X0254529Y0252190D02*
X0203981Y0252190D01*
X0203144Y0253789D02*
X0252684Y0253789D01*
X0250839Y0255387D02*
X0201101Y0255387D01*
X0199521Y0255387D02*
X0199521Y0255387D01*
X0198704Y0256986D02*
X0201865Y0256986D01*
X0202434Y0256606D02*
X0205846Y0257288D01*
X0207777Y0260182D01*
X0207095Y0263594D01*
X0204200Y0265525D01*
X0200788Y0264843D01*
X0198858Y0261948D01*
X0199539Y0258536D01*
X0202434Y0256606D01*
X0204334Y0256986D02*
X0248995Y0256986D01*
X0247150Y0258584D02*
X0206711Y0258584D01*
X0207777Y0260183D02*
X0245305Y0260183D01*
X0243460Y0261781D02*
X0207457Y0261781D01*
X0207138Y0263380D02*
X0241616Y0263380D01*
X0239771Y0264978D02*
X0208246Y0264978D01*
X0207983Y0264926D02*
X0211395Y0265607D01*
X0213325Y0268502D01*
X0212643Y0271914D01*
X0209749Y0273844D01*
X0206337Y0273163D01*
X0204406Y0270268D01*
X0205088Y0266856D01*
X0207983Y0264926D01*
X0207904Y0264978D02*
X0205020Y0264978D01*
X0205507Y0266577D02*
X0170212Y0266577D01*
X0172609Y0264978D02*
X0201464Y0264978D01*
X0199812Y0263380D02*
X0175007Y0263380D01*
X0177405Y0261781D02*
X0198891Y0261781D01*
X0199210Y0260183D02*
X0179803Y0260183D01*
X0182200Y0258584D02*
X0199530Y0258584D01*
X0198455Y0253789D02*
X0198455Y0253789D01*
X0197965Y0252190D02*
X0197965Y0252190D01*
X0200362Y0250592D02*
X0200362Y0250592D01*
X0195568Y0253789D02*
X0195568Y0253789D01*
X0193171Y0255387D02*
X0193171Y0255387D01*
X0192265Y0256986D02*
X0184598Y0256986D01*
X0184300Y0254300D02*
X0139300Y0284300D01*
X0134300Y0286800D01*
X0106800Y0286800D01*
X0086800Y0291800D01*
X0074300Y0291800D01*
X0070422Y0293335D01*
X0070222Y0288135D02*
X0067044Y0288135D01*
X0066298Y0288017D01*
X0065579Y0287784D01*
X0064906Y0287441D01*
X0064295Y0286997D01*
X0063761Y0286462D01*
X0063317Y0285851D01*
X0062974Y0285178D01*
X0062740Y0284459D01*
X0062622Y0283713D01*
X0062622Y0283535D01*
X0070222Y0283535D01*
X0070222Y0283135D01*
X0070622Y0283135D01*
X0070622Y0278535D01*
X0073800Y0278535D01*
X0074546Y0278654D01*
X0075265Y0278887D01*
X0075938Y0279230D01*
X0076549Y0279674D01*
X0077083Y0280208D01*
X0077527Y0280820D01*
X0077870Y0281493D01*
X0078104Y0282211D01*
X0078222Y0282958D01*
X0078222Y0283135D01*
X0070622Y0283135D01*
X0070622Y0283535D01*
X0078222Y0283535D01*
X0078222Y0283713D01*
X0078104Y0284459D01*
X0077870Y0285178D01*
X0077527Y0285851D01*
X0077083Y0286462D01*
X0076549Y0286997D01*
X0075938Y0287441D01*
X0075265Y0287784D01*
X0074546Y0288017D01*
X0073800Y0288135D01*
X0070622Y0288135D01*
X0070622Y0283536D01*
X0070222Y0283536D01*
X0070222Y0288135D01*
X0070222Y0287357D02*
X0070622Y0287357D01*
X0070622Y0285759D02*
X0070222Y0285759D01*
X0070222Y0284160D02*
X0070622Y0284160D01*
X0070222Y0283135D02*
X0062622Y0283135D01*
X0062622Y0282958D01*
X0062740Y0282211D01*
X0062974Y0281493D01*
X0063317Y0280820D01*
X0063761Y0280208D01*
X0064295Y0279674D01*
X0064906Y0279230D01*
X0065579Y0278887D01*
X0066298Y0278654D01*
X0067044Y0278535D01*
X0070222Y0278535D01*
X0070222Y0283135D01*
X0070222Y0282562D02*
X0070622Y0282562D01*
X0070622Y0280963D02*
X0070222Y0280963D01*
X0070222Y0279365D02*
X0070622Y0279365D01*
X0076123Y0279365D02*
X0095528Y0279365D01*
X0092020Y0280963D02*
X0077601Y0280963D01*
X0078159Y0282562D02*
X0091184Y0282562D01*
X0091047Y0284160D02*
X0078151Y0284160D01*
X0077574Y0285759D02*
X0091559Y0285759D01*
X0093145Y0287357D02*
X0076053Y0287357D01*
X0074869Y0288956D02*
X0088281Y0288956D01*
X0088890Y0293751D02*
X0092805Y0293751D01*
X0093187Y0295350D02*
X0077567Y0295350D01*
X0076314Y0296948D02*
X0094435Y0296948D01*
X0095999Y0293751D02*
X0096000Y0293751D01*
X0099748Y0293002D02*
X0099748Y0293002D01*
X0099748Y0293002D01*
X0106613Y0291631D01*
X0099748Y0293002D01*
X0100610Y0297317D01*
X0099748Y0293002D01*
X0099748Y0293002D01*
X0099898Y0293751D02*
X0099898Y0293751D01*
X0100217Y0295350D02*
X0100217Y0295350D01*
X0100537Y0296948D02*
X0100537Y0296948D01*
X0102455Y0296948D02*
X0190894Y0296948D01*
X0187967Y0298547D02*
X0073872Y0298547D01*
X0073800Y0298535D02*
X0074546Y0298654D01*
X0075265Y0298887D01*
X0075938Y0299230D01*
X0076549Y0299674D01*
X0077083Y0300208D01*
X0077527Y0300820D01*
X0077870Y0301493D01*
X0078104Y0302211D01*
X0078222Y0302958D01*
X0078222Y0303135D01*
X0070622Y0303135D01*
X0070622Y0298535D01*
X0073800Y0298535D01*
X0070622Y0298547D02*
X0070222Y0298547D01*
X0070222Y0298535D02*
X0070222Y0303135D01*
X0070622Y0303135D01*
X0070622Y0303535D01*
X0078222Y0303535D01*
X0078222Y0303713D01*
X0078104Y0304459D01*
X0077870Y0305178D01*
X0077527Y0305851D01*
X0077083Y0306462D01*
X0076549Y0306997D01*
X0075938Y0307441D01*
X0075265Y0307784D01*
X0074546Y0308017D01*
X0073800Y0308135D01*
X0070622Y0308135D01*
X0070622Y0303536D01*
X0070222Y0303536D01*
X0070222Y0308135D01*
X0067044Y0308135D01*
X0066298Y0308017D01*
X0065579Y0307784D01*
X0064906Y0307441D01*
X0064295Y0306997D01*
X0063761Y0306462D01*
X0063317Y0305851D01*
X0062974Y0305178D01*
X0062740Y0304459D01*
X0062622Y0303713D01*
X0062622Y0303535D01*
X0070222Y0303535D01*
X0070222Y0303135D01*
X0062622Y0303135D01*
X0062622Y0302958D01*
X0062740Y0302211D01*
X0062974Y0301493D01*
X0063317Y0300820D01*
X0063761Y0300208D01*
X0064295Y0299674D01*
X0064906Y0299230D01*
X0065579Y0298887D01*
X0066298Y0298654D01*
X0067044Y0298535D01*
X0070222Y0298535D01*
X0070222Y0300145D02*
X0070622Y0300145D01*
X0070622Y0301744D02*
X0070222Y0301744D01*
X0070222Y0303342D02*
X0052837Y0303342D01*
X0052837Y0301744D02*
X0062892Y0301744D01*
X0063824Y0300145D02*
X0052837Y0300145D01*
X0052837Y0298547D02*
X0066972Y0298547D01*
X0064530Y0296948D02*
X0052837Y0296948D01*
X0052837Y0295350D02*
X0063277Y0295350D01*
X0062822Y0293751D02*
X0052837Y0293751D01*
X0052837Y0292153D02*
X0062933Y0292153D01*
X0063698Y0290554D02*
X0052837Y0290554D01*
X0052837Y0288956D02*
X0065975Y0288956D01*
X0064792Y0287357D02*
X0052837Y0287357D01*
X0052837Y0285759D02*
X0063270Y0285759D01*
X0062693Y0284160D02*
X0052837Y0284160D01*
X0052837Y0282562D02*
X0062685Y0282562D01*
X0063244Y0280963D02*
X0052837Y0280963D01*
X0052837Y0279365D02*
X0064721Y0279365D01*
X0064834Y0274569D02*
X0128319Y0274569D01*
X0125922Y0276168D02*
X0052837Y0276168D01*
X0052837Y0277766D02*
X0123524Y0277766D01*
X0121126Y0279365D02*
X0102927Y0279365D01*
X0099185Y0281800D02*
X0097789Y0283196D01*
X0099185Y0281800D02*
X0121800Y0281800D01*
X0189300Y0236800D01*
X0209300Y0224300D01*
X0249300Y0179300D01*
X0266800Y0151800D01*
X0276800Y0146800D01*
X0278170Y0143491D02*
X0309031Y0143491D01*
X0310723Y0141893D02*
X0268157Y0141893D01*
X0267343Y0143491D02*
X0275430Y0143491D01*
X0273632Y0145090D02*
X0266528Y0145090D01*
X0265714Y0146688D02*
X0271657Y0146688D01*
X0268460Y0148287D02*
X0264899Y0148287D01*
X0265284Y0149885D02*
X0264085Y0149885D01*
X0264156Y0151484D02*
X0263132Y0151484D01*
X0263139Y0153082D02*
X0262152Y0153082D01*
X0262122Y0154681D02*
X0261173Y0154681D01*
X0261105Y0156279D02*
X0260193Y0156279D01*
X0260087Y0157878D02*
X0259214Y0157878D01*
X0259070Y0159476D02*
X0258234Y0159476D01*
X0258053Y0161075D02*
X0257255Y0161075D01*
X0257036Y0162673D02*
X0256275Y0162673D01*
X0256019Y0164272D02*
X0255295Y0164272D01*
X0255001Y0165870D02*
X0254316Y0165870D01*
X0253984Y0167469D02*
X0253227Y0167469D01*
X0252967Y0169068D02*
X0252065Y0169068D01*
X0251950Y0170666D02*
X0250904Y0170666D01*
X0250932Y0172265D02*
X0249742Y0172265D01*
X0249915Y0173863D02*
X0248581Y0173863D01*
X0248898Y0175462D02*
X0247420Y0175462D01*
X0247881Y0177060D02*
X0246258Y0177060D01*
X0246659Y0178659D02*
X0245097Y0178659D01*
X0245238Y0180257D02*
X0243936Y0180257D01*
X0243817Y0181856D02*
X0242774Y0181856D01*
X0242396Y0183454D02*
X0241431Y0183454D01*
X0240975Y0185053D02*
X0240066Y0185053D01*
X0239555Y0186651D02*
X0238700Y0186651D01*
X0238134Y0188250D02*
X0237335Y0188250D01*
X0236713Y0189848D02*
X0235970Y0189848D01*
X0235292Y0191447D02*
X0234605Y0191447D01*
X0233871Y0193045D02*
X0233239Y0193045D01*
X0232450Y0194644D02*
X0231874Y0194644D01*
X0231029Y0196242D02*
X0230509Y0196242D01*
X0229608Y0197841D02*
X0228965Y0197841D01*
X0228187Y0199439D02*
X0227367Y0199439D01*
X0226766Y0201038D02*
X0225768Y0201038D01*
X0225346Y0202636D02*
X0224170Y0202636D01*
X0223925Y0204235D02*
X0222571Y0204235D01*
X0222504Y0205833D02*
X0220973Y0205833D01*
X0221083Y0207432D02*
X0219374Y0207432D01*
X0219662Y0209030D02*
X0217776Y0209030D01*
X0216619Y0210187D02*
X0216619Y0210187D01*
X0216102Y0210629D02*
X0218241Y0210629D01*
X0216820Y0212227D02*
X0214230Y0212227D01*
X0215399Y0213826D02*
X0212359Y0213826D01*
X0213978Y0215424D02*
X0210487Y0215424D01*
X0208615Y0217023D02*
X0212557Y0217023D01*
X0211137Y0218621D02*
X0206744Y0218621D01*
X0204872Y0220220D02*
X0209716Y0220220D01*
X0208295Y0221818D02*
X0203000Y0221818D01*
X0202028Y0222649D02*
X0202028Y0222649D01*
X0200971Y0223417D02*
X0206185Y0223417D01*
X0203627Y0225015D02*
X0198771Y0225015D01*
X0196571Y0226614D02*
X0201069Y0226614D01*
X0198512Y0228212D02*
X0194370Y0228212D01*
X0195954Y0229811D02*
X0192170Y0229811D01*
X0193397Y0231409D02*
X0189970Y0231409D01*
X0190839Y0233008D02*
X0187770Y0233008D01*
X0186504Y0233927D02*
X0186504Y0233927D01*
X0185396Y0234606D02*
X0188264Y0234606D01*
X0185866Y0236205D02*
X0182788Y0236205D01*
X0183468Y0237803D02*
X0180179Y0237803D01*
X0181070Y0239402D02*
X0177571Y0239402D01*
X0178673Y0241001D02*
X0174962Y0241001D01*
X0176275Y0242599D02*
X0172354Y0242599D01*
X0173877Y0244198D02*
X0169664Y0244198D01*
X0171479Y0245796D02*
X0166527Y0245796D01*
X0169081Y0247395D02*
X0163390Y0247395D01*
X0164286Y0250592D02*
X0157115Y0250592D01*
X0153978Y0252190D02*
X0161888Y0252190D01*
X0159490Y0253789D02*
X0150333Y0253789D01*
X0153047Y0252665D02*
X0153047Y0252665D01*
X0154695Y0256986D02*
X0142615Y0256986D01*
X0138756Y0258584D02*
X0152297Y0258584D01*
X0149899Y0260183D02*
X0134780Y0260183D01*
X0135319Y0260008D02*
X0135319Y0260008D01*
X0129861Y0261781D02*
X0147502Y0261781D01*
X0145104Y0263380D02*
X0124941Y0263380D01*
X0120021Y0264978D02*
X0142706Y0264978D01*
X0140308Y0266577D02*
X0114406Y0266577D01*
X0117070Y0265937D02*
X0117070Y0265937D01*
X0107747Y0268175D02*
X0137911Y0268175D01*
X0135513Y0269774D02*
X0101089Y0269774D01*
X0098412Y0270416D02*
X0098412Y0270416D01*
X0092377Y0271372D02*
X0133115Y0271372D01*
X0130717Y0272971D02*
X0082285Y0272971D01*
X0079460Y0273418D02*
X0079460Y0273418D01*
X0099236Y0299340D02*
X0102648Y0298658D01*
X0105543Y0300588D01*
X0106225Y0304000D01*
X0104294Y0306895D01*
X0100882Y0307577D01*
X0097987Y0305646D01*
X0097306Y0302234D01*
X0099236Y0299340D01*
X0098699Y0300145D02*
X0077020Y0300145D01*
X0077952Y0301744D02*
X0097633Y0301744D01*
X0097527Y0303342D02*
X0070622Y0303342D01*
X0070622Y0304941D02*
X0070222Y0304941D01*
X0070222Y0306539D02*
X0070622Y0306539D01*
X0070622Y0308535D02*
X0073800Y0308535D01*
X0074546Y0308654D01*
X0075265Y0308887D01*
X0075938Y0309230D01*
X0076549Y0309674D01*
X0077083Y0310208D01*
X0077527Y0310820D01*
X0077870Y0311493D01*
X0078104Y0312211D01*
X0078222Y0312958D01*
X0078222Y0313135D01*
X0070622Y0313135D01*
X0070622Y0308535D01*
X0070222Y0308535D02*
X0070222Y0313135D01*
X0070622Y0313135D01*
X0070622Y0313535D01*
X0078222Y0313535D01*
X0078222Y0313713D01*
X0078104Y0314459D01*
X0077870Y0315178D01*
X0077527Y0315851D01*
X0077083Y0316462D01*
X0076549Y0316997D01*
X0075938Y0317441D01*
X0075265Y0317784D01*
X0074546Y0318017D01*
X0073800Y0318135D01*
X0070622Y0318135D01*
X0070622Y0313536D01*
X0070222Y0313536D01*
X0070222Y0318135D01*
X0067044Y0318135D01*
X0066298Y0318017D01*
X0065579Y0317784D01*
X0064906Y0317441D01*
X0064295Y0316997D01*
X0063761Y0316462D01*
X0063317Y0315851D01*
X0062974Y0315178D01*
X0062740Y0314459D01*
X0062622Y0313713D01*
X0062622Y0313535D01*
X0070222Y0313535D01*
X0070222Y0313135D01*
X0062622Y0313135D01*
X0062622Y0312958D01*
X0062740Y0312211D01*
X0062974Y0311493D01*
X0063317Y0310820D01*
X0063761Y0310208D01*
X0064295Y0309674D01*
X0064906Y0309230D01*
X0065579Y0308887D01*
X0066298Y0308654D01*
X0067044Y0308535D01*
X0070222Y0308535D01*
X0070222Y0309737D02*
X0070622Y0309737D01*
X0070622Y0311335D02*
X0070222Y0311335D01*
X0070222Y0312934D02*
X0070622Y0312934D01*
X0070622Y0314532D02*
X0070222Y0314532D01*
X0070222Y0316131D02*
X0070622Y0316131D01*
X0070622Y0317729D02*
X0070222Y0317729D01*
X0066507Y0318735D02*
X0074337Y0318735D01*
X0076028Y0319436D01*
X0077322Y0320730D01*
X0078022Y0322420D01*
X0078022Y0324250D01*
X0077322Y0325941D01*
X0076028Y0327235D01*
X0074337Y0327935D01*
X0066507Y0327935D01*
X0064816Y0327235D01*
X0063522Y0325941D01*
X0062822Y0324250D01*
X0062822Y0322420D01*
X0063522Y0320730D01*
X0064816Y0319436D01*
X0066507Y0318735D01*
X0065472Y0317729D02*
X0052837Y0317729D01*
X0052837Y0316131D02*
X0063520Y0316131D01*
X0062764Y0314532D02*
X0052837Y0314532D01*
X0052837Y0312934D02*
X0062626Y0312934D01*
X0063054Y0311335D02*
X0052837Y0311335D01*
X0052837Y0309737D02*
X0064233Y0309737D01*
X0063838Y0306539D02*
X0052837Y0306539D01*
X0052837Y0304941D02*
X0062897Y0304941D01*
X0052837Y0308138D02*
X0167453Y0308138D01*
X0170953Y0306539D02*
X0104531Y0306539D01*
X0105597Y0304941D02*
X0174454Y0304941D01*
X0177954Y0303342D02*
X0106093Y0303342D01*
X0105774Y0301744D02*
X0181454Y0301744D01*
X0184954Y0300145D02*
X0104879Y0300145D01*
X0105648Y0295350D02*
X0193822Y0295350D01*
X0196749Y0293751D02*
X0106515Y0293751D01*
X0106688Y0292153D02*
X0199677Y0292153D01*
X0202604Y0290554D02*
X0106255Y0290554D01*
X0103999Y0292153D02*
X0103999Y0292153D01*
X0097847Y0304941D02*
X0077947Y0304941D01*
X0077006Y0306539D02*
X0099327Y0306539D01*
X0101196Y0309146D02*
X0099265Y0312041D01*
X0099947Y0315452D01*
X0102842Y0317383D01*
X0106254Y0316701D01*
X0108184Y0313807D01*
X0107502Y0310395D01*
X0104608Y0308464D01*
X0101196Y0309146D01*
X0100802Y0309737D02*
X0076611Y0309737D01*
X0077790Y0311335D02*
X0099736Y0311335D01*
X0099444Y0312934D02*
X0078218Y0312934D01*
X0078080Y0314532D02*
X0099763Y0314532D01*
X0100964Y0316131D02*
X0077324Y0316131D01*
X0075372Y0317729D02*
X0141077Y0317729D01*
X0135632Y0319328D02*
X0075767Y0319328D01*
X0077403Y0320926D02*
X0130188Y0320926D01*
X0124593Y0322525D02*
X0078022Y0322525D01*
X0078022Y0324123D02*
X0117244Y0324123D01*
X0109896Y0325722D02*
X0077413Y0325722D01*
X0075822Y0327320D02*
X0101709Y0327320D01*
X0090591Y0328919D02*
X0052837Y0328919D01*
X0052837Y0330517D02*
X0075998Y0330517D01*
X0065022Y0327320D02*
X0052837Y0327320D01*
X0052837Y0325722D02*
X0063431Y0325722D01*
X0062822Y0324123D02*
X0052837Y0324123D01*
X0052837Y0322525D02*
X0062822Y0322525D01*
X0063441Y0320926D02*
X0052837Y0320926D01*
X0052837Y0319328D02*
X0065077Y0319328D01*
X0050737Y0333847D02*
X0050737Y0272824D01*
X0106516Y0309737D02*
X0163509Y0309737D01*
X0159224Y0311335D02*
X0107690Y0311335D01*
X0108010Y0312934D02*
X0154938Y0312934D01*
X0150652Y0314532D02*
X0107700Y0314532D01*
X0106634Y0316131D02*
X0146366Y0316131D01*
X0135367Y0288956D02*
X0205352Y0288956D01*
X0207839Y0287357D02*
X0138552Y0287357D01*
X0141438Y0285759D02*
X0210326Y0285759D01*
X0212814Y0284160D02*
X0143836Y0284160D01*
X0146234Y0282562D02*
X0215301Y0282562D01*
X0217788Y0280963D02*
X0148632Y0280963D01*
X0151029Y0279365D02*
X0220276Y0279365D01*
X0222713Y0277766D02*
X0153427Y0277766D01*
X0155825Y0276168D02*
X0224848Y0276168D01*
X0226984Y0274569D02*
X0158223Y0274569D01*
X0160621Y0272971D02*
X0206209Y0272971D01*
X0205143Y0271372D02*
X0163018Y0271372D01*
X0165416Y0269774D02*
X0204505Y0269774D01*
X0204824Y0268175D02*
X0167814Y0268175D01*
X0157093Y0255387D02*
X0146474Y0255387D01*
X0160253Y0248993D02*
X0166684Y0248993D01*
X0184300Y0254300D02*
X0201800Y0244300D01*
X0204300Y0241800D01*
X0249300Y0241800D01*
X0261800Y0229300D01*
X0261800Y0216800D01*
X0274300Y0204300D01*
X0280942Y0204300D01*
X0304300Y0180942D01*
X0304300Y0166800D01*
X0306836Y0164272D02*
X0312234Y0164272D01*
X0311561Y0165870D02*
X0307791Y0165870D01*
X0307881Y0166088D02*
X0307881Y0167512D01*
X0307336Y0168829D01*
X0306700Y0169464D01*
X0306700Y0177415D01*
X0321162Y0143068D01*
X0320916Y0142473D01*
X0320916Y0142170D01*
X0286251Y0174909D01*
X0285387Y0175238D01*
X0281841Y0178784D01*
X0281779Y0178888D01*
X0281961Y0178852D01*
X0284852Y0180787D01*
X0285528Y0184201D01*
X0283593Y0187092D01*
X0280179Y0187768D01*
X0277520Y0185987D01*
X0274666Y0190743D01*
X0274513Y0191113D01*
X0274341Y0191284D01*
X0274216Y0191492D01*
X0273895Y0191730D01*
X0273613Y0192013D01*
X0273389Y0192106D01*
X0273194Y0192250D01*
X0272806Y0192347D01*
X0272437Y0192500D01*
X0272194Y0192500D01*
X0271959Y0192559D01*
X0271563Y0192500D01*
X0256146Y0192500D01*
X0255868Y0193170D01*
X0250670Y0198368D01*
X0249053Y0199038D01*
X0247303Y0199038D01*
X0245686Y0198368D01*
X0244448Y0197130D01*
X0243778Y0195513D01*
X0243778Y0195175D01*
X0241443Y0197977D01*
X0241440Y0197986D01*
X0241138Y0198343D01*
X0240838Y0198703D01*
X0240830Y0198708D01*
X0213762Y0230696D01*
X0213622Y0230934D01*
X0213457Y0231057D01*
X0213324Y0231215D01*
X0213079Y0231341D01*
X0198395Y0242353D01*
X0198463Y0242697D01*
X0198295Y0243539D01*
X0200330Y0242376D01*
X0202941Y0239765D01*
X0203823Y0239400D01*
X0248306Y0239400D01*
X0259400Y0228306D01*
X0259400Y0216323D01*
X0259765Y0215441D01*
X0260441Y0214765D01*
X0261844Y0213362D01*
X0261243Y0213267D01*
X0260554Y0213043D01*
X0259909Y0212714D01*
X0259323Y0212289D01*
X0259138Y0212103D01*
X0264300Y0206941D01*
X0264158Y0206800D01*
X0258997Y0211962D01*
X0258811Y0211777D01*
X0258386Y0211191D01*
X0258057Y0210546D01*
X0257833Y0209857D01*
X0257720Y0209142D01*
X0257720Y0208418D01*
X0257833Y0207703D01*
X0258057Y0207014D01*
X0258386Y0206369D01*
X0258811Y0205783D01*
X0260977Y0203618D01*
X0264159Y0206800D01*
X0264300Y0206659D01*
X0261118Y0203477D01*
X0263283Y0201311D01*
X0263869Y0200886D01*
X0264514Y0200557D01*
X0265203Y0200333D01*
X0265918Y0200220D01*
X0266642Y0200220D01*
X0267357Y0200333D01*
X0268046Y0200557D01*
X0268691Y0200886D01*
X0269277Y0201311D01*
X0269462Y0201497D01*
X0264300Y0206658D01*
X0264441Y0206800D01*
X0269603Y0201638D01*
X0269789Y0201823D01*
X0270214Y0202409D01*
X0270543Y0203054D01*
X0270767Y0203743D01*
X0270862Y0204344D01*
X0272941Y0202265D01*
X0273823Y0201900D01*
X0279948Y0201900D01*
X0288524Y0193324D01*
X0288489Y0193331D01*
X0285598Y0191395D01*
X0284922Y0187982D01*
X0286858Y0185091D01*
X0290271Y0184415D01*
X0293162Y0186350D01*
X0293548Y0188300D01*
X0301900Y0179948D01*
X0301900Y0169464D01*
X0301264Y0168829D01*
X0300719Y0167512D01*
X0300719Y0166088D01*
X0301264Y0164771D01*
X0302271Y0163764D01*
X0303588Y0163219D01*
X0305012Y0163219D01*
X0306329Y0163764D01*
X0307336Y0164771D01*
X0307881Y0166088D01*
X0307881Y0167469D02*
X0310888Y0167469D01*
X0310215Y0169068D02*
X0307097Y0169068D01*
X0306700Y0170666D02*
X0309542Y0170666D01*
X0308869Y0172265D02*
X0306700Y0172265D01*
X0306700Y0173863D02*
X0308196Y0173863D01*
X0307523Y0175462D02*
X0306700Y0175462D01*
X0306700Y0177060D02*
X0306850Y0177060D01*
X0301900Y0177060D02*
X0283565Y0177060D01*
X0281967Y0178659D02*
X0301900Y0178659D01*
X0301591Y0180257D02*
X0284060Y0180257D01*
X0285064Y0181856D02*
X0299992Y0181856D01*
X0298394Y0183454D02*
X0285380Y0183454D01*
X0284958Y0185053D02*
X0287050Y0185053D01*
X0285813Y0186651D02*
X0283888Y0186651D01*
X0284975Y0188250D02*
X0276162Y0188250D01*
X0275203Y0189848D02*
X0285292Y0189848D01*
X0285675Y0191447D02*
X0274244Y0191447D01*
X0277121Y0186651D02*
X0278512Y0186651D01*
X0270617Y0185053D02*
X0252214Y0185053D01*
X0253582Y0183454D02*
X0268652Y0183454D01*
X0269584Y0181856D02*
X0269584Y0181856D01*
X0270654Y0180257D02*
X0270655Y0180257D01*
X0271725Y0178659D02*
X0271725Y0178659D01*
X0272451Y0177574D02*
X0268795Y0175126D01*
X0272451Y0177573D01*
X0272451Y0177574D01*
X0272451Y0177573D01*
X0276345Y0171757D01*
X0272451Y0177574D01*
X0272795Y0177060D02*
X0272795Y0177060D01*
X0271684Y0177060D02*
X0271684Y0177060D01*
X0273865Y0175462D02*
X0273865Y0175462D01*
X0274935Y0173863D02*
X0274935Y0173863D01*
X0276005Y0172265D02*
X0276005Y0172265D01*
X0276973Y0172265D02*
X0279310Y0172265D01*
X0280863Y0170666D02*
X0269707Y0170666D01*
X0269025Y0172265D02*
X0270816Y0172265D01*
X0269640Y0173863D02*
X0267955Y0173863D01*
X0268570Y0175462D02*
X0266885Y0175462D01*
X0267500Y0177060D02*
X0265815Y0177060D01*
X0266736Y0178659D02*
X0256779Y0178659D01*
X0255713Y0180257D02*
X0266623Y0180257D01*
X0267150Y0181856D02*
X0254647Y0181856D01*
X0251800Y0181800D02*
X0239300Y0196800D01*
X0211800Y0229300D01*
X0192018Y0244136D01*
X0198444Y0242599D02*
X0199939Y0242599D01*
X0200199Y0241001D02*
X0201705Y0241001D01*
X0202330Y0239402D02*
X0203818Y0239402D01*
X0204462Y0237803D02*
X0249902Y0237803D01*
X0251501Y0236205D02*
X0206593Y0236205D01*
X0208725Y0234606D02*
X0253099Y0234606D01*
X0254698Y0233008D02*
X0210856Y0233008D01*
X0212987Y0231409D02*
X0256296Y0231409D01*
X0257895Y0229811D02*
X0214512Y0229811D01*
X0215864Y0228212D02*
X0259400Y0228212D01*
X0259400Y0226614D02*
X0217217Y0226614D01*
X0218569Y0225015D02*
X0259400Y0225015D01*
X0259400Y0223417D02*
X0219922Y0223417D01*
X0221274Y0221818D02*
X0259400Y0221818D01*
X0259400Y0220220D02*
X0222627Y0220220D01*
X0223980Y0218621D02*
X0259400Y0218621D01*
X0259400Y0217023D02*
X0225332Y0217023D01*
X0226685Y0215424D02*
X0259782Y0215424D01*
X0261380Y0213826D02*
X0228037Y0213826D01*
X0229390Y0212227D02*
X0259262Y0212227D01*
X0260330Y0210629D02*
X0260613Y0210629D01*
X0261928Y0209030D02*
X0262211Y0209030D01*
X0263527Y0207432D02*
X0263810Y0207432D01*
X0263475Y0205833D02*
X0263192Y0205833D01*
X0265125Y0205833D02*
X0265408Y0205833D01*
X0266724Y0204235D02*
X0267007Y0204235D01*
X0268322Y0202636D02*
X0268605Y0202636D01*
X0268900Y0201038D02*
X0280810Y0201038D01*
X0282409Y0199439D02*
X0263496Y0199439D01*
X0263472Y0199515D02*
X0263143Y0200160D01*
X0262717Y0200746D01*
X0260552Y0202911D01*
X0257370Y0199729D01*
X0257229Y0199870D01*
X0260411Y0203052D01*
X0258246Y0205217D01*
X0257660Y0205643D01*
X0257015Y0205972D01*
X0256326Y0206196D01*
X0255611Y0206309D01*
X0254887Y0206309D01*
X0254172Y0206196D01*
X0253483Y0205972D01*
X0252838Y0205643D01*
X0252252Y0205217D01*
X0252067Y0205032D01*
X0257229Y0199870D01*
X0257087Y0199729D01*
X0251926Y0204891D01*
X0251740Y0204706D01*
X0251315Y0204120D01*
X0250986Y0203475D01*
X0250762Y0202786D01*
X0250649Y0202071D01*
X0250649Y0201347D01*
X0250762Y0200632D01*
X0250986Y0199943D01*
X0251315Y0199298D01*
X0251740Y0198712D01*
X0253905Y0196547D01*
X0257087Y0199729D01*
X0257229Y0199587D01*
X0257370Y0199729D01*
X0262532Y0194567D01*
X0262717Y0194752D01*
X0263143Y0195338D01*
X0263472Y0195983D01*
X0263696Y0196672D01*
X0263809Y0197387D01*
X0263809Y0198111D01*
X0263696Y0198826D01*
X0263472Y0199515D01*
X0263660Y0201038D02*
X0262425Y0201038D01*
X0261958Y0202636D02*
X0260827Y0202636D01*
X0260278Y0202636D02*
X0259995Y0202636D01*
X0260360Y0204235D02*
X0259228Y0204235D01*
X0258775Y0205833D02*
X0257287Y0205833D01*
X0257921Y0207432D02*
X0233448Y0207432D01*
X0232095Y0209030D02*
X0257720Y0209030D01*
X0258099Y0210629D02*
X0230743Y0210629D01*
X0234800Y0205833D02*
X0253211Y0205833D01*
X0252865Y0204235D02*
X0252582Y0204235D01*
X0251398Y0204235D02*
X0236153Y0204235D01*
X0237506Y0202636D02*
X0250739Y0202636D01*
X0250698Y0201038D02*
X0238858Y0201038D01*
X0240211Y0199439D02*
X0251243Y0199439D01*
X0251198Y0197841D02*
X0252612Y0197841D01*
X0252796Y0196242D02*
X0254210Y0196242D01*
X0254047Y0196405D02*
X0256212Y0194240D01*
X0256798Y0193815D01*
X0257443Y0193486D01*
X0258132Y0193262D01*
X0258847Y0193149D01*
X0259571Y0193149D01*
X0260286Y0193262D01*
X0260975Y0193486D01*
X0261620Y0193815D01*
X0262206Y0194240D01*
X0262391Y0194426D01*
X0257229Y0199587D01*
X0254047Y0196405D01*
X0254395Y0194644D02*
X0255809Y0194644D01*
X0255920Y0193045D02*
X0288063Y0193045D01*
X0287204Y0194644D02*
X0262609Y0194644D01*
X0262456Y0194644D02*
X0262173Y0194644D01*
X0260857Y0196242D02*
X0260574Y0196242D01*
X0259259Y0197841D02*
X0258976Y0197841D01*
X0257660Y0199439D02*
X0257377Y0199439D01*
X0257081Y0199439D02*
X0256798Y0199439D01*
X0256062Y0201038D02*
X0255779Y0201038D01*
X0254463Y0202636D02*
X0254180Y0202636D01*
X0258396Y0201038D02*
X0258679Y0201038D01*
X0261593Y0204235D02*
X0261876Y0204235D01*
X0263809Y0197841D02*
X0284007Y0197841D01*
X0285606Y0196242D02*
X0263556Y0196242D01*
X0255482Y0197841D02*
X0255199Y0197841D01*
X0245158Y0197841D02*
X0241557Y0197841D01*
X0242889Y0196242D02*
X0244080Y0196242D01*
X0251800Y0181800D02*
X0266800Y0159300D01*
X0276800Y0159300D01*
X0284300Y0151800D01*
X0287645Y0153082D02*
X0289400Y0153082D01*
X0288919Y0151484D02*
X0287881Y0151484D01*
X0288219Y0149885D02*
X0287383Y0149885D01*
X0288343Y0148287D02*
X0285176Y0148287D01*
X0283424Y0148287D02*
X0280060Y0148287D01*
X0280381Y0146688D02*
X0289347Y0146688D01*
X0291800Y0149300D02*
X0291800Y0154300D01*
X0279300Y0166800D01*
X0269352Y0166800D01*
X0264141Y0172011D01*
X0259573Y0177060D02*
X0257844Y0177060D01*
X0269296Y0175462D02*
X0269296Y0175462D01*
X0266370Y0164272D02*
X0278434Y0164272D01*
X0280032Y0162673D02*
X0267435Y0162673D01*
X0266794Y0156279D02*
X0276426Y0156279D01*
X0278025Y0154681D02*
X0267811Y0154681D01*
X0269602Y0153082D02*
X0279623Y0153082D01*
X0280719Y0151484D02*
X0272799Y0151484D01*
X0278709Y0149885D02*
X0281217Y0149885D01*
X0283215Y0156279D02*
X0286426Y0156279D01*
X0286484Y0154681D02*
X0288025Y0154681D01*
X0284828Y0157878D02*
X0281616Y0157878D01*
X0280018Y0159476D02*
X0283229Y0159476D01*
X0281631Y0161075D02*
X0278419Y0161075D01*
X0283624Y0165870D02*
X0285335Y0165870D01*
X0285222Y0164272D02*
X0287028Y0164272D01*
X0286821Y0162673D02*
X0288720Y0162673D01*
X0288419Y0161075D02*
X0290413Y0161075D01*
X0290018Y0159476D02*
X0292105Y0159476D01*
X0291616Y0157878D02*
X0293798Y0157878D01*
X0293215Y0156279D02*
X0295491Y0156279D01*
X0294200Y0154681D02*
X0297183Y0154681D01*
X0298876Y0153082D02*
X0294200Y0153082D01*
X0294681Y0151484D02*
X0300568Y0151484D01*
X0302261Y0149885D02*
X0295381Y0149885D01*
X0295256Y0148287D02*
X0303953Y0148287D01*
X0305646Y0146688D02*
X0294253Y0146688D01*
X0304284Y0157878D02*
X0314926Y0157878D01*
X0314253Y0159476D02*
X0302591Y0159476D01*
X0300899Y0161075D02*
X0313580Y0161075D01*
X0312907Y0162673D02*
X0299206Y0162673D01*
X0297514Y0164272D02*
X0301764Y0164272D01*
X0300809Y0165870D02*
X0295821Y0165870D01*
X0294129Y0167469D02*
X0300719Y0167469D01*
X0301503Y0169068D02*
X0292436Y0169068D01*
X0290744Y0170666D02*
X0301900Y0170666D01*
X0301900Y0172265D02*
X0289051Y0172265D01*
X0287359Y0173863D02*
X0301900Y0173863D01*
X0301900Y0175462D02*
X0285164Y0175462D01*
X0281950Y0169068D02*
X0280097Y0169068D01*
X0282025Y0167469D02*
X0283643Y0167469D01*
X0291224Y0185053D02*
X0296795Y0185053D01*
X0295197Y0186651D02*
X0293222Y0186651D01*
X0293538Y0188250D02*
X0293598Y0188250D01*
X0297190Y0191447D02*
X0299443Y0191447D01*
X0298788Y0189848D02*
X0300751Y0189848D01*
X0300387Y0188250D02*
X0302058Y0188250D01*
X0301985Y0186651D02*
X0302811Y0186651D01*
X0304300Y0189300D02*
X0324300Y0141800D01*
X0320984Y0143491D02*
X0319517Y0143491D01*
X0320311Y0145090D02*
X0317824Y0145090D01*
X0316132Y0146688D02*
X0319638Y0146688D01*
X0318965Y0148287D02*
X0314439Y0148287D01*
X0312747Y0149885D02*
X0318292Y0149885D01*
X0317619Y0151484D02*
X0311054Y0151484D01*
X0309362Y0153082D02*
X0316945Y0153082D01*
X0316272Y0154681D02*
X0307669Y0154681D01*
X0305977Y0156279D02*
X0315599Y0156279D01*
X0307338Y0145090D02*
X0279968Y0145090D01*
X0268972Y0140294D02*
X0312416Y0140294D01*
X0314108Y0138696D02*
X0269786Y0138696D01*
X0270601Y0137097D02*
X0315801Y0137097D01*
X0317494Y0135499D02*
X0271415Y0135499D01*
X0272230Y0133900D02*
X0319186Y0133900D01*
X0320879Y0132302D02*
X0272973Y0132302D01*
X0273635Y0130703D02*
X0322571Y0130703D01*
X0324264Y0129105D02*
X0284560Y0129105D01*
X0284836Y0128829D02*
X0283829Y0129836D01*
X0282512Y0130381D01*
X0281088Y0130381D01*
X0279771Y0129836D01*
X0278764Y0128829D01*
X0278219Y0127512D01*
X0278219Y0126088D01*
X0278764Y0124771D01*
X0279771Y0123764D01*
X0280860Y0123313D01*
X0282025Y0120983D01*
X0289400Y0088912D01*
X0289400Y0088708D01*
X0289506Y0088452D01*
X0289568Y0088182D01*
X0289687Y0088015D01*
X0289765Y0087825D01*
X0289961Y0087630D01*
X0290122Y0087404D01*
X0290296Y0087295D01*
X0298691Y0078900D01*
X0299751Y0073597D01*
X0300680Y0072209D01*
X0302070Y0071281D01*
X0303709Y0070957D01*
X0305348Y0071284D01*
X0306736Y0072214D01*
X0307663Y0073604D01*
X0307988Y0075243D01*
X0306642Y0081981D01*
X0305712Y0083369D01*
X0304322Y0084296D01*
X0302683Y0084621D01*
X0301045Y0084293D01*
X0300470Y0083909D01*
X0293984Y0090395D01*
X0293527Y0092385D01*
X0293860Y0092160D01*
X0294544Y0091841D01*
X0295271Y0091632D01*
X0296021Y0091540D01*
X0296776Y0091567D01*
X0297517Y0091711D01*
X0297684Y0091772D01*
X0295085Y0098913D01*
X0295461Y0099050D01*
X0298060Y0091909D01*
X0298227Y0091969D01*
X0298888Y0092336D01*
X0299484Y0092801D01*
X0299999Y0093353D01*
X0300421Y0093980D01*
X0300741Y0094664D01*
X0300949Y0095391D01*
X0301041Y0096141D01*
X0301015Y0096896D01*
X0300870Y0097637D01*
X0299784Y0100623D01*
X0295461Y0099050D01*
X0295324Y0099426D01*
X0294948Y0099289D01*
X0292349Y0106431D01*
X0292182Y0106370D01*
X0291521Y0106004D01*
X0290926Y0105539D01*
X0290586Y0105174D01*
X0286681Y0122156D01*
X0286660Y0122446D01*
X0286575Y0122617D01*
X0286532Y0122803D01*
X0286363Y0123040D01*
X0285136Y0125495D01*
X0285381Y0126088D01*
X0285381Y0127512D01*
X0284836Y0128829D01*
X0285381Y0127506D02*
X0325956Y0127506D01*
X0326577Y0125908D02*
X0285307Y0125908D01*
X0285729Y0124309D02*
X0327069Y0124309D01*
X0327561Y0122711D02*
X0286553Y0122711D01*
X0286921Y0121112D02*
X0328053Y0121112D01*
X0328545Y0119514D02*
X0287288Y0119514D01*
X0287656Y0117915D02*
X0329036Y0117915D01*
X0329528Y0116317D02*
X0324532Y0116317D01*
X0325143Y0116032D02*
X0323484Y0116805D01*
X0321656Y0116885D01*
X0319936Y0116259D01*
X0318587Y0115023D01*
X0317814Y0113364D01*
X0317734Y0111536D01*
X0320412Y0104178D01*
X0321648Y0102829D01*
X0323307Y0102056D01*
X0325135Y0101976D01*
X0326855Y0102602D01*
X0328204Y0103838D01*
X0328977Y0105496D01*
X0329057Y0107325D01*
X0326379Y0114682D01*
X0325143Y0116032D01*
X0326346Y0114718D02*
X0330020Y0114718D01*
X0330512Y0113120D02*
X0326948Y0113120D01*
X0327530Y0111521D02*
X0331004Y0111521D01*
X0331496Y0109923D02*
X0328111Y0109923D01*
X0328693Y0108324D02*
X0331988Y0108324D01*
X0332479Y0106726D02*
X0329031Y0106726D01*
X0328805Y0105127D02*
X0332971Y0105127D01*
X0333463Y0103529D02*
X0327866Y0103529D01*
X0324653Y0098733D02*
X0334939Y0098733D01*
X0335431Y0097134D02*
X0325184Y0097134D01*
X0325115Y0095536D02*
X0335808Y0095536D01*
X0335968Y0093937D02*
X0325915Y0093937D01*
X0327155Y0092339D02*
X0336128Y0092339D01*
X0336288Y0090740D02*
X0328754Y0090740D01*
X0329279Y0089142D02*
X0336448Y0089142D01*
X0336608Y0087543D02*
X0334767Y0087543D01*
X0336763Y0085945D02*
X0336768Y0085945D01*
X0330601Y0087543D02*
X0329599Y0087543D01*
X0326800Y0089300D02*
X0324300Y0091800D01*
X0321800Y0096800D01*
X0318660Y0095536D02*
X0307442Y0095536D01*
X0308061Y0095761D02*
X0309410Y0096998D01*
X0310183Y0098656D01*
X0310263Y0100484D01*
X0307585Y0107842D01*
X0306349Y0109191D01*
X0304690Y0109965D01*
X0302862Y0110044D01*
X0301142Y0109419D01*
X0299793Y0108182D01*
X0299020Y0106524D01*
X0298940Y0104695D01*
X0301618Y0097338D01*
X0302854Y0095989D01*
X0304513Y0095215D01*
X0306341Y0095135D01*
X0308061Y0095761D01*
X0309474Y0097134D02*
X0318416Y0097134D01*
X0318947Y0098733D02*
X0316226Y0098733D01*
X0315738Y0098555D02*
X0317458Y0099181D01*
X0318807Y0100418D01*
X0319580Y0102076D01*
X0319660Y0103904D01*
X0316982Y0111262D01*
X0315746Y0112611D01*
X0314087Y0113385D01*
X0312259Y0113465D01*
X0310539Y0112839D01*
X0309190Y0111602D01*
X0308417Y0109944D01*
X0308337Y0108116D01*
X0311015Y0100758D01*
X0312251Y0099409D01*
X0313910Y0098635D01*
X0315738Y0098555D01*
X0313700Y0098733D02*
X0310187Y0098733D01*
X0310256Y0100332D02*
X0311406Y0100332D01*
X0310588Y0101930D02*
X0309737Y0101930D01*
X0310006Y0103529D02*
X0309155Y0103529D01*
X0309425Y0105127D02*
X0308573Y0105127D01*
X0308843Y0106726D02*
X0307991Y0106726D01*
X0308346Y0108324D02*
X0307143Y0108324D01*
X0308416Y0109923D02*
X0304780Y0109923D01*
X0302527Y0109923D02*
X0289494Y0109923D01*
X0289126Y0111521D02*
X0309152Y0111521D01*
X0311311Y0113120D02*
X0288759Y0113120D01*
X0288391Y0114718D02*
X0318445Y0114718D01*
X0317803Y0113120D02*
X0314656Y0113120D01*
X0316745Y0111521D02*
X0317739Y0111521D01*
X0317470Y0109923D02*
X0318321Y0109923D01*
X0318051Y0108324D02*
X0318903Y0108324D01*
X0318633Y0106726D02*
X0319485Y0106726D01*
X0319215Y0105127D02*
X0320066Y0105127D01*
X0319644Y0103529D02*
X0321007Y0103529D01*
X0319512Y0101930D02*
X0333955Y0101930D01*
X0334447Y0100332D02*
X0318713Y0100332D01*
X0319876Y0093937D02*
X0300393Y0093937D01*
X0300967Y0095536D02*
X0303825Y0095536D01*
X0301804Y0097134D02*
X0300968Y0097134D01*
X0301110Y0098733D02*
X0300472Y0098733D01*
X0300528Y0100332D02*
X0299890Y0100332D01*
X0299647Y0100999D02*
X0298560Y0103985D01*
X0298194Y0104646D01*
X0297728Y0105242D01*
X0297176Y0105757D01*
X0296549Y0106179D01*
X0295865Y0106499D01*
X0295138Y0106707D01*
X0294389Y0106799D01*
X0293633Y0106773D01*
X0292892Y0106628D01*
X0292725Y0106568D01*
X0295324Y0099426D01*
X0299647Y0100999D01*
X0298981Y0100332D02*
X0297812Y0100332D01*
X0299308Y0101930D02*
X0299946Y0101930D01*
X0299365Y0103529D02*
X0298726Y0103529D01*
X0298959Y0105127D02*
X0297818Y0105127D01*
X0299114Y0106726D02*
X0294987Y0106726D01*
X0293391Y0106726D02*
X0290229Y0106726D01*
X0289861Y0108324D02*
X0299948Y0108324D01*
X0293249Y0105127D02*
X0292823Y0105127D01*
X0293405Y0103529D02*
X0293831Y0103529D01*
X0293987Y0101930D02*
X0294413Y0101930D01*
X0294569Y0100332D02*
X0294995Y0100332D01*
X0295151Y0098733D02*
X0295576Y0098733D01*
X0295732Y0097134D02*
X0296158Y0097134D01*
X0296314Y0095536D02*
X0296740Y0095536D01*
X0296896Y0093937D02*
X0297322Y0093937D01*
X0297478Y0092339D02*
X0297904Y0092339D01*
X0298892Y0092339D02*
X0321347Y0092339D01*
X0322141Y0090740D02*
X0293905Y0090740D01*
X0293594Y0092339D02*
X0293537Y0092339D01*
X0291800Y0089185D02*
X0284300Y0121800D01*
X0281800Y0126800D01*
X0279226Y0124309D02*
X0276284Y0124309D01*
X0276946Y0122711D02*
X0281161Y0122711D01*
X0281961Y0121112D02*
X0277608Y0121112D01*
X0278270Y0119514D02*
X0282363Y0119514D01*
X0282731Y0117915D02*
X0278932Y0117915D01*
X0279594Y0116317D02*
X0283098Y0116317D01*
X0283466Y0114718D02*
X0280203Y0114718D01*
X0280722Y0113120D02*
X0283833Y0113120D01*
X0284201Y0111521D02*
X0281242Y0111521D01*
X0281761Y0109923D02*
X0284569Y0109923D01*
X0284936Y0108324D02*
X0282280Y0108324D01*
X0282800Y0106726D02*
X0285304Y0106726D01*
X0285671Y0105127D02*
X0283319Y0105127D01*
X0283839Y0103529D02*
X0286039Y0103529D01*
X0286407Y0101930D02*
X0284358Y0101930D01*
X0284877Y0100332D02*
X0286774Y0100332D01*
X0287142Y0098733D02*
X0285397Y0098733D01*
X0285916Y0097134D02*
X0287509Y0097134D01*
X0287877Y0095536D02*
X0286305Y0095536D01*
X0286689Y0093937D02*
X0288244Y0093937D01*
X0288612Y0092339D02*
X0287073Y0092339D01*
X0287457Y0090740D02*
X0288980Y0090740D01*
X0289347Y0089142D02*
X0287840Y0089142D01*
X0288224Y0087543D02*
X0290023Y0087543D01*
X0288608Y0085945D02*
X0291646Y0085945D01*
X0293244Y0084346D02*
X0288992Y0084346D01*
X0289376Y0082748D02*
X0294843Y0082748D01*
X0296441Y0081149D02*
X0289759Y0081149D01*
X0290143Y0079551D02*
X0298040Y0079551D01*
X0298880Y0077952D02*
X0290489Y0077952D01*
X0290742Y0076354D02*
X0299200Y0076354D01*
X0299519Y0074755D02*
X0290996Y0074755D01*
X0291249Y0073157D02*
X0300045Y0073157D01*
X0301655Y0071558D02*
X0291502Y0071558D01*
X0291755Y0069960D02*
X0321170Y0069960D01*
X0322369Y0071558D02*
X0305757Y0071558D01*
X0307365Y0073157D02*
X0311770Y0073157D01*
X0311988Y0073056D02*
X0312654Y0072869D01*
X0313342Y0072788D01*
X0314034Y0072816D01*
X0314374Y0072884D01*
X0314713Y0072952D01*
X0315363Y0073192D01*
X0315967Y0073531D01*
X0316511Y0073960D01*
X0316980Y0074469D01*
X0317364Y0075045D01*
X0317654Y0075675D01*
X0317841Y0076341D01*
X0317922Y0077029D01*
X0317894Y0077721D01*
X0317317Y0080610D01*
X0313002Y0079748D01*
X0308688Y0078886D01*
X0309265Y0075997D01*
X0309505Y0075347D01*
X0309844Y0074743D01*
X0310273Y0074200D01*
X0310782Y0073730D01*
X0311359Y0073346D01*
X0311988Y0073056D01*
X0314319Y0073157D02*
X0314319Y0073157D01*
X0314374Y0072884D02*
X0313002Y0079748D01*
X0313002Y0079748D01*
X0313002Y0079748D01*
X0314374Y0072884D01*
X0315268Y0073157D02*
X0323568Y0073157D01*
X0324767Y0074755D02*
X0317171Y0074755D01*
X0317843Y0076354D02*
X0325965Y0076354D01*
X0325471Y0077952D02*
X0326622Y0077952D01*
X0329300Y0076800D02*
X0326800Y0089300D01*
X0324704Y0087543D02*
X0296836Y0087543D01*
X0298434Y0085945D02*
X0310012Y0085945D01*
X0310038Y0085965D02*
X0309494Y0085536D01*
X0309024Y0085027D01*
X0308640Y0084451D01*
X0308351Y0083822D01*
X0308163Y0083155D01*
X0308082Y0082467D01*
X0308110Y0081775D01*
X0308688Y0078886D01*
X0313002Y0079748D01*
X0311631Y0086612D01*
X0311631Y0086613D02*
X0313002Y0079748D01*
X0313002Y0079748D01*
X0313002Y0079748D01*
X0317317Y0080610D01*
X0316740Y0083500D01*
X0316499Y0084149D01*
X0316160Y0084753D01*
X0315731Y0085297D01*
X0315222Y0085766D01*
X0314646Y0086151D01*
X0314017Y0086440D01*
X0313350Y0086627D01*
X0312662Y0086708D01*
X0311970Y0086680D01*
X0311631Y0086613D01*
X0311631Y0086612D02*
X0311291Y0086545D01*
X0310642Y0086304D01*
X0310038Y0085965D01*
X0311764Y0085945D02*
X0311764Y0085945D01*
X0312083Y0084346D02*
X0312084Y0084346D01*
X0312403Y0082748D02*
X0312403Y0082748D01*
X0312722Y0081149D02*
X0312722Y0081149D01*
X0313042Y0079551D02*
X0313042Y0079551D01*
X0312015Y0079551D02*
X0312014Y0079551D01*
X0313361Y0077952D02*
X0313361Y0077952D01*
X0313680Y0076354D02*
X0313681Y0076354D01*
X0314000Y0074755D02*
X0314000Y0074755D01*
X0309837Y0074755D02*
X0307891Y0074755D01*
X0307766Y0076354D02*
X0309194Y0076354D01*
X0308874Y0077952D02*
X0307446Y0077952D01*
X0307127Y0079551D02*
X0308555Y0079551D01*
X0308235Y0081149D02*
X0306808Y0081149D01*
X0306128Y0082748D02*
X0308115Y0082748D01*
X0308592Y0084346D02*
X0304068Y0084346D01*
X0301311Y0084346D02*
X0300033Y0084346D01*
X0295237Y0089142D02*
X0323564Y0089142D01*
X0324420Y0085945D02*
X0325023Y0085945D01*
X0322601Y0085945D02*
X0314954Y0085945D01*
X0316389Y0084346D02*
X0319791Y0084346D01*
X0318724Y0082748D02*
X0316890Y0082748D01*
X0317209Y0081149D02*
X0318957Y0081149D01*
X0319277Y0079551D02*
X0317529Y0079551D01*
X0317848Y0077952D02*
X0321265Y0077952D01*
X0329300Y0076800D02*
X0314300Y0056800D01*
X0313335Y0050422D01*
X0308735Y0050778D02*
X0308135Y0050778D01*
X0308135Y0052376D02*
X0308735Y0052376D01*
X0308735Y0053975D02*
X0308108Y0053975D01*
X0307627Y0055573D02*
X0309247Y0055573D01*
X0310580Y0057172D02*
X0306341Y0057172D01*
X0303535Y0057172D02*
X0303135Y0057172D01*
X0303135Y0058222D02*
X0302958Y0058222D01*
X0302211Y0058104D01*
X0301493Y0057870D01*
X0300820Y0057527D01*
X0300208Y0057083D01*
X0299674Y0056549D01*
X0299230Y0055938D01*
X0298887Y0055265D01*
X0298654Y0054546D01*
X0298535Y0053800D01*
X0298535Y0050622D01*
X0303135Y0050622D01*
X0303135Y0058222D01*
X0303135Y0055573D02*
X0303535Y0055573D01*
X0303535Y0053975D02*
X0303135Y0053975D01*
X0303135Y0052376D02*
X0303535Y0052376D01*
X0303535Y0050778D02*
X0303135Y0050778D01*
X0303135Y0049179D02*
X0303535Y0049179D01*
X0303535Y0047581D02*
X0303135Y0047581D01*
X0303135Y0045982D02*
X0303535Y0045982D01*
X0303535Y0044384D02*
X0303135Y0044384D01*
X0299610Y0044384D02*
X0294605Y0044384D01*
X0294479Y0045982D02*
X0298756Y0045982D01*
X0298535Y0047581D02*
X0294353Y0047581D01*
X0294227Y0049179D02*
X0298535Y0049179D01*
X0298535Y0050778D02*
X0294101Y0050778D01*
X0293976Y0052376D02*
X0298535Y0052376D01*
X0298563Y0053975D02*
X0293850Y0053975D01*
X0293724Y0055573D02*
X0299044Y0055573D01*
X0300330Y0057172D02*
X0293598Y0057172D01*
X0293472Y0058770D02*
X0312778Y0058770D01*
X0313977Y0060369D02*
X0293274Y0060369D01*
X0293021Y0061967D02*
X0315175Y0061967D01*
X0316374Y0063566D02*
X0292768Y0063566D01*
X0292515Y0065164D02*
X0317573Y0065164D01*
X0318772Y0066763D02*
X0292262Y0066763D01*
X0292008Y0068361D02*
X0319971Y0068361D01*
X0323573Y0065164D02*
X0338667Y0065164D01*
X0338782Y0063566D02*
X0322374Y0063566D01*
X0321175Y0061967D02*
X0338897Y0061967D01*
X0339012Y0060369D02*
X0319977Y0060369D01*
X0318778Y0058770D02*
X0339127Y0058770D01*
X0339241Y0057172D02*
X0336341Y0057172D01*
X0337627Y0055573D02*
X0339247Y0055573D01*
X0338735Y0053975D02*
X0338108Y0053975D01*
X0338135Y0052376D02*
X0338735Y0052376D01*
X0338735Y0050778D02*
X0338135Y0050778D01*
X0338135Y0049179D02*
X0338735Y0049179D01*
X0338735Y0047581D02*
X0338135Y0047581D01*
X0337915Y0045982D02*
X0338953Y0045982D01*
X0339868Y0044384D02*
X0337061Y0044384D01*
X0333535Y0044384D02*
X0333135Y0044384D01*
X0333135Y0045982D02*
X0333535Y0045982D01*
X0333535Y0047581D02*
X0333135Y0047581D01*
X0333135Y0049179D02*
X0333535Y0049179D01*
X0333135Y0050622D02*
X0328535Y0050622D01*
X0328535Y0053800D01*
X0328654Y0054546D01*
X0328887Y0055265D01*
X0329230Y0055938D01*
X0329674Y0056549D01*
X0330208Y0057083D01*
X0330820Y0057527D01*
X0331493Y0057870D01*
X0332211Y0058104D01*
X0332958Y0058222D01*
X0333135Y0058222D01*
X0333135Y0050622D01*
X0333135Y0050778D02*
X0333535Y0050778D01*
X0333535Y0052376D02*
X0333135Y0052376D01*
X0333135Y0053975D02*
X0333535Y0053975D01*
X0333535Y0055573D02*
X0333135Y0055573D01*
X0333135Y0057172D02*
X0333535Y0057172D01*
X0330330Y0057172D02*
X0326341Y0057172D01*
X0327627Y0055573D02*
X0329044Y0055573D01*
X0328563Y0053975D02*
X0328108Y0053975D01*
X0328135Y0052376D02*
X0328535Y0052376D01*
X0328535Y0050778D02*
X0328135Y0050778D01*
X0328135Y0049179D02*
X0328535Y0049179D01*
X0328535Y0047581D02*
X0328135Y0047581D01*
X0327915Y0045982D02*
X0328756Y0045982D01*
X0329610Y0044384D02*
X0327061Y0044384D01*
X0323535Y0044384D02*
X0323135Y0044384D01*
X0323135Y0045982D02*
X0323535Y0045982D01*
X0323535Y0047581D02*
X0323135Y0047581D01*
X0323135Y0049179D02*
X0323535Y0049179D01*
X0323135Y0050622D02*
X0318535Y0050622D01*
X0318535Y0053800D01*
X0318654Y0054546D01*
X0318887Y0055265D01*
X0319230Y0055938D01*
X0319674Y0056549D01*
X0320208Y0057083D01*
X0320820Y0057527D01*
X0321493Y0057870D01*
X0322211Y0058104D01*
X0322958Y0058222D01*
X0323135Y0058222D01*
X0323135Y0050622D01*
X0323135Y0050778D02*
X0323535Y0050778D01*
X0323535Y0052376D02*
X0323135Y0052376D01*
X0323135Y0053975D02*
X0323535Y0053975D01*
X0323535Y0055573D02*
X0323135Y0055573D01*
X0323135Y0057172D02*
X0323535Y0057172D01*
X0320330Y0057172D02*
X0317579Y0057172D01*
X0317423Y0055573D02*
X0319044Y0055573D01*
X0318563Y0053975D02*
X0317935Y0053975D01*
X0317935Y0052376D02*
X0318535Y0052376D01*
X0318535Y0050778D02*
X0317935Y0050778D01*
X0317935Y0049179D02*
X0318535Y0049179D01*
X0318535Y0047581D02*
X0317935Y0047581D01*
X0317718Y0045982D02*
X0318756Y0045982D01*
X0319610Y0044384D02*
X0316802Y0044384D01*
X0309868Y0044384D02*
X0307061Y0044384D01*
X0307915Y0045982D02*
X0308953Y0045982D01*
X0308735Y0047581D02*
X0308135Y0047581D01*
X0308135Y0049179D02*
X0308735Y0049179D01*
X0324772Y0066763D02*
X0338553Y0066763D01*
X0338438Y0068361D02*
X0325971Y0068361D01*
X0327170Y0069960D02*
X0338323Y0069960D01*
X0338206Y0071558D02*
X0328369Y0071558D01*
X0329568Y0073157D02*
X0338046Y0073157D01*
X0337887Y0074755D02*
X0330766Y0074755D01*
X0331663Y0076354D02*
X0337727Y0076354D01*
X0337567Y0077952D02*
X0331517Y0077952D01*
X0331612Y0079551D02*
X0331197Y0079551D01*
X0333470Y0079551D02*
X0337407Y0079551D01*
X0337247Y0081149D02*
X0336254Y0081149D01*
X0303196Y0077789D02*
X0291800Y0089185D01*
X0288024Y0116317D02*
X0320095Y0116317D01*
X0278293Y0125908D02*
X0275622Y0125908D01*
X0274960Y0127506D02*
X0278219Y0127506D01*
X0279040Y0129105D02*
X0274297Y0129105D01*
X0295591Y0193045D02*
X0298135Y0193045D01*
X0296827Y0194644D02*
X0293993Y0194644D01*
X0295519Y0196242D02*
X0292394Y0196242D01*
X0290795Y0197841D02*
X0294211Y0197841D01*
X0292903Y0199439D02*
X0289197Y0199439D01*
X0287598Y0201038D02*
X0291595Y0201038D01*
X0290288Y0202636D02*
X0286000Y0202636D01*
X0284401Y0204235D02*
X0288980Y0204235D01*
X0287672Y0205833D02*
X0282803Y0205833D01*
X0286364Y0207432D02*
X0274562Y0207432D01*
X0276713Y0209030D02*
X0285056Y0209030D01*
X0283748Y0210629D02*
X0277591Y0210629D01*
X0277751Y0212227D02*
X0282440Y0212227D01*
X0281132Y0213826D02*
X0277312Y0213826D01*
X0277737Y0215424D02*
X0276040Y0215424D01*
X0276139Y0217023D02*
X0274442Y0217023D01*
X0265939Y0218621D02*
X0264200Y0218621D01*
X0264971Y0217023D02*
X0265114Y0217023D01*
X0270845Y0204235D02*
X0270971Y0204235D01*
X0270330Y0202636D02*
X0272570Y0202636D01*
X0237660Y0266577D02*
X0212041Y0266577D01*
X0213107Y0268175D02*
X0235525Y0268175D01*
X0233390Y0269774D02*
X0213071Y0269774D01*
X0212751Y0271372D02*
X0231254Y0271372D01*
X0229119Y0272971D02*
X0211059Y0272971D01*
X0191251Y0255387D02*
X0187235Y0255387D01*
X0190032Y0253789D02*
X0191004Y0253789D01*
X0050737Y0272824D02*
X0056587Y0272753D01*
X0062433Y0272541D01*
X0068273Y0272188D01*
X0074102Y0271694D01*
X0079917Y0271059D01*
X0085716Y0270284D01*
X0091494Y0269368D01*
X0097248Y0268314D01*
X0102976Y0267121D01*
X0108672Y0265789D01*
X0114335Y0264321D01*
X0119961Y0262716D01*
X0125546Y0260975D01*
X0131088Y0259101D01*
X0136582Y0257092D01*
X0142027Y0254952D01*
X0147418Y0252680D01*
X0152753Y0250279D01*
X0158028Y0247750D01*
X0163240Y0245094D01*
X0168387Y0242313D01*
X0173465Y0239409D01*
X0178472Y0236382D01*
X0183404Y0233236D01*
X0188258Y0229971D01*
X0193032Y0226589D01*
X0197723Y0223094D01*
X0202328Y0219486D01*
X0206845Y0215768D01*
X0211270Y0211942D01*
X0215602Y0208010D01*
X0219838Y0203974D01*
X0223974Y0199838D01*
X0228010Y0195602D01*
X0231942Y0191270D01*
X0235768Y0186845D01*
X0239486Y0182328D01*
X0243094Y0177723D01*
X0246589Y0173032D01*
X0249971Y0168258D01*
X0253236Y0163404D01*
X0256382Y0158472D01*
X0259409Y0153465D01*
X0262313Y0148387D01*
X0265094Y0143240D01*
X0267750Y0138028D01*
X0270279Y0132753D01*
X0272680Y0127418D01*
X0274952Y0122027D01*
X0277092Y0116582D01*
X0279101Y0111088D01*
X0280975Y0105546D01*
X0282716Y0099961D01*
X0284321Y0094335D01*
X0285789Y0088672D01*
X0287121Y0082976D01*
X0288314Y0077248D01*
X0289368Y0071494D01*
X0290284Y0065716D01*
X0291059Y0059917D01*
X0291694Y0054102D01*
X0292188Y0048273D01*
X0292541Y0042433D01*
X0292753Y0036587D01*
X0292824Y0030737D01*
D11*
X0321429Y0081681D02*
X0320909Y0082201D01*
X0321866Y0083635D01*
X0323553Y0083973D01*
X0324987Y0083016D01*
X0325325Y0081329D01*
X0324368Y0079895D01*
X0322681Y0079557D01*
X0321247Y0080514D01*
X0320909Y0082201D01*
X0321737Y0082037D01*
X0322335Y0082934D01*
X0323389Y0083145D01*
X0324286Y0082547D01*
X0324497Y0081493D01*
X0323899Y0080596D01*
X0322845Y0080385D01*
X0321948Y0080983D01*
X0321737Y0082037D01*
X0322565Y0081873D01*
X0322805Y0082232D01*
X0323225Y0082317D01*
X0323584Y0082077D01*
X0323669Y0081657D01*
X0323429Y0081298D01*
X0323009Y0081213D01*
X0322650Y0081453D01*
X0322565Y0081873D01*
X0331236Y0083641D02*
X0330716Y0084161D01*
X0331673Y0085595D01*
X0333360Y0085933D01*
X0334794Y0084976D01*
X0335132Y0083289D01*
X0334175Y0081855D01*
X0332488Y0081517D01*
X0331054Y0082474D01*
X0330716Y0084161D01*
X0331544Y0083997D01*
X0332142Y0084894D01*
X0333196Y0085105D01*
X0334093Y0084507D01*
X0334304Y0083453D01*
X0333706Y0082556D01*
X0332652Y0082345D01*
X0331755Y0082943D01*
X0331544Y0083997D01*
X0332372Y0083833D01*
X0332612Y0084192D01*
X0333032Y0084277D01*
X0333391Y0084037D01*
X0333476Y0083617D01*
X0333236Y0083258D01*
X0332816Y0083173D01*
X0332457Y0083413D01*
X0332372Y0083833D01*
X0279383Y0183389D02*
X0278863Y0182869D01*
X0279198Y0184559D01*
X0280629Y0185517D01*
X0282319Y0185182D01*
X0283277Y0183751D01*
X0282942Y0182061D01*
X0281511Y0181103D01*
X0279821Y0181438D01*
X0278863Y0182869D01*
X0279691Y0183034D01*
X0279900Y0184090D01*
X0280794Y0184689D01*
X0281850Y0184480D01*
X0282449Y0183586D01*
X0282240Y0182530D01*
X0281346Y0181931D01*
X0280290Y0182140D01*
X0279691Y0183034D01*
X0280519Y0183200D01*
X0280603Y0183622D01*
X0280960Y0183861D01*
X0281382Y0183777D01*
X0281621Y0183420D01*
X0281537Y0182998D01*
X0281180Y0182759D01*
X0280758Y0182843D01*
X0280519Y0183200D01*
X0287693Y0188952D02*
X0287173Y0188432D01*
X0287508Y0190122D01*
X0288939Y0191080D01*
X0290629Y0190745D01*
X0291587Y0189314D01*
X0291252Y0187624D01*
X0289821Y0186666D01*
X0288131Y0187001D01*
X0287173Y0188432D01*
X0288001Y0188597D01*
X0288210Y0189653D01*
X0289104Y0190252D01*
X0290160Y0190043D01*
X0290759Y0189149D01*
X0290550Y0188093D01*
X0289656Y0187494D01*
X0288600Y0187703D01*
X0288001Y0188597D01*
X0288829Y0188763D01*
X0288913Y0189185D01*
X0289270Y0189424D01*
X0289692Y0189340D01*
X0289931Y0188983D01*
X0289847Y0188561D01*
X0289490Y0188322D01*
X0289068Y0188406D01*
X0288829Y0188763D01*
X0201967Y0260333D02*
X0201447Y0259813D01*
X0201109Y0261502D01*
X0202065Y0262935D01*
X0203754Y0263273D01*
X0205187Y0262317D01*
X0205525Y0260628D01*
X0204569Y0259195D01*
X0202880Y0258857D01*
X0201447Y0259813D01*
X0202149Y0260282D01*
X0201937Y0261338D01*
X0202534Y0262233D01*
X0203590Y0262445D01*
X0204485Y0261848D01*
X0204697Y0260792D01*
X0204100Y0259897D01*
X0203044Y0259685D01*
X0202149Y0260282D01*
X0202850Y0260752D01*
X0202766Y0261174D01*
X0203004Y0261532D01*
X0203426Y0261616D01*
X0203784Y0261378D01*
X0203868Y0260956D01*
X0203630Y0260598D01*
X0203208Y0260514D01*
X0202850Y0260752D01*
X0207516Y0268653D02*
X0206996Y0268133D01*
X0206658Y0269822D01*
X0207614Y0271255D01*
X0209303Y0271593D01*
X0210736Y0270637D01*
X0211074Y0268948D01*
X0210118Y0267515D01*
X0208429Y0267177D01*
X0206996Y0268133D01*
X0207698Y0268602D01*
X0207486Y0269658D01*
X0208083Y0270553D01*
X0209139Y0270765D01*
X0210034Y0270168D01*
X0210246Y0269112D01*
X0209649Y0268217D01*
X0208593Y0268005D01*
X0207698Y0268602D01*
X0208399Y0269072D01*
X0208315Y0269494D01*
X0208553Y0269852D01*
X0208975Y0269936D01*
X0209333Y0269698D01*
X0209417Y0269276D01*
X0209179Y0268918D01*
X0208757Y0268834D01*
X0208399Y0269072D01*
X0102994Y0311574D02*
X0102474Y0311054D01*
X0101517Y0312488D01*
X0101855Y0314175D01*
X0103289Y0315132D01*
X0104976Y0314794D01*
X0105933Y0313360D01*
X0105595Y0311673D01*
X0104161Y0310716D01*
X0102474Y0311054D01*
X0102943Y0311755D01*
X0102345Y0312652D01*
X0102556Y0313706D01*
X0103453Y0314304D01*
X0104507Y0314093D01*
X0105105Y0313196D01*
X0104894Y0312142D01*
X0103997Y0311544D01*
X0102943Y0311755D01*
X0103413Y0312457D01*
X0103173Y0312816D01*
X0103258Y0313236D01*
X0103617Y0313476D01*
X0104037Y0313391D01*
X0104277Y0313032D01*
X0104192Y0312612D01*
X0103833Y0312372D01*
X0103413Y0312457D01*
X0101034Y0301767D02*
X0100514Y0301247D01*
X0099557Y0302681D01*
X0099895Y0304368D01*
X0101329Y0305325D01*
X0103016Y0304987D01*
X0103973Y0303553D01*
X0103635Y0301866D01*
X0102201Y0300909D01*
X0100514Y0301247D01*
X0100983Y0301948D01*
X0100385Y0302845D01*
X0100596Y0303899D01*
X0101493Y0304497D01*
X0102547Y0304286D01*
X0103145Y0303389D01*
X0102934Y0302335D01*
X0102037Y0301737D01*
X0100983Y0301948D01*
X0101453Y0302650D01*
X0101213Y0303009D01*
X0101298Y0303429D01*
X0101657Y0303669D01*
X0102077Y0303584D01*
X0102317Y0303225D01*
X0102232Y0302805D01*
X0101873Y0302565D01*
X0101453Y0302650D01*
D12*
X0097199Y0293512D02*
X0102298Y0292493D01*
X0100338Y0282687D02*
X0095239Y0283706D01*
X0189855Y0245579D02*
X0194181Y0242694D01*
X0199729Y0251013D02*
X0195403Y0253898D01*
X0271005Y0179734D02*
X0273897Y0175413D01*
X0265588Y0169850D02*
X0262695Y0174171D01*
X0312493Y0082298D02*
X0313512Y0077199D01*
X0303706Y0075239D02*
X0302687Y0080338D01*
D13*
X0296231Y0096351D02*
X0294179Y0101989D01*
X0303575Y0105409D02*
X0305628Y0099771D01*
X0315025Y0103191D02*
X0312972Y0108829D01*
X0322369Y0112249D02*
X0324421Y0106611D01*
X0323335Y0053422D02*
X0323335Y0047422D01*
X0333335Y0047422D02*
X0333335Y0053422D01*
X0343335Y0053422D02*
X0343335Y0047422D01*
X0313335Y0047422D02*
X0313335Y0053422D01*
X0303335Y0053422D02*
X0303335Y0047422D01*
X0073422Y0283335D02*
X0067422Y0283335D01*
X0067422Y0293335D02*
X0073422Y0293335D01*
X0073422Y0303335D02*
X0067422Y0303335D01*
X0067422Y0313335D02*
X0073422Y0313335D01*
X0073422Y0323335D02*
X0067422Y0323335D01*
D14*
X0248178Y0194638D02*
X0252138Y0190678D01*
X0259209Y0197749D02*
X0255249Y0201709D01*
X0262320Y0208780D02*
X0266280Y0204820D01*
X0273351Y0211891D02*
X0269391Y0215851D01*
X0276462Y0222922D02*
X0280422Y0218962D01*
D15*
X0242351Y0222351D03*
D16*
X0284300Y0171800D02*
X0329300Y0129300D01*
X0339300Y0096800D01*
X0341800Y0071800D01*
X0343335Y0050422D01*
D17*
X0284300Y0171800D02*
X0279300Y0176800D01*
X0271800Y0189300D01*
X0254300Y0189300D01*
X0250158Y0192658D01*
D18*
X0284300Y0151800D03*
X0291800Y0149300D03*
X0276800Y0146800D03*
X0281800Y0126800D03*
X0304300Y0166800D03*
D19*
X0324300Y0141800D03*
X0321800Y0096800D03*
M02*
