G75*
%MOIN*%
%OFA0B0*%
%FSLAX25Y25*%
%IPPOS*%
%LPD*%
%AMOC8*
5,1,8,0,0,1.08239X$1,22.5*
%
%ADD10C,0.01600*%
%ADD11C,0.00800*%
%ADD12C,0.01000*%
%ADD13C,0.00600*%
%ADD14C,0.00500*%
D10*
X0050737Y0333847D02*
X0058061Y0333758D01*
X0065381Y0333493D01*
X0072693Y0333051D01*
X0079991Y0332432D01*
X0087273Y0331637D01*
X0094533Y0330666D01*
X0101768Y0329520D01*
X0108973Y0328200D01*
X0116143Y0326706D01*
X0123276Y0325039D01*
X0130366Y0323200D01*
X0137410Y0321191D01*
X0144403Y0319012D01*
X0151342Y0316664D01*
X0158221Y0314150D01*
X0165038Y0311470D01*
X0171788Y0308626D01*
X0178468Y0305620D01*
X0185073Y0302453D01*
X0191599Y0299128D01*
X0198043Y0295645D01*
X0204402Y0292009D01*
X0210670Y0288219D01*
X0216845Y0284279D01*
X0222923Y0280192D01*
X0228901Y0275958D01*
X0234774Y0271581D01*
X0240540Y0267064D01*
X0246195Y0262409D01*
X0251736Y0257618D01*
X0257160Y0252695D01*
X0262463Y0247642D01*
X0267642Y0242463D01*
X0272695Y0237160D01*
X0277618Y0231736D01*
X0282409Y0226195D01*
X0287064Y0220540D01*
X0291581Y0214774D01*
X0295958Y0208901D01*
X0300192Y0202923D01*
X0304279Y0196845D01*
X0308219Y0190670D01*
X0312009Y0184402D01*
X0315645Y0178043D01*
X0319128Y0171599D01*
X0322453Y0165073D01*
X0325620Y0158468D01*
X0328626Y0151788D01*
X0331470Y0145038D01*
X0334150Y0138221D01*
X0336664Y0131342D01*
X0339012Y0124403D01*
X0341191Y0117410D01*
X0343200Y0110366D01*
X0345039Y0103276D01*
X0346706Y0096143D01*
X0348200Y0088973D01*
X0349520Y0081768D01*
X0350666Y0074533D01*
X0351637Y0067273D01*
X0352432Y0059991D01*
X0353051Y0052693D01*
X0353493Y0045381D01*
X0353758Y0038061D01*
X0353847Y0030737D01*
X0292824Y0030737D01*
X0292753Y0036587D01*
X0292541Y0042433D01*
X0292188Y0048273D01*
X0291694Y0054102D01*
X0291059Y0059917D01*
X0290284Y0065716D01*
X0289368Y0071494D01*
X0288314Y0077248D01*
X0287121Y0082976D01*
X0285789Y0088672D01*
X0284321Y0094335D01*
X0282716Y0099961D01*
X0280975Y0105546D01*
X0279101Y0111088D01*
X0277092Y0116582D01*
X0274952Y0122027D01*
X0272680Y0127418D01*
X0270279Y0132753D01*
X0267750Y0138028D01*
X0265094Y0143240D01*
X0262313Y0148387D01*
X0259409Y0153465D01*
X0256382Y0158472D01*
X0253236Y0163404D01*
X0249971Y0168258D01*
X0246589Y0173032D01*
X0243094Y0177723D01*
X0239486Y0182328D01*
X0235768Y0186845D01*
X0231942Y0191270D01*
X0228010Y0195602D01*
X0223974Y0199838D01*
X0219838Y0203974D01*
X0215602Y0208010D01*
X0211270Y0211942D01*
X0206845Y0215768D01*
X0202328Y0219486D01*
X0197723Y0223094D01*
X0193032Y0226589D01*
X0188258Y0229971D01*
X0183404Y0233236D01*
X0178472Y0236382D01*
X0173465Y0239409D01*
X0168387Y0242313D01*
X0163240Y0245094D01*
X0158028Y0247750D01*
X0152753Y0250279D01*
X0147418Y0252680D01*
X0142027Y0254952D01*
X0136582Y0257092D01*
X0131088Y0259101D01*
X0125546Y0260975D01*
X0119961Y0262716D01*
X0114335Y0264321D01*
X0108672Y0265789D01*
X0102976Y0267121D01*
X0097248Y0268314D01*
X0091494Y0269368D01*
X0085716Y0270284D01*
X0079917Y0271059D01*
X0074102Y0271694D01*
X0068273Y0272188D01*
X0062433Y0272541D01*
X0056587Y0272753D01*
X0050737Y0272824D01*
X0050737Y0333847D01*
D11*
X0093431Y0299684D02*
X0108140Y0296745D01*
X0194303Y0261067D02*
X0206783Y0252744D01*
X0272743Y0186761D02*
X0281088Y0174296D01*
X0316745Y0088140D02*
X0319684Y0073431D01*
D12*
X0319683Y0073431D02*
X0319914Y0073230D01*
X0320149Y0073034D01*
X0320390Y0072844D01*
X0320634Y0072660D01*
X0320884Y0072482D01*
X0321137Y0072311D01*
X0321395Y0072145D01*
X0321656Y0071986D01*
X0321922Y0071834D01*
X0322191Y0071688D01*
X0322463Y0071548D01*
X0322739Y0071415D01*
X0323018Y0071289D01*
X0323300Y0071170D01*
X0323585Y0071058D01*
X0323872Y0070953D01*
X0324162Y0070855D01*
X0324455Y0070764D01*
X0324749Y0070680D01*
X0325046Y0070604D01*
X0325344Y0070535D01*
X0325644Y0070473D01*
X0325945Y0070418D01*
X0326247Y0070371D01*
X0326551Y0070332D01*
X0326855Y0070299D01*
X0327161Y0070275D01*
X0327466Y0070257D01*
X0327772Y0070247D01*
X0328078Y0070245D01*
X0328384Y0070250D01*
X0328690Y0070263D01*
X0328996Y0070283D01*
X0329301Y0070311D01*
X0329605Y0070346D01*
X0329908Y0070388D01*
X0330210Y0070438D01*
X0330511Y0070496D01*
X0330810Y0070560D01*
X0331107Y0070632D01*
X0331403Y0070712D01*
X0331697Y0070798D01*
X0331988Y0070892D01*
X0332277Y0070992D01*
X0332564Y0071100D01*
X0332848Y0071215D01*
X0333129Y0071337D01*
X0333406Y0071465D01*
X0333681Y0071600D01*
X0333952Y0071742D01*
X0334220Y0071891D01*
X0334484Y0072046D01*
X0334744Y0072207D01*
X0335000Y0072375D01*
X0335252Y0072549D01*
X0335499Y0072729D01*
X0335742Y0072916D01*
X0335981Y0073108D01*
X0336214Y0073306D01*
X0336443Y0073509D01*
X0336667Y0073718D01*
X0336885Y0073933D01*
X0337098Y0074152D01*
X0337306Y0074377D01*
X0337508Y0074607D01*
X0337705Y0074842D01*
X0337895Y0075081D01*
X0338080Y0075326D01*
X0338259Y0075574D01*
X0338431Y0075827D01*
X0338597Y0076084D01*
X0338757Y0076345D01*
X0338911Y0076610D01*
X0339058Y0076878D01*
X0339198Y0077150D01*
X0339332Y0077426D01*
X0339459Y0077705D01*
X0339579Y0077986D01*
X0339692Y0078271D01*
X0339798Y0078558D01*
X0339897Y0078847D01*
X0339989Y0079139D01*
X0340073Y0079434D01*
X0340151Y0079730D01*
X0340221Y0080028D01*
X0340284Y0080327D01*
X0340340Y0080628D01*
X0340388Y0080931D01*
X0340428Y0081234D01*
X0340462Y0081539D01*
X0340487Y0081844D01*
X0340506Y0082149D01*
X0340517Y0082455D01*
X0340520Y0082761D01*
X0340516Y0083067D01*
X0340504Y0083373D01*
X0340485Y0083679D01*
X0340458Y0083984D01*
X0340424Y0084288D01*
X0340383Y0084591D01*
X0340334Y0084893D01*
X0340278Y0085194D01*
X0340214Y0085494D01*
X0340143Y0085792D01*
X0340065Y0086088D01*
X0339979Y0086381D01*
X0339887Y0086673D01*
X0339787Y0086963D01*
X0339680Y0087250D01*
X0339566Y0087534D01*
X0339446Y0087815D01*
X0339318Y0088093D01*
X0339184Y0088368D01*
X0339043Y0088640D01*
X0338895Y0088908D01*
X0338741Y0089173D01*
X0338580Y0089433D01*
X0338413Y0089690D01*
X0338240Y0089942D01*
X0338061Y0090191D01*
X0337875Y0090434D01*
X0337684Y0090673D01*
X0337487Y0090907D01*
X0337284Y0091137D01*
X0337076Y0091361D01*
X0336862Y0091580D01*
X0336643Y0091794D01*
X0336419Y0092003D01*
X0336190Y0092206D01*
X0335956Y0092403D01*
X0335717Y0092594D01*
X0335473Y0092780D01*
X0335225Y0092959D01*
X0334973Y0093133D01*
X0334717Y0093300D01*
X0334456Y0093461D01*
X0334192Y0093615D01*
X0333924Y0093763D01*
X0333652Y0093904D01*
X0333377Y0094039D01*
X0333099Y0094167D01*
X0332818Y0094288D01*
X0332534Y0094402D01*
X0332247Y0094509D01*
X0331958Y0094609D01*
X0331666Y0094702D01*
X0331372Y0094787D01*
X0331076Y0094866D01*
X0330778Y0094937D01*
X0330479Y0095001D01*
X0330178Y0095057D01*
X0329876Y0095106D01*
X0329573Y0095148D01*
X0329268Y0095183D01*
X0328963Y0095209D01*
X0328658Y0095229D01*
X0328352Y0095241D01*
X0328046Y0095245D01*
X0327740Y0095242D01*
X0327434Y0095231D01*
X0327128Y0095213D01*
X0326823Y0095188D01*
X0326519Y0095155D01*
X0326215Y0095114D01*
X0325913Y0095066D01*
X0325612Y0095011D01*
X0325312Y0094948D01*
X0325014Y0094878D01*
X0324718Y0094801D01*
X0324424Y0094717D01*
X0324132Y0094625D01*
X0323842Y0094526D01*
X0323555Y0094420D01*
X0323270Y0094307D01*
X0322988Y0094188D01*
X0322710Y0094061D01*
X0322434Y0093928D01*
X0322162Y0093787D01*
X0321893Y0093641D01*
X0321628Y0093487D01*
X0321367Y0093328D01*
X0321110Y0093161D01*
X0320857Y0092989D01*
X0320608Y0092811D01*
X0320364Y0092626D01*
X0320124Y0092436D01*
X0319889Y0092239D01*
X0319659Y0092037D01*
X0319434Y0091830D01*
X0319214Y0091617D01*
X0319000Y0091399D01*
X0318791Y0091175D01*
X0318587Y0090947D01*
X0318389Y0090713D01*
X0318197Y0090475D01*
X0318010Y0090232D01*
X0317830Y0089985D01*
X0317656Y0089733D01*
X0317488Y0089477D01*
X0317326Y0089217D01*
X0317171Y0088953D01*
X0317022Y0088686D01*
X0316880Y0088415D01*
X0316744Y0088140D01*
X0281087Y0174296D02*
X0281377Y0174198D01*
X0281670Y0174107D01*
X0281964Y0174024D01*
X0282261Y0173948D01*
X0282559Y0173879D01*
X0282859Y0173817D01*
X0283160Y0173763D01*
X0283463Y0173716D01*
X0283766Y0173676D01*
X0284071Y0173644D01*
X0284376Y0173620D01*
X0284682Y0173603D01*
X0284988Y0173593D01*
X0285294Y0173591D01*
X0285600Y0173597D01*
X0285906Y0173610D01*
X0286211Y0173630D01*
X0286516Y0173658D01*
X0286820Y0173693D01*
X0287123Y0173736D01*
X0287425Y0173786D01*
X0287726Y0173844D01*
X0288025Y0173909D01*
X0288323Y0173981D01*
X0288618Y0174060D01*
X0288912Y0174147D01*
X0289203Y0174241D01*
X0289492Y0174342D01*
X0289779Y0174450D01*
X0290062Y0174565D01*
X0290343Y0174687D01*
X0290621Y0174816D01*
X0290895Y0174951D01*
X0291166Y0175093D01*
X0291434Y0175242D01*
X0291698Y0175397D01*
X0291958Y0175559D01*
X0292214Y0175727D01*
X0292465Y0175901D01*
X0292713Y0176082D01*
X0292956Y0176268D01*
X0293194Y0176460D01*
X0293427Y0176658D01*
X0293656Y0176862D01*
X0293879Y0177071D01*
X0294098Y0177286D01*
X0294310Y0177506D01*
X0294518Y0177731D01*
X0294720Y0177961D01*
X0294916Y0178196D01*
X0295107Y0178436D01*
X0295291Y0178680D01*
X0295470Y0178929D01*
X0295642Y0179182D01*
X0295808Y0179439D01*
X0295968Y0179700D01*
X0296121Y0179965D01*
X0296268Y0180234D01*
X0296408Y0180506D01*
X0296541Y0180781D01*
X0296668Y0181060D01*
X0296788Y0181342D01*
X0296901Y0181626D01*
X0297006Y0181914D01*
X0297105Y0182203D01*
X0297197Y0182496D01*
X0297281Y0182790D01*
X0297358Y0183086D01*
X0297428Y0183384D01*
X0297491Y0183684D01*
X0297546Y0183985D01*
X0297594Y0184287D01*
X0297635Y0184591D01*
X0297668Y0184895D01*
X0297693Y0185200D01*
X0297711Y0185506D01*
X0297722Y0185812D01*
X0297725Y0186118D01*
X0297721Y0186424D01*
X0297709Y0186730D01*
X0297689Y0187035D01*
X0297662Y0187340D01*
X0297628Y0187644D01*
X0297586Y0187948D01*
X0297537Y0188250D01*
X0297481Y0188551D01*
X0297417Y0188850D01*
X0297345Y0189148D01*
X0297267Y0189444D01*
X0297181Y0189738D01*
X0297088Y0190029D01*
X0296988Y0190319D01*
X0296881Y0190605D01*
X0296767Y0190889D01*
X0296646Y0191171D01*
X0296519Y0191449D01*
X0296384Y0191724D01*
X0296243Y0191995D01*
X0296095Y0192263D01*
X0295940Y0192528D01*
X0295779Y0192788D01*
X0295612Y0193045D01*
X0295439Y0193297D01*
X0295259Y0193545D01*
X0295074Y0193788D01*
X0294882Y0194027D01*
X0294685Y0194261D01*
X0294482Y0194491D01*
X0294274Y0194715D01*
X0294060Y0194934D01*
X0293841Y0195148D01*
X0293616Y0195356D01*
X0293387Y0195559D01*
X0293153Y0195756D01*
X0292914Y0195947D01*
X0292670Y0196132D01*
X0292422Y0196311D01*
X0292169Y0196485D01*
X0291913Y0196652D01*
X0291652Y0196812D01*
X0291388Y0196966D01*
X0291119Y0197114D01*
X0290848Y0197255D01*
X0290573Y0197389D01*
X0290294Y0197517D01*
X0290013Y0197638D01*
X0289729Y0197751D01*
X0289442Y0197858D01*
X0289153Y0197958D01*
X0288861Y0198051D01*
X0288567Y0198136D01*
X0288271Y0198214D01*
X0287973Y0198285D01*
X0287674Y0198349D01*
X0287373Y0198405D01*
X0287070Y0198454D01*
X0286767Y0198496D01*
X0286463Y0198530D01*
X0286158Y0198556D01*
X0285852Y0198575D01*
X0285547Y0198587D01*
X0285240Y0198591D01*
X0284934Y0198588D01*
X0284628Y0198577D01*
X0284323Y0198558D01*
X0284018Y0198533D01*
X0283713Y0198499D01*
X0283410Y0198459D01*
X0283108Y0198410D01*
X0282807Y0198355D01*
X0282507Y0198292D01*
X0282209Y0198222D01*
X0281913Y0198144D01*
X0281619Y0198059D01*
X0281327Y0197968D01*
X0281037Y0197869D01*
X0280750Y0197762D01*
X0280465Y0197649D01*
X0280184Y0197529D01*
X0279905Y0197402D01*
X0279630Y0197269D01*
X0279358Y0197128D01*
X0279089Y0196981D01*
X0278824Y0196828D01*
X0278563Y0196668D01*
X0278306Y0196502D01*
X0278053Y0196329D01*
X0277805Y0196150D01*
X0277561Y0195966D01*
X0277321Y0195775D01*
X0277086Y0195579D01*
X0276857Y0195376D01*
X0276632Y0195169D01*
X0276412Y0194956D01*
X0276198Y0194737D01*
X0275989Y0194513D01*
X0275785Y0194285D01*
X0275587Y0194051D01*
X0275395Y0193813D01*
X0275209Y0193570D01*
X0275029Y0193322D01*
X0274855Y0193070D01*
X0274687Y0192814D01*
X0274526Y0192554D01*
X0274371Y0192290D01*
X0274222Y0192023D01*
X0274080Y0191751D01*
X0273945Y0191477D01*
X0273816Y0191199D01*
X0273695Y0190918D01*
X0273580Y0190634D01*
X0273472Y0190348D01*
X0273371Y0190058D01*
X0273278Y0189767D01*
X0273191Y0189473D01*
X0273112Y0189178D01*
X0273040Y0188880D01*
X0272975Y0188581D01*
X0272918Y0188280D01*
X0272868Y0187978D01*
X0272826Y0187675D01*
X0272791Y0187371D01*
X0272763Y0187066D01*
X0272743Y0186760D01*
X0206782Y0252744D02*
X0207088Y0252765D01*
X0207392Y0252793D01*
X0207697Y0252829D01*
X0208000Y0252872D01*
X0208302Y0252922D01*
X0208602Y0252980D01*
X0208901Y0253045D01*
X0209199Y0253117D01*
X0209494Y0253197D01*
X0209788Y0253284D01*
X0210079Y0253378D01*
X0210368Y0253479D01*
X0210654Y0253588D01*
X0210938Y0253703D01*
X0211219Y0253825D01*
X0211496Y0253954D01*
X0211771Y0254090D01*
X0212042Y0254232D01*
X0212309Y0254381D01*
X0212573Y0254537D01*
X0212833Y0254699D01*
X0213088Y0254867D01*
X0213340Y0255042D01*
X0213587Y0255222D01*
X0213830Y0255409D01*
X0214068Y0255601D01*
X0214301Y0255799D01*
X0214530Y0256003D01*
X0214753Y0256213D01*
X0214971Y0256427D01*
X0215184Y0256648D01*
X0215391Y0256873D01*
X0215593Y0257103D01*
X0215789Y0257338D01*
X0215979Y0257578D01*
X0216163Y0257822D01*
X0216342Y0258071D01*
X0216514Y0258324D01*
X0216680Y0258582D01*
X0216839Y0258843D01*
X0216992Y0259108D01*
X0217139Y0259377D01*
X0217279Y0259649D01*
X0217412Y0259925D01*
X0217538Y0260204D01*
X0217658Y0260486D01*
X0217770Y0260770D01*
X0217876Y0261058D01*
X0217974Y0261347D01*
X0218066Y0261640D01*
X0218150Y0261934D01*
X0218227Y0262230D01*
X0218297Y0262528D01*
X0218359Y0262828D01*
X0218414Y0263129D01*
X0218462Y0263432D01*
X0218502Y0263735D01*
X0218535Y0264039D01*
X0218560Y0264345D01*
X0218578Y0264650D01*
X0218588Y0264956D01*
X0218591Y0265262D01*
X0218586Y0265568D01*
X0218574Y0265874D01*
X0218554Y0266180D01*
X0218527Y0266485D01*
X0218493Y0266789D01*
X0218451Y0267092D01*
X0218401Y0267394D01*
X0218345Y0267695D01*
X0218280Y0267994D01*
X0218209Y0268292D01*
X0218130Y0268588D01*
X0218044Y0268882D01*
X0217951Y0269173D01*
X0217851Y0269462D01*
X0217744Y0269749D01*
X0217629Y0270033D01*
X0217508Y0270314D01*
X0217380Y0270592D01*
X0217245Y0270867D01*
X0217104Y0271139D01*
X0216956Y0271407D01*
X0216801Y0271671D01*
X0216640Y0271931D01*
X0216472Y0272187D01*
X0216299Y0272440D01*
X0216119Y0272687D01*
X0215933Y0272931D01*
X0215742Y0273169D01*
X0215544Y0273403D01*
X0215341Y0273632D01*
X0215132Y0273856D01*
X0214918Y0274075D01*
X0214699Y0274289D01*
X0214474Y0274497D01*
X0214245Y0274699D01*
X0214010Y0274896D01*
X0213771Y0275087D01*
X0213527Y0275272D01*
X0213279Y0275451D01*
X0213027Y0275624D01*
X0212770Y0275791D01*
X0212509Y0275952D01*
X0212244Y0276105D01*
X0211976Y0276253D01*
X0211704Y0276394D01*
X0211429Y0276528D01*
X0211151Y0276655D01*
X0210869Y0276776D01*
X0210585Y0276889D01*
X0210298Y0276996D01*
X0210009Y0277095D01*
X0209717Y0277188D01*
X0209423Y0277273D01*
X0209127Y0277351D01*
X0208829Y0277422D01*
X0208529Y0277485D01*
X0208228Y0277541D01*
X0207926Y0277590D01*
X0207623Y0277631D01*
X0207318Y0277665D01*
X0207013Y0277691D01*
X0206708Y0277710D01*
X0206402Y0277721D01*
X0206096Y0277725D01*
X0205790Y0277721D01*
X0205484Y0277710D01*
X0205178Y0277692D01*
X0204873Y0277666D01*
X0204569Y0277632D01*
X0204266Y0277591D01*
X0203963Y0277543D01*
X0203662Y0277487D01*
X0203363Y0277424D01*
X0203065Y0277353D01*
X0202769Y0277275D01*
X0202475Y0277190D01*
X0202183Y0277098D01*
X0201893Y0276999D01*
X0201606Y0276893D01*
X0201322Y0276779D01*
X0201040Y0276659D01*
X0200762Y0276532D01*
X0200486Y0276398D01*
X0200214Y0276257D01*
X0199946Y0276110D01*
X0199681Y0275957D01*
X0199420Y0275796D01*
X0199164Y0275630D01*
X0198911Y0275457D01*
X0198662Y0275278D01*
X0198418Y0275093D01*
X0198179Y0274902D01*
X0197944Y0274706D01*
X0197715Y0274503D01*
X0197490Y0274295D01*
X0197271Y0274082D01*
X0197056Y0273863D01*
X0196847Y0273640D01*
X0196644Y0273411D01*
X0196447Y0273177D01*
X0196255Y0272938D01*
X0196069Y0272695D01*
X0195889Y0272448D01*
X0195715Y0272196D01*
X0195547Y0271939D01*
X0195386Y0271679D01*
X0195231Y0271415D01*
X0195083Y0271147D01*
X0194941Y0270876D01*
X0194806Y0270601D01*
X0194678Y0270323D01*
X0194556Y0270042D01*
X0194442Y0269758D01*
X0194334Y0269472D01*
X0194234Y0269182D01*
X0194141Y0268891D01*
X0194054Y0268597D01*
X0193975Y0268301D01*
X0193904Y0268004D01*
X0193839Y0267705D01*
X0193782Y0267404D01*
X0193733Y0267102D01*
X0193690Y0266798D01*
X0193656Y0266494D01*
X0193628Y0266189D01*
X0193608Y0265884D01*
X0193596Y0265578D01*
X0193591Y0265272D01*
X0193594Y0264966D01*
X0193604Y0264660D01*
X0193621Y0264354D01*
X0193646Y0264049D01*
X0193679Y0263745D01*
X0193719Y0263441D01*
X0193766Y0263139D01*
X0193821Y0262838D01*
X0193883Y0262538D01*
X0193953Y0262240D01*
X0194029Y0261943D01*
X0194113Y0261649D01*
X0194205Y0261357D01*
X0194303Y0261067D01*
X0108140Y0296744D02*
X0108415Y0296880D01*
X0108686Y0297022D01*
X0108953Y0297171D01*
X0109217Y0297326D01*
X0109477Y0297488D01*
X0109733Y0297656D01*
X0109985Y0297830D01*
X0110232Y0298010D01*
X0110475Y0298197D01*
X0110713Y0298389D01*
X0110947Y0298587D01*
X0111175Y0298791D01*
X0111399Y0299000D01*
X0111617Y0299214D01*
X0111830Y0299434D01*
X0112037Y0299659D01*
X0112239Y0299889D01*
X0112436Y0300124D01*
X0112626Y0300364D01*
X0112811Y0300608D01*
X0112989Y0300857D01*
X0113161Y0301110D01*
X0113328Y0301367D01*
X0113487Y0301628D01*
X0113641Y0301893D01*
X0113787Y0302162D01*
X0113928Y0302434D01*
X0114061Y0302710D01*
X0114188Y0302988D01*
X0114307Y0303270D01*
X0114420Y0303555D01*
X0114526Y0303842D01*
X0114625Y0304132D01*
X0114717Y0304424D01*
X0114801Y0304718D01*
X0114878Y0305014D01*
X0114948Y0305312D01*
X0115011Y0305612D01*
X0115066Y0305913D01*
X0115114Y0306215D01*
X0115155Y0306519D01*
X0115188Y0306823D01*
X0115213Y0307128D01*
X0115231Y0307434D01*
X0115242Y0307740D01*
X0115245Y0308046D01*
X0115241Y0308352D01*
X0115229Y0308658D01*
X0115209Y0308963D01*
X0115183Y0309268D01*
X0115148Y0309573D01*
X0115106Y0309876D01*
X0115057Y0310178D01*
X0115001Y0310479D01*
X0114937Y0310778D01*
X0114866Y0311076D01*
X0114787Y0311372D01*
X0114702Y0311666D01*
X0114609Y0311958D01*
X0114509Y0312247D01*
X0114402Y0312534D01*
X0114288Y0312818D01*
X0114167Y0313099D01*
X0114039Y0313377D01*
X0113904Y0313652D01*
X0113763Y0313924D01*
X0113615Y0314192D01*
X0113461Y0314456D01*
X0113300Y0314717D01*
X0113133Y0314973D01*
X0112959Y0315225D01*
X0112780Y0315473D01*
X0112594Y0315717D01*
X0112403Y0315956D01*
X0112206Y0316190D01*
X0112003Y0316419D01*
X0111794Y0316643D01*
X0111580Y0316862D01*
X0111361Y0317076D01*
X0111137Y0317284D01*
X0110907Y0317487D01*
X0110673Y0317684D01*
X0110434Y0317875D01*
X0110191Y0318061D01*
X0109942Y0318240D01*
X0109690Y0318413D01*
X0109433Y0318580D01*
X0109173Y0318741D01*
X0108908Y0318895D01*
X0108640Y0319043D01*
X0108368Y0319184D01*
X0108093Y0319318D01*
X0107815Y0319446D01*
X0107534Y0319566D01*
X0107250Y0319680D01*
X0106963Y0319787D01*
X0106673Y0319887D01*
X0106381Y0319979D01*
X0106088Y0320065D01*
X0105792Y0320143D01*
X0105494Y0320214D01*
X0105194Y0320278D01*
X0104893Y0320334D01*
X0104591Y0320383D01*
X0104288Y0320424D01*
X0103984Y0320458D01*
X0103679Y0320485D01*
X0103373Y0320504D01*
X0103067Y0320516D01*
X0102761Y0320520D01*
X0102455Y0320517D01*
X0102149Y0320506D01*
X0101844Y0320487D01*
X0101539Y0320462D01*
X0101234Y0320428D01*
X0100931Y0320388D01*
X0100628Y0320340D01*
X0100327Y0320284D01*
X0100028Y0320221D01*
X0099730Y0320151D01*
X0099434Y0320073D01*
X0099139Y0319989D01*
X0098847Y0319897D01*
X0098558Y0319798D01*
X0098271Y0319692D01*
X0097986Y0319579D01*
X0097705Y0319459D01*
X0097426Y0319332D01*
X0097150Y0319198D01*
X0096878Y0319058D01*
X0096610Y0318911D01*
X0096345Y0318757D01*
X0096084Y0318597D01*
X0095827Y0318431D01*
X0095574Y0318259D01*
X0095326Y0318080D01*
X0095081Y0317895D01*
X0094842Y0317705D01*
X0094607Y0317508D01*
X0094377Y0317306D01*
X0094152Y0317098D01*
X0093933Y0316885D01*
X0093718Y0316667D01*
X0093509Y0316443D01*
X0093306Y0316214D01*
X0093108Y0315981D01*
X0092916Y0315742D01*
X0092729Y0315499D01*
X0092549Y0315252D01*
X0092375Y0315000D01*
X0092207Y0314744D01*
X0092046Y0314484D01*
X0091891Y0314220D01*
X0091742Y0313952D01*
X0091600Y0313681D01*
X0091465Y0313406D01*
X0091337Y0313129D01*
X0091215Y0312848D01*
X0091100Y0312564D01*
X0090992Y0312277D01*
X0090892Y0311988D01*
X0090798Y0311697D01*
X0090712Y0311403D01*
X0090632Y0311107D01*
X0090560Y0310810D01*
X0090496Y0310511D01*
X0090438Y0310210D01*
X0090388Y0309908D01*
X0090346Y0309605D01*
X0090311Y0309301D01*
X0090283Y0308996D01*
X0090263Y0308690D01*
X0090250Y0308384D01*
X0090245Y0308078D01*
X0090247Y0307772D01*
X0090257Y0307466D01*
X0090275Y0307161D01*
X0090299Y0306855D01*
X0090332Y0306551D01*
X0090371Y0306247D01*
X0090418Y0305945D01*
X0090473Y0305644D01*
X0090535Y0305344D01*
X0090604Y0305046D01*
X0090680Y0304749D01*
X0090764Y0304455D01*
X0090855Y0304162D01*
X0090953Y0303872D01*
X0091058Y0303585D01*
X0091170Y0303300D01*
X0091289Y0303018D01*
X0091415Y0302739D01*
X0091548Y0302463D01*
X0091688Y0302191D01*
X0091834Y0301922D01*
X0091986Y0301656D01*
X0092145Y0301395D01*
X0092311Y0301137D01*
X0092482Y0300884D01*
X0092660Y0300634D01*
X0092844Y0300390D01*
X0093034Y0300149D01*
X0093230Y0299914D01*
X0093431Y0299683D01*
D13*
X0094845Y0293982D02*
X0096316Y0293688D01*
X0094845Y0293982D02*
X0092886Y0284176D01*
X0094357Y0283882D01*
X0101066Y0283658D02*
X0101189Y0283724D01*
X0101311Y0283794D01*
X0101431Y0283867D01*
X0101548Y0283943D01*
X0101663Y0284023D01*
X0101776Y0284105D01*
X0101887Y0284191D01*
X0101995Y0284280D01*
X0102101Y0284372D01*
X0102204Y0284466D01*
X0102304Y0284564D01*
X0102402Y0284664D01*
X0102496Y0284768D01*
X0102588Y0284873D01*
X0102677Y0284981D01*
X0102763Y0285092D01*
X0102845Y0285205D01*
X0102925Y0285320D01*
X0103001Y0285438D01*
X0103074Y0285557D01*
X0103143Y0285679D01*
X0103209Y0285802D01*
X0103272Y0285928D01*
X0103331Y0286055D01*
X0103386Y0286183D01*
X0103438Y0286313D01*
X0103486Y0286445D01*
X0103531Y0286577D01*
X0103572Y0286711D01*
X0103609Y0286846D01*
X0103642Y0286982D01*
X0103671Y0287119D01*
X0102692Y0282216D02*
X0101221Y0282510D01*
X0102692Y0282216D02*
X0104651Y0292023D01*
X0103180Y0292316D01*
X0102597Y0291315D02*
X0102686Y0291207D01*
X0102771Y0291096D01*
X0102853Y0290983D01*
X0102933Y0290867D01*
X0103008Y0290750D01*
X0103081Y0290630D01*
X0103150Y0290508D01*
X0103216Y0290385D01*
X0103278Y0290259D01*
X0103337Y0290132D01*
X0103392Y0290004D01*
X0103444Y0289873D01*
X0103491Y0289742D01*
X0103536Y0289609D01*
X0103576Y0289475D01*
X0103613Y0289340D01*
X0103645Y0289204D01*
X0103674Y0289067D01*
X0103700Y0288929D01*
X0103721Y0288791D01*
X0103738Y0288652D01*
X0103752Y0288512D01*
X0103762Y0288373D01*
X0103767Y0288233D01*
X0103769Y0288093D01*
X0103767Y0287953D01*
X0103761Y0287813D01*
X0103751Y0287673D01*
X0103737Y0287534D01*
X0103719Y0287395D01*
X0103698Y0287257D01*
X0103672Y0287119D01*
X0096471Y0292540D02*
X0096348Y0292474D01*
X0096226Y0292404D01*
X0096106Y0292331D01*
X0095989Y0292255D01*
X0095874Y0292175D01*
X0095761Y0292093D01*
X0095650Y0292007D01*
X0095542Y0291918D01*
X0095436Y0291826D01*
X0095333Y0291732D01*
X0095233Y0291634D01*
X0095135Y0291534D01*
X0095041Y0291430D01*
X0094949Y0291325D01*
X0094860Y0291217D01*
X0094774Y0291106D01*
X0094692Y0290993D01*
X0094612Y0290878D01*
X0094536Y0290760D01*
X0094463Y0290641D01*
X0094394Y0290519D01*
X0094328Y0290396D01*
X0094265Y0290270D01*
X0094206Y0290143D01*
X0094151Y0290015D01*
X0094099Y0289885D01*
X0094051Y0289753D01*
X0094006Y0289621D01*
X0093965Y0289487D01*
X0093928Y0289352D01*
X0093895Y0289216D01*
X0093866Y0289079D01*
X0093865Y0289079D02*
X0093839Y0288941D01*
X0093818Y0288803D01*
X0093800Y0288664D01*
X0093786Y0288525D01*
X0093776Y0288385D01*
X0093770Y0288245D01*
X0093768Y0288105D01*
X0093770Y0287965D01*
X0093775Y0287825D01*
X0093785Y0287686D01*
X0093799Y0287546D01*
X0093816Y0287407D01*
X0093837Y0287269D01*
X0093863Y0287131D01*
X0093892Y0286994D01*
X0093924Y0286858D01*
X0093961Y0286723D01*
X0094001Y0286589D01*
X0094046Y0286456D01*
X0094093Y0286325D01*
X0094145Y0286194D01*
X0094200Y0286066D01*
X0094259Y0285939D01*
X0094321Y0285813D01*
X0094387Y0285690D01*
X0094456Y0285568D01*
X0094529Y0285448D01*
X0094604Y0285331D01*
X0094684Y0285215D01*
X0094766Y0285102D01*
X0094851Y0284991D01*
X0094940Y0284883D01*
X0092745Y0308020D02*
X0092748Y0308265D01*
X0092757Y0308511D01*
X0092772Y0308756D01*
X0092793Y0309000D01*
X0092820Y0309244D01*
X0092853Y0309487D01*
X0092892Y0309730D01*
X0092937Y0309971D01*
X0092988Y0310211D01*
X0093045Y0310450D01*
X0093107Y0310687D01*
X0093176Y0310923D01*
X0093250Y0311157D01*
X0093330Y0311389D01*
X0093415Y0311619D01*
X0093506Y0311847D01*
X0093603Y0312072D01*
X0093705Y0312296D01*
X0093813Y0312516D01*
X0093926Y0312734D01*
X0094044Y0312949D01*
X0094168Y0313161D01*
X0094296Y0313370D01*
X0094430Y0313576D01*
X0094569Y0313778D01*
X0094713Y0313977D01*
X0094862Y0314172D01*
X0095015Y0314364D01*
X0095173Y0314552D01*
X0095335Y0314736D01*
X0095503Y0314915D01*
X0095674Y0315091D01*
X0095850Y0315262D01*
X0096029Y0315430D01*
X0096213Y0315592D01*
X0096401Y0315750D01*
X0096593Y0315903D01*
X0096788Y0316052D01*
X0096987Y0316196D01*
X0097189Y0316335D01*
X0097395Y0316469D01*
X0097604Y0316597D01*
X0097816Y0316721D01*
X0098031Y0316839D01*
X0098249Y0316952D01*
X0098469Y0317060D01*
X0098693Y0317162D01*
X0098918Y0317259D01*
X0099146Y0317350D01*
X0099376Y0317435D01*
X0099608Y0317515D01*
X0099842Y0317589D01*
X0100078Y0317658D01*
X0100315Y0317720D01*
X0100554Y0317777D01*
X0100794Y0317828D01*
X0101035Y0317873D01*
X0101278Y0317912D01*
X0101521Y0317945D01*
X0101765Y0317972D01*
X0102009Y0317993D01*
X0102254Y0318008D01*
X0102500Y0318017D01*
X0102745Y0318020D01*
X0102990Y0318017D01*
X0103236Y0318008D01*
X0103481Y0317993D01*
X0103725Y0317972D01*
X0103969Y0317945D01*
X0104212Y0317912D01*
X0104455Y0317873D01*
X0104696Y0317828D01*
X0104936Y0317777D01*
X0105175Y0317720D01*
X0105412Y0317658D01*
X0105648Y0317589D01*
X0105882Y0317515D01*
X0106114Y0317435D01*
X0106344Y0317350D01*
X0106572Y0317259D01*
X0106797Y0317162D01*
X0107021Y0317060D01*
X0107241Y0316952D01*
X0107459Y0316839D01*
X0107674Y0316721D01*
X0107886Y0316597D01*
X0108095Y0316469D01*
X0108301Y0316335D01*
X0108503Y0316196D01*
X0108702Y0316052D01*
X0108897Y0315903D01*
X0109089Y0315750D01*
X0109277Y0315592D01*
X0109461Y0315430D01*
X0109640Y0315262D01*
X0109816Y0315091D01*
X0109987Y0314915D01*
X0110155Y0314736D01*
X0110317Y0314552D01*
X0110475Y0314364D01*
X0110628Y0314172D01*
X0110777Y0313977D01*
X0110921Y0313778D01*
X0111060Y0313576D01*
X0111194Y0313370D01*
X0111322Y0313161D01*
X0111446Y0312949D01*
X0111564Y0312734D01*
X0111677Y0312516D01*
X0111785Y0312296D01*
X0111887Y0312072D01*
X0111984Y0311847D01*
X0112075Y0311619D01*
X0112160Y0311389D01*
X0112240Y0311157D01*
X0112314Y0310923D01*
X0112383Y0310687D01*
X0112445Y0310450D01*
X0112502Y0310211D01*
X0112553Y0309971D01*
X0112598Y0309730D01*
X0112637Y0309487D01*
X0112670Y0309244D01*
X0112697Y0309000D01*
X0112718Y0308756D01*
X0112733Y0308511D01*
X0112742Y0308265D01*
X0112745Y0308020D01*
X0112742Y0307775D01*
X0112733Y0307529D01*
X0112718Y0307284D01*
X0112697Y0307040D01*
X0112670Y0306796D01*
X0112637Y0306553D01*
X0112598Y0306310D01*
X0112553Y0306069D01*
X0112502Y0305829D01*
X0112445Y0305590D01*
X0112383Y0305353D01*
X0112314Y0305117D01*
X0112240Y0304883D01*
X0112160Y0304651D01*
X0112075Y0304421D01*
X0111984Y0304193D01*
X0111887Y0303968D01*
X0111785Y0303744D01*
X0111677Y0303524D01*
X0111564Y0303306D01*
X0111446Y0303091D01*
X0111322Y0302879D01*
X0111194Y0302670D01*
X0111060Y0302464D01*
X0110921Y0302262D01*
X0110777Y0302063D01*
X0110628Y0301868D01*
X0110475Y0301676D01*
X0110317Y0301488D01*
X0110155Y0301304D01*
X0109987Y0301125D01*
X0109816Y0300949D01*
X0109640Y0300778D01*
X0109461Y0300610D01*
X0109277Y0300448D01*
X0109089Y0300290D01*
X0108897Y0300137D01*
X0108702Y0299988D01*
X0108503Y0299844D01*
X0108301Y0299705D01*
X0108095Y0299571D01*
X0107886Y0299443D01*
X0107674Y0299319D01*
X0107459Y0299201D01*
X0107241Y0299088D01*
X0107021Y0298980D01*
X0106797Y0298878D01*
X0106572Y0298781D01*
X0106344Y0298690D01*
X0106114Y0298605D01*
X0105882Y0298525D01*
X0105648Y0298451D01*
X0105412Y0298382D01*
X0105175Y0298320D01*
X0104936Y0298263D01*
X0104696Y0298212D01*
X0104455Y0298167D01*
X0104212Y0298128D01*
X0103969Y0298095D01*
X0103725Y0298068D01*
X0103481Y0298047D01*
X0103236Y0298032D01*
X0102990Y0298023D01*
X0102745Y0298020D01*
X0102500Y0298023D01*
X0102254Y0298032D01*
X0102009Y0298047D01*
X0101765Y0298068D01*
X0101521Y0298095D01*
X0101278Y0298128D01*
X0101035Y0298167D01*
X0100794Y0298212D01*
X0100554Y0298263D01*
X0100315Y0298320D01*
X0100078Y0298382D01*
X0099842Y0298451D01*
X0099608Y0298525D01*
X0099376Y0298605D01*
X0099146Y0298690D01*
X0098918Y0298781D01*
X0098693Y0298878D01*
X0098469Y0298980D01*
X0098249Y0299088D01*
X0098031Y0299201D01*
X0097816Y0299319D01*
X0097604Y0299443D01*
X0097395Y0299571D01*
X0097189Y0299705D01*
X0096987Y0299844D01*
X0096788Y0299988D01*
X0096593Y0300137D01*
X0096401Y0300290D01*
X0096213Y0300448D01*
X0096029Y0300610D01*
X0095850Y0300778D01*
X0095674Y0300949D01*
X0095503Y0301125D01*
X0095335Y0301304D01*
X0095173Y0301488D01*
X0095015Y0301676D01*
X0094862Y0301868D01*
X0094713Y0302063D01*
X0094569Y0302262D01*
X0094430Y0302464D01*
X0094296Y0302670D01*
X0094168Y0302879D01*
X0094044Y0303091D01*
X0093926Y0303306D01*
X0093813Y0303524D01*
X0093705Y0303744D01*
X0093603Y0303968D01*
X0093506Y0304193D01*
X0093415Y0304421D01*
X0093330Y0304651D01*
X0093250Y0304883D01*
X0093176Y0305117D01*
X0093107Y0305353D01*
X0093045Y0305590D01*
X0092988Y0305829D01*
X0092937Y0306069D01*
X0092892Y0306310D01*
X0092853Y0306553D01*
X0092820Y0306796D01*
X0092793Y0307040D01*
X0092772Y0307284D01*
X0092757Y0307529D01*
X0092748Y0307775D01*
X0092745Y0308020D01*
X0187858Y0246911D02*
X0189106Y0246078D01*
X0187858Y0246911D02*
X0193407Y0255230D01*
X0194655Y0254398D01*
X0199557Y0249811D02*
X0199597Y0249677D01*
X0199634Y0249542D01*
X0199667Y0249406D01*
X0199696Y0249269D01*
X0199722Y0249131D01*
X0199743Y0248993D01*
X0199761Y0248854D01*
X0199774Y0248715D01*
X0199784Y0248575D01*
X0199790Y0248435D01*
X0199792Y0248295D01*
X0199790Y0248155D01*
X0199784Y0248015D01*
X0199774Y0247876D01*
X0199761Y0247736D01*
X0199743Y0247597D01*
X0199721Y0247459D01*
X0199696Y0247321D01*
X0199667Y0247184D01*
X0199634Y0247048D01*
X0199597Y0246913D01*
X0199556Y0246779D01*
X0199512Y0246647D01*
X0199464Y0246515D01*
X0199412Y0246385D01*
X0199357Y0246256D01*
X0199298Y0246129D01*
X0199236Y0246004D01*
X0199170Y0245881D01*
X0199100Y0245759D01*
X0199028Y0245639D01*
X0198952Y0245522D01*
X0201726Y0249682D02*
X0196178Y0241362D01*
X0194930Y0242194D01*
X0190027Y0246781D02*
X0189987Y0246915D01*
X0189950Y0247050D01*
X0189917Y0247186D01*
X0189888Y0247323D01*
X0189862Y0247461D01*
X0189841Y0247599D01*
X0189823Y0247738D01*
X0189810Y0247877D01*
X0189800Y0248017D01*
X0189794Y0248157D01*
X0189792Y0248297D01*
X0189794Y0248437D01*
X0189800Y0248577D01*
X0189810Y0248716D01*
X0189823Y0248856D01*
X0189841Y0248995D01*
X0189863Y0249133D01*
X0189888Y0249271D01*
X0189917Y0249408D01*
X0189950Y0249544D01*
X0189987Y0249679D01*
X0190028Y0249813D01*
X0190072Y0249945D01*
X0190120Y0250077D01*
X0190172Y0250207D01*
X0190227Y0250336D01*
X0190286Y0250463D01*
X0190348Y0250588D01*
X0190414Y0250711D01*
X0190484Y0250833D01*
X0190556Y0250953D01*
X0190632Y0251070D01*
X0195224Y0243315D02*
X0195364Y0243329D01*
X0195503Y0243347D01*
X0195641Y0243369D01*
X0195779Y0243394D01*
X0195915Y0243424D01*
X0196051Y0243457D01*
X0196186Y0243494D01*
X0196320Y0243535D01*
X0196453Y0243580D01*
X0196584Y0243628D01*
X0196714Y0243680D01*
X0196843Y0243736D01*
X0196970Y0243795D01*
X0197095Y0243858D01*
X0197218Y0243924D01*
X0197340Y0243994D01*
X0197459Y0244067D01*
X0197576Y0244143D01*
X0197692Y0244223D01*
X0197804Y0244305D01*
X0197915Y0244391D01*
X0198023Y0244480D01*
X0198129Y0244572D01*
X0198232Y0244667D01*
X0198332Y0244765D01*
X0198429Y0244865D01*
X0198524Y0244969D01*
X0198616Y0245074D01*
X0198704Y0245183D01*
X0198790Y0245293D01*
X0198873Y0245406D01*
X0198952Y0245522D01*
X0201726Y0249682D02*
X0200478Y0250514D01*
X0194360Y0253277D02*
X0194220Y0253263D01*
X0194081Y0253245D01*
X0193943Y0253223D01*
X0193805Y0253198D01*
X0193669Y0253168D01*
X0193533Y0253135D01*
X0193398Y0253098D01*
X0193264Y0253057D01*
X0193131Y0253012D01*
X0193000Y0252964D01*
X0192870Y0252912D01*
X0192741Y0252856D01*
X0192614Y0252797D01*
X0192489Y0252734D01*
X0192366Y0252668D01*
X0192244Y0252598D01*
X0192125Y0252525D01*
X0192008Y0252449D01*
X0191892Y0252369D01*
X0191780Y0252287D01*
X0191669Y0252201D01*
X0191561Y0252112D01*
X0191455Y0252020D01*
X0191352Y0251925D01*
X0191252Y0251827D01*
X0191155Y0251727D01*
X0191060Y0251623D01*
X0190968Y0251518D01*
X0190880Y0251409D01*
X0190794Y0251299D01*
X0190711Y0251186D01*
X0190632Y0251070D01*
X0196091Y0265225D02*
X0196094Y0265470D01*
X0196103Y0265716D01*
X0196118Y0265961D01*
X0196139Y0266205D01*
X0196166Y0266449D01*
X0196199Y0266692D01*
X0196238Y0266935D01*
X0196283Y0267176D01*
X0196334Y0267416D01*
X0196391Y0267655D01*
X0196453Y0267892D01*
X0196522Y0268128D01*
X0196596Y0268362D01*
X0196676Y0268594D01*
X0196761Y0268824D01*
X0196852Y0269052D01*
X0196949Y0269277D01*
X0197051Y0269501D01*
X0197159Y0269721D01*
X0197272Y0269939D01*
X0197390Y0270154D01*
X0197514Y0270366D01*
X0197642Y0270575D01*
X0197776Y0270781D01*
X0197915Y0270983D01*
X0198059Y0271182D01*
X0198208Y0271377D01*
X0198361Y0271569D01*
X0198519Y0271757D01*
X0198681Y0271941D01*
X0198849Y0272120D01*
X0199020Y0272296D01*
X0199196Y0272467D01*
X0199375Y0272635D01*
X0199559Y0272797D01*
X0199747Y0272955D01*
X0199939Y0273108D01*
X0200134Y0273257D01*
X0200333Y0273401D01*
X0200535Y0273540D01*
X0200741Y0273674D01*
X0200950Y0273802D01*
X0201162Y0273926D01*
X0201377Y0274044D01*
X0201595Y0274157D01*
X0201815Y0274265D01*
X0202039Y0274367D01*
X0202264Y0274464D01*
X0202492Y0274555D01*
X0202722Y0274640D01*
X0202954Y0274720D01*
X0203188Y0274794D01*
X0203424Y0274863D01*
X0203661Y0274925D01*
X0203900Y0274982D01*
X0204140Y0275033D01*
X0204381Y0275078D01*
X0204624Y0275117D01*
X0204867Y0275150D01*
X0205111Y0275177D01*
X0205355Y0275198D01*
X0205600Y0275213D01*
X0205846Y0275222D01*
X0206091Y0275225D01*
X0206336Y0275222D01*
X0206582Y0275213D01*
X0206827Y0275198D01*
X0207071Y0275177D01*
X0207315Y0275150D01*
X0207558Y0275117D01*
X0207801Y0275078D01*
X0208042Y0275033D01*
X0208282Y0274982D01*
X0208521Y0274925D01*
X0208758Y0274863D01*
X0208994Y0274794D01*
X0209228Y0274720D01*
X0209460Y0274640D01*
X0209690Y0274555D01*
X0209918Y0274464D01*
X0210143Y0274367D01*
X0210367Y0274265D01*
X0210587Y0274157D01*
X0210805Y0274044D01*
X0211020Y0273926D01*
X0211232Y0273802D01*
X0211441Y0273674D01*
X0211647Y0273540D01*
X0211849Y0273401D01*
X0212048Y0273257D01*
X0212243Y0273108D01*
X0212435Y0272955D01*
X0212623Y0272797D01*
X0212807Y0272635D01*
X0212986Y0272467D01*
X0213162Y0272296D01*
X0213333Y0272120D01*
X0213501Y0271941D01*
X0213663Y0271757D01*
X0213821Y0271569D01*
X0213974Y0271377D01*
X0214123Y0271182D01*
X0214267Y0270983D01*
X0214406Y0270781D01*
X0214540Y0270575D01*
X0214668Y0270366D01*
X0214792Y0270154D01*
X0214910Y0269939D01*
X0215023Y0269721D01*
X0215131Y0269501D01*
X0215233Y0269277D01*
X0215330Y0269052D01*
X0215421Y0268824D01*
X0215506Y0268594D01*
X0215586Y0268362D01*
X0215660Y0268128D01*
X0215729Y0267892D01*
X0215791Y0267655D01*
X0215848Y0267416D01*
X0215899Y0267176D01*
X0215944Y0266935D01*
X0215983Y0266692D01*
X0216016Y0266449D01*
X0216043Y0266205D01*
X0216064Y0265961D01*
X0216079Y0265716D01*
X0216088Y0265470D01*
X0216091Y0265225D01*
X0216088Y0264980D01*
X0216079Y0264734D01*
X0216064Y0264489D01*
X0216043Y0264245D01*
X0216016Y0264001D01*
X0215983Y0263758D01*
X0215944Y0263515D01*
X0215899Y0263274D01*
X0215848Y0263034D01*
X0215791Y0262795D01*
X0215729Y0262558D01*
X0215660Y0262322D01*
X0215586Y0262088D01*
X0215506Y0261856D01*
X0215421Y0261626D01*
X0215330Y0261398D01*
X0215233Y0261173D01*
X0215131Y0260949D01*
X0215023Y0260729D01*
X0214910Y0260511D01*
X0214792Y0260296D01*
X0214668Y0260084D01*
X0214540Y0259875D01*
X0214406Y0259669D01*
X0214267Y0259467D01*
X0214123Y0259268D01*
X0213974Y0259073D01*
X0213821Y0258881D01*
X0213663Y0258693D01*
X0213501Y0258509D01*
X0213333Y0258330D01*
X0213162Y0258154D01*
X0212986Y0257983D01*
X0212807Y0257815D01*
X0212623Y0257653D01*
X0212435Y0257495D01*
X0212243Y0257342D01*
X0212048Y0257193D01*
X0211849Y0257049D01*
X0211647Y0256910D01*
X0211441Y0256776D01*
X0211232Y0256648D01*
X0211020Y0256524D01*
X0210805Y0256406D01*
X0210587Y0256293D01*
X0210367Y0256185D01*
X0210143Y0256083D01*
X0209918Y0255986D01*
X0209690Y0255895D01*
X0209460Y0255810D01*
X0209228Y0255730D01*
X0208994Y0255656D01*
X0208758Y0255587D01*
X0208521Y0255525D01*
X0208282Y0255468D01*
X0208042Y0255417D01*
X0207801Y0255372D01*
X0207558Y0255333D01*
X0207315Y0255300D01*
X0207071Y0255273D01*
X0206827Y0255252D01*
X0206582Y0255237D01*
X0206336Y0255228D01*
X0206091Y0255225D01*
X0205846Y0255228D01*
X0205600Y0255237D01*
X0205355Y0255252D01*
X0205111Y0255273D01*
X0204867Y0255300D01*
X0204624Y0255333D01*
X0204381Y0255372D01*
X0204140Y0255417D01*
X0203900Y0255468D01*
X0203661Y0255525D01*
X0203424Y0255587D01*
X0203188Y0255656D01*
X0202954Y0255730D01*
X0202722Y0255810D01*
X0202492Y0255895D01*
X0202264Y0255986D01*
X0202039Y0256083D01*
X0201815Y0256185D01*
X0201595Y0256293D01*
X0201377Y0256406D01*
X0201162Y0256524D01*
X0200950Y0256648D01*
X0200741Y0256776D01*
X0200535Y0256910D01*
X0200333Y0257049D01*
X0200134Y0257193D01*
X0199939Y0257342D01*
X0199747Y0257495D01*
X0199559Y0257653D01*
X0199375Y0257815D01*
X0199196Y0257983D01*
X0199020Y0258154D01*
X0198849Y0258330D01*
X0198681Y0258509D01*
X0198519Y0258693D01*
X0198361Y0258881D01*
X0198208Y0259073D01*
X0198059Y0259268D01*
X0197915Y0259467D01*
X0197776Y0259669D01*
X0197642Y0259875D01*
X0197514Y0260084D01*
X0197390Y0260296D01*
X0197272Y0260511D01*
X0197159Y0260729D01*
X0197051Y0260949D01*
X0196949Y0261173D01*
X0196852Y0261398D01*
X0196761Y0261626D01*
X0196676Y0261856D01*
X0196596Y0262088D01*
X0196522Y0262322D01*
X0196453Y0262558D01*
X0196391Y0262795D01*
X0196334Y0263034D01*
X0196283Y0263274D01*
X0196238Y0263515D01*
X0196199Y0263758D01*
X0196166Y0264001D01*
X0196139Y0264245D01*
X0196118Y0264489D01*
X0196103Y0264734D01*
X0196094Y0264980D01*
X0196091Y0265225D01*
X0261360Y0176166D02*
X0269670Y0181729D01*
X0270504Y0180482D01*
X0269803Y0179560D02*
X0269669Y0179600D01*
X0269533Y0179636D01*
X0269397Y0179669D01*
X0269260Y0179698D01*
X0269123Y0179723D01*
X0268984Y0179744D01*
X0268845Y0179762D01*
X0268706Y0179775D01*
X0268566Y0179785D01*
X0268426Y0179790D01*
X0268286Y0179792D01*
X0268146Y0179790D01*
X0268007Y0179784D01*
X0267867Y0179774D01*
X0267728Y0179760D01*
X0267589Y0179742D01*
X0267450Y0179720D01*
X0267313Y0179694D01*
X0267176Y0179665D01*
X0267040Y0179632D01*
X0266905Y0179595D01*
X0266771Y0179554D01*
X0266638Y0179509D01*
X0266507Y0179461D01*
X0266377Y0179409D01*
X0266248Y0179353D01*
X0266121Y0179294D01*
X0265996Y0179232D01*
X0265873Y0179166D01*
X0265751Y0179096D01*
X0265632Y0179023D01*
X0265514Y0178947D01*
X0261360Y0176166D02*
X0262194Y0174919D01*
X0266789Y0170024D02*
X0266923Y0169984D01*
X0267059Y0169948D01*
X0267195Y0169915D01*
X0267332Y0169886D01*
X0267469Y0169861D01*
X0267608Y0169840D01*
X0267747Y0169822D01*
X0267886Y0169809D01*
X0268026Y0169799D01*
X0268166Y0169794D01*
X0268306Y0169792D01*
X0268446Y0169794D01*
X0268585Y0169800D01*
X0268725Y0169810D01*
X0268864Y0169824D01*
X0269003Y0169842D01*
X0269142Y0169864D01*
X0269279Y0169890D01*
X0269416Y0169919D01*
X0269552Y0169952D01*
X0269687Y0169989D01*
X0269821Y0170030D01*
X0269954Y0170075D01*
X0270085Y0170123D01*
X0270215Y0170175D01*
X0270344Y0170231D01*
X0270471Y0170290D01*
X0270596Y0170352D01*
X0270719Y0170418D01*
X0270841Y0170488D01*
X0270960Y0170561D01*
X0271078Y0170637D01*
X0275232Y0173419D02*
X0266923Y0167856D01*
X0266088Y0169102D01*
X0263314Y0175216D02*
X0263328Y0175355D01*
X0263346Y0175494D01*
X0263367Y0175632D01*
X0263393Y0175770D01*
X0263422Y0175907D01*
X0263455Y0176043D01*
X0263492Y0176178D01*
X0263533Y0176312D01*
X0263577Y0176445D01*
X0263625Y0176576D01*
X0263677Y0176706D01*
X0263732Y0176835D01*
X0263791Y0176962D01*
X0263854Y0177087D01*
X0263920Y0177210D01*
X0263989Y0177332D01*
X0264062Y0177452D01*
X0264138Y0177569D01*
X0264218Y0177684D01*
X0264300Y0177798D01*
X0264386Y0177908D01*
X0264475Y0178016D01*
X0264566Y0178122D01*
X0264661Y0178225D01*
X0264759Y0178326D01*
X0264859Y0178423D01*
X0264962Y0178518D01*
X0265068Y0178610D01*
X0265176Y0178699D01*
X0265286Y0178785D01*
X0265399Y0178867D01*
X0265515Y0178947D01*
X0273278Y0174368D02*
X0273264Y0174229D01*
X0273246Y0174090D01*
X0273225Y0173952D01*
X0273199Y0173814D01*
X0273170Y0173677D01*
X0273137Y0173541D01*
X0273100Y0173406D01*
X0273059Y0173272D01*
X0273015Y0173139D01*
X0272967Y0173008D01*
X0272915Y0172878D01*
X0272860Y0172749D01*
X0272801Y0172622D01*
X0272738Y0172497D01*
X0272672Y0172374D01*
X0272603Y0172252D01*
X0272530Y0172132D01*
X0272454Y0172015D01*
X0272374Y0171900D01*
X0272292Y0171786D01*
X0272206Y0171676D01*
X0272117Y0171568D01*
X0272026Y0171462D01*
X0271931Y0171359D01*
X0271833Y0171258D01*
X0271733Y0171161D01*
X0271630Y0171066D01*
X0271524Y0170974D01*
X0271416Y0170885D01*
X0271306Y0170799D01*
X0271193Y0170717D01*
X0271077Y0170637D01*
X0275232Y0173419D02*
X0274398Y0174665D01*
X0275225Y0186091D02*
X0275228Y0186336D01*
X0275237Y0186582D01*
X0275252Y0186827D01*
X0275273Y0187071D01*
X0275300Y0187315D01*
X0275333Y0187558D01*
X0275372Y0187801D01*
X0275417Y0188042D01*
X0275468Y0188282D01*
X0275525Y0188521D01*
X0275587Y0188758D01*
X0275656Y0188994D01*
X0275730Y0189228D01*
X0275810Y0189460D01*
X0275895Y0189690D01*
X0275986Y0189918D01*
X0276083Y0190143D01*
X0276185Y0190367D01*
X0276293Y0190587D01*
X0276406Y0190805D01*
X0276524Y0191020D01*
X0276648Y0191232D01*
X0276776Y0191441D01*
X0276910Y0191647D01*
X0277049Y0191849D01*
X0277193Y0192048D01*
X0277342Y0192243D01*
X0277495Y0192435D01*
X0277653Y0192623D01*
X0277815Y0192807D01*
X0277983Y0192986D01*
X0278154Y0193162D01*
X0278330Y0193333D01*
X0278509Y0193501D01*
X0278693Y0193663D01*
X0278881Y0193821D01*
X0279073Y0193974D01*
X0279268Y0194123D01*
X0279467Y0194267D01*
X0279669Y0194406D01*
X0279875Y0194540D01*
X0280084Y0194668D01*
X0280296Y0194792D01*
X0280511Y0194910D01*
X0280729Y0195023D01*
X0280949Y0195131D01*
X0281173Y0195233D01*
X0281398Y0195330D01*
X0281626Y0195421D01*
X0281856Y0195506D01*
X0282088Y0195586D01*
X0282322Y0195660D01*
X0282558Y0195729D01*
X0282795Y0195791D01*
X0283034Y0195848D01*
X0283274Y0195899D01*
X0283515Y0195944D01*
X0283758Y0195983D01*
X0284001Y0196016D01*
X0284245Y0196043D01*
X0284489Y0196064D01*
X0284734Y0196079D01*
X0284980Y0196088D01*
X0285225Y0196091D01*
X0285470Y0196088D01*
X0285716Y0196079D01*
X0285961Y0196064D01*
X0286205Y0196043D01*
X0286449Y0196016D01*
X0286692Y0195983D01*
X0286935Y0195944D01*
X0287176Y0195899D01*
X0287416Y0195848D01*
X0287655Y0195791D01*
X0287892Y0195729D01*
X0288128Y0195660D01*
X0288362Y0195586D01*
X0288594Y0195506D01*
X0288824Y0195421D01*
X0289052Y0195330D01*
X0289277Y0195233D01*
X0289501Y0195131D01*
X0289721Y0195023D01*
X0289939Y0194910D01*
X0290154Y0194792D01*
X0290366Y0194668D01*
X0290575Y0194540D01*
X0290781Y0194406D01*
X0290983Y0194267D01*
X0291182Y0194123D01*
X0291377Y0193974D01*
X0291569Y0193821D01*
X0291757Y0193663D01*
X0291941Y0193501D01*
X0292120Y0193333D01*
X0292296Y0193162D01*
X0292467Y0192986D01*
X0292635Y0192807D01*
X0292797Y0192623D01*
X0292955Y0192435D01*
X0293108Y0192243D01*
X0293257Y0192048D01*
X0293401Y0191849D01*
X0293540Y0191647D01*
X0293674Y0191441D01*
X0293802Y0191232D01*
X0293926Y0191020D01*
X0294044Y0190805D01*
X0294157Y0190587D01*
X0294265Y0190367D01*
X0294367Y0190143D01*
X0294464Y0189918D01*
X0294555Y0189690D01*
X0294640Y0189460D01*
X0294720Y0189228D01*
X0294794Y0188994D01*
X0294863Y0188758D01*
X0294925Y0188521D01*
X0294982Y0188282D01*
X0295033Y0188042D01*
X0295078Y0187801D01*
X0295117Y0187558D01*
X0295150Y0187315D01*
X0295177Y0187071D01*
X0295198Y0186827D01*
X0295213Y0186582D01*
X0295222Y0186336D01*
X0295225Y0186091D01*
X0295222Y0185846D01*
X0295213Y0185600D01*
X0295198Y0185355D01*
X0295177Y0185111D01*
X0295150Y0184867D01*
X0295117Y0184624D01*
X0295078Y0184381D01*
X0295033Y0184140D01*
X0294982Y0183900D01*
X0294925Y0183661D01*
X0294863Y0183424D01*
X0294794Y0183188D01*
X0294720Y0182954D01*
X0294640Y0182722D01*
X0294555Y0182492D01*
X0294464Y0182264D01*
X0294367Y0182039D01*
X0294265Y0181815D01*
X0294157Y0181595D01*
X0294044Y0181377D01*
X0293926Y0181162D01*
X0293802Y0180950D01*
X0293674Y0180741D01*
X0293540Y0180535D01*
X0293401Y0180333D01*
X0293257Y0180134D01*
X0293108Y0179939D01*
X0292955Y0179747D01*
X0292797Y0179559D01*
X0292635Y0179375D01*
X0292467Y0179196D01*
X0292296Y0179020D01*
X0292120Y0178849D01*
X0291941Y0178681D01*
X0291757Y0178519D01*
X0291569Y0178361D01*
X0291377Y0178208D01*
X0291182Y0178059D01*
X0290983Y0177915D01*
X0290781Y0177776D01*
X0290575Y0177642D01*
X0290366Y0177514D01*
X0290154Y0177390D01*
X0289939Y0177272D01*
X0289721Y0177159D01*
X0289501Y0177051D01*
X0289277Y0176949D01*
X0289052Y0176852D01*
X0288824Y0176761D01*
X0288594Y0176676D01*
X0288362Y0176596D01*
X0288128Y0176522D01*
X0287892Y0176453D01*
X0287655Y0176391D01*
X0287416Y0176334D01*
X0287176Y0176283D01*
X0286935Y0176238D01*
X0286692Y0176199D01*
X0286449Y0176166D01*
X0286205Y0176139D01*
X0285961Y0176118D01*
X0285716Y0176103D01*
X0285470Y0176094D01*
X0285225Y0176091D01*
X0284980Y0176094D01*
X0284734Y0176103D01*
X0284489Y0176118D01*
X0284245Y0176139D01*
X0284001Y0176166D01*
X0283758Y0176199D01*
X0283515Y0176238D01*
X0283274Y0176283D01*
X0283034Y0176334D01*
X0282795Y0176391D01*
X0282558Y0176453D01*
X0282322Y0176522D01*
X0282088Y0176596D01*
X0281856Y0176676D01*
X0281626Y0176761D01*
X0281398Y0176852D01*
X0281173Y0176949D01*
X0280949Y0177051D01*
X0280729Y0177159D01*
X0280511Y0177272D01*
X0280296Y0177390D01*
X0280084Y0177514D01*
X0279875Y0177642D01*
X0279669Y0177776D01*
X0279467Y0177915D01*
X0279268Y0178059D01*
X0279073Y0178208D01*
X0278881Y0178361D01*
X0278693Y0178519D01*
X0278509Y0178681D01*
X0278330Y0178849D01*
X0278154Y0179020D01*
X0277983Y0179196D01*
X0277815Y0179375D01*
X0277653Y0179559D01*
X0277495Y0179747D01*
X0277342Y0179939D01*
X0277193Y0180134D01*
X0277049Y0180333D01*
X0276910Y0180535D01*
X0276776Y0180741D01*
X0276648Y0180950D01*
X0276524Y0181162D01*
X0276406Y0181377D01*
X0276293Y0181595D01*
X0276185Y0181815D01*
X0276083Y0182039D01*
X0275986Y0182264D01*
X0275895Y0182492D01*
X0275810Y0182722D01*
X0275730Y0182954D01*
X0275656Y0183188D01*
X0275587Y0183424D01*
X0275525Y0183661D01*
X0275468Y0183900D01*
X0275417Y0184140D01*
X0275372Y0184381D01*
X0275333Y0184624D01*
X0275300Y0184867D01*
X0275273Y0185111D01*
X0275252Y0185355D01*
X0275237Y0185600D01*
X0275228Y0185846D01*
X0275225Y0186091D01*
X0302216Y0082692D02*
X0302510Y0081221D01*
X0302216Y0082692D02*
X0312023Y0084651D01*
X0312316Y0083180D01*
X0312540Y0076471D02*
X0312474Y0076348D01*
X0312404Y0076226D01*
X0312331Y0076106D01*
X0312255Y0075989D01*
X0312175Y0075874D01*
X0312093Y0075761D01*
X0312007Y0075650D01*
X0311918Y0075542D01*
X0311826Y0075436D01*
X0311732Y0075333D01*
X0311634Y0075233D01*
X0311534Y0075135D01*
X0311430Y0075041D01*
X0311325Y0074949D01*
X0311217Y0074860D01*
X0311106Y0074774D01*
X0310993Y0074692D01*
X0310878Y0074612D01*
X0310760Y0074536D01*
X0310641Y0074463D01*
X0310519Y0074394D01*
X0310396Y0074328D01*
X0310270Y0074265D01*
X0310143Y0074206D01*
X0310015Y0074151D01*
X0309885Y0074099D01*
X0309753Y0074051D01*
X0309621Y0074006D01*
X0309487Y0073965D01*
X0309352Y0073928D01*
X0309216Y0073895D01*
X0309079Y0073866D01*
X0313982Y0074845D02*
X0313688Y0076316D01*
X0313982Y0074845D02*
X0304176Y0072886D01*
X0303882Y0074357D01*
X0304883Y0074940D02*
X0304991Y0074851D01*
X0305102Y0074766D01*
X0305215Y0074684D01*
X0305331Y0074604D01*
X0305448Y0074529D01*
X0305568Y0074456D01*
X0305690Y0074387D01*
X0305813Y0074321D01*
X0305939Y0074259D01*
X0306066Y0074200D01*
X0306194Y0074145D01*
X0306325Y0074093D01*
X0306456Y0074046D01*
X0306589Y0074001D01*
X0306723Y0073961D01*
X0306858Y0073924D01*
X0306994Y0073892D01*
X0307131Y0073863D01*
X0307269Y0073837D01*
X0307407Y0073816D01*
X0307546Y0073799D01*
X0307686Y0073785D01*
X0307825Y0073775D01*
X0307965Y0073770D01*
X0308105Y0073768D01*
X0308245Y0073770D01*
X0308385Y0073776D01*
X0308525Y0073786D01*
X0308664Y0073800D01*
X0308803Y0073818D01*
X0308941Y0073839D01*
X0309079Y0073865D01*
X0311315Y0082597D02*
X0311207Y0082686D01*
X0311096Y0082771D01*
X0310983Y0082853D01*
X0310867Y0082933D01*
X0310750Y0083008D01*
X0310630Y0083081D01*
X0310508Y0083150D01*
X0310385Y0083216D01*
X0310259Y0083278D01*
X0310132Y0083337D01*
X0310004Y0083392D01*
X0309873Y0083444D01*
X0309742Y0083491D01*
X0309609Y0083536D01*
X0309475Y0083576D01*
X0309340Y0083613D01*
X0309204Y0083645D01*
X0309067Y0083674D01*
X0308929Y0083700D01*
X0308791Y0083721D01*
X0308652Y0083738D01*
X0308512Y0083752D01*
X0308373Y0083762D01*
X0308233Y0083767D01*
X0308093Y0083769D01*
X0307953Y0083767D01*
X0307813Y0083761D01*
X0307673Y0083751D01*
X0307534Y0083737D01*
X0307395Y0083719D01*
X0307257Y0083698D01*
X0307119Y0083672D01*
X0307119Y0083671D02*
X0306982Y0083642D01*
X0306846Y0083609D01*
X0306711Y0083572D01*
X0306577Y0083531D01*
X0306445Y0083486D01*
X0306313Y0083438D01*
X0306183Y0083386D01*
X0306055Y0083331D01*
X0305928Y0083272D01*
X0305802Y0083209D01*
X0305679Y0083143D01*
X0305557Y0083074D01*
X0305438Y0083001D01*
X0305320Y0082925D01*
X0305205Y0082845D01*
X0305092Y0082763D01*
X0304981Y0082677D01*
X0304873Y0082588D01*
X0304768Y0082496D01*
X0304664Y0082402D01*
X0304564Y0082304D01*
X0304466Y0082204D01*
X0304372Y0082101D01*
X0304280Y0081995D01*
X0304191Y0081887D01*
X0304105Y0081776D01*
X0304023Y0081663D01*
X0303943Y0081548D01*
X0303867Y0081431D01*
X0303794Y0081311D01*
X0303724Y0081189D01*
X0303658Y0081066D01*
X0318020Y0082745D02*
X0318023Y0082990D01*
X0318032Y0083236D01*
X0318047Y0083481D01*
X0318068Y0083725D01*
X0318095Y0083969D01*
X0318128Y0084212D01*
X0318167Y0084455D01*
X0318212Y0084696D01*
X0318263Y0084936D01*
X0318320Y0085175D01*
X0318382Y0085412D01*
X0318451Y0085648D01*
X0318525Y0085882D01*
X0318605Y0086114D01*
X0318690Y0086344D01*
X0318781Y0086572D01*
X0318878Y0086797D01*
X0318980Y0087021D01*
X0319088Y0087241D01*
X0319201Y0087459D01*
X0319319Y0087674D01*
X0319443Y0087886D01*
X0319571Y0088095D01*
X0319705Y0088301D01*
X0319844Y0088503D01*
X0319988Y0088702D01*
X0320137Y0088897D01*
X0320290Y0089089D01*
X0320448Y0089277D01*
X0320610Y0089461D01*
X0320778Y0089640D01*
X0320949Y0089816D01*
X0321125Y0089987D01*
X0321304Y0090155D01*
X0321488Y0090317D01*
X0321676Y0090475D01*
X0321868Y0090628D01*
X0322063Y0090777D01*
X0322262Y0090921D01*
X0322464Y0091060D01*
X0322670Y0091194D01*
X0322879Y0091322D01*
X0323091Y0091446D01*
X0323306Y0091564D01*
X0323524Y0091677D01*
X0323744Y0091785D01*
X0323968Y0091887D01*
X0324193Y0091984D01*
X0324421Y0092075D01*
X0324651Y0092160D01*
X0324883Y0092240D01*
X0325117Y0092314D01*
X0325353Y0092383D01*
X0325590Y0092445D01*
X0325829Y0092502D01*
X0326069Y0092553D01*
X0326310Y0092598D01*
X0326553Y0092637D01*
X0326796Y0092670D01*
X0327040Y0092697D01*
X0327284Y0092718D01*
X0327529Y0092733D01*
X0327775Y0092742D01*
X0328020Y0092745D01*
X0328265Y0092742D01*
X0328511Y0092733D01*
X0328756Y0092718D01*
X0329000Y0092697D01*
X0329244Y0092670D01*
X0329487Y0092637D01*
X0329730Y0092598D01*
X0329971Y0092553D01*
X0330211Y0092502D01*
X0330450Y0092445D01*
X0330687Y0092383D01*
X0330923Y0092314D01*
X0331157Y0092240D01*
X0331389Y0092160D01*
X0331619Y0092075D01*
X0331847Y0091984D01*
X0332072Y0091887D01*
X0332296Y0091785D01*
X0332516Y0091677D01*
X0332734Y0091564D01*
X0332949Y0091446D01*
X0333161Y0091322D01*
X0333370Y0091194D01*
X0333576Y0091060D01*
X0333778Y0090921D01*
X0333977Y0090777D01*
X0334172Y0090628D01*
X0334364Y0090475D01*
X0334552Y0090317D01*
X0334736Y0090155D01*
X0334915Y0089987D01*
X0335091Y0089816D01*
X0335262Y0089640D01*
X0335430Y0089461D01*
X0335592Y0089277D01*
X0335750Y0089089D01*
X0335903Y0088897D01*
X0336052Y0088702D01*
X0336196Y0088503D01*
X0336335Y0088301D01*
X0336469Y0088095D01*
X0336597Y0087886D01*
X0336721Y0087674D01*
X0336839Y0087459D01*
X0336952Y0087241D01*
X0337060Y0087021D01*
X0337162Y0086797D01*
X0337259Y0086572D01*
X0337350Y0086344D01*
X0337435Y0086114D01*
X0337515Y0085882D01*
X0337589Y0085648D01*
X0337658Y0085412D01*
X0337720Y0085175D01*
X0337777Y0084936D01*
X0337828Y0084696D01*
X0337873Y0084455D01*
X0337912Y0084212D01*
X0337945Y0083969D01*
X0337972Y0083725D01*
X0337993Y0083481D01*
X0338008Y0083236D01*
X0338017Y0082990D01*
X0338020Y0082745D01*
X0338017Y0082500D01*
X0338008Y0082254D01*
X0337993Y0082009D01*
X0337972Y0081765D01*
X0337945Y0081521D01*
X0337912Y0081278D01*
X0337873Y0081035D01*
X0337828Y0080794D01*
X0337777Y0080554D01*
X0337720Y0080315D01*
X0337658Y0080078D01*
X0337589Y0079842D01*
X0337515Y0079608D01*
X0337435Y0079376D01*
X0337350Y0079146D01*
X0337259Y0078918D01*
X0337162Y0078693D01*
X0337060Y0078469D01*
X0336952Y0078249D01*
X0336839Y0078031D01*
X0336721Y0077816D01*
X0336597Y0077604D01*
X0336469Y0077395D01*
X0336335Y0077189D01*
X0336196Y0076987D01*
X0336052Y0076788D01*
X0335903Y0076593D01*
X0335750Y0076401D01*
X0335592Y0076213D01*
X0335430Y0076029D01*
X0335262Y0075850D01*
X0335091Y0075674D01*
X0334915Y0075503D01*
X0334736Y0075335D01*
X0334552Y0075173D01*
X0334364Y0075015D01*
X0334172Y0074862D01*
X0333977Y0074713D01*
X0333778Y0074569D01*
X0333576Y0074430D01*
X0333370Y0074296D01*
X0333161Y0074168D01*
X0332949Y0074044D01*
X0332734Y0073926D01*
X0332516Y0073813D01*
X0332296Y0073705D01*
X0332072Y0073603D01*
X0331847Y0073506D01*
X0331619Y0073415D01*
X0331389Y0073330D01*
X0331157Y0073250D01*
X0330923Y0073176D01*
X0330687Y0073107D01*
X0330450Y0073045D01*
X0330211Y0072988D01*
X0329971Y0072937D01*
X0329730Y0072892D01*
X0329487Y0072853D01*
X0329244Y0072820D01*
X0329000Y0072793D01*
X0328756Y0072772D01*
X0328511Y0072757D01*
X0328265Y0072748D01*
X0328020Y0072745D01*
X0327775Y0072748D01*
X0327529Y0072757D01*
X0327284Y0072772D01*
X0327040Y0072793D01*
X0326796Y0072820D01*
X0326553Y0072853D01*
X0326310Y0072892D01*
X0326069Y0072937D01*
X0325829Y0072988D01*
X0325590Y0073045D01*
X0325353Y0073107D01*
X0325117Y0073176D01*
X0324883Y0073250D01*
X0324651Y0073330D01*
X0324421Y0073415D01*
X0324193Y0073506D01*
X0323968Y0073603D01*
X0323744Y0073705D01*
X0323524Y0073813D01*
X0323306Y0073926D01*
X0323091Y0074044D01*
X0322879Y0074168D01*
X0322670Y0074296D01*
X0322464Y0074430D01*
X0322262Y0074569D01*
X0322063Y0074713D01*
X0321868Y0074862D01*
X0321676Y0075015D01*
X0321488Y0075173D01*
X0321304Y0075335D01*
X0321125Y0075503D01*
X0320949Y0075674D01*
X0320778Y0075850D01*
X0320610Y0076029D01*
X0320448Y0076213D01*
X0320290Y0076401D01*
X0320137Y0076593D01*
X0319988Y0076788D01*
X0319844Y0076987D01*
X0319705Y0077189D01*
X0319571Y0077395D01*
X0319443Y0077604D01*
X0319319Y0077816D01*
X0319201Y0078031D01*
X0319088Y0078249D01*
X0318980Y0078469D01*
X0318878Y0078693D01*
X0318781Y0078918D01*
X0318690Y0079146D01*
X0318605Y0079376D01*
X0318525Y0079608D01*
X0318451Y0079842D01*
X0318382Y0080078D01*
X0318320Y0080315D01*
X0318263Y0080554D01*
X0318212Y0080794D01*
X0318167Y0081035D01*
X0318128Y0081278D01*
X0318095Y0081521D01*
X0318068Y0081765D01*
X0318047Y0082009D01*
X0318032Y0082254D01*
X0318023Y0082500D01*
X0318020Y0082745D01*
D14*
X0312650Y0073450D02*
X0309706Y0072862D01*
X0311178Y0073156D02*
X0312061Y0068740D01*
X0308577Y0070340D02*
X0305633Y0069752D01*
X0305928Y0072107D02*
X0306810Y0067690D01*
X0308577Y0070340D02*
X0305928Y0072107D01*
X0325922Y0068820D02*
X0328572Y0067053D01*
X0325628Y0066465D01*
X0325922Y0068820D02*
X0326805Y0064403D01*
X0330436Y0065894D02*
X0329848Y0068839D01*
X0330437Y0069722D01*
X0332645Y0070163D01*
X0333528Y0065747D01*
X0331320Y0065305D01*
X0330436Y0065894D01*
X0335098Y0066061D02*
X0338043Y0066649D01*
X0337160Y0071065D01*
X0334216Y0070477D01*
X0336129Y0068563D02*
X0337601Y0068857D01*
X0339613Y0066963D02*
X0342557Y0067551D01*
X0341675Y0071968D01*
X0273395Y0163567D02*
X0272147Y0162732D01*
X0271106Y0162938D01*
X0270689Y0163562D01*
X0270895Y0164603D01*
X0271519Y0165021D01*
X0270895Y0164603D02*
X0269853Y0164809D01*
X0269436Y0165433D01*
X0269642Y0166474D01*
X0270890Y0167310D01*
X0271931Y0167103D01*
X0272844Y0168618D02*
X0275339Y0170288D01*
X0274092Y0169453D02*
X0276597Y0165711D01*
X0273601Y0164608D02*
X0273395Y0163567D01*
X0287263Y0169716D02*
X0287680Y0169093D01*
X0288721Y0168886D01*
X0288515Y0167845D01*
X0288933Y0167221D01*
X0289974Y0167015D01*
X0291222Y0167850D01*
X0291428Y0168892D01*
X0292759Y0169783D02*
X0291088Y0172278D01*
X0291295Y0173319D01*
X0293166Y0174572D01*
X0295671Y0170829D01*
X0293800Y0169576D01*
X0292759Y0169783D01*
X0289758Y0171387D02*
X0288716Y0171593D01*
X0287469Y0170758D01*
X0287263Y0169716D01*
X0288721Y0168886D02*
X0289345Y0169304D01*
X0294497Y0175463D02*
X0296992Y0177133D01*
X0299497Y0173390D01*
X0297002Y0171720D01*
X0296997Y0174426D02*
X0298244Y0175262D01*
X0300828Y0174281D02*
X0303323Y0175951D01*
X0300817Y0179694D01*
X0222842Y0257093D02*
X0224508Y0259591D01*
X0220761Y0262090D01*
X0219095Y0259592D01*
X0218206Y0258260D02*
X0216957Y0256387D01*
X0217165Y0255346D01*
X0219663Y0253680D01*
X0220704Y0253888D01*
X0221953Y0255761D01*
X0218206Y0258260D01*
X0221801Y0259592D02*
X0222634Y0260841D01*
X0225396Y0260924D02*
X0227062Y0263422D01*
X0223315Y0265921D01*
X0216276Y0254013D02*
X0215235Y0253805D01*
X0214402Y0252556D01*
X0214610Y0251515D01*
X0215235Y0251099D01*
X0219399Y0251931D01*
X0217733Y0249433D01*
X0207311Y0243880D02*
X0203564Y0246379D01*
X0204397Y0247628D02*
X0202731Y0245130D01*
X0202467Y0243381D02*
X0201426Y0243173D01*
X0200593Y0241924D01*
X0200801Y0240883D01*
X0201425Y0240467D01*
X0205589Y0241299D01*
X0203923Y0238801D01*
X0122712Y0308100D02*
X0123300Y0311045D01*
X0118883Y0311927D01*
X0118295Y0308983D01*
X0117981Y0307412D02*
X0117540Y0305204D01*
X0118129Y0304321D01*
X0121073Y0303733D01*
X0121957Y0304322D01*
X0122398Y0306530D01*
X0117981Y0307412D01*
X0120798Y0310014D02*
X0121092Y0311486D01*
X0123614Y0312615D02*
X0124202Y0315559D01*
X0119786Y0316442D01*
X0118551Y0302604D02*
X0116785Y0301426D01*
X0121202Y0300543D01*
X0121496Y0302015D02*
X0120907Y0299071D01*
X0110894Y0287128D02*
X0106477Y0288010D01*
X0106771Y0289482D02*
X0106183Y0286538D01*
X0107341Y0284674D02*
X0105575Y0283496D01*
X0109991Y0282613D01*
X0110286Y0284085D02*
X0109697Y0281141D01*
M02*
