G75*
%MOIN*%
%OFA0B0*%
%FSLAX25Y25*%
%IPPOS*%
%LPD*%
%AMOC8*
5,1,8,0,0,1.08239X$1,22.5*
%
%ADD10C,0.01600*%
%ADD11C,0.00200*%
%ADD12C,0.00400*%
%ADD13C,0.00500*%
%ADD14R,0.02500X0.02500*%
%ADD15C,0.00800*%
%ADD16R,0.06200X0.02400*%
%ADD17R,0.00787X0.00787*%
%ADD18R,0.00591X0.00984*%
%ADD19C,0.00300*%
%ADD20C,0.00600*%
D10*
X0050737Y0333847D02*
X0058061Y0333758D01*
X0065381Y0333493D01*
X0072693Y0333051D01*
X0079991Y0332432D01*
X0087273Y0331637D01*
X0094533Y0330666D01*
X0101768Y0329520D01*
X0108973Y0328200D01*
X0116143Y0326706D01*
X0123276Y0325039D01*
X0130366Y0323200D01*
X0137410Y0321191D01*
X0144403Y0319012D01*
X0151342Y0316664D01*
X0158221Y0314150D01*
X0165038Y0311470D01*
X0171788Y0308626D01*
X0178468Y0305620D01*
X0185073Y0302453D01*
X0191599Y0299128D01*
X0198043Y0295645D01*
X0204402Y0292009D01*
X0210670Y0288219D01*
X0216845Y0284279D01*
X0222923Y0280192D01*
X0228901Y0275958D01*
X0234774Y0271581D01*
X0240540Y0267064D01*
X0246195Y0262409D01*
X0251736Y0257618D01*
X0257160Y0252695D01*
X0262463Y0247642D01*
X0267642Y0242463D01*
X0272695Y0237160D01*
X0277618Y0231736D01*
X0282409Y0226195D01*
X0287064Y0220540D01*
X0291581Y0214774D01*
X0295958Y0208901D01*
X0300192Y0202923D01*
X0304279Y0196845D01*
X0308219Y0190670D01*
X0312009Y0184402D01*
X0315645Y0178043D01*
X0319128Y0171599D01*
X0322453Y0165073D01*
X0325620Y0158468D01*
X0328626Y0151788D01*
X0331470Y0145038D01*
X0334150Y0138221D01*
X0336664Y0131342D01*
X0339012Y0124403D01*
X0341191Y0117410D01*
X0343200Y0110366D01*
X0345039Y0103276D01*
X0346706Y0096143D01*
X0348200Y0088973D01*
X0349520Y0081768D01*
X0350666Y0074533D01*
X0351637Y0067273D01*
X0352432Y0059991D01*
X0353051Y0052693D01*
X0353493Y0045381D01*
X0353758Y0038061D01*
X0353847Y0030737D01*
X0292824Y0030737D01*
X0292753Y0036587D01*
X0292541Y0042433D01*
X0292188Y0048273D01*
X0291694Y0054102D01*
X0291059Y0059917D01*
X0290284Y0065716D01*
X0289368Y0071494D01*
X0288314Y0077248D01*
X0287121Y0082976D01*
X0285789Y0088672D01*
X0284321Y0094335D01*
X0282716Y0099961D01*
X0280975Y0105546D01*
X0279101Y0111088D01*
X0277092Y0116582D01*
X0274952Y0122027D01*
X0272680Y0127418D01*
X0270279Y0132753D01*
X0267750Y0138028D01*
X0265094Y0143240D01*
X0262313Y0148387D01*
X0259409Y0153465D01*
X0256382Y0158472D01*
X0253236Y0163404D01*
X0249971Y0168258D01*
X0246589Y0173032D01*
X0243094Y0177723D01*
X0239486Y0182328D01*
X0235768Y0186845D01*
X0231942Y0191270D01*
X0228010Y0195602D01*
X0223974Y0199838D01*
X0219838Y0203974D01*
X0215602Y0208010D01*
X0211270Y0211942D01*
X0206845Y0215768D01*
X0202328Y0219486D01*
X0197723Y0223094D01*
X0193032Y0226589D01*
X0188258Y0229971D01*
X0183404Y0233236D01*
X0178472Y0236382D01*
X0173465Y0239409D01*
X0168387Y0242313D01*
X0163240Y0245094D01*
X0158028Y0247750D01*
X0152753Y0250279D01*
X0147418Y0252680D01*
X0142027Y0254952D01*
X0136582Y0257092D01*
X0131088Y0259101D01*
X0125546Y0260975D01*
X0119961Y0262716D01*
X0114335Y0264321D01*
X0108672Y0265789D01*
X0102976Y0267121D01*
X0097248Y0268314D01*
X0091494Y0269368D01*
X0085716Y0270284D01*
X0079917Y0271059D01*
X0074102Y0271694D01*
X0068273Y0272188D01*
X0062433Y0272541D01*
X0056587Y0272753D01*
X0050737Y0272824D01*
X0050737Y0333847D01*
X0145027Y0276097D02*
X0154770Y0270472D01*
X0163520Y0285628D02*
X0153777Y0291253D01*
D11*
X0280621Y0153648D02*
X0282178Y0152091D01*
X0281659Y0151572D02*
X0282697Y0152610D01*
X0280621Y0152610D02*
X0280621Y0153648D01*
X0279837Y0152345D02*
X0280356Y0151826D01*
X0280356Y0151307D01*
X0279578Y0150528D01*
X0280097Y0150009D02*
X0278540Y0151566D01*
X0279318Y0152345D01*
X0279837Y0152345D01*
X0309400Y0116602D02*
X0310501Y0116602D01*
X0310868Y0116235D01*
X0310868Y0114767D01*
X0310501Y0114400D01*
X0309400Y0114400D01*
X0309400Y0116602D01*
X0311610Y0116602D02*
X0312344Y0116602D01*
X0311977Y0116602D02*
X0311977Y0114400D01*
X0311610Y0114400D02*
X0312344Y0114400D01*
X0313083Y0114767D02*
X0313450Y0114400D01*
X0314184Y0114400D01*
X0314551Y0114767D01*
X0314551Y0116235D01*
X0314184Y0116602D01*
X0313450Y0116602D01*
X0313083Y0116235D01*
X0313083Y0114767D01*
X0319400Y0116900D02*
X0319400Y0119102D01*
X0320501Y0119102D01*
X0320868Y0118735D01*
X0320868Y0118001D01*
X0320501Y0117634D01*
X0319400Y0117634D01*
X0320134Y0117634D02*
X0320868Y0116900D01*
X0321610Y0117267D02*
X0321977Y0116900D01*
X0322711Y0116900D01*
X0323078Y0117267D01*
X0323078Y0117634D01*
X0322711Y0118001D01*
X0321977Y0118001D01*
X0321610Y0118368D01*
X0321610Y0118735D01*
X0321977Y0119102D01*
X0322711Y0119102D01*
X0323078Y0118735D01*
X0323820Y0119102D02*
X0325288Y0119102D01*
X0324554Y0119102D02*
X0324554Y0116900D01*
X0305288Y0114102D02*
X0303820Y0112634D01*
X0304187Y0113001D02*
X0305288Y0111900D01*
X0303820Y0111900D02*
X0303820Y0114102D01*
X0301610Y0114102D02*
X0301610Y0111900D01*
X0303078Y0111900D01*
X0300868Y0112267D02*
X0300501Y0111900D01*
X0299767Y0111900D01*
X0299400Y0112267D01*
X0299400Y0113735D01*
X0299767Y0114102D01*
X0300501Y0114102D01*
X0300868Y0113735D01*
D12*
X0302371Y0122000D02*
X0301604Y0122767D01*
X0302371Y0122000D02*
X0303906Y0122000D01*
X0304673Y0122767D01*
X0304673Y0124302D01*
X0303906Y0125069D01*
X0303139Y0125069D01*
X0301604Y0124302D01*
X0301604Y0126604D01*
X0304673Y0126604D01*
X0300069Y0125837D02*
X0299302Y0126604D01*
X0297767Y0126604D01*
X0297000Y0125837D01*
X0297000Y0122767D01*
X0297767Y0122000D01*
X0299302Y0122000D01*
X0300069Y0122767D01*
X0319466Y0152952D02*
X0322721Y0156208D01*
X0319466Y0156208D01*
X0321636Y0154037D01*
X0317296Y0156208D02*
X0316211Y0156208D01*
X0315125Y0157293D01*
X0315125Y0158378D01*
X0317296Y0160548D01*
X0318381Y0160548D01*
X0319466Y0159463D01*
X0319466Y0158378D01*
X0299439Y0174723D02*
X0299333Y0174726D01*
X0299227Y0174725D01*
X0299121Y0174721D01*
X0299016Y0174712D01*
X0298911Y0174700D01*
X0298806Y0174684D01*
X0298702Y0174664D01*
X0298598Y0174641D01*
X0298496Y0174613D01*
X0298395Y0174582D01*
X0298294Y0174548D01*
X0298196Y0174510D01*
X0298098Y0174468D01*
X0298002Y0174423D01*
X0297908Y0174374D01*
X0297816Y0174322D01*
X0297726Y0174266D01*
X0297637Y0174208D01*
X0297551Y0174146D01*
X0297468Y0174081D01*
X0297386Y0174013D01*
X0297307Y0173943D01*
X0297231Y0173869D01*
X0297157Y0173793D01*
X0297087Y0173714D01*
X0297019Y0173632D01*
X0296954Y0173549D01*
X0296892Y0173463D01*
X0296834Y0173374D01*
X0296778Y0173284D01*
X0296726Y0173192D01*
X0296677Y0173098D01*
X0296632Y0173002D01*
X0296590Y0172904D01*
X0296552Y0172806D01*
X0296518Y0172705D01*
X0296487Y0172604D01*
X0296459Y0172502D01*
X0296436Y0172398D01*
X0296416Y0172294D01*
X0296400Y0172189D01*
X0296388Y0172084D01*
X0296379Y0171979D01*
X0296375Y0171873D01*
X0296374Y0171767D01*
X0296377Y0171661D01*
X0299161Y0168877D02*
X0299267Y0168874D01*
X0299373Y0168875D01*
X0299479Y0168879D01*
X0299584Y0168888D01*
X0299689Y0168900D01*
X0299794Y0168916D01*
X0299898Y0168936D01*
X0300002Y0168959D01*
X0300104Y0168987D01*
X0300205Y0169018D01*
X0300306Y0169052D01*
X0300404Y0169090D01*
X0300502Y0169132D01*
X0300598Y0169177D01*
X0300692Y0169226D01*
X0300784Y0169278D01*
X0300874Y0169334D01*
X0300963Y0169392D01*
X0301049Y0169454D01*
X0301132Y0169519D01*
X0301214Y0169587D01*
X0301293Y0169657D01*
X0301369Y0169731D01*
X0301443Y0169807D01*
X0301513Y0169886D01*
X0301581Y0169968D01*
X0301646Y0170051D01*
X0301708Y0170137D01*
X0301766Y0170226D01*
X0301822Y0170316D01*
X0301874Y0170408D01*
X0301923Y0170502D01*
X0301968Y0170598D01*
X0302010Y0170696D01*
X0302048Y0170794D01*
X0302082Y0170895D01*
X0302113Y0170996D01*
X0302141Y0171098D01*
X0302164Y0171202D01*
X0302184Y0171306D01*
X0302200Y0171411D01*
X0302212Y0171516D01*
X0302221Y0171621D01*
X0302225Y0171727D01*
X0302226Y0171833D01*
X0302223Y0171939D01*
X0302721Y0182197D02*
X0301636Y0183282D01*
X0301636Y0184367D01*
X0305977Y0184367D01*
X0303807Y0182197D01*
X0302721Y0182197D01*
X0301636Y0184367D02*
X0303807Y0186537D01*
X0304892Y0186537D01*
X0305977Y0185452D01*
X0305977Y0184367D01*
X0300009Y0184910D02*
X0297838Y0187080D01*
X0296753Y0188165D02*
X0296753Y0190336D01*
X0297296Y0189793D02*
X0295668Y0191421D01*
X0294583Y0190336D02*
X0297838Y0193591D01*
X0299466Y0191963D01*
X0299466Y0190878D01*
X0298381Y0189793D01*
X0297296Y0189793D01*
X0300009Y0189250D02*
X0302179Y0189250D01*
X0298923Y0185995D01*
X0285221Y0190971D02*
X0284583Y0190544D01*
X0283519Y0190755D01*
X0283308Y0189691D01*
X0282670Y0189264D01*
X0281606Y0189475D01*
X0280752Y0190750D01*
X0280963Y0191814D01*
X0279472Y0192663D02*
X0279893Y0194792D01*
X0280320Y0194154D02*
X0279039Y0196067D01*
X0277764Y0195213D02*
X0281590Y0197774D01*
X0282871Y0195862D01*
X0282660Y0194797D01*
X0281384Y0193943D01*
X0280320Y0194154D01*
X0283513Y0193522D02*
X0284578Y0193311D01*
X0285432Y0192036D01*
X0285221Y0190971D01*
X0283519Y0190755D02*
X0283092Y0191393D01*
X0283230Y0172780D02*
X0283230Y0172013D01*
X0280160Y0168944D01*
X0280160Y0168177D01*
X0278626Y0168177D02*
X0277091Y0169711D01*
X0277858Y0169711D02*
X0275556Y0169711D01*
X0275556Y0168177D02*
X0275556Y0172780D01*
X0277858Y0172780D01*
X0278626Y0172013D01*
X0278626Y0170479D01*
X0277858Y0169711D01*
X0280160Y0172780D02*
X0283230Y0172780D01*
X0208240Y0244643D02*
X0208240Y0245410D01*
X0207472Y0246178D01*
X0205170Y0246178D01*
X0205170Y0244643D01*
X0205938Y0243876D01*
X0207472Y0243876D01*
X0208240Y0244643D01*
X0206705Y0247712D02*
X0205170Y0246178D01*
X0203636Y0246178D02*
X0202868Y0245410D01*
X0200566Y0245410D01*
X0200566Y0243876D02*
X0200566Y0248480D01*
X0202868Y0248480D01*
X0203636Y0247712D01*
X0203636Y0246178D01*
X0202101Y0245410D02*
X0203636Y0243876D01*
X0206705Y0247712D02*
X0208240Y0248480D01*
X0192327Y0260924D02*
X0193094Y0262253D01*
X0192813Y0263301D01*
X0192149Y0263685D01*
X0191101Y0263404D01*
X0190717Y0262739D01*
X0191101Y0263404D02*
X0190820Y0264452D01*
X0190155Y0264836D01*
X0189107Y0264555D01*
X0188340Y0263226D01*
X0188621Y0262177D01*
X0187853Y0260848D02*
X0188518Y0260465D01*
X0188799Y0259417D01*
X0189847Y0259697D01*
X0190511Y0259314D01*
X0190792Y0258266D01*
X0190025Y0256937D01*
X0188977Y0256656D01*
X0188415Y0258752D02*
X0188799Y0259417D01*
X0187853Y0260848D02*
X0186805Y0260568D01*
X0186038Y0259238D01*
X0186319Y0258190D01*
X0184887Y0257245D02*
X0183352Y0254587D01*
X0187339Y0252285D01*
X0186572Y0250956D02*
X0185037Y0248298D01*
X0181050Y0250600D01*
X0185346Y0253436D02*
X0186113Y0254765D01*
X0191279Y0260643D02*
X0192327Y0260924D01*
X0193581Y0264630D02*
X0194629Y0264911D01*
X0195396Y0266240D01*
X0195115Y0267288D01*
X0192457Y0268823D02*
X0191409Y0268542D01*
X0190642Y0267213D01*
X0190923Y0266165D01*
X0193581Y0264630D01*
X0199923Y0274607D02*
X0199497Y0276735D01*
X0200136Y0276310D02*
X0201200Y0276522D01*
X0202051Y0277799D01*
X0201839Y0278863D01*
X0199924Y0280140D01*
X0197369Y0276310D01*
X0198221Y0277587D02*
X0200136Y0276310D01*
X0201199Y0273756D02*
X0205456Y0274606D01*
X0205882Y0275245D01*
X0205669Y0276309D01*
X0204392Y0277160D01*
X0203328Y0276948D01*
X0201199Y0273756D02*
X0203753Y0272053D01*
X0153159Y0297502D02*
X0150089Y0297502D01*
X0153159Y0300571D01*
X0153159Y0301338D01*
X0152391Y0302105D01*
X0150857Y0302105D01*
X0150089Y0301338D01*
X0148555Y0301338D02*
X0147787Y0302105D01*
X0146253Y0302105D01*
X0145485Y0301338D01*
X0145485Y0298269D01*
X0146253Y0297502D01*
X0147787Y0297502D01*
X0148555Y0298269D01*
X0143906Y0312000D02*
X0144673Y0312767D01*
X0144673Y0313535D01*
X0143906Y0314302D01*
X0141604Y0314302D01*
X0141604Y0312767D01*
X0142371Y0312000D01*
X0143906Y0312000D01*
X0141604Y0314302D02*
X0143139Y0315837D01*
X0144673Y0316604D01*
X0140069Y0315837D02*
X0139302Y0316604D01*
X0137767Y0316604D01*
X0137000Y0315837D01*
X0137000Y0312767D01*
X0137767Y0312000D01*
X0139302Y0312000D01*
X0140069Y0312767D01*
X0121100Y0294465D02*
X0121100Y0291396D01*
X0121100Y0292931D02*
X0116496Y0292931D01*
X0118031Y0291396D01*
X0117263Y0289861D02*
X0116496Y0289094D01*
X0116496Y0286792D01*
X0121100Y0286792D01*
X0121100Y0289094D01*
X0120333Y0289861D01*
X0117263Y0289861D01*
X0114785Y0279988D02*
X0111716Y0279988D01*
X0111716Y0277686D01*
X0113251Y0278453D01*
X0114018Y0278453D01*
X0114785Y0277686D01*
X0114785Y0276151D01*
X0114018Y0275384D01*
X0112483Y0275384D01*
X0111716Y0276151D01*
X0110181Y0275384D02*
X0108647Y0276918D01*
X0109414Y0276918D02*
X0107112Y0276918D01*
X0107112Y0275384D02*
X0107112Y0279988D01*
X0109414Y0279988D01*
X0110181Y0279220D01*
X0110181Y0277686D01*
X0109414Y0276918D01*
X0117985Y0268838D02*
X0118753Y0269605D01*
X0120287Y0269605D01*
X0121055Y0268838D01*
X0122589Y0268071D02*
X0124124Y0269605D01*
X0124124Y0265002D01*
X0122589Y0265002D02*
X0125659Y0265002D01*
X0121055Y0265769D02*
X0120287Y0265002D01*
X0118753Y0265002D01*
X0117985Y0265769D01*
X0117985Y0268838D01*
X0097715Y0306629D02*
X0094704Y0307225D01*
X0093199Y0307523D02*
X0091991Y0309326D01*
X0092744Y0309177D02*
X0090486Y0309624D01*
X0090188Y0308119D02*
X0091082Y0312635D01*
X0093340Y0312188D01*
X0093944Y0311286D01*
X0093646Y0309781D01*
X0092744Y0309177D01*
X0095300Y0310236D02*
X0097104Y0311443D01*
X0096210Y0306927D01*
X0113996Y0311792D02*
X0113996Y0314094D01*
X0114763Y0314861D01*
X0117833Y0314861D01*
X0118600Y0314094D01*
X0118600Y0311792D01*
X0113996Y0311792D01*
X0114763Y0316396D02*
X0113996Y0317163D01*
X0113996Y0318698D01*
X0114763Y0319465D01*
X0115531Y0319465D01*
X0118600Y0316396D01*
X0118600Y0319465D01*
X0333997Y0094584D02*
X0338512Y0095487D01*
X0338963Y0093229D01*
X0338361Y0092326D01*
X0336856Y0092026D01*
X0335953Y0092628D01*
X0335502Y0094885D01*
X0335803Y0093380D02*
X0334598Y0091575D01*
X0337156Y0090521D02*
X0337758Y0087511D01*
X0339865Y0088715D02*
X0337156Y0090521D01*
X0335350Y0087812D02*
X0339865Y0088715D01*
X0338906Y0074104D02*
X0337371Y0074104D01*
X0336604Y0073337D01*
X0335069Y0073337D02*
X0334302Y0074104D01*
X0332767Y0074104D01*
X0332000Y0073337D01*
X0332000Y0070267D01*
X0332767Y0069500D01*
X0334302Y0069500D01*
X0335069Y0070267D01*
X0336604Y0070267D02*
X0337371Y0069500D01*
X0338906Y0069500D01*
X0339673Y0070267D01*
X0339673Y0071035D01*
X0338906Y0071802D01*
X0338139Y0071802D01*
X0338906Y0071802D02*
X0339673Y0072569D01*
X0339673Y0073337D01*
X0338906Y0074104D01*
X0318217Y0069983D02*
X0318217Y0068448D01*
X0317450Y0067681D01*
X0316683Y0067681D01*
X0315915Y0068448D01*
X0315915Y0069983D01*
X0316683Y0070750D01*
X0317450Y0070750D01*
X0318217Y0069983D01*
X0315915Y0069983D02*
X0315148Y0070750D01*
X0314381Y0070750D01*
X0313613Y0069983D01*
X0313613Y0068448D01*
X0314381Y0067681D01*
X0315148Y0067681D01*
X0315915Y0068448D01*
X0315915Y0066146D02*
X0314381Y0066146D01*
X0313613Y0065379D01*
X0313613Y0063077D01*
X0318217Y0063077D01*
X0316683Y0063077D02*
X0316683Y0065379D01*
X0315915Y0066146D01*
X0316683Y0064611D02*
X0318217Y0066146D01*
D13*
X0304484Y0043676D02*
X0301482Y0043676D01*
X0301482Y0041424D01*
X0302983Y0042175D01*
X0303733Y0042175D01*
X0304484Y0041424D01*
X0304484Y0039923D01*
X0303733Y0039172D01*
X0302232Y0039172D01*
X0301482Y0039923D01*
X0334774Y0039923D02*
X0335524Y0039172D01*
X0337026Y0039172D01*
X0337776Y0039923D01*
X0337776Y0040673D01*
X0337026Y0041424D01*
X0335524Y0041424D01*
X0334774Y0042175D01*
X0334774Y0042925D01*
X0335524Y0043676D01*
X0337026Y0043676D01*
X0337776Y0042925D01*
X0339378Y0043676D02*
X0339378Y0040673D01*
X0340879Y0039172D01*
X0342380Y0040673D01*
X0342380Y0043676D01*
X0343981Y0042175D02*
X0345483Y0043676D01*
X0345483Y0039172D01*
X0346984Y0039172D02*
X0343981Y0039172D01*
X0344484Y0057172D02*
X0341482Y0057172D01*
X0342983Y0057172D02*
X0342983Y0061676D01*
X0341482Y0060175D01*
X0329001Y0109076D02*
X0331822Y0110103D01*
X0330411Y0109589D02*
X0328871Y0113822D01*
X0327974Y0111898D01*
X0300976Y0128989D02*
X0312111Y0140124D01*
X0292624Y0159611D01*
X0281489Y0148476D01*
X0300976Y0128989D01*
X0304575Y0140124D02*
X0304577Y0140212D01*
X0304583Y0140300D01*
X0304593Y0140388D01*
X0304607Y0140476D01*
X0304624Y0140562D01*
X0304646Y0140648D01*
X0304671Y0140732D01*
X0304701Y0140816D01*
X0304733Y0140898D01*
X0304770Y0140978D01*
X0304810Y0141057D01*
X0304854Y0141134D01*
X0304901Y0141209D01*
X0304951Y0141281D01*
X0305005Y0141352D01*
X0305061Y0141419D01*
X0305121Y0141485D01*
X0305183Y0141547D01*
X0305249Y0141607D01*
X0305316Y0141663D01*
X0305387Y0141717D01*
X0305459Y0141767D01*
X0305534Y0141814D01*
X0305611Y0141858D01*
X0305690Y0141898D01*
X0305770Y0141935D01*
X0305852Y0141967D01*
X0305936Y0141997D01*
X0306020Y0142022D01*
X0306106Y0142044D01*
X0306192Y0142061D01*
X0306280Y0142075D01*
X0306368Y0142085D01*
X0306456Y0142091D01*
X0306544Y0142093D01*
X0306632Y0142091D01*
X0306720Y0142085D01*
X0306808Y0142075D01*
X0306896Y0142061D01*
X0306982Y0142044D01*
X0307068Y0142022D01*
X0307152Y0141997D01*
X0307236Y0141967D01*
X0307318Y0141935D01*
X0307398Y0141898D01*
X0307477Y0141858D01*
X0307554Y0141814D01*
X0307629Y0141767D01*
X0307701Y0141717D01*
X0307772Y0141663D01*
X0307839Y0141607D01*
X0307905Y0141547D01*
X0307967Y0141485D01*
X0308027Y0141419D01*
X0308083Y0141352D01*
X0308137Y0141281D01*
X0308187Y0141209D01*
X0308234Y0141134D01*
X0308278Y0141057D01*
X0308318Y0140978D01*
X0308355Y0140898D01*
X0308387Y0140816D01*
X0308417Y0140732D01*
X0308442Y0140648D01*
X0308464Y0140562D01*
X0308481Y0140476D01*
X0308495Y0140388D01*
X0308505Y0140300D01*
X0308511Y0140212D01*
X0308513Y0140124D01*
X0308511Y0140036D01*
X0308505Y0139948D01*
X0308495Y0139860D01*
X0308481Y0139772D01*
X0308464Y0139686D01*
X0308442Y0139600D01*
X0308417Y0139516D01*
X0308387Y0139432D01*
X0308355Y0139350D01*
X0308318Y0139270D01*
X0308278Y0139191D01*
X0308234Y0139114D01*
X0308187Y0139039D01*
X0308137Y0138967D01*
X0308083Y0138896D01*
X0308027Y0138829D01*
X0307967Y0138763D01*
X0307905Y0138701D01*
X0307839Y0138641D01*
X0307772Y0138585D01*
X0307701Y0138531D01*
X0307629Y0138481D01*
X0307554Y0138434D01*
X0307477Y0138390D01*
X0307398Y0138350D01*
X0307318Y0138313D01*
X0307236Y0138281D01*
X0307152Y0138251D01*
X0307068Y0138226D01*
X0306982Y0138204D01*
X0306896Y0138187D01*
X0306808Y0138173D01*
X0306720Y0138163D01*
X0306632Y0138157D01*
X0306544Y0138155D01*
X0306456Y0138157D01*
X0306368Y0138163D01*
X0306280Y0138173D01*
X0306192Y0138187D01*
X0306106Y0138204D01*
X0306020Y0138226D01*
X0305936Y0138251D01*
X0305852Y0138281D01*
X0305770Y0138313D01*
X0305690Y0138350D01*
X0305611Y0138390D01*
X0305534Y0138434D01*
X0305459Y0138481D01*
X0305387Y0138531D01*
X0305316Y0138585D01*
X0305249Y0138641D01*
X0305183Y0138701D01*
X0305121Y0138763D01*
X0305061Y0138829D01*
X0305005Y0138896D01*
X0304951Y0138967D01*
X0304901Y0139039D01*
X0304854Y0139114D01*
X0304810Y0139191D01*
X0304770Y0139270D01*
X0304733Y0139350D01*
X0304701Y0139432D01*
X0304671Y0139516D01*
X0304646Y0139600D01*
X0304624Y0139686D01*
X0304607Y0139772D01*
X0304593Y0139860D01*
X0304583Y0139948D01*
X0304577Y0140036D01*
X0304575Y0140124D01*
X0286820Y0098517D02*
X0285474Y0095630D01*
X0288296Y0096657D01*
X0288361Y0094284D02*
X0286820Y0098517D01*
X0245616Y0194866D02*
X0244012Y0196470D01*
X0244814Y0195668D02*
X0247221Y0198074D01*
X0245616Y0198074D01*
X0242382Y0201641D02*
X0244506Y0203764D01*
X0245638Y0204896D02*
X0247761Y0207019D01*
X0246699Y0205958D02*
X0243515Y0209143D01*
X0243515Y0207019D01*
X0239198Y0204826D02*
X0242382Y0201641D01*
X0240719Y0201039D02*
X0240719Y0199978D01*
X0239658Y0198916D01*
X0238596Y0198916D01*
X0238065Y0200509D02*
X0239127Y0201570D01*
X0240189Y0201570D01*
X0240719Y0201039D01*
X0238065Y0200509D02*
X0237004Y0200509D01*
X0236473Y0201039D01*
X0236473Y0202101D01*
X0237535Y0203162D01*
X0238596Y0203162D01*
X0174545Y0254725D02*
X0152895Y0267225D01*
X0154770Y0270472D01*
X0163520Y0285628D01*
X0165395Y0288875D01*
X0187045Y0276375D01*
X0174545Y0254725D01*
X0081672Y0282232D02*
X0080921Y0281482D01*
X0081672Y0282232D02*
X0081672Y0283733D01*
X0080921Y0284484D01*
X0079420Y0284484D01*
X0078669Y0283733D01*
X0078669Y0282983D01*
X0079420Y0281482D01*
X0077168Y0281482D01*
X0077168Y0284484D01*
X0077919Y0314774D02*
X0078669Y0314774D01*
X0079420Y0315524D01*
X0079420Y0317026D01*
X0080171Y0317776D01*
X0080921Y0317776D01*
X0081672Y0317026D01*
X0081672Y0315524D01*
X0080921Y0314774D01*
X0077919Y0314774D02*
X0077168Y0315524D01*
X0077168Y0317026D01*
X0077919Y0317776D01*
X0077168Y0319378D02*
X0080171Y0319378D01*
X0081672Y0320879D01*
X0080171Y0322380D01*
X0077168Y0322380D01*
X0077919Y0323981D02*
X0077168Y0324732D01*
X0077168Y0326233D01*
X0077919Y0326984D01*
X0078669Y0326984D01*
X0081672Y0323981D01*
X0081672Y0326984D01*
X0063672Y0324484D02*
X0063672Y0321482D01*
X0063672Y0322983D02*
X0059168Y0322983D01*
X0060669Y0321482D01*
D14*
G36*
X0156355Y0278218D02*
X0157605Y0280382D01*
X0159769Y0279132D01*
X0158519Y0276968D01*
X0156355Y0278218D01*
G37*
D15*
X0128769Y0282331D02*
X0124831Y0282331D01*
X0126800Y0286269D01*
X0128769Y0282331D01*
X0124300Y0307331D02*
X0126269Y0311269D01*
X0122331Y0311269D01*
X0124300Y0307331D01*
D16*
X0124300Y0307100D03*
X0126800Y0286500D03*
D17*
G36*
X0299855Y0171800D02*
X0299300Y0171245D01*
X0298745Y0171800D01*
X0299300Y0172355D01*
X0299855Y0171800D01*
G37*
D18*
G36*
X0302918Y0171522D02*
X0302501Y0171105D01*
X0301806Y0171800D01*
X0302223Y0172217D01*
X0302918Y0171522D01*
G37*
D19*
X0294183Y0163305D02*
X0292815Y0164673D01*
X0291789Y0163647D01*
X0292815Y0163305D01*
X0293157Y0162963D01*
X0293157Y0162278D01*
X0292473Y0161594D01*
X0291789Y0161594D01*
X0291105Y0162278D01*
X0291105Y0162963D01*
X0290389Y0163678D02*
X0291758Y0165046D01*
X0291758Y0165730D01*
X0290731Y0166756D01*
X0288679Y0164704D01*
X0289705Y0163678D01*
X0290389Y0163678D01*
X0287964Y0165419D02*
X0286596Y0166788D01*
X0288648Y0168840D01*
X0290016Y0167472D01*
X0288306Y0167130D02*
X0287622Y0167814D01*
X0285880Y0167503D02*
X0284512Y0168871D01*
X0286564Y0170923D01*
X0319971Y0100429D02*
X0321789Y0101091D01*
X0322739Y0101437D02*
X0323732Y0098710D01*
X0323401Y0099619D02*
X0324765Y0100115D01*
X0325054Y0100735D01*
X0324723Y0101644D01*
X0324103Y0101934D01*
X0322739Y0101437D01*
X0324310Y0099950D02*
X0325550Y0099372D01*
X0322782Y0098364D02*
X0320963Y0097702D01*
X0319971Y0100429D01*
X0319020Y0100084D02*
X0320013Y0097356D01*
X0320467Y0099066D02*
X0321376Y0099397D01*
X0319020Y0100084D02*
X0318442Y0098843D01*
X0317202Y0099422D01*
X0318195Y0096694D01*
X0317244Y0096348D02*
X0316251Y0099076D01*
X0315673Y0097836D01*
X0314433Y0098414D01*
X0315426Y0095687D01*
X0314475Y0095341D02*
X0313813Y0097159D01*
X0312573Y0097737D01*
X0311995Y0096497D01*
X0312657Y0094679D01*
X0311706Y0094333D02*
X0310466Y0094911D01*
X0310921Y0095076D02*
X0309557Y0094580D01*
X0309888Y0093671D02*
X0308895Y0096398D01*
X0310259Y0096895D01*
X0310879Y0096606D01*
X0311210Y0095697D01*
X0310921Y0095076D01*
X0312161Y0096042D02*
X0313979Y0096704D01*
X0308441Y0094689D02*
X0307532Y0094358D01*
X0308441Y0094689D02*
X0308772Y0093780D01*
X0308483Y0093160D01*
X0307574Y0092829D01*
X0306954Y0093118D01*
X0306292Y0094936D01*
X0306581Y0095556D01*
X0307490Y0095887D01*
X0308110Y0095598D01*
X0305342Y0094590D02*
X0306003Y0092772D01*
X0305714Y0092152D01*
X0304805Y0091821D01*
X0304185Y0092110D01*
X0303523Y0093928D01*
X0303812Y0094548D01*
X0304722Y0094879D01*
X0305342Y0094590D01*
X0302573Y0093582D02*
X0302904Y0092673D01*
X0302614Y0092053D01*
X0301251Y0091557D01*
X0302160Y0091888D02*
X0303400Y0091310D01*
X0301582Y0090648D02*
X0300589Y0093375D01*
X0301953Y0093871D01*
X0302573Y0093582D01*
X0299804Y0092575D02*
X0299184Y0092864D01*
X0297820Y0092367D01*
X0298813Y0089640D01*
X0298482Y0090549D02*
X0299846Y0091045D01*
X0300135Y0091665D01*
X0299804Y0092575D01*
D20*
X0299264Y0095326D02*
X0300758Y0098531D01*
X0303962Y0097036D01*
X0308661Y0098746D01*
X0310155Y0101951D01*
X0313359Y0100457D01*
X0318058Y0102167D01*
X0319552Y0105371D01*
X0322756Y0103877D01*
X0327455Y0105587D01*
X0328949Y0108791D01*
X0327239Y0113490D01*
X0324035Y0114984D01*
X0319336Y0113274D01*
X0317842Y0110069D01*
X0314638Y0111564D01*
X0309939Y0109854D01*
X0308445Y0106649D01*
X0305241Y0108143D01*
X0300542Y0106433D01*
X0299048Y0103229D01*
X0295844Y0104723D01*
X0291145Y0103013D01*
X0289651Y0099809D01*
X0291361Y0095110D01*
X0294565Y0093616D01*
X0299264Y0095326D01*
X0300835Y0055422D02*
X0298335Y0052922D01*
X0298335Y0047922D01*
X0300835Y0045422D01*
X0305835Y0045422D01*
X0308335Y0047922D01*
X0310835Y0045422D01*
X0315835Y0045422D01*
X0318335Y0047922D01*
X0320835Y0045422D01*
X0325835Y0045422D01*
X0328335Y0047922D01*
X0330835Y0045422D01*
X0335835Y0045422D01*
X0338335Y0047922D01*
X0340835Y0045422D01*
X0345835Y0045422D01*
X0348335Y0047922D01*
X0348335Y0052922D01*
X0345835Y0055422D01*
X0340835Y0055422D01*
X0338335Y0052922D01*
X0335835Y0055422D01*
X0330835Y0055422D01*
X0328335Y0052922D01*
X0325835Y0055422D01*
X0320835Y0055422D01*
X0318335Y0052922D01*
X0315835Y0055422D01*
X0310835Y0055422D01*
X0308335Y0052922D01*
X0305835Y0055422D01*
X0300835Y0055422D01*
X0253693Y0183465D02*
X0252279Y0184880D01*
X0251572Y0185587D01*
X0252633Y0186647D01*
X0251926Y0187355D01*
X0255461Y0190890D01*
X0256168Y0190183D01*
X0257229Y0191244D01*
X0248390Y0200082D01*
X0249804Y0200082D01*
X0249804Y0201497D01*
X0258643Y0192658D01*
X0259704Y0193719D01*
X0258997Y0194426D01*
X0262532Y0197961D01*
X0263239Y0197254D01*
X0264300Y0198315D01*
X0255108Y0207507D01*
X0256522Y0208921D01*
X0262179Y0214578D01*
X0263593Y0215992D01*
X0268896Y0221296D01*
X0269603Y0221296D01*
X0278442Y0212457D01*
X0279856Y0213871D01*
X0271018Y0222710D01*
X0271018Y0223417D01*
X0276321Y0228720D01*
X0285513Y0219528D01*
X0286220Y0218821D01*
X0285160Y0217760D01*
X0284453Y0218467D01*
X0283745Y0219174D01*
X0280210Y0215639D01*
X0280917Y0214932D01*
X0279856Y0213871D01*
X0280917Y0214932D02*
X0281624Y0214225D01*
X0278089Y0210689D01*
X0277381Y0211396D01*
X0278442Y0212457D01*
X0277381Y0211396D02*
X0276674Y0212103D01*
X0273139Y0208568D01*
X0273846Y0207861D01*
X0272785Y0206800D01*
X0271371Y0205386D01*
X0270310Y0204325D01*
X0269603Y0205032D01*
X0266068Y0201497D01*
X0266775Y0200790D01*
X0265714Y0199729D01*
X0256522Y0208921D01*
X0255108Y0207507D02*
X0249804Y0202204D01*
X0249804Y0201497D01*
X0248390Y0200082D02*
X0247683Y0200082D01*
X0242380Y0194779D01*
X0251572Y0185587D01*
X0252279Y0184880D02*
X0253340Y0185940D01*
X0252633Y0186647D01*
X0253693Y0183465D02*
X0259350Y0189122D01*
X0258997Y0189476D01*
X0260411Y0190890D01*
X0260764Y0190537D01*
X0266421Y0196193D01*
X0266068Y0196547D01*
X0267482Y0197961D01*
X0267836Y0197608D01*
X0273492Y0203264D01*
X0273139Y0203618D01*
X0274553Y0205032D01*
X0274907Y0204679D01*
X0280563Y0210336D01*
X0280210Y0210689D01*
X0281624Y0212103D01*
X0281978Y0211750D01*
X0287635Y0217407D01*
X0286220Y0218821D01*
X0285513Y0219528D02*
X0284453Y0218467D01*
X0276321Y0228720D02*
X0274199Y0230842D01*
X0272078Y0228720D01*
X0271725Y0229074D01*
X0270310Y0227660D01*
X0270664Y0227306D01*
X0268543Y0225185D01*
X0268896Y0224831D01*
X0267482Y0223417D01*
X0267128Y0223771D01*
X0265007Y0221649D01*
X0264654Y0222003D01*
X0263239Y0220589D01*
X0263593Y0220235D01*
X0261472Y0218114D01*
X0261825Y0217760D01*
X0260411Y0216346D01*
X0260057Y0216699D01*
X0257936Y0214578D01*
X0257582Y0214932D01*
X0256168Y0213518D01*
X0256522Y0213164D01*
X0254401Y0211043D01*
X0254754Y0210689D01*
X0253340Y0209275D01*
X0252986Y0209628D01*
X0250865Y0207507D01*
X0250511Y0207861D01*
X0249097Y0206446D01*
X0249451Y0206093D01*
X0247329Y0203972D01*
X0247683Y0203618D01*
X0246269Y0202204D01*
X0245915Y0202557D01*
X0243794Y0200436D01*
X0243440Y0200790D01*
X0242026Y0199375D01*
X0242380Y0199022D01*
X0240258Y0196901D01*
X0242380Y0194779D01*
X0256168Y0190183D02*
X0256875Y0189476D01*
X0260411Y0193011D01*
X0259704Y0193719D01*
X0258643Y0192658D02*
X0257229Y0191244D01*
X0263239Y0197254D02*
X0263946Y0196547D01*
X0267482Y0200082D01*
X0266775Y0200790D01*
X0265714Y0199729D02*
X0264300Y0198315D01*
X0270310Y0204325D02*
X0271018Y0203618D01*
X0274553Y0207154D01*
X0273846Y0207861D01*
X0272785Y0206800D02*
X0263593Y0215992D01*
X0262179Y0214578D02*
X0271371Y0205386D01*
X0271018Y0221296D02*
X0269603Y0221296D01*
X0271018Y0221296D02*
X0271018Y0222710D01*
X0075422Y0280835D02*
X0072922Y0278335D01*
X0067922Y0278335D01*
X0065422Y0280835D01*
X0065422Y0285835D01*
X0067922Y0288335D01*
X0065422Y0290835D01*
X0065422Y0295835D01*
X0067922Y0298335D01*
X0065422Y0300835D01*
X0065422Y0305835D01*
X0067922Y0308335D01*
X0065422Y0310835D01*
X0065422Y0315835D01*
X0067922Y0318335D01*
X0065422Y0320835D01*
X0065422Y0325835D01*
X0067922Y0328335D01*
X0072922Y0328335D01*
X0075422Y0325835D01*
X0075422Y0320835D01*
X0072922Y0318335D01*
X0075422Y0315835D01*
X0075422Y0310835D01*
X0072922Y0308335D01*
X0075422Y0305835D01*
X0075422Y0300835D01*
X0072922Y0298335D01*
X0075422Y0295835D01*
X0075422Y0290835D01*
X0072922Y0288335D01*
X0075422Y0285835D01*
X0075422Y0280835D01*
M02*
