%
M48
M72
T01C0.02362
T02C0.03600
T03C0.04000
T04C0.05500
T05C0.12598
%
T01
X213050Y85550
X209300Y100550
X154300Y133050
X181800Y181800
X351800Y106800
X346800Y106800
X346800Y101800
X351800Y101800
X356800Y101800
X356800Y106800
X356800Y111800
X354300Y116800
X349300Y116800
X346800Y111800
X351800Y111800
X354300Y96800
X349300Y96800
X231800Y151800
X228050Y131800
X239300Y193050
X258050Y190550
X366800Y301800
X209300Y218050
X213050Y184300
X224300Y166800
X291800Y173050
X283050Y173050
T02
X96800Y341800
X86800Y341800
X96800Y331800
X86800Y331800
X96800Y321800
X86800Y321800
X96800Y311800
X86800Y311800
X96800Y301800
X86800Y301800
X96800Y291800
X86800Y291800
X96800Y281800
X86800Y281800
X96800Y271800
X86800Y271800
X96800Y261800
X86800Y261800
X96800Y251800
X86800Y251800
X161800Y341800
X151800Y341800
X161800Y331800
X151800Y331800
X161800Y321800
X151800Y321800
X161800Y311800
X151800Y311800
X161800Y301800
X151800Y301800
X161800Y291800
X151800Y291800
X161800Y281800
X151800Y281800
X161800Y271800
X151800Y271800
X161800Y261800
X151800Y261800
X161800Y251800
X151800Y251800
X226800Y341800
X216800Y341800
X226800Y331800
X216800Y331800
X226800Y321800
X216800Y321800
X226800Y311800
X216800Y311800
X226800Y301800
X216800Y301800
X226800Y291800
X216800Y291800
X226800Y281800
X216800Y281800
X226800Y271800
X216800Y271800
X226800Y261800
X216800Y261800
X226800Y251800
X216800Y251800
X291800Y341800
X281800Y341800
X291800Y331800
X281800Y331800
X291800Y321800
X281800Y321800
X291800Y311800
X281800Y311800
X291800Y301800
X281800Y301800
X291800Y291800
X281800Y291800
X291800Y281800
X281800Y281800
X291800Y271800
X281800Y271800
X291800Y261800
X281800Y261800
X291800Y251800
X281800Y251800
X356800Y341800
X346800Y341800
X356800Y331800
X346800Y331800
X356800Y321800
X346800Y321800
X356800Y311800
X346800Y311800
X356800Y301800
X346800Y301800
X356800Y291800
X346800Y291800
X356800Y281800
X346800Y281800
X356800Y271800
X346800Y271800
X356800Y261800
X346800Y261800
X356800Y251800
X346800Y251800
X421800Y341800
X411800Y341800
X421800Y331800
X411800Y331800
X421800Y321800
X411800Y321800
X421800Y311800
X411800Y311800
X421800Y301800
X411800Y301800
X421800Y291800
X411800Y291800
X421800Y281800
X411800Y281800
X421800Y271800
X411800Y271800
X421800Y261800
X411800Y261800
X421800Y251800
X411800Y251800
X56800Y266800
X56800Y276800
X56800Y286800
X56800Y296800
X56800Y306800
X56800Y316800
X121800Y266800
X121800Y276800
X121800Y286800
X121800Y296800
X121800Y306800
X121800Y316800
X186800Y266800
X186800Y276800
X186800Y286800
X186800Y296800
X186800Y306800
X186800Y316800
X251800Y266800
X251800Y276800
X251800Y286800
X251800Y296800
X251800Y306800
X251800Y316800
X316800Y266800
X316800Y276800
X316800Y286800
X316800Y296800
X316800Y306800
X316800Y316800
X381800Y266800
X381800Y276800
X381800Y286800
X381800Y296800
X381800Y306800
X381800Y316800
X216800Y229300
X226800Y229300
X236800Y229300
X246800Y229300
X256800Y229300
X161800Y229300
X171800Y229300
X181800Y229300
X191800Y229300
X201800Y229300
X101800Y229300
X111800Y229300
X121800Y229300
X131800Y229300
X141800Y229300
X271800Y228050
X281800Y228050
X291800Y228050
X301800Y228050
X311800Y228050
X321800Y208050
X321800Y198050
X321800Y188050
X321800Y178050
X321800Y168050
X321800Y158050
X321800Y144300
X321800Y134300
X321800Y124300
X321800Y114300
X321800Y104300
X321800Y94300
X229300Y71800
X219300Y71800
X209300Y71800
X199300Y71800
X189300Y71800
X169300Y71800
X179300Y71800
X366800Y71800
X356800Y71800
X346800Y71800
X336800Y71800
X326800Y71800
X306800Y71800
X316800Y71800
X300550Y201800
X290550Y201800
X280550Y201800
X270550Y201800
X85550Y165550
X85550Y175550
X85550Y185550
X85550Y195550
X85550Y205550
X85550Y215550
X296800Y71800
X286800Y71800
X276800Y71800
X266800Y71800
X256800Y71800
X246800Y71800
X416800Y236800
X416800Y226800
X416800Y216800
X416800Y206800
X416800Y196800
X416800Y176800
X416800Y186800
X416800Y156800
X416800Y166800
X391800Y236800
X391800Y226800
X391800Y216800
X391800Y206800
X391800Y196800
X391800Y176800
X391800Y186800
X391800Y156800
X391800Y166800
X344300Y221800
X354300Y221800
X344300Y161800
X354300Y161800
X63050Y174300
X53050Y174300
X63050Y164300
X53050Y164300
X63050Y154300
X53050Y154300
X63050Y144300
X53050Y144300
X63050Y134300
X53050Y134300
X141800Y156800
X131800Y156800
X121800Y156800
X111800Y156800
X101800Y156800
T03
X301800Y131800
X301800Y141800
X301800Y151800
X301800Y161800
X58050Y215550
X58050Y205550
X58050Y195550
X68050Y215550
X68050Y205550
X68050Y195550
T04
X381800Y111800
X400550Y111800
X419300Y111800
X381800Y86800
X400550Y86800
X419300Y86800
T05
X415816Y61485
X61485Y61485
X61485Y337076
X386288Y337076
M30
